<?xml version="1.0" encoding="utf-8"?>
<!-- Generator: Adobe Illustrator 24.1.2, SVG Export Plug-In . SVG Version: 6.00 Build 0)  -->
<svg version="1.1" id="Layer_1" xmlns="http://www.w3.org/2000/svg" xmlns:xlink="http://www.w3.org/1999/xlink" x="0px" y="0px"
	 viewBox="0 0 330.4 440.6" enable-background="new 0 0 330.4 440.6" xml:space="preserve">
<g>
	<path fill="#D6D1CC" d="M26.7,82.4c-1.4-14.7-2.9-29.4-4.3-44.1c0.6-1.8,2.3-2.2,3.6-1.7c4.4,1.8,7.6-0.6,11-2.6
		c0-1.6-2.2-2.1-1.9-4.3c1.3-2.6,3.8-1.3,6.1-0.9c-1.5-2.8-5.7-3.9-5-8c5.6-4,6.7-4.1,12.3-0.5c1.3,0.8,2.5,1.7,3.9,2.1
		c5.8,1.4,7.1,6.5,8.8,11.1c1,2.7,0.4,5.2-2.7,7.2c-3.7,2.3-6.6,5.6-6.2,10.5c0.2,3.1-1,5.7-2.6,8.4c-4.6,7.8-0.3,15.8,8.8,16.9
		c1.4,0,2.5,0.5,3.5,1.4c6.5,3.5,13.4,5.8,20.9,6.2c12.9,0.9,25.3-1.6,37.8-4.8c7.6-1.9,15.4-3.9,23.5-2.2c1.5,0.3,2.9-0.3,4.4-0.6
		c2.5,0.4,5.4-1.1,7.3,1.8c0.5,2.7-1.3,3.4-3.4,3.9c-5,1.1-10,1.8-15.1,2.4c-1.6,0.2-3.3,0.1-4.6,1.4c-1.1,0.8-2.3,1.2-3.6,0.7
		c-1.1-0.7-2.2-1.9-3.5-1.4c-5.6,1.9-11.8,0.4-17.3,2.9c-0.8,0.3-1.5,0.4-2.3,0.5c-3,0.2-6-0.3-8.9,0.7c-1.1,0.3-2.3,0.3-3.4,0.4
		c-8.2,0.2-16.3-1.5-24.5-1c-1.1,0-2.1-0.1-3.2-0.3c-1.4-0.4-2.9-0.6-4.3-0.3c-0.8,0-1.5-0.2-2.1-0.6c-7-4.9-14.8-5.8-22.9-3.7
		C33.2,84.6,29.9,85.1,26.7,82.4z"/>
	<path fill="#E8E7E5" d="M51.5,376.5c0.3-1,0.5-2,0.8-3.1c2.4-0.7,2.7,1.7,4,2.6c7.4,7,16.6,8.6,26.3,8.8c0.5,0,1,0.1,1.5,0.2
		c7.4,1.3,14.7,2.9,22.1,4.1c1.5,0.2,3,0.7,4.1,1.8c0.6,0.6,0,1.1-0.1,1.6c3.8-0.2,5.7,3.7,9.2,4.2c1.8,0.3,2.1,2.1,1.7,3.6
		c-0.6,2.6,0,4.9,0.9,7.3c-0.6,3.5-2.3,2.2-4.1,1c-5.4-2.8-10-0.4-14.5,2.4c-1.8,0.7-3.4,0.1-5-0.5c-0.9-0.3-1.8-0.7-2.8-0.5
		c-3,0-6.3,2.4-8.7-1.3c0-0.4,0.1-0.8,0.4-1.1c0.2-0.2,0.3-0.3,0.2-0.2c-0.2,0.2-0.4,0.4-0.6,0.5c-0.5,0.2-1,0.1-1.5,0
		c-0.4-0.2-0.7-0.4-1-0.6c-0.9-0.6-1.9-0.8-2.9-1.1c-1.2-0.5-2.4-1-3.4-1.8c-1.3-1-2.1-2.2,0-3.3c0.6-0.1,1,0.5,1.6,0.5
		c-0.4-0.1-0.7-0.3-1-0.6c-2.6,0.1-6.2,1.9-5.7-3.3c-1.2-0.3-2.4,0.1-3.5-0.2c-0.4-0.1-0.8-0.3-1.2-0.5c-0.3-0.3-0.6-0.6-0.8-1
		c-1.1-1-2.9-0.6-4.2-2.6c-0.4,3.4,1.8,6-0.2,8.3c-1.1,1.3-2.5,2-4.3,1.9c-5.1-2-6.9-6.2-7.7-11.1C50.9,387,52.7,381.8,51.5,376.5z"
		/>
	<path fill="#EDEDEB" d="M260.6,38.2c6.7-1.9,10.3-0.8,13,3.9c-0.2,0.2-0.4,0.5-0.5,0.7c-4.4,3.2-9.8,3.3-14.8,3.6
		c-9.1,0.6-18.2,1.1-27.3,2.2c-16.6-0.3-33.1,1.4-49.7,1c-1.7,0-3.3,0.1-4.9-0.6c-1.9-1.4-1.6-2.7,0.4-3.6c1.2-0.6,2.6-0.5,4-1.4
		c1.1-4.3-4.2-8.9,0.1-13.2c12.3,0.6,24.6,1.5,37,2c0.8,0,1.6,0.3,2.4,0.7c6.6,1.1,13.4,0.3,19.9,1.7
		C247,36.2,253.9,36.7,260.6,38.2z"/>
	<path fill="#E8E7E5" d="M281.8,102.3c14.8,4.6,27.4,12.1,34.2,26.8c1.4,3.1,1.7,6.8,2.6,10.2c-4.6,2.8-5.7,7.7-4.6,14.7
		c2.3,14.6,6,28.9,7.1,43.7c-0.1,4.9,1.3,9.8,1.1,14.7c-0.1,2.1,0.2,4.3-1.6,6c-4.2,0-4.7-3.5-4.9-6.1c-1.4-14.2-3-28.4-4.6-42.7
		c-0.9-8.1-3.9-16.1-4.9-24.3c-1.3-10.1-7.2-17.8-12.6-25.7c-4-5.9-5.9-6-12.1-2.8c-1.8,1-3.5,1.9-5.6,0.9
		c-2.3-3.8,0.6-7.5,0.1-11.2c0-0.5,0.1-1,0.2-1.5c1.3-1.5,1-4.9,4.5-3.8l-0.1,0C280.9,101.6,281.3,102,281.8,102.3z"/>
	<path fill="#E2DFDD" d="M113.3,17.3c11.1,3.6,22.1,7.3,33.2,10.9c-2.2,2.5-6.4,3.1-11,1.5c-2.2-0.8-4.3-1.8-6.9-1.8
		c-1.6,2.3-4.8,3.1-6,6.1c-2.4,0.9-4.5-0.2-6.7-1c-7.5-2.6-14.5-6.6-22.4-8.1c-0.5,0-1-0.2-1.4-0.4c-1.7-1.9-4.1-2.8-6.4-3.7
		c-7.9-3-15.7-6.5-24-8.4c-0.5-0.1-1-0.2-1.4-0.4c-3.1-1.6-6.4-2.2-9.7-3.2c-0.9-0.5-1.7-1.2-2.3-2c-1.2-1.5-1.5-2.9,0.8-3.6
		c1.7-0.5,3.5-0.4,5.2-0.5c4.2,1.1,8.5,1.7,12.7,2.9c3.9,0.4,7.7,1.4,11.4,2.5l0,0c7.2,1.9,14.2,4.4,21.5,5.5
		C104.3,15.2,108.6,17,113.3,17.3z"/>
	<path fill="#B7AEA3" d="M231.6,399.4c-0.7,2-1.4,4-2,6c-3,2.2-7.2,2.2-9.5,5.5c-2.2,2.3-5.1,3.3-8.1,4.2c-1.6-0.1-2.7-1-3.5-2.4
		c-1.9,1.1-3.9,2.4-6.2,0.6c-0.7-2.7,1-4.7,1.8-7c0.9-2.2,2.3-4.4,0.6-6.9c-2.8-0.9-5,1.5-7.5,1.3c-2.1-0.9-1.4-3.4-3.4-4.7
		c-1.7-1-3.4,0.8-5.3,0.8c-1.1-0.2-1.7-0.9-2.1-1.8c-1.8-4.2,1.6-4.2,4-4.9c3.1-2,6.5-3,10.2-2.9c3.7,0.1,7-1.7,10.4-2.6
		c2.1-0.6,4.1-1.4,6.1-2.1c0.4,0.5,0.4-0.7,0-0.2c-0.2,0.3-0.3,0.2-0.5,0c-0.6-0.7-0.3-1.2,0.2-1.7c1.5-0.8,3-1.5,4.6-1.8
		c2.7-0.5,4.6,0.3,5.9,3.1C230,387.6,229.8,393.8,231.6,399.4z"/>
	<path fill="#EDEDEB" d="M273.6,42.1c4.9,1.1,2.4,5,2.2,7.2c-0.9,9.6-2.9,19.1-3.9,28.7c-0.5,4.4,0.4,8.8,0.6,13.3
		c-3.1,2-4.6,0.2-5.6-2.4c-1.2-3.2-0.8-6.6-0.1-9.9c1.3-5.7,2.8-11.3,2.8-17.2c-0.2-1-0.1-2.1,0.2-3.1c0.6-1.7,2.8-3.4,0.3-5.2
		c-3.4,3.3-2.6,7.6-3.1,11.7c-1.8,7.8-2.3,15.8-3.7,23.7c-0.3,0.5-0.7,0.8-1.2,1.1c-4.8,0.2-8-2.7-10.4-6.2
		c-1.3-1.8-2.3-4.1-2.7-6.4c-0.6-3.8-2.8-5.7-6.3-6.7c-1.9-2.2-2-4.8-0.5-6.9c1.7-2.3,4.4-1,6.4-0.3c2.4,0.8,4.6,1.7,7.2,0.5
		c2.6-1.2,3.4,1.2,4.9,3.1c1.2-4-1.2-7.7,0.6-11.3c-0.7,0-0.9,0-1.1,0.1c-3.1,1.6-6.3,4.2-9.3,0.4c-2.6-3.4-0.7-6.6,1.5-9.5
		c1.1-0.7,2.3-0.5,3.6-0.5c2.2,0.5,4.5,1.1,6.5-0.6c2.4-1.1,4.5,0.7,7.1,0.9C269.6,44,271.7,43.3,273.6,42.1L273.6,42.1z"/>
	<path fill="#E8E7E5" d="M122.2,33.4c-0.1-1.5-0.2-3-0.3-5c1.4,0.4,2.7,0.8,4.1,1.3c0.4-1.4,0.7-2.7,1-4.1c6.6,1.3,12.5,6,19.4,2.6
		c8.7,0.3,17.3,0.7,26,1c0.6,0.6,1.2,1.1,1.8,1.7c1.4,1.5,2.5-0.1,3.7-0.4c1-0.2,1.8-0.1,2.5,0.7c0.8,4.8,1.6,9.5,2.4,14
		c-2.4,0.9-4.9,1.9-7.4,2.9c-0.2,0.2-0.3,0.4-0.5,0.5c-0.9,0.5-1.9,0.4-2.8,0.2c-1.6-0.5-3.3-0.4-5-0.7c-1.9-0.5-3.9-0.5-5.6-1.6
		c-0.3-4.4,1.8-6.5,5.8-5.9c2.4,0.3,4.4,1.6,6.6,2.1c-3.5-2-7.4-2.6-11.8-2c-1.7-1.6-3.2-4.1-6.3-3.2c-2.3,0-4.6,0.1-6.9-0.3
		c-1.5-0.4-3-0.7-4.6-0.7c-1.3,0-2.6-0.1-3.8-0.4c-5-1.2-9.9-4.2-15.2-1.2C124,35.1,122.7,35.2,122.2,33.4z"/>
	<path fill="#B18A6B" d="M43.5,239.3c-0.1-0.6-0.2-1.2-0.4-1.8c-0.6-1.2-0.8-2.4-0.3-3.6c1-2.4,1.2-4.6-0.9-6.6
		c-0.5-1.2-0.5-2.4,0-3.6c0.7-1.4,0-2.6-0.5-3.8c-1-19.3-4.6-38.4-4.8-57.8c0.7-1.9,1.4-3.8,3.2-5c2.4,0.9,1.9,3.1,2.1,5
		c0.2,2.8-0.2,5.5,0.3,8.3c0.2,0.7,0.3,1.5,0.2,2.3c-0.4,2.2,0.4,4.2,1.1,6.3c0.2,0.8,0.3,1.5,0.4,2.3c-0.2,5.8,0.6,11.5,1.7,17.1
		c0.3,1.1,0.4,2.3,0.4,3.4c0.7,11.2,2.6,22.4,3.5,33.6c0.8,9.4,2.9,18.7,2.5,28.2c-0.1,1.9-0.2,3.9,0.5,5.7c0.5,2.7,1.5,5.3,1,8.1
		c0.6,6.3-0.6,12.7,1.6,18.8c0.5,1.3,0.6,2.7,0,4c-4.8,4.8-4-1.4-5.6-2.9c-0.2,0.1-0.3,0.1-0.5,0.2c-0.6-1.2-0.7-2.4-0.2-3.7
		c0.7-2.8,1.5-5.6-0.7-8.2c-0.3-0.7-0.4-1.3-0.2-2c0.5-2.2,1.2-4.3-0.5-6.3l-0.5,0.1c-0.4-0.9-0.6-1.8-0.1-2.7
		c0.7-1.5,0.9-3-0.1-4.5c-0.3-0.9-0.5-1.9-0.8-2.8c-0.3-0.7-0.3-1.3,0-2c0.6-1.8,0.8-3.5-0.4-5.2c-0.1-1.3-0.2-2.5-0.4-3.8
		c-0.1-2.7,1.1-5.6-0.9-8.1c-0.1-1-0.3-1.9-0.4-2.9C44.5,243.3,45.1,241.2,43.5,239.3z"/>
	<path fill="#DCD9D7" d="M319.6,197.3c-1.5-9.1-3-18.2-4.6-27.2c-1.1-6.2-2.6-12.3-3.2-18.4c-0.3-3.8,0.8-7.8,1.3-12.3
		c1.8,0,3.6,0,5.4,0c0,0.7,0,1.3,0,2c0,1,0,2,0.2,2.9c0,5.3,2.7,10.2,2.7,15.6c0,1.4,1.5,1.7,2.2,2.5c1,8,2,16,3,24
		c-0.5,0.3-1,0.3-1.5-0.1c-1.5-3.9-2.1-7.9-1.9-12c0-0.7-0.9,0.4-0.3,0.1c0.2-0.1,0.3,0.1,0.2,0.4c-0.2,4.2,0.5,8.3,1.8,12.2
		c1,3.4-0.2,6.2-1.3,9.1C322.8,197.9,321.4,198.6,319.6,197.3z"/>
	<path fill="#E2DFDD" d="M319.6,197.3c5.1-1.5,4.3-5.9,4.2-9.5c-0.1-5.1-1-10.3-0.8-15.5c0.9,4.6,1.7,9.3,2.6,13.9
		c1.4,7.4,1.5,15,2.5,22.5c0.5,9.4,0.7,18.8,1,28.1c0.1,1.6,0.4,3.3-0.4,4.9c0,1.1,0,2.2,0,3.4c-2,1.5-3.9,3.5-6.7,3.4
		c-2.4-2.1-1.6-4.8-1.5-7.3c0.3-4.3,0.3-8.5-1.8-12.4c-0.7-3.6-1.5-7.2,0.9-10.5c0.3-3.9,0.8-7.8,0.8-11.7
		C320.4,203.6,319.9,200.4,319.6,197.3z"/>
	<path fill="#FCFCFB" d="M185.5,431.5c0,1.8,0,3.6,0,5.1c-7.4,1-14.2,2.4-21.1,2.8c-11.3,0.7-22.6,0.8-33.9,1.1
		c-1.3,0-3,0.4-3.9-0.2c-6.8-4.6-14.5-2.2-21.7-2.7c-2.1-0.2-4.6,0.5-4.4-3c2.7-3.3,6.2-2.5,9.6-2c3.9,0.6,7.8,1.6,11.7,1.5
		c9.9,0,19.9,0.4,29.8-0.1c9.2-0.4,18.4-1.4,27.4-3.4C181.1,430.1,183.7,428.7,185.5,431.5z"/>
	<path fill="#C6BAB0" d="M231.6,399.4c-0.7-1.2-1.7-2.4-2.1-3.7c-1.3-4.9-2.3-9.8-3.7-15.7c-3,0.5-5.9,0.9-8.9,1.4
		c-1.8,0.4-3.3,1.5-5,2c-2.3,0.3-4.6,1.4-7,0.6c-2-2.6,0.3-3.4,2-4.3c1.6-0.8,3.7-1,3.2-3.6c0.1-0.5,0.3-0.8,0.7-1.1
		c2-1,3.8,0.4,5.6,0.5c8.1-5.2,5.5-13.8,6.9-20.6c0.5-1,0-0.9,0-0.7c0,2.3-0.9,3.4-3.3,2c-1.6-4,0.6-6.1,3.9-7.5
		c0.8-0.2,1.6-0.3,2.4-0.2c3.5,1.1,6.1,2.8,4.4,7.2c-4.9,3.8-4.1,8.5-2.9,13.7c1.9,8.4,3.2,16.9,4.5,25.4
		C232.5,396.2,231.8,397.9,231.6,399.4z"/>
	<path fill="#B7AEA3" d="M36.4,21.3c2.6,3,5.1,5.9,8.6,9.9c-3.7-0.9-6.3-1.4-8.8-2c-0.2,0.4-0.4,0.8-0.6,1.2
		c1.5,1.1,3.1,2.3,4.7,3.5c-3,1.7-5.6,3.3-8.3,4.6c-0.9,0.4-2.1,0.1-3.2,0.1c-2.1-0.1-4.3-0.2-6.4-0.3c-0.3-0.7-0.7-1.4-1-2
		c-0.1-1,0.3-1.8,1.1-2.5c1.4-1.1,3.4-1.3,4.2-3.6c-1.5-4.2-6-2.9-9-4.5c-0.4-0.3-0.5-0.8-0.5-1.3c0.4-0.7,1-1,1.6-1.3
		c0.6-0.3,1.3-0.5,2-0.7c2.7-0.5,5.5-0.9,7.7-2.7c1.1-0.5,2.3-0.5,3.5-0.3C33.3,20.4,36,18.4,36.4,21.3z"/>
	<path fill="#FCFCFB" d="M52.5,411.5c0.4-0.4,0.8-0.6,1.3-0.7c2.3-0.1,3.6,1.4,4.7,3c1.9,2.9,5.1,4.6,6.9,7.6
		c2.9,7.7,10.3,11.5,18.6,9.7c4.2-0.9,8.6,0.5,12.8-0.4c0.8,0,1.5,0.3,2.1,0.9c0.5,1.1,0.4,2-0.4,2.9"/>
	<path fill="#D6D1CC" d="M37.7,161.2c1.5,15.3,3,30.5,4.4,45.8c0.4,4.8,0.3,9.6,0.5,14.4c-0.4,0.4-0.9,0.4-1.3,0
		c-0.6-0.7-1.5-1.4-1.6-2.1c-1.6-16.4-3.2-32.8-4.7-49.2c0-0.2,0.3-0.5,0.5-0.8c1-6-0.9-11.8-1.3-17.6c-0.4-5.3-0.9-10.5-1.6-15.8
		c-0.3-1.8-0.4-3.6,0.5-5.4c0.5-0.5,1-0.6,1.6-0.2C37.3,140.4,38.6,150.7,37.7,161.2z"/>
	<path fill="#716857" d="M235.3,353.7c-0.9,0.5-1.9,0.9-2.8,1.4c-1.5-2.6-1.7-5.6-2.7-8.4c1.8-5.2,0.6-11,2.9-16
		c2.8-3.4,4.3-7.4,5.1-11.7c0.4-2.1,0.2-3.9-1.6-5.3c-1.3-4.2,1.2-3.7,3.8-3.1c3.1,0,3.8,2,3.4,4.6c-0.2,1.4-1.1,2.8,0.7,3.8
		c0.8,2,0.1,3.8-0.4,5.7c-1.1,3.7-2.3,7.3-3.2,11c-0.3,1-0.7,2-1.1,3.1c-0.3,0.7-0.6,1.4-1,2.1c-0.1,0.3-0.3,0.6-0.5,0.9
		c-0.2,0.5-0.4,1-0.5,1.5c0,0.5-0.1,1.1-0.1,1.6c0,0.6-0.2,1.1-0.5,1.6c-0.2,0.2-0.4,0.4-0.5,0.7c0.3,0.1,0.6-0.2,1,0
		c0.3,0.2,0.6,0.6,0.8,0.9c0.3,0.9,0.4,1.7,0.3,2.6C238.3,352.5,237,353.3,235.3,353.7z"/>
	<path fill="#D6D1CC" d="M328.5,275.3c-0.7,5.7-1.4,11.4-2.2,17.1c-0.1,0.4-1,0.7-1.5,1.1c-2.1,2.4-1.6,6-3.7,8.4
		c-1.3,1.5-2,4.1-4.9,2.5c-0.1-4.8,1.5-9.4,1.9-14.1c0-1.9,0.1-3.7,0.7-5.5c1-1.5,1.6-3.2,1.3-5.1c0.1-3.3-0.5-6.6,0.6-9.8
		c2.5-1.6,2.8-5.8,6.7-5.7C329.5,267.7,327.8,271.6,328.5,275.3z"/>
	<path fill="#DCD9D7" d="M262.5,89.2c1-8.3,2.1-16.7,3.1-25c1.6-1.1,2.4-3.4,5-3c-0.3,4.1-0.5,8.2-1,12.3c-0.5,4.2-1.7,8.4-1.9,12.6
		c-0.1,2.8,0.7,5.8,4.8,5.1c1,1.7,2,3.4,2.9,5.1c-0.6,1.8-1.3,3.5-3.6,3.6c-0.5,0-0.9-0.1-1.4-0.2c-2.3-0.5-4-1.4-4-4.1
		C266.5,92.6,262.6,92.1,262.5,89.2z"/>
	<path fill="#D5AF87" d="M52.5,332.4c-0.1-1-0.1-2-0.2-3c0.2-0.7,0.6-1.2,1.3-1.4c1.8-0.2,3.2,1,4.9,1.4c1.3,4.4,4.7,6.1,8.8,6.8
		c4.1,3.7,2.5,8.2,1.9,12.6c-2.8,3-5.8-1.1-8.6,0.3c-2-0.1-3.2-1.4-4-3c-1.2-2.5-1.8-5.2-3.1-7.6c-0.3-0.6-0.6-1.3-1-1.9
		C52.9,335.1,52.6,333.7,52.5,332.4z"/>
	<path fill="#E2DFDD" d="M18.5,4.3c1.3-0.4,2.6-0.7,4-1.1c0.5,0.4,0.6,1,0.6,1.7c-0.1,0.3-0.2,0.7-0.2,1.1c0.4-0.5,0.9-0.7,1.5-0.8
		c1.2-0.2,2.4-0.2,3.6-0.2c2.1,0.1,4.1-0.2,6.1,0.6c1.2,0.6,2.1,1.5,2.8,2.7c0.4,3.9-2.7,4.3-5.3,5.2c-0.9,0.2-1.9,0.3-2.8,0.5
		c-0.4,0.2-0.9,0.3-1.3,0.3c-1.6,0.3-3.2,0.2-4.8,0.4c-0.9,0.1-1.8,0.4-2.7,0.6c-1.7,0.3-3.3,0.4-4.9-0.2c-3.1-2.8-4.4,0.3-6.1,1.9
		c-1.7,1.8-3.1,4-5.7,4.6c-1.1-0.3-1.4-1.2-1.5-2.2c0.5-3.8,3.5-5.7,6-7.9c2.4-1.3,4.9-2.3,6.8-4.4c3-1,5.5,2.6,9,1
		C20.5,8.1,17.9,8.1,18.5,4.3z"/>
	<path fill="#E2DFDD" d="M185.5,431.5c-6.3,0.7-12.8,0.7-18.9,2.2c-14,3.3-28.1,1.1-42.2,1.8c-1,0.1-2,0-3,0c-0.8-1-0.8-2.1,0-3.1
		c2.2-1.5,4.5-0.3,6.7-0.3c4.1,0.1,8.2,0,12.3,0c12.6-1.1,25.2-1.6,37.7-3.5c3.1-0.1,6.3-1.5,9.4,0.1c0,0.9,0,1.9-0.1,2.8
		C186.8,431.4,186.2,431.5,185.5,431.5z"/>
	<path fill="#EDEDEB" d="M53.5,411.4c-0.3,0-0.7,0-1,0.1c-4.3-6.2-7.6-13.1-7.6-20.6c0-3.4,0.3-9,6.3-9.5c2.2,3.5-0.8,7.3,0.6,10.9
		c0,5.3,2.9,9.8,4.3,14.7C55.5,408.6,54.7,410.1,53.5,411.4z"/>
	<path fill="#B19F8E" d="M57.4,329.4c-1.2-0.3-2.4-0.7-3.6-1c-2.8-1.6-2.1-4.5-2.4-6.9c-0.1-1.3-0.2-2.6-0.3-3.9
		c-0.7-1.3-0.6-2.7-0.5-4.1c-0.1-1.3-0.2-2.6-0.3-3.9c-1.1-1.9-0.6-4-0.7-6.1c0-2,0.1-4,0.1-6c0.6,0.6,1.2,1.4,1.9,1.8
		c0.9,0.6,2,0.8,3,1.2c1.3-0.1,1.8,0.8,2,1.7C58.5,311.1,58.7,320.2,57.4,329.4z"/>
	<path fill="#CAC4BA" d="M271.5,99.3c1.3-1,2.6-2,3.9-2.9c1.7,1.6,3.4,3.3,5.1,4.9c-1.4,1.3-2.8,2.5-4.2,3.8c-1.1-0.8-2.1-1.5-3,0.3
		c-0.5,1.1-0.8,2.4-2,3.2c-1.1,0-1.3-0.7-1.3-1.1c-0.1,1.7-0.6,3.9-1,6.1c-0.4,0.9-1,1.7-2.1,1.9c-1.9-0.9-1.5-3.1-2.3-4.6
		c-0.2-0.5-0.4-0.9-0.6-1.4c-0.8-2.1-0.9-4.4-0.9-6.6c-0.1-2.1,0.7-4.2,0.5-6.2c-0.6-1.8-2.7-1.3-3.6-2.5c-1-2,0-3.4,1.4-4.7
		c0.3,0,0.6,0,0.9-0.1c1.8,1.3,3.7,2.7,5.5,4c-0.2,1.3-0.3,2.7-0.5,4.1C269.1,98,270.3,98.7,271.5,99.3L271.5,99.3z"/>
	<path fill="#C6BAB0" d="M26.7,82.4c4,0.5,7.6,1.5,11.7-1c4.3-2.7,19.8,2.1,22,5.9c-1.9,1.4-3.9,0.5-5.8,0.2
		c-6.7-1.3-13.4-1.5-20.2-0.2c-2.2,0.4-3.9,0.9-3.9,3.5c-0.7,2.2,0.4,4.3,0.1,6.4c-0.2,1.6,0.5,3.9-2.3,4.2
		C27.9,95,27.3,88.7,26.7,82.4z"/>
	<path fill="#716857" d="M2.2,19.3c0.4,0.6,0.8,1.2,1.3,1.8c4.2-1.5,8.5-2.7,12.6-4.3c4.5-1.8,8.7,0.3,12.1,3.6c-2.6,1-5.2,2-7.8,3
		c-0.4,0.3-0.9,0.7-1.4,0.7c-0.4-0.1-0.7-0.2-1.1-0.3c-2.7,0.9-5.8,0.3-8.3,2c-1.7,0.5-3.4,1.1-5.1,0.5l-0.1-0.2
		c-0.5-0.8-1.1-1.4-2-1.8c-3.5-1.9-2.2-4.4-0.9-7C2,18,2,18.7,2.2,19.3z"/>
	<path fill="#B19F8E" d="M53.2,363.5c0.2-5,0.4-10,0.6-15c0-0.8,0.4-1.3,1.2-1.6c3.8,1.1,3.5,4.7,4.1,7.5c0.3,1.4-0.1,2.9,0.8,4.2
		c0.2,0.6,0.1,1.2-0.3,1.7c-0.2,0.3-0.6,0.1-0.8,0.1c0.2,0.3,0.3,0.5,0.6,0.7c0.7,1.1,1.7,2.1,1.7,3.5c-0.4,0.7-0.5,1.2,0.5,1.4
		c0.3,0.3,0.6,0.6,0.8,1c0.7,2.1,3,2.7,4.3,4.3c0.2,0.8-0.1,1.3-0.7,1.8c-0.9,0.6-1.7,1.4-2.8,1.9c-0.7,0.2-1.4,0.1-2-0.2
		C57.6,371.6,55,367.9,53.2,363.5z"/>
	<path fill="#DCD9D7" d="M327.5,264.3c-2,1.7-3.9,3.4-5.9,5c-1.4-1.3-1.4-3-1-4.6c1-3.7,0.4-7.5,0.6-11.3c0-1.8-0.1-3.7,1.4-5.2
		c2-1,4-2.1,6.1-3.1c0,2.3,0,4.6,0.1,7c-1.6,1.6-0.5,3.7-0.8,5.5C327.6,259.9,329.4,262.3,327.5,264.3z"/>
	<path fill="#E2DFDD" d="M173.5,31.2c-0.3-0.7-0.7-1.3-1-2c15.2,0.7,30.3,1.3,45.5,2.1c0.9,0,1.7,1.1,2.5,1.7
		c0.5,0.4,0.5,0.8-0.1,1.2c-13.3-1-26.7-2-40-3c-1,0-2,0-3,0C176.2,32.3,174.9,32.3,173.5,31.2z"/>
	<path fill="#D6D1CC" d="M27.7,6c-1.4,0.1-2.9,0.1-4.3,0.2c-0.3-0.4-0.9-0.5-1.1-1c0-0.7,0.1-1.4,0.1-2c10.2-4.3,20.8-3.6,31.3-1.6
		c4.3,0.8,8.5,2.4,12.8,3.6c0.3,0.2,0.5,0.4,0.4,0.7c-0.1,0.2-0.2,0.3-0.3,0.3c-4.1-0.7-8.4-0.3-12.1-2.9
		c-6.8,0.5-13.7,0.3-20.5,0.4c-1.9,0-4-0.5-5.5,1.3C28.2,5.3,28,5.6,27.7,6z"/>
	<path fill="#C6BAB0" d="M317.1,312.6c-3.9,9.2-10.3,16.3-18.5,21.9c-0.4-0.3-0.6-0.7-0.8-1.2c-0.2-2.1,1.2-3.6,2-5.3
		c0.4-0.6,0.9-1.1,1.6-1.4c3.5-2.1,5.5-5.6,8.1-8.6c1.6-1.9,2.8-4.2,4.9-5.6C315.3,312,316.2,311.6,317.1,312.6z"/>
	<path fill="#B7AEA3" d="M298.5,333.2c0,0.4,0.1,0.8,0.1,1.3c-8.4,7.5-18.3,12-29.1,14.7c-0.3-0.4-0.4-0.8-0.4-1.3
		c1.3-3.3,5.1-2.8,7.2-4.9c0.4-0.2,0.8-0.4,1.3-0.5c1.5-0.3,3.1-0.5,4.6-1.1c3.7-1.6,7.1-3.6,10-6.3c0.4-0.3,0.8-0.5,1.2-0.7
		C295.1,333.9,296.5,332.1,298.5,333.2z"/>
	<path fill="#B19F8E" d="M269.5,348.1c0,0.4,0,0.7,0,1.1c-6.7,1-13.4,2.2-20.1,3.1c-4.7,0.6-9.4,1-14.1,1.5c0.8-1.2,1.6-2.3,2.4-3.5
		c2.1-1.7,4.6-1.3,7-1.3c4.1,0,8.2,0,12.2-0.8c3.2,0,6.2-1.1,9.3-1C267.4,347.1,268.6,347.3,269.5,348.1z"/>
	<path fill="#C6BAB0" d="M328.6,241.9c-0.4-3.4-0.9-6.8-1-10.2c-0.2-7.8,0-15.5,0-23.3c0.3-0.3,0.6-0.3,0.9,0.1
		c0.7,9.5,1.5,19,2,28.6C330.5,238.5,329.2,240.2,328.6,241.9z"/>
	<path fill="#B7AEA3" d="M33.5,130.3c0.9,10.3,1.9,20.6,2.7,30.9c0.2,2.7-0.4,5.4-0.7,8.1c0-1-0.1-1.9-0.1-2.9
		c-0.2-0.4-0.4-0.8-0.5-1.2c-1.3-14-2.5-28-3.8-42C35.5,124.3,33.4,127.7,33.5,130.3z"/>
	<path fill="#CAC4BA" d="M317.1,312.6c-0.8,0.3-1.7,0.5-2.5,0.8c-0.8-0.8-1-1.8-0.9-2.9c0.7-2.1,1.3-4.4,2.9-6.1
		c1.7-2.4,3.4-4.8,5.2-7.2c1-1.3,2-2.5,3-3.8C324.1,300.6,321.7,307,317.1,312.6z"/>
	<path fill="#B18A6B" d="M4.4,26.5c1.6-0.4,3.3-0.8,4.9-1.2c1.4-0.1,2.3,0.6,3.1,1.6c1.4,2.4,3.6,3.7,6.2,4.4
		c1.5,0.4,3.8,0.3,3.8,2.9c-0.3,0.7-0.7,1.4-1,2.1c-3.3-1.3-6.7-2.3-9.7-4C9,30.7,6.8,28.4,4.4,26.5z"/>
	<path fill="#EDEDEB" d="M121.5,432.8c0,0.9,0,1.8,0,2.7c-3.4-0.4-6.9-1-10.3-1.2c-3.6-0.2-7.1,0.1-10.7,0.2c-0.7,0-1.3,0-2,0
		c0-1,0-2,0-3c1.9-2,4.7-1.1,6.9-1.9c5,0.6,9.9,1.8,15,2C120.9,431.9,121.2,432.2,121.5,432.8z"/>
	<path fill="#E2DFDD" d="M323.5,162.3c-0.9-0.5-2.6-0.8-2.7-1.4c-1.2-5.8-2.2-11.7-3.3-17.6c0.7-0.6,1.3-0.6,2,0
		c1,5,1.9,10,2.9,14.9C322.8,159.6,323.2,161,323.5,162.3z"/>
	<path fill="#D6D1CC" d="M260.6,38.2c-5.2-0.5-10.5-0.9-15.7-1.4c-1.4-0.1-2.9-0.4-4.3-0.6c-0.6-0.7-0.6-1.3,0-2
		c5.9,0.7,11.8,1.3,17.7,2.1C259.1,36.5,259.8,37.6,260.6,38.2z"/>
	<path fill="#B7AEA3" d="M327.5,264.3c-0.3-2.3-0.5-4.6-0.8-6.8c1.4-1.3,0.3-3.7,2.1-4.8c0.5,0.4,1.4,0.8,1.4,1.2
		c-0.5,7.2-1.1,14.3-1.7,21.4C328.1,271.6,327.8,268,327.5,264.3z"/>
	<path fill="#B7AEA3" d="M100.5,14.6c-7.3-2.1-14.7-4.3-22-6.4c7.3,1.7,14.7,3.4,22,5.1C100.8,13.7,100.8,14.1,100.5,14.6z"/>
	<path fill="#B19F8E" d="M229.2,407.4c-2.2,2-4.4,4.1-6.7,6.1c-1.3-0.3-2-1.4-2.8-2.4c-0.1-0.2-0.2-0.4-0.2-0.6c2-4.4,6-4.8,10-5.1
		C229.4,406.1,229.3,406.8,229.2,407.4z"/>
	<path fill="#DCD9D7" d="M240.5,34.2c0,0.7,0,1.3,0,2c-6.7-0.7-13.3-1.3-20-2c0-0.4,0-0.8,0.1-1.2C227.2,33.5,233.9,33.8,240.5,34.2
		z"/>
	<path fill="#E8E7E5" d="M53.2,363.5c2.7,3.6,5.4,7.2,8.2,10.7c-3.8,4-4.5-0.7-6.3-2.2c-1.1-1.5-1.3-3.4-2.6-4.7
		C52.7,366,52.9,364.8,53.2,363.5z"/>
	<path fill="#D6D1CC" d="M328.5,208.4c-0.3,0-0.6,0-0.9-0.1c-0.7-7.3-1.3-14.7-2-22c0.3,0,0.6,0,0.9,0
		C327.2,193.7,327.8,201,328.5,208.4z"/>
	<path fill="#D6D1CC" d="M28.5,101.3c0.2-2.5,0.5-4.9,0.7-7.4c0.1-1.2,0.2-2.4,0.3-3.7c0.3-0.3,0.7-0.5,1.2-0.6
		c0.5,0.1,0.9,0.3,1.2,0.6c0.2,0.4,0.4,0.8,0.5,1.3c0.1,0.7,0,1.4-0.2,2c-0.2,0.9-0.3,1.8-0.2,2.8c0.9,3.5,1,7,0.9,10.6
		c0,0.5,0,1.1-0.1,1.6c-0.1,1.1-0.4,2.1-1.2,2.9c-2.3,0-1.8-1.9-2.1-3.2c-0.3-1.6,0.3-3.3-0.9-4.8C28.6,102.7,28.5,102,28.5,101.3z"
		/>
	<path fill="#DCD9D7" d="M18.5,4.3c1.8,1.3,3.5,2.6,5.3,3.9c-0.5,0.6-1.5,1.8-2.3,2.7c-2.5-1.3-4.7-2.5-6.8-3.6
		c-0.3-0.2-0.5-0.4-0.4-0.6c0-0.3,0.1-0.4,0.2-0.4C15.8,5.6,17.2,4.9,18.5,4.3z"/>
	<path fill="#CAC4BA" d="M33.5,130.3c-0.8-2.4-1.7-4.7-2.5-7.1c-0.2-0.7-0.3-1.3-0.5-2c1.7-2.5-1.5-5.7,1.1-8.1
		c1.4,0.2,1.9,1.3,2.1,2.4c1.1,4.9,2.1,9.8,0.5,14.8C34,130.3,33.8,130.3,33.5,130.3z"/>
	<path fill="#B19F8E" d="M230.4,347.4c0.7,2.6,1.3,5.1,2,7.7c-0.6,0.2-1.2,0.3-1.7,0.5c-0.2-2.9-1.3-5.2-4.3-6.2c-0.8-1-1-2.2,0.1-3
		C228.1,345.3,229.3,346.6,230.4,347.4z"/>
	<path fill="#B7AEA3" d="M31.8,112.5c-0.4,2.9-0.8,5.8-1.2,8.7c-0.4-3.6-0.7-7.3-1.1-10.9c-0.8-1.3-0.2-2.7-0.6-4.1
		c-0.1-0.9-0.1-1.9-0.2-2.8c0.6,1.1,1.4,2.1,1.8,3.3c0.6,1.6,0.9,3.3,1.3,4.9C32,111.9,32,112.2,31.8,112.5z"/>
	<path fill="#B19F8E" d="M2.2,19.3c-0.3-0.6-0.6-1.2-0.8-1.7c2-2.5,3.9-5,5.9-7.5c1.7-0.1,1.9,0.7,1.2,2C6.3,14.5,4.3,16.9,2.2,19.3
		z"/>
	<path fill="#C6BAB0" d="M100.5,14.6c0-0.4,0-0.8,0-1.3c4.3,1.3,8.6,2.7,12.8,4C109,16.4,104.8,15.5,100.5,14.6z"/>
	<path fill="#C6BAB0" d="M51.1,392.5c0-3.7,0-7.4,0.1-11.1c0.1-1.6,0.2-3.2,0.3-4.9c0.3,5.3,0.6,10.7,0.9,16
		C52,393,51.6,393,51.1,392.5z"/>
	<path fill="#B7AEA3" d="M8.4,12.1c-0.4-0.7-0.8-1.4-1.2-2c2.4-1.3,4.8-2.5,7.2-3.8c0.1,0.3,0.1,0.7,0.2,1
		C14.3,11.1,10.6,10.6,8.4,12.1z"/>
	<path fill="#B19F8E" d="M53.6,338.4c1.3,2.4,2.6,4.7,3.9,7.1c-0.7,0.8-1.7,0.9-2.7,0.6c-0.7-0.3-1.2-0.8-1.3-1.6
		C53.5,342.4,53.6,340.4,53.6,338.4z"/>
	<path fill="#B19F8E" d="M52.4,367.3c1.1,1.2,2.1,2.4,3.2,3.6c-0.4,1.9,2.1,3.9-0.3,5.7c-1-1-2-2.1-2.9-3.1
		C52.3,371.4,52.4,369.3,52.4,367.3z"/>
	<path fill="#E8E7E5" d="M51.4,321.4c0.8,2.3,1.6,4.6,2.4,6.9c-0.5,0.3-1,0.7-1.5,1C52,326.7,51.7,324.1,51.4,321.4z"/>
	<path fill="#CAC4BA" d="M66.5,6.2c0-0.3,0-0.7,0-1c4,1,8,2,12,3C74.5,7.5,70.5,6.8,66.5,6.2z"/>
	<path fill="#B19F8E" d="M44.5,248.3c3.4,2.4,2.5,5.2,0.9,8.1C45,253.7,44.7,251,44.5,248.3z"/>
	<path fill="#B19F8E" d="M48.5,285.3c3.3,2.4,2.3,5.2,0.9,8.1c-0.3,0.3-0.7,0.3-1,0c-0.2-2-0.3-3.9-0.5-5.9
		C47.7,286.7,47.9,285.9,48.5,285.3z"/>
	<path fill="#E8E7E5" d="M52.5,332.4c1.8,1.3,3.6,2.6,0.1,4C49.2,335.2,50.4,333.8,52.5,332.4z"/>
	<path fill="#E8E7E5" d="M49.5,303.4c0.2,2,0.5,4.1,0.7,6.1C47.3,307.7,48.3,305.6,49.5,303.4z"/>
	<path fill="#D6D1CC" d="M42.6,223.3c0.1,1.3,0.1,2.6,0.2,3.9c0.4,0.9,0.3,1.7-0.6,2.2c-0.3-2.1-0.5-4.1-0.8-6.2
		C41.8,223,42.2,223,42.6,223.3z"/>
	<path fill="#B19F8E" d="M42.2,229.5c0.2-0.7,0.4-1.5,0.6-2.2c2.9,1.7,1.9,3.9,0.8,6.1c-0.4,0.3-0.7,0.3-1.1,0
		C42.3,232.1,42.2,230.8,42.2,229.5z"/>
	<path fill="#B19F8E" d="M43.5,239.3c3.2,1.8,2.7,3.9,0.5,6.2C43.9,243.4,43.7,241.3,43.5,239.3z"/>
	<path fill="#B19F8E" d="M47.5,277.4c3.3,1.5,2.4,3.7,0.9,6c-0.3,0.3-0.7,0.3-1,0C47.4,281.4,47.5,279.4,47.5,277.4z"/>
	<path fill="#D6D1CC" d="M328.7,252.7c-0.7,1.6-1.4,3.2-2.1,4.8c0.7-1.8,1.4-3.5,2-5.3L328.7,252.7z"/>
	<path fill="#B19F8E" d="M45.7,260.3c2.8,1.3,2.2,3.2,0.8,5.1c-0.3,0.3-0.7,0.3-1-0.1C45.6,263.7,45.6,262,45.7,260.3z"/>
	<path fill="#E8E7E5" d="M53.5,344.4c0.3,0.3,0.7,0.7,1,1c0.6,0.6,0.6,1.2,0.1,1.9c-0.3,0.4-0.6,0.7-0.9,1.1
		C53.7,347.1,53.6,345.8,53.5,344.4z"/>
	<path fill="#B19F8E" d="M46.8,270.3c0.2,1.4,0.4,2.8,0.7,4.1c-0.3,0.3-0.7,0.3-1-0.1C46.6,273,46.7,271.6,46.8,270.3z"/>
	<path fill="#E8E7E5" d="M48.5,293.4c0.3,0,0.6,0,1,0c-0.1,1.4-0.2,2.7-0.3,4.1C48.9,296.1,48.7,294.8,48.5,293.4z"/>
	<path fill="#E8E7E5" d="M47.4,283.4c0.3,0,0.7,0,1,0c0,0.6,0.1,1.3,0.1,1.9c-0.2,0.7-0.4,1.4-0.5,2.1
		C47.8,286.1,47.6,284.8,47.4,283.4z"/>
	<path fill="#D6D1CC" d="M42.4,233.4c0.4,0,0.7,0,1.1,0c-0.1,1.4-0.2,2.8-0.4,4.1C42.9,236.1,42.7,234.7,42.4,233.4z"/>
	<path fill="#E8E7E5" d="M50.5,313.4c0.2,1.4,0.4,2.7,0.5,4.1C50.9,316.1,50.7,314.7,50.5,313.4z"/>
	<path fill="#E8E7E5" d="M46.5,274.4c0.3,0,0.6,0,1,0.1c-0.1,1-0.3,2.1-0.4,3.1C46.8,276.5,46.7,275.4,46.5,274.4z"/>
	<path fill="#D6D1CC" d="M28.8,106.2c0.2,1.4,0.4,2.7,0.6,4.1C29.2,108.9,29,107.6,28.8,106.2z"/>
	<path fill="#B18A6B" d="M2.3,24.5c0.7,0.6,1.3,1.2,2,1.8C3.6,25.7,2.9,25.1,2.3,24.5z"/>
	<path fill="#B19F8E" d="M42.6,223.3c-0.4,0-0.8,0-1.2,0c0-0.7-0.1-1.3-0.1-2c0.4,0,0.9,0,1.3,0C42.6,222,42.6,222.7,42.6,223.3z"/>
	<path fill="#E8E7E5" d="M45.5,265.4c0.3,0,0.6,0,1,0.1c-0.2,0.7-0.3,1.4-0.5,2.1C45.8,266.8,45.7,266.1,45.5,265.4z"/>
	<path fill="#E8E7E5" d="M319.5,143.3c-0.7,0-1.3,0-2,0c0.3-0.7,0.6-1.3,1-2C318.9,142,319.2,142.6,319.5,143.3z"/>
	<path fill="#CAC4BA" d="M281.8,102.3c-0.4-0.4-0.8-0.7-1.2-1.1C280.9,101.6,281.3,101.9,281.8,102.3z"/>
	<path fill="#D6D1CC" d="M34.8,165.2c0.2,0.4,0.3,0.8,0.5,1.2C35.2,166,35,165.6,34.8,165.2z"/>
	<path fill="#E2DFDD" d="M149.5,77.2c-2.6,1.3-5.2,3.4-8,0.3c-0.3-0.3-1-0.3-1.4-0.2c-6.3,1.1-12.5,2.3-18.8,3.5
		c-8.2,1.5-16.3,3.3-24.6,4.4c-4.6,0.6-9.4,0.1-14.2,0.1c-4.8-3.1-9.9-5.1-15.7-5c-2.1,0-3.9-0.6-5.4-2c-1-0.3-2-0.7-3-1
		c-5.8-3.8-6.9-9-2.8-14.2c1.9-2.5,3.9-4.9,6.9-6.3c3.5-1.7,5.5-4.4,5.2-8.8c-0.2-3.2,3.7-8,6.7-9.1c4-1.4,7.2,0.5,8.9,5.3
		c0.1,1.3,1,1.6,2.1,1.6c9,0.6,18,1.6,27.1,1.9c5.1,0.2,10.1,1.2,15.3,1.1c5.1-0.4,10,1.1,15,1c12.7-0.9,25.3,0.8,38,1
		c2.1,0.1,4.3,0.1,5.9,1.9c1.2,2.1,0.7,3.9-0.7,5.6c-0.9,0.7-1.9,0.9-3,0.7c-3.1-1.3-6.6-1.5-9.7-2.9c-3.1-1.4-6,0.4-8.3,2.7
		c-1.2,0.3-2.3,0.1-3.4-0.3c-6.5-2-12.7-1.2-18.4,2.5c-1.7,0.4-3.2-0.1-4.8-0.7c-1.9-0.7-3.5-0.4-4.6,2c3,2.7,8.7,0.5,10,5.3
		c2.4,1.1,4.5-1.2,6.5,0.1c0.1,2.5,1.1,4.5,3.6,5.5C154.3,76.9,151.1,76.1,149.5,77.2z"/>
	<path fill="#DCD9D7" d="M82.5,44.2c-1.7-1.6-3.2-4.3-5-4.5c-1.8-0.2-4,1.9-5.8,3.3c-1.1,0.9-1.9,2.2-2.9,3.3c1.3,6.5-0.1,9-6.6,12
		c-7.7,3.5-9,10.7-3.6,18.9c-4.7,1.1-11.3-3.9-11.8-9.6c-0.2-2.8,0.2-6.5,1.8-8.5c3.4-4.1,2.7-8.5,2.4-13c2.7-2.6,5.4-5.3,8.2-8
		c0.7,0.1,1.3,0.2,2,0.2c-1.3-4.1-2.6-8.3-3.8-11.8c-4.9-2.7-9.4-5.2-14-7.8c-2,0.8-4.5,1.7-6.9,2.6c-1.3-0.4-2.6-0.7-3.9-1.1
		c-2.3-1.8-5-3.4-4-7l0,0c0.5-0.6,1.5-0.3,2-1c2-1.3,4-2.7,6.1-4c2-1,2.5,0.1,2.7,1.8c-0.2,0.5-0.2,1.2-1.1,1.1
		c0.7,0.7,0.8-0.4,1.2-0.4c1.3-0.6,2.6-0.6,3.9,0c0.4,0.3,0.6,0.7,0.6,1.1c-0.3,1.4-3,0.7-2.5,2.8c2.2,1,4.2,0,6.3-0.7
		c1.9-0.2,3.1,1.7,4.8,1.5c2.4-0.8,1.6-4,3.8-4.8c1.6-0.3,3,0,4.4,0.7c0.3,0,0.7,0,1,0c8.5,3.7,17.6,6,26,9.9
		c1.8,0.8,3.6,1.6,5.1,3.1c0.2,0,0.4,0,0.6,0c5.4,1.6,11.1,2.5,15.1,7.2c1.4,5.4,0.3,6.6-4.8,5.2c-2.6-0.7-5.2-1.2-7.8-1.8
		c-1.6-0.4-3.4-0.5-3.9,1.8c0.8,1.7,2.6,1.3,3.8,2.1c1.7,1,2,2.6,1.8,4.3c-0.1,1.6-0.9,3.2-2.6,3.2C90.7,46.2,86.3,47.2,82.5,44.2z"
		/>
	<path fill="#DCD9D7" d="M150.6,68.3c-2.4,0.6-4.7,1.2-7.4,1.8c-0.9-4.1-3.5-5.4-7.5-5c-1.3,0.1-2.7-1.3-4.4-2.1
		c2.2-3.8,4.1-6.4,8.3-3.3c0.7,0.5,1.9,0.4,2.8,0.6c8-0.4,16.1,0.4,24.1-0.2c0-1.1-0.9-1.3-1.1-1.9c0.7-2.7,1.9-4.5,5.2-3.4
		c3.9,1.3,7.9,2.3,11.8,3.5c1,0.8,0.2,2.3,1.2,3.2c3.9-0.2,8.4-2.6,11,2.6c1.6,3.1-3.6,4.9-1.4,8.1c-1.6,3.4-4.6,5.3-7.2,3.2
		c-5.9-4.7-11.4-0.9-16.9,0.1c-2.8,0.5-5.6,2-8.1,3.6c-2,0.6-3.9,0.7-5.6-0.7c-2-0.4-4.1-0.7-6.1-1.1c1.3-1.3,2.7-2.6,4-3.9
		c1.2-1.7,3.4-0.8,5.3-2.2C155.9,70,152.6,70.7,150.6,68.3z"/>
	<path fill="#B7AEA3" d="M129.5,86.3c1-0.3,2-0.7,3-1c0.4-0.3,0.9-0.8,1.3-0.6c9.2,3.1,17.2-1,25.4-3.9c4.3-1.5,8.6,0,12.7,1.2
		c2.2,0.6,4.3,1.6,6.7,1.2c0.8-0.2,2-0.2,2.4,0.3c2.5,3.1,6.5,2.3,9.5,3.9c0.8,3.2-1.8,3.4-3.6,3.2c-7.6-0.8-15.3,2.1-22.7-1.1
		c-0.9-0.4-2-0.3-3-0.2c-14.6,2.7-29.3,2.5-44,2.5c-3,0-6,0.1-8.8,1.3c-3.3,0.2-6.7-0.5-10-0.4c-1.5-0.1-2.9-0.1-4.1-1.1
		c-0.8-1.1-0.8-2.2,0.1-3.2c1,0,2,0,2.9-0.1c3-0.3,6.2,1.1,9-1c0.7,0,1.3,0,2,0C115.5,87,122.4,85,129.5,86.3z"/>
	<path fill="#C6BAB0" d="M190.5,87.3c-2.1,0-4.3,0-6.4,0c0.1-0.3,0.1-0.7,0.2-1c-2.4-0.6-4.8-1.2-7.2-1.7c-4.2-1-8.4-2.1-12.7-2.7
		c-1.9-0.3-4,0.4-6,0.9c-6.4,1.5-12.7,3.3-19.1,4.4c-2.1,0.4-4.6-1.2-6.9-1.9c0.8-0.7,1.5-1.8,2.4-1.9c6-0.9,12-1.6,17.9-2.6
		c1-0.2,1.9-1.6,2.8-2.5c2,0,3.9-0.1,5.9-0.1c4-1.1,7.9-2.9,12.2-1.9c1.6,0.4,1.9,2.1,2.9,3c3.2-1.3,6.4-0.4,9.5,0.1
		c1.7,1.1,3.5,2,5.2,3c0.3,0.3,0.6,0.7,0.7,1.1c0,1.1-0.3,2.2-0.9,3.1C190.9,87,190.7,87.1,190.5,87.3z"/>
	<path fill="#B19F8E" d="M94.5,91.2c1.4,0,2.7,0.1,4.1,0.1c0.8,3.3-1.8,3.3-3.6,3.3c-7.9-0.1-16,1.1-23.8-1.3
		c-4.2-1.3-8.6-0.3-12.9-0.6c-1.2,0-2.3-0.1-3.4-0.5c-3.2-2.4-7-1.1-10.5-1.7c-0.5-0.1-0.9-0.2-1.3-0.4c-0.8-0.3-0.9-1.4-1.9-2.2
		c-0.1-0.2-0.3,0.6,0,0.7c1.4,0.4,0.3,0.9-0.1,1.4c-1.3,0.6-2.7,0.6-4,0.5c-1.5-0.1-3-0.7-4.5-0.9c-0.9-0.2-1.6,0.1-2.1,0.8
		c-0.3,0-0.6-0.1-0.9-0.1c0.1-1.1,0.2-2.2,0.3-3.3c10.4-3,20.6-2.3,30.7,0.3c0.7,0,1.3,0,2,0.1c1-0.1,2-0.1,3,0c1,0,2,0,2.9,0
		c6.6,2.2,13.4,1.2,20.2,1.9C90.7,89.4,92.9,89.2,94.5,91.2z"/>
	<path fill="#DCD9D7" d="M61.5,78.3c3.4,0.3,6.8,0.6,10.1,1c4.4,0.6,8.5,1.7,10.9,6c-6.6-1.7-13.2-3.3-19.8-5
		C62.2,80.1,61.9,78.9,61.5,78.3z"/>
	<path fill="#C6BAB0" d="M94.5,91.2c-5.3-0.3-10.6-0.3-15.8-1c-3.5-0.5-6.8-1.9-10.3-2.8c8.7,0.3,17.4,0.7,26.1,1
		C94.5,89.3,94.5,90.3,94.5,91.2z"/>
	<path fill="#C6BAB0" d="M129.5,86.3c-7,0.3-14,0.7-21,1c1.9-0.7,3.8-1.6,5.8-2c3.3-0.7,6.8-0.9,10.1-1.6
		C127,83.1,129.1,82.9,129.5,86.3z"/>
	<path fill="#C6BAB0" d="M36.5,61.2c-0.4,1.9-0.8,3.8-1.2,5.6c-0.5-0.1-1-0.2-1.5-0.2c0.8-3.1-3.5-6.3,0.7-9.4
		C35.8,58.3,35.9,59.9,36.5,61.2z"/>
	<path fill="#C6BAB0" d="M106.5,87.3c-2.6,3.8-5.8,2.4-9,1C100.5,88,103.5,87.6,106.5,87.3z"/>
	<path fill="#CAC4BA" d="M36.5,61.2c-0.7-1.3-1.3-2.7-2-4c0.7,0.1,2,0.1,2,0.3C36.6,58.7,36.5,60,36.5,61.2z"/>
	<path fill="#C6BAB0" d="M65.5,87.3c-1,0-2,0-3,0C63.5,87.3,64.5,87.3,65.5,87.3z"/>
	<path fill="#D6D1CC" d="M82.5,405.4c1,0.3,2,0.7,3,1c-0.3,0.2-0.3,0.4-0.3,0.6c0.1,0.2,0.2,0.3,0.3,0.3c0.7,0,1.3,0,2,0l0,0
		c1.4,0.6,2.8,1.7,4.2,1.8c1.5,0.2,3.2-0.5,4.7-0.8c0.5,0.6,1.2,1,2,1c1.7,0.3,3.3,0.7,5,1c1.1,0,2.2,0.1,3,1.1
		c-0.1,1.7-0.6,3.3-0.8,5c-2.2,3-5.5,2.7-8.1,1.7c-3.2-1.2-6.4-1.4-9.7-1.7c-0.5-0.1-1-0.3-1.4-0.5c-1.5-1.3-3.3-1.4-5.2-1.3
		c-3.4,0.2-6.5-1.2-9.7-1.9c-1.6-1.9-3.4-3.6-6-4.2c-2.9-1.2-6.3-1.7-6.5-5.9c6.7-1.5,2.6-6,2.5-9.3c2.3-1,6.6,0.3,6.9,2
		c-0.2,0.2-0.3,0.4-0.3,0.7c0.1,0.2,0.1,0.3,0.2,0.3l0,0c2.5,5.3,9,7,11.5,11.9C80,407,81.2,406.2,82.5,405.4z"/>
	<path fill="#E2DFDD" d="M121.5,407.4c-0.8-2.9-1.5-5.8-2.5-9.5c-2.4-1.2-6-3.1-9.6-5c0.4-0.5,0.8-1,1.2-1.5c1.4-1.3,3-1,4.6-0.8
		c5.7,1,11.5,1.2,17.2,1.9c1.8,0.2,4,0.3,5.4,2.1c0.9,3-0.5,5.5-1.8,7.9c-0.6,0.6-1.6,1-1.8,1.7c-1.1,4.4-4.4,4.8-8.1,4.6
		C124.4,408.8,122.8,408.6,121.5,407.4z"/>
	<path fill="#B18A6B" d="M137.6,395.3c-6.1-0.9-12.2-1.9-18.3-2.7c-2.9-0.4-5.9-0.7-8.8-1.1c-1.3-0.4-2.6-0.7-4-1.1
		c-0.1-1.2,0.7-1.6,1.6-2c7.1-1.6,13.8,1.1,20.7,1.8c14.5,1.3,28.8,0.9,43-1.7c3.4-0.6,6.9-1.2,10.3,0.3c1.5,2-0.4,2.4-1.5,3
		c-1.9,1-4,1.1-6.1,1.6c-7,1.1-14.1,1.1-21,2.7c-3.6-0.1-7.2-0.4-10.8,0.4C140.8,396.9,139,396.9,137.6,395.3z"/>
	<path fill="#DCD9D7" d="M121.5,407.4c1.7,0,3.3,0,5,0c1.5,1,3.3,0.8,4.9,1.4c0.7,0.7,1.4,0.4,2-0.2c3.5-0.5,7.1,0.1,10.7-1.7
		c2.9-1.5,4.9,0.6,6,3.4c-4.6,5.4-10.6,6.5-15.6,3c-3.1,3.7-8.9,4.2-15.3,1.5c-0.8-1.3-1.6-2.5-2.3-3.9c-0.1-1.5-1-3.3,1.7-3.5
		C119.5,407.6,120.5,411.3,121.5,407.4z"/>
	<path fill="#716857" d="M55.2,376.6c0.1-1.9,0.2-3.8,0.3-5.7c0.8,0.9,1.4,2.2,2.4,2.7c0.9,0.6,2.2,0.4,3.4,0.6
		c0.7,0,1.4,0.1,2.1,0.1c0.5-0.5,1.1-0.6,1.8-0.4c0.8,0.3,1.4,1,2,1.6c0.4,0.4,0.9,0.9,1.3,1.3c0.3,0.3,0.6,0.6,0.9,0.8
		c1.2,1.3,2.9,1.6,4.6,2c0.4,0.1,0.8,0.3,1.2,0.5c2.3,2,6.5,1.4,7.3,5.4c-3-0.1-6,0.2-8.9-0.3C66.8,384.2,60.1,382.2,55.2,376.6z"/>
	<path fill="#B18A6B" d="M59.1,402.8c2.4,1.6,4.8,3.3,7.2,4.9c2.5,4.5,2.3,4.9-2.9,6.3c-3.1-1.5-5.5-3.9-7.4-6.7
		c-4-4.1-5-9.3-4.9-14.8c0.4,0,0.9,0,1.3,0C54.7,395.9,56.9,399.3,59.1,402.8z"/>
	<path fill="#E2DFDD" d="M82.5,405.4c-0.4,1.8-0.8,3.6-1.2,5.7c0.3-0.1-0.3,0.1-0.3,0.1c-2.5-6.3-11.7-7-12.5-14.8c2,0,3.9,0,5.5,0
		c0.3,1.5,0.5,2.9,0.8,4.6c2.2-1.6,4.1-4,4.7,0.4l0,0c-0.6,0.2-1.1,0.4-2.2,0.8C79.3,403.5,80.9,404.5,82.5,405.4z"/>
	<path fill="#E2DFDD" d="M118.5,407.4c-0.3,1.3-0.7,2.7-1,4c-0.2,0.2-0.3,0.3-0.5,0.5c-2.4,0.5-5.4-0.2-6.6,3
		c-1.6,0.9-3.3,0.9-5,0.5c-2.1-1.1,1.3-4.4-2-5C106.1,406.6,113.8,405.1,118.5,407.4z"/>
	<path fill="#B19F8E" d="M107.5,389.4c-0.3,0.3-0.7,0.7-1,1c-7-1-13.9-2-20.9-3.2c-0.8-0.1-1.5-1.1-2.2-1.7
		c-0.5-0.8-0.5-1.5,0.1-2.3c2.2-1.6,4.4-0.7,6.6,0c4.5,1.5,9.2,2.6,14,3.1C105.7,386.9,107.5,387.1,107.5,389.4z"/>
	<path fill="#E2DFDD" d="M80.5,395.4c1.4-0.3,2.8-0.6,5.6-1.1c-1.1,2-1.7,3.9-2.2,3.9c-1.3,0-2.6-1-3.8-1.6
		C80.2,396.2,80.3,395.8,80.5,395.4z"/>
	<path fill="#E2DFDD" d="M81.4,395.3c-2,0.4-3.1,0.6-4.5,0.8c0-1.6,0-2.9,0-4.3c0.4-0.2,0.7-0.4,1.1-0.6
		C79,392.5,80,393.7,81.4,395.3z"/>
	<path fill="#C6BAB0" d="M83.5,383.5c0,0.7-0.1,1.3-0.1,2l-0.4,0l-0.4,0c-2.8-1.7-5.5-3.3-8.3-5c2.3-1.6,4.2,0.2,6.2,0.7
		c0.4,0.2,0.8,0.4,1.1,0.6c0.5,0.3,1.1,0.7,1.5,1.1C83.3,383.1,83.4,383.3,83.5,383.5z"/>
	<path fill="#E2DFDD" d="M98.5,409.4c-0.7-0.3-1.3-0.6-2-1C97.1,408.8,97.8,409.1,98.5,409.4z"/>
	<path fill="#E2DFDD" d="M88.5,406.5c0.7,0.1,1.5,0.1,2.2,0.2c0,0.2,0,0.4,0,0.6c-0.7,0.1-1.5,0.1-2.2,0.2c-0.2-0.2-0.3-0.4-0.2-0.7
		C88.3,406.6,88.4,406.5,88.5,406.5z"/>
	<path fill="#E2DFDD" d="M93.2,406.8c0.1,0,0.2-0.1,0.3-0.1c0,0.2,0.1,0.3,0.1,0.5c-0.1,0-0.3,0-0.4-0.1
		C93.2,407.1,93.2,406.9,93.2,406.8z"/>
	<path fill="#E2DFDD" d="M79.5,401.4c0.1,0.1,0.3,0.2,0.4,0.2C79.8,401.6,79.6,401.5,79.5,401.4C79.5,401.4,79.5,401.4,79.5,401.4z"
		/>
	<path fill="#E2DFDD" d="M85.5,407.4c0-0.3,0-0.6,0-1C85.5,406.8,85.5,407.1,85.5,407.4z"/>
	<path fill="#D6D1CC" d="M88.5,406.5c0,0.3,0,0.6,0,1c-0.3,0-0.7,0-1,0l0,0C87.8,407.1,88.2,406.8,88.5,406.5z"/>
	<path fill="#E2DFDD" d="M68.5,396.5c0-0.3,0-0.7,0-1C68.5,395.8,68.5,396.1,68.5,396.5z"/>
	<path fill="#C6BAB0" d="M186.6,53.1c-1.7-0.3-3.3-0.7-5-1c1-2.9,3-1.5,4.8-1.4c-2.8-1.1-5.6,0.5-8.4,0.1c-1.7-0.2-3.4,0-2.5-2.6
		l-0.1-0.2c18.7-0.3,37.3-0.5,56-0.8c1.1,2.1,4.7,0.8,5.1,3.8c-2.9,2.6-6.5,1.3-9.8,1.6c-1.4,0-2.8,0-4.3,0c-2.2,0.1-4.5,0-6.7,0
		c-4.2,0.8-8.6,0.9-12.8,1.6c-1,0.2-2.1,0.1-3.1-0.1c-1.2-0.3-2.4-0.6-3.6-0.7C193.1,52.3,189.8,54.4,186.6,53.1z"/>
	<path fill="#D6D1CC" d="M236.5,50.3c-2.1-0.3-5.1,1.1-5-2.9c6.6-0.7,13.1-1.3,19.7-2.1c7.5-0.9,14.9-2,22.4-3
		c-1.1,2-2.1,4.1-3.4,6.4c-2.1-0.6-4.9-1.5-7.6-2.3c-1.8,1.4-4,0.8-6,0.9c-1.3,0-2.7,0-4,0c-2.6,2.1-5.8,1.2-8.7,1.5
		C241.3,48.8,239,49.9,236.5,50.3z"/>
	<path fill="#EDEDEB" d="M319.6,218.3c0,3.7,0,7.3,0,11c1.9,3.3,0.9,6.8,0.9,10.2c-0.1,6.6-1.4,13.2-0.7,19.8c0,0.3,0,0.7-0.1,1
		c-3.8,11.6-3.7,24.2-8.3,35.7c-1.8,4.5-4.9,5.5-8.3,2c-2.3-2.4-4.6-4.8-6.9-7.2c-0.4-0.3-0.8-0.7-1.1-1.2c-0.4-0.7-0.5-1.4-0.5-2.2
		c0-0.5,0.1-1,0.2-1.5c0.1-0.8,0.2-1.5,0.3-2.3c-0.2-6.1,2.2-11.9,2.4-18c0-1.5,0.9-2.8,2.3-3.6c2.5-0.4,2.9,1.4,2.9,3.1
		c-0.1,4.5,0.7,8.9,1.2,13.3c0.1,0.5,0.1,0.9,0,1.4c0.1-0.5,0.2-0.9,0.1-1.4c-0.1-0.8,0.2-1.5,0.7-2.1c3.6-7.9,3.3-16.5,4.4-24.9
		c1.6-12.3,0.4-24.4-2.4-36.6c-1-4.3-0.9-8.9-3.6-12.7c-2.5-2.7-0.5-6.2-1.7-9.1c-0.1-2.9-0.4-5.9-1.1-8.7c0.1-3-0.6-5.9-1.1-8.8
		c0-3.7-2.5-7.1-1.3-10.9c2.3-1.6,3.6-3.7,2.7-6.7c-0.5-1.8,0.1-3.6,0.6-5.4c0.7-2.5,0.8-5-0.9-7.1c-1.6-2-0.8-4.6-1.6-6.6
		c-3-6.9-8.3-11.8-14.7-15.5c-1.7-1-3.5-0.5-5.2,0.5c-1.1,0.7-2.3,1.4-3.6,0.3c-0.6-0.9-0.8-2-0.9-3c0-1.4,0.1-2.8,1.2-3.9
		c4.1-1.6,8.1-3.1,12.3-4.7c7.8,4.7,11.2,13,15.7,20.4c4.4,7.2,3.8,15.9,6.2,23.7c2.7,8.9,2.9,18,4.1,27.1c1.1,8,1.7,16.1,2.9,24
		C317.2,211.3,318.6,214.8,319.6,218.3z"/>
	<path fill="#CAC4BA" d="M275.5,117.3c0,1.3,0,2.6-0.1,3.9c-0.9,1-1.9,1-3,0.4c-1.5-1.8-1.1-4.1-1.2-6.2c0.1-1.9-0.5-3.9,0.6-5.7
		c1.2-1.3,2.1-2.9,4.1-3.2c0.2,1.9,0.6,3.7,0.5,5.6C276.4,113.7,275.8,115.5,275.5,117.3z"/>
	<path fill="#B19F8E" d="M275.9,106.4c-1.1,1-2.2,2.1-3.3,3.1c-0.9,0.1-1.3-0.3-1.1-1.2c0.7-2.2,1.4-4.5,2.2-6.7
		c0.4-0.1,0.9-0.1,1.3-0.2c0.5,1.2,0.9,2.4,1.4,3.7C276.2,105.5,276.1,105.9,275.9,106.4z"/>
	<path fill="#C6BAB0" d="M107.5,31.2c-4.8-2.3-9.5-4.7-14.3-7c1.5,0,3.1-0.3,4.4,0.2c8.2,2.9,16.4,6,24.6,9c1,0.4,2.1,0.7,3.1,1.1
		c3.3,1.3,7.5,1.2,9.4,5.1c-1.3,2.4-3.3,1.3-5.1,0.8c-1.9-0.5-3.5-1.6-5.5-1.9C118.6,36.3,112.6,34.8,107.5,31.2z"/>
	<path fill="#E8E7E5" d="M27.6,5.3c-0.6-0.2-1.2-0.5-1.7-0.7c9.5-3.5,19-2.5,28.6-1.4c-2,0.5-3.9,1-6,1.5c0.2,0.4,0.6,1.1,1,1.8
		c-2.7,2.1-5.4,0.1-8.1,0.1C36.8,5.6,32.3,4.8,27.6,5.3z"/>
	<path fill="#CAC4BA" d="M92.6,24.2c-9.7-3.7-19.3-7.4-28.9-11.1c-0.8-0.3-1.4-1.2-2.1-1.9c8.3,2.8,16.6,5.4,24.7,8.5
		C88.6,20.6,90.5,22.7,92.6,24.2z"/>
	<path fill="#C6BAB0" d="M60.5,11.2c-1.7,0-3.3,0-5,0c-1.7,0.3-3.3,0.3-4.9-0.5c-0.6-0.5-0.8-1.2-0.6-1.9c0.1-0.2,0.3-0.4,0.4-0.6
		C53.8,9.2,57.2,10.2,60.5,11.2z"/>
	<path fill="#C6BAB0" d="M41.4,5.4c2.7,0.4,5.3,0.7,8,1.1c0.4,0.6,0.7,1.2,1.1,1.7l0,0c-3.4,1.9-6.4,0.8-9.3-1.3
		C41,6.4,41.1,5.9,41.4,5.4z"/>
	<path fill="#CAC4BA" d="M105.5,415.4c1.7-0.3,3.4-0.7,5-1c2.3-0.5,4.7-0.1,7-0.7c0.8,0,1.4,0.2,2,0.7c3.3,0.3,6.7,1.2,9.9,0.7
		c2.2-0.4,4.1-2.8,6.2-4.3c0.2,2.3,0.2,5.1,4,2.7c0.9-0.6,2.6,0.1,4.3,0.2c1.3-0.8,3.1-1.8,5.2-3.1c-1.6-2.1-2.6-3.8-6.2-2
		c-2.9,1.4-7,0.7-10.5,0.9c-0.3,0.3-0.7,0.4-1,0c-1.7-0.7-3.3-1.3-5-2c1.8,0,3.5,0,5.6,0c-0.2-1.7-0.3-3-0.4-4.5
		c1.4-0.2,2.6-0.3,3.8-0.5c4.5-1.6,9.1-1.4,13.7-1c2,0.1,4,0.5,5.4-1.4c0.4-1.8-2.9-2.8-1.1-4.9c7-0.9,14-1.9,21-2.8
		c0.8,0.6,0.9,1.5,0.8,2.5c-0.2,0.4-0.3,0.9-0.3,1.3c0.1-0.4,0.3-0.8,0.6-1.2c3.9-2.9,7.9-1.8,11.9-0.4c0.3,0.7,0.7,1.3,1,2
		c3.2,4.3,4.1,9.1,2.9,14.4c-1.1,2.7-3.3,3.9-6.2,3.7c-2-0.2-3.4,0.5-4.5,2.1c-9.1,0.7-18.3,0.6-27.5,0.9c-6,0.2-12.3-0.1-17.6,4.1
		c-3,2.4-6.8,0.7-10.2,0.7c-1.2-0.1-2.2-0.5-2.7-2.1c-1.5,2.4-3.8,2.5-6.2,2.6c-8.9-0.1-17.4-1.8-25.9-4.1c-0.7-0.2-1.4-0.5-2.1-0.8
		c-0.7-0.2-1.3-0.6-1.9-1c-0.4-0.4-0.5-0.8-0.3-1.3c3.7,0.5,7.3,1.3,11,1.5C100.2,417.4,103.4,418.9,105.5,415.4z"/>
	<path fill="#B19F8E" d="M180.5,416.4c0.2-1.2,0.4-2.5,0.4-2.6c3.7-0.9,6.7-1.6,9.6-2.4c1.3,1.1,2.4,0.7,3.5-0.2
		c3.7-2.8,6.4-1.3,8.5,2.2c2.1-0.6,4.1-1.2,6.2-1.8c-0.6,0.2-1.2,0.4-1.8,0.6c1.6,0.7,3.1,1.5,4.7,2.2c0.2,0.4,0.3,0.8,0.1,1.3
		c-0.6,2.2-1.4,4.3-3.2,5.7c-5.3,1.7-10.7,3.4-16,5.1c-0.5-0.4-0.8-1-0.8-1.6c0-0.4,0.1-0.8,0.2-1.1c0.2-0.5,0.4-1,0.3-1.5
		c-0.1-0.3-0.3-0.6-0.6-0.8c-0.5-0.3-1-0.5-1.5-0.6c-2.4-0.6-4.9,3-7.2-0.3C184.3,417.9,180,418.6,180.5,416.4z"/>
	<path fill="#C6BAB0" d="M202.5,413.5c-3-2.2-5.8-4-9.2-0.2c-1.1,1.3-3.2,1-2.8-1.7c-0.7-5-1.3-10.1-2-15.1c2.3-0.9,4.5-1.7,7.2-2.7
		c0.6,2.7,1,4.4,1.3,6.1c2.7-0.9,5.3-1.7,7.9-2.6c2.9,2.6,2.3,5.5,0.7,8.7C204.4,408.3,203.6,410.9,202.5,413.5z"/>
	<path fill="#716857" d="M204.5,383.5c2.7-0.5,5.5-1,8.2-1.5c0.7,1.4-0.1,2.4-0.9,3.5c-4.2,1.4-8.1,3.6-13,3.2
		c-2.5-0.2-5.2,1.5-7.8,2.3c-1.2,0.1-1.5-0.8-1.8-1.7c0-0.5,0.2-0.9,0.5-1.3c1.3-0.9,2.8-1.6,4.2-2.4c3.2-0.6,6.3-1.6,9.4-2.7
		C203.7,383,204.1,383.1,204.5,383.5z"/>
	<path fill="#C6BAB0" d="M189.6,389.4c0.5,0.5,0.9,1.1,1.4,1.6c-1.2,0.4-2.4,0.8-4,1.4c0.1,0.4,0.3,1.2,0.5,2c-4,0.3-8,0.7-12,1
		c-0.3,0.3-0.7,0.3-1,0c0-1.1,0-2.1,0-3.2c2.7-0.9,5.3-1.9,8-2.8c0.6-0.8,1.5-1,2.4-1c0.6,0,1.3,0.1,1.9,0.3c0.5,0,0.5,1.1,1.3,0.5
		c0.2-0.1,0.4-0.1,0.5-0.2C189,388.9,189.3,389.1,189.6,389.4z"/>
	<path fill="#716857" d="M211.6,415.4c0.1-0.3,0.1-0.6,0.1-0.9c2.6-1.3,5.2-2.7,7.8-4l0-0.1c1.7,2.2,0.3,3.7-1.3,5
		c-1.9,1.4-3.8,2.8-6.3,2C210.9,417.2,210.9,416.2,211.6,415.4z"/>
	<path fill="#B19F8E" d="M214.5,394.2c-4.1,0-8.2,0-12.2,0c-0.1-0.4-0.2-0.8-0.3-1.2c1.2-0.2,2.4-0.6,3.6-0.6c1.7,0,3.4,0.3,5,0.5
		c1.4,0.2,2.7,0.4,4.1,0.5C214.6,393.7,214.5,394,214.5,394.2z"/>
	<path fill="#B18A6B" d="M211.8,385.5c0.3-1.2,0.6-2.3,0.9-3.5c1.4-0.2,2.8-0.4,4.2-0.7C217.7,385.9,213.8,384.6,211.8,385.5z"/>
	<path fill="#B19F8E" d="M215.5,390.4c-1.2-0.6-2.4-1.2-3.6-1.8c0-0.3,0.1-0.6,0.1-1c2.1,0,4.2,0,6.3,0c0.1,0.6,0.2,1.2,0.3,1.8
		C217.6,389.8,216.6,390.1,215.5,390.4L215.5,390.4z"/>
	<path fill="#B19F8E" d="M216.9,395c1.3-0.4,2.7-0.9,4-1.3c0.1,0.4,0.3,0.7,0.4,1.1c-1.3,0.5-2.6,1-3.9,1.5
		C217.2,395.8,217,395.4,216.9,395z"/>
	<path fill="#B19F8E" d="M215.5,390.5c-0.3,0.3-0.7,0.6-1,0.9c-0.1-0.2-0.2-0.3-0.3-0.5C214.7,390.7,215.1,390.5,215.5,390.5
		L215.5,390.5z"/>
	<path fill="#E8E7E5" d="M242.6,47.3c3.3,0,6.6,0,10,0c-0.5,1.6-1.2,3.2-1.3,4.8c-0.1,1.4,0.2,3.5,1.1,4.2c1,0.7,3.1,0.6,4.4,0.1
		c2-0.7,3.8-2.1,6.1-3.5c-0.3,3.6-0.5,6.4-0.6,9.1c-0.1,2.6,0,5.3,0,7.9c-0.7,0.1-1.3,0.2-2,0.3c-0.8-1.8-1.7-3.6-2.7-5.8
		c-1.6,0.8-3.3,1.7-4.4,2.3c-3.6-1.2-6.7-2.3-10.6-3.6c0,3,0,5.1,0,7.2c-0.2,0.1-0.5,0.3-0.7,0.4c-1.7,0.1-2.6-0.8-3.2-2.3
		c-0.1-4.9,0.7-9.8,0.5-14.8C239.1,50.8,241.2,49.3,242.6,47.3z"/>
	<path fill="#E8E7E5" d="M261.6,89.3c-0.3,1.7-0.6,3.4-0.9,5.1c-0.2,0.2-0.4,0.3-0.5,0.5c-2.7,0.8-5.6,0.2-8.3,1.2
		c-8.5-1.4-12.5-7.3-11.3-17.2c0.3-2.9,0.7-5.9,2-8.6l0,0c4.4-0.4,7.2,0.5,7.3,6c0.1,2.7,2.2,5.3,3.7,8.7
		C255.8,86.1,258.7,87.7,261.6,89.3z"/>
	<path fill="#D6D1CC" d="M270.6,61.2c-1.7,1-3.3,2-5,3c0.6-3.7,1.2-7.4,2.1-11c0.1-0.5,1.9-0.7,2.9-1c1.3,2,1.3,4.1,0,6.1
		C270.6,59.3,270.6,60.2,270.6,61.2z"/>
	<path fill="#DCD9D7" d="M270.6,58.3c0-2,0-4.1,0-6.1C273.6,54.2,273.6,56.3,270.6,58.3z"/>
	<path fill="#E8E7E5" d="M256.5,47.2c2-0.3,4-0.6,6-0.9C261,49.7,258.8,48.4,256.5,47.2z"/>
	<path fill="#CAC4BA" d="M124.5,37.3c3.4,0.6,6.7,1.3,10.1,1.9c1.4-1.2,3-0.4,4.5-0.2c6.4,2.6,13.1,4.1,19.8,5.9
		c1.1,0.1,2,0.6,2.8,1.3c2,0.4,4,0.7,6,1.1c1.4,1.5,3.3,0.8,5,0.9c1,0,2,0.1,3,0.1c2.4,0.5,4.7,1,7.1,1.4c1.7,0.3,3.3,0.4,4.9,1.1
		c-2,0.5-4,0.9-6,1.4c-13-0.4-26.1-0.7-39.1-1.1c-1.3-3,1.9-2.3,3.1-3.8c-1.7-1.3-3.9-1.4-5.8-2.3c-2.2,2-4.3,4.4-7.6,2.4
		c-1.1-2.2-3.3-3.1-5.1-4.5C125.2,41.5,122.7,40.3,124.5,37.3z"/>
	<path fill="#DCD9D7" d="M158.5,46.1c-6.7-2-13.4-3.9-20-5.9c-1.6-2.6-0.1-3.9,2-5c1.3,0,2.7,0,4,0c1.1,1.4,2.5,1.4,4,1
		c2.7,0,5.3,0,8,0C161.2,39,161.4,40.3,158.5,46.1z"/>
	<path fill="#E2DFDD" d="M158.5,46.1c0.2-2.1,0.4-4.2,0.6-6.6c-0.7-0.9-1.7-2.1-2.6-3.2c2.1,0.8,4.1,1.5,6.2,2.3
		c-0.1,0.4-0.2,0.7-0.3,1.1c3.5,0,7.1-0.3,10.6,0.1c1.3,0.1,3.4,2.1,3.3,2.9c-0.2,1.4-1.9,2.5-2.3,2.8c-3.1-1.7-5.4-3.9-7.5-3.8
		c-1.7,0.1-3.3,2.9-4.9,4.5C160.5,46.2,159.5,46.1,158.5,46.1z"/>
	<path fill="#E2DFDD" d="M140.5,35.2c-0.7,1.7-1.3,3.3-2,5c-1.3-0.3-2.7-0.7-4-1c-3-1.6-6.1-3.2-9.1-4.8c1.9-3.6,5.2-2.3,7.9-2
		C135.8,32.8,138.1,34.3,140.5,35.2z"/>
	<path fill="#C6BAB0" d="M172.5,48.2c-2,1.4-3.8,2.1-5-0.9C169.2,47.6,170.9,47.9,172.5,48.2z"/>
	<path fill="#E2DFDD" d="M148.5,36.2c-2.2,3.1-3.3,1.9-4-1C145.8,35.6,147.2,35.9,148.5,36.2z"/>
	<path fill="#EDEDEB" d="M173.5,31.2c1.3,0,2.7,0,4,0c-0.6,0.6-1.3,1.9-1.7,1.8C174.9,32.8,174.3,31.9,173.5,31.2z"/>
	<path fill="#FBBC58" d="M68.5,349.4c-0.7-4.3,1.9-9.2-2-13c-1.8-2.2-1.3-4.7-1.1-7.2c0.4-5.7-0.5-11-4.3-15.5
		c-1.9-2.2-2.1-4.9-1.9-7.5c0.5-8.1-1.1-15.8-3.4-23.5c-1.5-5.1-1.1-10.5-1.9-15.7c-1-7-2.8-14-2.7-21.1c0.1-4.8-1.5-9.2-2.2-13.7
		c-1.5-10.3-1.5-20.7-4.3-30.8c0-1,0-1.9,0-2.9c-0.6-4.2-1.1-8.5-1.1-12.8c0-1.8,0.2-3.7-1-5.2c-0.1-0.7-0.1-1.4-0.2-2
		c1.2-1.9,0.4-3.5-0.9-4.9c0-0.7,0-1.4,0-2.1c1.4-11.8-2-23.3-2.9-35c-0.4-4.9-1.4-10-1.5-15.1c-0.1-1.4-0.6-2.6-1.3-3.7
		c-2.3-7.7-2.6-15.7-2.6-23.7c0.1-1.2,0.2-2.4,0.9-3.4c0.7-0.8,1.6-0.6,2.4-0.6c1.7,0.5,3.6,0.2,5.3,0.8c1.3,0.5,3.6,0.5,2.5,3.1
		c-1.1,1-3,0.7-4,2.3c-0.6,2.9-0.9,6.2,0.1,9.1c1.8,5.4,1.6,10.8,1.6,16.3c0,5.8,1.5,11.6,2.5,17.2c1.5,8,1.3,15.9,1.5,23.8
		c0,3.1,0.4,5.8,2.5,8.4c2.2,2.6,2.3,6.2,3,9.4c0.9,4.6,2.3,9,3.8,13.4c1.6,4.7,3.4,9.4,2.8,14.5c-0.1,1.2,0,2.5,0.6,3.4
		c4.2,6.6,3.8,14.1,3.2,21.4c-0.6,8.1,1.3,15.7,4.8,22.6c3.6,7.1,3.3,14.8,5.2,22.2c0.6,2.6,1.1,5.2,2.8,7.4c2.6,3.3,3.6,7,3.4,11.2
		c-0.2,2.9,0.8,5.4,2.2,8c3.7,6.6,4.6,14.2,5.5,21.6c0.6,4.6,1.9,8.2,5.3,11.3c2.4,2.2,4.7,4.7,6.4,7.5c1.1,4.1-2,5.7-4.4,7.8
		c-3.7,1.9-5.5-0.8-7.3-3.2c-1.5-2-2.6-4.3-5.3-4.7c-2.5,1-2.5,3-2.4,5.1c0.1,1.2,0.5,2.3,0.8,3.4c2.3,7.7,2.3,7.7-5.5,9.6
		c-2-1.9-3.5-4.2-5.6-5.9C66.8,354.2,66.7,351.7,68.5,349.4z"/>
	<path fill="#DBAC76" d="M44.6,201.2c0.5,0.3,1.5,0.6,1.5,1c0.9,4.5,1.6,9,2.4,13.5c1.3,8,2.6,16.1,3.9,24.1c0.1,0.3,0.1,0.7,0.1,1
		c0.7,8,0.9,16,2.2,23.9c1.5,9.4,4,18.5,5.6,27.9c0.8,4.7,0,9.6,0.4,14.4c0.2,2.2,1.7,4.2,2.4,6.4c1.5,4.8,3.1,9.6,4,14.5
		c0.5,2.7-0.3,5.6-0.6,8.4c-5.8,1.3-7.7-2.6-9-7c-0.3-5.5-0.5-11.1-1-16.6c-0.4-4.1-1.3-8.2-1.9-12.4c0-1.3,0-2.7,0-4
		c-0.9-1.1-1-2.5-0.9-3.8c0.4-5.1-0.6-10.2-1.1-15.2c-0.3-2.7-0.6-5.3-0.9-8c-0.2-1.7,0.4-3.6-0.9-5c-1.3-12.6-2.6-25.3-3.9-37.9
		C45.9,218,45.3,209.6,44.6,201.2z"/>
	<path fill="#A57C47" d="M31.8,112.5c0.1-0.3,0.1-0.6,0-0.9c0-1.1-0.1-2.1-0.1-3.2c0.2-0.4,0.2-0.8-0.1-1.2
		c-0.3-3.9-0.5-7.9-0.8-11.8c3.2-0.7,2.5,1.7,2.6,3.3c0.3,5.5,1.7,10.8,1.9,16.3c0.1,2.1,1,3.8,1.9,5.6c0.3,10.7,2.1,21.1,3.4,31.7
		c0.2,1.8,0.4,3.6-1.1,5.1c-0.6,1.3-1.2,2.6-1.8,3.8c-1.1-10.3-2.3-20.6-3.4-30.9C33.4,124.4,32.6,118.5,31.8,112.5z"/>
	<path fill="#DBAC76" d="M39.5,157.3c-1.1-12.3-2.1-24.7-3.2-37c-0.6-1-0.7-2,0.2-3c0.7,1.6,1.7,3.2,1.9,4.9
		c0.9,8.5,0.3,17.3,2.6,25.3c2.1,7.5,0.7,14.7,1.4,22.1c0,0.5-0.6,1.1-0.9,1.7c-0.3-2.6-0.7-5.3-1-7.9
		C40.1,161.3,39.8,159.3,39.5,157.3z"/>
	<path fill="#B19F8E" d="M52.5,277.4c0.7,6.3,1.3,12.7,2,19c-0.4-0.2-1.3-0.3-1.3-0.5C52.9,289.7,52.7,283.5,52.5,277.4z"/>
	<path fill="#DBAC76" d="M42.5,180.3c0.6,0.9,1.8,1.7,1.8,2.6c0.2,5.1,0.2,10.3,0.2,15.4C43.9,192.3,43.2,186.3,42.5,180.3z"/>
	<path fill="#DBAC76" d="M41.5,173.3c1,0.6,1.9,1.2,2.9,1.8c-0.7,1-1.4,2.1-2,3.1C42,176.6,41.8,175,41.5,173.3z"/>
	<path fill="#B19F8E" d="M50.6,264.3c2.9,1.2,2.3,3.1,0.9,5C51.2,267.7,50.9,266,50.6,264.3z"/>
	<path fill="#B7AEA3" d="M211.6,415.4c3.1,1.9,7.1-0.6,7.9-5c1,1,2.1,2,3.1,3.1c-4.7,2.7-9.3,5.3-14,8
		C209.6,419.5,210.6,417.5,211.6,415.4z"/>
	<path fill="#B7AEA3" d="M192.5,424.5c0,0.7,0,1.3,0,2c0,0.3,0,0.6,0,0.9c-0.5,0.8-1.2,0.9-2,0.9c-1,0.1-2,0.2-2.9,0.3
		c-3,0.3-6,0.6-9,0.9c-1-0.1-1.9-0.3-2.3-1.3c0-0.5,0.1-0.9,0.5-1.3c0.6-0.4,1.3-0.6,2-0.7C183.4,426.1,187.8,423.8,192.5,424.5z"/>
	<path fill="#E2DFDD" d="M190.5,428.3c0.7-0.3,1.4-0.6,2-0.9c0.1,0.5,0.3,1,0.4,1.6C192.1,428.8,191.3,428.6,190.5,428.3z"/>
	<path fill="#E8E7E5" d="M295.5,289.4c2.6,2.4,5.1,4.8,7.8,7.1c1.3,1.1,3,2.5,4.4,2.4c0.9,0,2.2-2.3,2.6-3.7c1.5-4.9,2.7-9.8,4-14.7
		c0.2-0.8,0.8-1.7,0.7-2.4c-1.8-8.1,3.8-15,2.9-23.3c-0.9-8.3,0.9-17,1.5-25.5c3.8,3,1.8,7.3,2.4,11c0.4,2.6,0.4,5.3,0.5,8
		c0,1.7,0,3.3,0,5c-0.4,0.5-1.2,1-1.1,1.6c1.1,6.5-1.2,12.8-1.7,19.2c-0.5,7-2.7,14-5.2,20.6c-1.5,4.1-2.7,8.1-3,12.4
		c-0.1,0.5-0.3,1-0.6,1.4c-1.7,1.6-2.8,3.6-4,5.6c-5.3,8.7-11.7,16.3-21,21.1c-3.4,1.8-5.9,5.2-9.2,7.3c-3.5,1.7-7.3,2.7-10.2,5.5
		c-3,0.4-6,0.9-9,1.3c0.1-4,3.4-7.2,9.4-8.8c2.2-0.6,4.2-1.1,3.7-4.1c-8.4-1.8-16.8-1.7-26.1,0c-2.5,1.5-1.7,6.2-4.8,8.5
		c-1,0.3-2,0.2-2.7-0.7c-0.1-0.7-0.1-1.3-0.2-2c0.1-0.4,0.3-0.7,0.6-1l0,0c0.7-0.5,1-1.2,0.9-2c0.2-1,0.5-2.1,0.7-3.1
		c2.2-6.7,6.4-7.9,13.3-7.2c6.6,0.7,13.9,1.2,20.3-2.7c5.5-3.4,10.9-6.9,15.8-11c3.8-3.1,4.4-8,5.5-12.5c0.3-1.2,0.1-2.3-1.1-3.1
		c-3.7-2.3-2.9-5.1-0.9-8C293,290.5,294.1,289.8,295.5,289.4z"/>
	<path fill="#D5AF87" d="M224.6,349.4c-3,1.4-4.7,3.5-4,7c0.8,1,0.9,2,0.4,3.1c-1.4,1.3-2.8,3-5.1,1.6c-4-5.2-3.3-10.4,0.4-15.2
		c2.3-3,3.2-6.1,2.9-9.8c-0.5-5.6,0.6-10.9,2.2-16.2c0.9-3.2,1.7-6.4,1.6-9.8c-0.1-1.8,0.5-3.7,3-4.2c2.8,1.6,1,4.5,1.8,6.2
		c0.1,1.1,1.1,0,0.5,0.3c-0.2,0.1-0.3,0-0.4-0.3c-3.3-12.5-1.8-25.1-0.4-37.5c1.2-10.5,2.9-21,5.1-31.5c0.2-1.2,0.9-2.2,1.9-2.8
		c1.7-0.7,2.1-2.4,3.2-3.6c1.2-1.3,2.4-2.9,4.5-1.3c1.1,1.8,0.9,3.8,0.9,5.7c0,1.4-0.1,2.8-0.4,4.2c-2.4,13.7-5.8,27.3-7.3,41.2
		c-0.6,6,0.4,12,0.3,17.9c-0.2,6.9-0.8,13.9-3.8,20.3c-0.4,0.8-0.2,1.6-0.1,2.5C231.1,335.3,228.4,342.5,224.6,349.4z"/>
	<path fill="#B19F8E" d="M220.5,359.3c0-1,0.1-1.9,0.1-2.9c1.2-1,2.4-2,3.8-3.1c-0.7,8.6,1.4,17.7-7.5,23.8c-2-0.5-4.2-1.1-6.4-1.6
		c-0.3-0.4-0.3-0.9,0-1.3c1.4-1.1,2.9-1.8,4.8-0.8c0.4-0.9,0.2-2,0.7-2.9c0.7-1.2,1.5-2.3,1.9-3.7
		C219.3,364.5,218.7,361.5,220.5,359.3z"/>
	<path fill="#CAC4BA" d="M224.6,349.4c1.8-5.4,3.6-10.8,5.2-16.3c0.5-1.8,0.6-3.8,0.8-5.7c0.6-0.6,1.4-0.6,2.1-0.2
		c1,0.9,1.5,2,1.2,3.4c-1.2,5.6-2.3,11.2-3.5,16.9c-1-0.1-2-0.3-3.5-0.5c-0.1,0.7-0.3,1.6-0.5,2.5
		C225.8,349.4,225.2,349.4,224.6,349.4z"/>
	<path fill="#B18A6B" d="M204.5,383.5c0,0-0.4,0-0.4,0c-2.1,0.6-4.2,1.2-6.5,0.9c-1.8-2.3-6,0.5-7.2-3.6c2.9-3.2,7-2.3,10.6-3.1
		c3.4,1.1,6.1-2.8,9.6-1.1c0.5,0.8,1.1,1.5,1.3,1.8C209.2,380.1,206.8,381.8,204.5,383.5z"/>
	<path fill="#D5AF87" d="M210.5,376.5c-3,0.7-6,1.3-9,2c-0.4-0.4-0.5-0.9-0.4-1.5c2.8-2.1,5.7-3.6,9.3-2.3c0,0.3,0.1,0.5,0.1,0.8
		C210.5,375.8,210.5,376.1,210.5,376.5z"/>
	<path fill="#C6BAB0" d="M28.5,13.2c1.3,2.3,2.6,4.7,4,7c-1.4,0.1-2.9,0.1-4.3,0.2c-1.8-0.7-3.6-1.8-5.5-2c-2.6-0.3-5.9-0.8-7.9,0.4
		c-3.7,2.4-7.3,2.6-11.3,2.2c1.7-1.7,3.4-3.3,5.1-5c1.1,0.6,2.1,0,3-0.5c0.7-0.5,1.2-1.2,1.9-1.7c0.4-0.2,0.8,0,1,0.4
		c2,0,4-0.1,6-0.1c0.8,0,1.5-0.4,2-1C24.5,13.2,26.5,13.2,28.5,13.2z"/>
	<path fill="#716857" d="M22.4,34.2c-1.9-0.6-4.2-0.9-5.8-2c-2-1.4-3.6-3.5-5.3-5.4c1.8-1.4,3.6-2.9,6.1-1.8
		c1.7,0.1,3.6-0.3,4.9,0.4c2.3,1.2,4.2,3.1,6.2,4.8C26.5,31.6,24.5,32.9,22.4,34.2z"/>
	<path fill="#CAC4BA" d="M17.4,25.1c-2,0.6-4.1,1.2-6.1,1.8c-0.7-0.5-1.3-1.1-2-1.6c2.3-3.8,5.5-2.3,8.5-1.4
		C17.7,24.3,17.6,24.7,17.4,25.1z"/>
	<path fill="#CAC4BA" d="M18.9,24.2c0.5-0.2,0.9-0.5,1.4-0.7C19.9,23.7,19.4,23.9,18.9,24.2z"/>
	<path fill="#DCD9D7" d="M56.1,407.3c2.4,2.1,4.8,4.3,7.3,6.4c1.9,1.4,3.7,3,5.9,4c3.5,2.3,7.1,3.6,11.2,1.5c1.4-0.1,2.1,1,2.8,1.9
		c1.3,2,3.3,3,5.4,3.8c1.6,0.6,3.4,1.2,4.3,2.9c0.2,0.8,0,1.5-0.6,2.1c-1.5,0.9-3.2,1.1-4.8,0.6c-7.9-2.5-16.1-4.2-23.1-9
		c-2.5-2.6-4.9-5.2-7.4-7.7c-1-1-2.3-1.6-3.5-2.4C54.4,410,55.2,408.7,56.1,407.3z"/>
	<path fill="#EDEDEB" d="M83.7,432.4"/>
	<path fill="#E2DFDD" d="M96.5,431.5c-1.3-0.7-2.7-1.4-4-2c0-0.7,0-1.3,0-2c4.5-0.9,8.9-0.6,13,1.6c0.3,0.5,0.3,1,0,1.4
		c-2.3,0.3-4.7,0.7-7,1C97.8,431.5,97.2,431.5,96.5,431.5z"/>
	<path fill="#DCD9D7" d="M293.6,291.3c-0.8,2-1.5,4-2.4,6.1c2.1,0.8,3.4,1.3,4.7,1.8c0.5,19.4-26.3,36.7-51.5,30.3
		c-1.7,2.2-3.5,4.4-5.3,6.7c1.2-3.9,2.3-7.9,3.5-11.8c6-7.5,15.5-7.6,23.3-11.4c1.1-0.7,1.6-1.8,2.4-2.8c0.5-0.4,1.1-0.5,1.7-0.6
		c0.8,0,1.6-0.2,2.3-0.6c0.4-0.2,0.8-0.4,1.2-0.5c2-0.2,2.9-1.7,3.7-3.2c1.3-1.9,4.5-2,4.8-4.9C286.2,297.8,287.9,292,293.6,291.3z"
		/>
	<path fill="#EDEDEB" d="M239.5,344.4c1.5-3.5,3.1-7.1,4.1-9.5c4.3-0.6,7.7-1.2,11.1-1.4c2.4-0.1,4.9,0.4,7.4,0.6
		c2.9,0.2,5.9,0.4,9.9,0.6c2,2.2-0.1,4.7-2.2,7.1c-4.4-1.4-10.3,3.3-12.4,7.5c-6.6,0.3-13.2,0.6-19.8,0.8c-0.2-0.9-0.4-1.8-0.6-2.7
		C237.6,346.3,238.6,345.4,239.5,344.4z"/>
	<path fill="#C6BAB0" d="M232.6,327.4c-0.7,0-1.3,0-2,0c-0.2-1.2-1-2.7-0.5-3.5c3.7-7.5,4.2-15.4,3.7-23.7c-0.4-5.9,0-12,0.9-17.8
		c1.9-12.3,4.5-24.6,6.8-36.9c2.7,3.4,1,7.1,0.9,10.7c0.2-1.1,0.8-1.1,1.6-0.6c1.3,2,0.7,4.2,0.5,6.3c-1,9.1-2.4,18.1-3.7,27.2
		c-0.6,4.6-0.5,8.9,1.4,13.1c-0.2,2.1-1.4,3.5-3.4,4.7c0.2,1.4,2.3,2.7,1.1,4.5c-0.8-0.2-1.6-0.3-2.8-0.6c0,0.7-0.1,1.5-0.1,2.3
		c0.9,4.3-0.7,8.3-1.8,12.3C234.8,326.6,234,327.6,232.6,327.4z"/>
	<path fill="#D6D1CC" d="M266.6,313.4c-3.8,1.6-7.6,3.5-11.5,4.8c-3.8,1.2-7.8,1.6-9.6,6c-0.2,0.4-1.9,0.1-2.9,0.2
		c0.4-2,0.8-4.1,1.2-6.1c-0.2-3.7,1.3-6,5.3-6.3C254.9,312.1,260.8,311.6,266.6,313.4z"/>
	<path fill="#B18A6B" d="M248.3,313.2c-1.5,1.7-3,3.4-4.5,5.2c-0.8,0.6-1.7,1.2-2.5,1.8c-2.1-2.9,6-6.8-1.4-8.6
		c-0.8-1.5-1.7-3-2.5-4.6c1.4-1.2,2.9-2.4,4.4-3.6c1.6,0.1,2.5,1.2,2.9,2.6c0.1,1.4,0.9,2.1,2.2,2.3c0.9,1,1.6,2.1,2.2,3.2
		C249.1,312.2,249.1,312.9,248.3,313.2z"/>
	<path fill="#B18A6B" d="M232.6,327.4c1-3,1.9-6,2.9-9.1c0.5-1.7,1-3.4,1.5-5.1c0.9,1.1,2.6,2.4,2.5,3.3c-1,5-1.1,10.4-5.5,14
		C233.5,329.5,233,328.5,232.6,327.4z"/>
	<path fill="#DCD9D7" d="M239.5,344.4c-0.8,1.1-1.6,2.1-2.4,3.2l-0.3,0l-0.3-0.1c-0.2-0.4-0.2-0.8,0-1.2c0.2-0.7,0.4-1.3,0.6-2
		C237.9,344.4,238.7,344.4,239.5,344.4z"/>
	<path fill="#DCD9D7" d="M238.4,339.4c-0.3,0.7-0.6,1.4-0.9,2C237.8,340.7,238.1,340,238.4,339.4z"/>
	<path fill="#B19F8E" d="M236.4,346.3c0,0.4,0,0.8,0,1.2C236.4,347.1,236.4,346.7,236.4,346.3z"/>
	<path fill="#DCD9D7" d="M237.5,341.4c-0.2,0.3-0.4,0.7-0.6,1C237.1,342,237.3,341.7,237.5,341.4z"/>
	<path fill="#E2DFDD" d="M310.6,308.4c-0.1-5-0.5-10,3.1-14.2c0.5-0.6,0.7-1.5,0.9-2.3c2-9.4,4.1-18.8,5.9-28.3c0.4-2.4,0-5-0.5-7.4
		c-0.6-2.6,0.7-2.9,2.6-2.9c-0.3,5.3-0.7,10.7-1,16c0,3.7,0,7.3,0,11c-1.4,1-0.6,3-2,4c0,2,0,4,0,6c-3.4,3.9-1.7,9.3-3.9,13.6
		C314.4,306.2,313.8,308.6,310.6,308.4z"/>
	<path fill="#DCD9D7" d="M310.6,308.4c5.2-3,5.1-8.4,5.9-13.3c0.4-2.2,0-4.4,3.1-4.7c-1,4.7-2,9.4-3,14c-0.7,2-1.4,4-2,6
		c-1.8,1.4-2.1,4.6-5.3,4.2C306.3,311.8,309.1,310.2,310.6,308.4L310.6,308.4z"/>
	<path fill="#DCD9D7" d="M319.6,284.4c0.7-1.3,1.3-2.7,2-4C320.9,281.7,320.2,283,319.6,284.4z"/>
	<path fill="#DBAC76" d="M68.5,349.4c0,2.7,0.1,5.3,0.1,8c-0.2,0.1-0.4,0.2-0.7,0.3c-3.6-1.3-5.7-4.3-7.9-7.1
		c-0.2-0.7-0.2-1.4,0.4-2C63.5,345.8,65.9,348.3,68.5,349.4z"/>
	<path fill="#B18A6B" d="M60.5,348.5c0,0.6,0,1.3,0,1.9c1.6,2.8,1.9,5.6,0.5,8.6c-0.4,0.6-0.9,0.7-1.6,0.5c-0.8-0.8-1.6-1.6-2.6-2.5
		c2-3.8,0.1-6.8-2.2-9.7c0-0.6-0.1-1.3-0.1-1.9c1,0,2,0,2.9,0C58.5,346.5,59.5,347.5,60.5,348.5z"/>
	<path fill="#D6D1CC" d="M41.5,6.2c3,0.7,6,1.3,9,2c0,0.7,0,1.3,0,2c-1.5,1-3.3,1.8-3,4c-2.9,0.9-5.9,1.9-8.8,2.8
		c-0.2-0.6-0.4-1.1-0.6-1.7c1.8-1.4,3.6-2.7,5.5-4.1c0,0,0,0,0,0c-1.7,0-3.3,0-5,0l0,0c-0.7-1-1.3-2-2-3c-0.7-0.6-1.4-1.2-2.1-1.8
		C36.7,4.3,39.1,5.8,41.5,6.2z"/>
	<path fill="#B19F8E" d="M41.5,6.2c-2.3,0.1-4.7,0.1-7,0.2C32.2,6.3,30,6.1,27.7,6c-0.1-0.2-0.1-0.5-0.1-0.7c4.6,0,9.2,0,13.8,0.1
		C41.5,5.6,41.5,5.9,41.5,6.2z"/>
	<path fill="#DCD9D7" d="M14.4,14.3c-0.3,0-0.6,0-0.9,0c-0.6,0.5-1,1.2-1.1,2c-1.3,0.7-2.7,1.4-4.7,2.3c0.4-1.3,0.5-1.9,0.7-2.4
		c1.3-1.9,2.6-3.9,3.8-5.8c0.6,0.4,1.1,0.9,1.7,1.3C14.2,12.5,14.3,13.4,14.4,14.3z"/>
	<path fill="#DCD9D7" d="M22.5,13.2c-0.7,0.3-1.3,0.6-2,1C21.2,13.9,21.8,13.6,22.5,13.2z"/>
	<ellipse fill="#DCD9D7" cx="17" cy="11.7" rx="0.3" ry="1.1"/>
	<path fill="#C6BAB0" d="M30.4,12.2c-0.7,0.3-1.3,0.6-2,1C29.1,12.9,29.8,12.6,30.4,12.2z"/>
	<path fill="#DCD9D7" d="M22.4,5.2c0.4,0.3,0.7,0.7,1.1,1C23.1,5.9,22.7,5.5,22.4,5.2z"/>
	<path fill="#C6BAB0" d="M176.6,428.5c0.6,0.3,1.3,0.7,1.9,1c-2,0.5-4.1,1.2-6.1,1.4c-10.7,0.9-21.3,1.6-32,2.3
		c-4.2-1.6-8.5-0.7-12.7,0c-2.1-0.2-4.2-0.3-6.2-0.5l0-0.3c-0.9-0.7-1.8-1.4-0.8-2.6c0.8-0.8,1.9-1.3,3-1.6c2-0.4,4-0.6,5.9-0.3
		c9.4,1.3,18.7,1.2,28.1,0c2-0.2,4-0.1,5.9,0c2.2,0.1,4.4,0.3,6.6-0.4c0.8-0.2,1.6-0.3,2.5-0.4C174.2,427.1,175.5,427.5,176.6,428.5
		z"/>
	<path fill="#B7AEA3" d="M127.7,433.2c4.2-1.7,8.5-3.7,12.7,0C136.2,433.2,131.9,433.2,127.7,433.2z"/>
	<path fill="#A57C47" d="M260.7,94.4c1.2-0.2,2.5-0.5,5-0.9c-0.5,3.3-1,5.9-1.4,8.5c-0.7,2.9-2,5.5-2.9,8.3
		c-2.4,6.3-2.1,13-3.4,19.4c-0.4,1.9-0.5,3.9-1.4,5.7c-0.2,0.7-0.8,1.3-0.8,2.2c0.6-0.8,1-2.6,2.4-0.8c0.6,1.4,0.5,2.8,0.2,4.2
		c-0.1,0.7-0.4,1.4-0.5,2.2c-0.1,1.3-0.1,2.6-0.1,3.9c-1.4,9-3.1,18-4.2,27.1c-1.8,7-2.9,14.1-4.2,21.2c-1.6,2.9-1.3,6.6-4,9.1
		c-2.3-0.9-2.2-2.9-1.8-4.5c2.7-11.4,4.1-23.1,6.5-31.1c-1.3,5.5-3.5,14.2-4.6,23.1c-0.2,1.8-0.6,3.4-3,2.7c-1.4-4.3-0.1-8.7-0.7-13
		c3.9-9.1,4.9-18.9,6.4-28.5c0.4-2.4-1.8-2.5-2.9-3.5c-0.9-1.1-1-2.4-1.1-3.7c-0.1-3.4,0.7-6.6,2.3-9.5c3-5.7,4.7-11.9,6.8-17.9
		c0.1-0.5,0.3-0.9,0.5-1.4c0.5-1.1,0.8-2.4,1.1-3.6c1.3-4.6,2.5-9.2,3.4-13.9C258.6,97.6,258.9,95.7,260.7,94.4
		C260.7,94.4,260.7,94.4,260.7,94.4z"/>
	<path fill="#C6BAB0" d="M265.6,110.3c0.5,1.3,0.9,2.6,1.4,4c0.4-0.3,1-0.7,1.5-1c0.2,0.1,0.4,0.3,0.6,0.4c0.7,0.7,1.1,1.6,1.2,2.5
		c-0.1,2.7-0.5,5.3-1.2,7.9c-0.3,0.7-0.8,1.3-1.3,1.8c-2.5,1.9-4.7,0.8-6.7-0.8c-2.1-1.6-1.3-3.8-0.9-5.9c0.6-2.8,2.3-5.1,3.2-7.7
		c0.2-0.5,0.5-0.9,0.8-1.3C264.7,109.9,265.1,109.9,265.6,110.3z"/>
	<path fill="#C6BAB0" d="M271.5,108.3c0.4,0.4,0.7,0.8,1.1,1.2c0,1.5,0,3,0,4.4c-0.5,1.1-1.5,1.2-2.5,0.9c-0.8-0.3-1.1-0.9-1.6-1.5
		c0,0,0,0,0,0c0.3-2.6,0.7-5.3,1.1-8.6C270.5,106.3,271,107.3,271.5,108.3z"/>
	<path fill="#D5AF87" d="M260.5,109.3c1.2-2.4,2.5-4.8,3.7-7.3c0.4,2.4,0.8,4.8,1.2,7.3c-0.3,0.4-0.6,0.7-0.9,1l0,0
		C262.9,111.5,261.6,110.6,260.5,109.3z"/>
	<path fill="#DCD9D7" d="M271.5,99.3c-0.3,0.6-0.6,1.2-0.8,1.8c-0.3-0.2-0.5-0.4-0.8-0.6C270.5,100,271,99.6,271.5,99.3
		C271.6,99.3,271.5,99.3,271.5,99.3z"/>
	<path fill="#B19F8E" d="M264.5,110.3c0.3-0.3,0.6-0.7,0.9-1c0,0.3,0.1,0.7,0.1,1C265.2,110.3,264.9,110.3,264.5,110.3z"/>
	<path fill="#D5AF87" d="M104.5,387.5c-4.9-1-9.9-2-14.8-2.9c-2.1-0.4-4.1-0.7-6.2-1.1l-0.1-0.1c-0.5-0.6-1.4-0.4-1.9-0.9l0,0
		c-3.2-3.7-7.3-5.8-12-6.8c-1.5-0.3-2.7-1-3.9-1.9c-0.3-0.3-0.4-0.5-0.3-0.8c0-0.3,0.1-0.5,0.2-0.5c0.4-0.3,0.7-0.6,1.1-1
		c2.2-1.1,4.2-0.1,6.3,0.3c8.6,2,17.2,3.6,25.9,5.2c2.4,0,4.9-0.2,7.2,0.6c1.9,1.1,2.5,2.9,3.2,4.8
		C107.8,384.5,105.5,385.4,104.5,387.5z"/>
	<path fill="#A57C47" d="M98.6,378.2c-8.8-1.7-17.6-3.4-26.4-5.2c-1.9-0.4-3.8-1.1-5.6-1.6c-2.7-0.6-5.3-1.4-5-5.1
		c4.8-1.5,8.6,2.2,13.2,2.2c6.6,2,13.2,3.9,20.1,4.5c1.6,0.1,3.3,0.3,4.3,2C99.5,376.2,99.5,377.3,98.6,378.2z"/>
	<path fill="#D5AF87" d="M74.5,369.6c-4.3-1.1-8.6-2.1-12.9-3.2l0,0c-0.4-0.4-1.1-0.4-0.9-1.3c-0.7-1.6-1.4-3.1-2.1-4.7c0,0,0,0,0,0
		c0.3-0.3,0.7-0.6,1-0.9c0.3,0,0.6,0,0.9,0c3.8,2.7,7.9,4.6,12.3,5.7c1.1,0.3,2.1,0.9,2.5,2.2C75.3,368.3,75.1,369,74.5,369.6z"/>
	<path fill="#A57C47" d="M65.4,372.4c0,0.3,0,0.6,0.1,1c0.4,0.6,0.2,0.9-0.5,1.1c-0.5,0-1-0.1-1.5-0.1
		C64.1,373.7,64.8,373.1,65.4,372.4z"/>
	<path fill="#A57C47" d="M60.6,365.1c0.3,0.4,0.6,0.8,0.9,1.3C61.2,366,60.9,365.6,60.6,365.1z"/>
	<path fill="#D5AF87" d="M58.5,360.4c-0.1-0.1-0.3-0.2-0.4-0.2C58.2,360.3,58.3,360.3,58.5,360.4L58.5,360.4z"/>
	<path fill="#E2DFDD" d="M310.6,308.4c-0.3,2-0.7,4-1,6c-0.3,5.8-5.3,8.7-8,13c-0.3,0.3-0.7,0.7-1,1c-2.3,2.4-5.1,4.2-7,6.9
		c-0.3,0.1-0.6,0.1-0.9,0.1c-3.9,1.4-6.9,4.2-10.1,6.8c-1.6,0.4-3.3,0.8-4.9,1.3c-0.2-0.3-0.5-0.5-0.9-0.6c-0.1-0.2-0.1-0.3-0.2-0.5
		c0.2-0.8,0.1-2,0.6-2.3c4.1-2.8,8.5-5.1,12.4-8.1c7-5.3,13-11.7,17.2-19.6C307.5,310.8,309.2,309.7,310.6,308.4z"/>
	<path fill="#D6D1CC" d="M301.5,327.4c2.7-4.3,5.3-8.7,8-13c1.7-1.3,3.3-2.7,5-4c0,1,0,2,0,3c-3.2,4.1-6.4,8.3-9.8,12.3
		C304.1,326.6,302.6,326.8,301.5,327.4z"/>
	<path fill="#D6D1CC" d="M293.5,335.3c0.1-4.6,3.8-5.5,7-6.9c-0.7,1.6-1.4,3.2-2,4.8C296.8,333.9,295.2,334.6,293.5,335.3z"/>
	<path fill="#E2DFDD" d="M266.5,348.1c1.6-4.9,5.9-5.2,10-5.7l0,0c0.3,0.3,0.4,0.5,0.3,0.8c-0.1,0.3-0.1,0.4-0.2,0.4
		c-2.4,1.5-4.8,3-7.1,4.4C268.5,348.1,267.5,348.1,266.5,348.1z"/>
	<path fill="#D6D1CC" d="M282.5,342.3c2.1-4.1,7.5-7.7,10.1-6.8C289.2,337.7,285.9,340,282.5,342.3z"/>
	<path fill="#E8E7E5" d="M276.6,343.7c0-0.4-0.1-0.8-0.1-1.3c0.4,0.4,0.7,0.7,1.1,1.1C277.3,343.6,277,343.6,276.6,343.7z"/>
	<path fill="#B19F8E" d="M120.5,430.5c0.3,0.7,0.7,1.3,1,2c-5.3-0.7-10.7-1.3-16-2c0-0.3,0.1-0.7,0.1-1
		C110.8,426.8,115.6,429,120.5,430.5z"/>
	<path fill="#B18A6B" d="M36.5,117.3c-0.1,1-0.1,2-0.2,3c-0.6-1.5-1.5-2.9-1.8-4.5c-0.9-6.4-1.5-12.9-2.3-19.4
		c-0.1-0.4-0.9-0.7-1.4-1.1c0-0.7,0.1-1.4,0.1-2.2c1.7-0.5,1.1-1.4,0.4-2.4l0.1,0c-0.4-0.8-0.5-1.5-0.1-2.3c1.7,0.3,3.5,0.5,5.2,0.8
		c0.3,0.1,0.4,0.3,0.3,0.4c-0.1,0.2-0.2,0.3-0.3,0.3c-0.7,0.1-1.4,0.1-2.2,0.2c-0.7,0.9-0.6,1.9-0.2,2.9
		C35,101.2,35.7,109.3,36.5,117.3z"/>
	<path fill="#A57C47" d="M31.3,88.5c0,0.8,0.1,1.5,0.1,2.3c-0.4-0.2-0.7-0.3-1.1-0.5C30.7,89.7,31,89.1,31.3,88.5z"/>
	<path fill="#A57C47" d="M31.3,90.9c-0.1,0.8-0.3,1.6-0.4,2.4C31,92.4,31.2,91.6,31.3,90.9z"/>
	<path fill="#B7AEA3" d="M31.6,107.2c0,0.4,0,0.8,0.1,1.2C31.6,108,31.6,107.6,31.6,107.2z"/>
	<path fill="#D6D1CC" d="M202.6,53.2c4.3-0.6,8.7-1.2,13-1.8c1.8,2.1,3.2,4.5,4.5,7c0.4,1.5-0.3,2.9-0.7,4.4c2.7-0.3,4.2-1.7,4.9-4
		c3.2-2.6,5.2,0.1,6.4,2.2c2.4,4.2,4.8,8.4,7.8,12.2c0.9,6.6,0,13.3,0.7,19.9c-0.2,2.6-1.5,3-3.7,2.1c-5.8-2.3-11.7-4.3-12-12.1
		c0-0.3-0.2-0.7-0.4-0.9c-2.2-2.2-0.6-6.3-3.4-8c-3-1.8-5.5,1.6-8.4,1.8c-3.9,0.2-7.7,0.2-10.3,3.7c-1.5,1.3-3.2,2.1-5.3,1.9
		c-0.8-0.2-1.2-1-2-1.3c-1,0.7-1,2.3-2.3,2.8c-1.7-1-3.3-1.9-5-2.9c-1.1-2.1-3.1-1.3-4.8-1.7c-2.4-0.6-5,0.6-7.2-1.3
		c-4.3,0.3-8.7,0.6-13,0.9c2.1-1.3,4.1-3,6.4-3.7c4.3-1.4,8.8-2.6,13.2-3c1.9-0.2,3.9,1.9,6.6,4.3c1.6-1.5,3.2-3,4.8-4.5
		c0.5-0.6,1.2-0.7,2-0.5c4.1,1.4,8.2,2.1,11.9-1c4.6-2.4,4.8-3.3,1.5-6.8c-0.7-0.7-1.5-1.3-2-2.2c-1.2-3.3-2.9-1.7-4.5-0.5
		c-0.4,0.3-0.8,0.5-1.2,0.7c-1.7,0.9-4.1,0.6-5.2,2.8c-0.2,0.2-0.3,0.3-0.5,0.4c-4-4.5-8.9-0.9-13.8-1.2c0.7-1.9,1.3-3.3,1.8-4.8
		c1,0,2,0,3,0c4.7-1.1,8.9-4.5,14.3-3.2C200.7,55.3,201.8,54.1,202.6,53.2z"/>
	<path fill="#D6D1CC" d="M124.5,37.3c1.7,1.9,3.2,4.8,5.3,5.6c2.6,1,2.8,2.2,2.7,4.3c-1.8,1.8-3.8,1.1-5.8,0.4
		c-0.4-0.5-0.6,1-0.2,0.5c0.1-0.2,0.3-0.2,0.4-0.1c1.2,0.4,1.3,1.2,0.7,2.2c-11.8-0.9-23.6-1.9-35.4-2.8c-3-0.2-6,0-8.9-0.2
		c-2.4-0.2-2.5-0.9-0.8-2.9c4.4,0.4,8.7,0.8,13.6,1.3c0.2-2.3,0.3-3.8,0.4-5.6c-2.6-0.6-5-1.1-7.3-1.7c1.1-5,3.3-6.8,8.1-4.7
		c3.2,1.4,6.8,1.8,10.7,2.7c-0.2-2-0.4-3.5-0.5-5.1C113.2,33.2,118.8,35.3,124.5,37.3z"/>
	<path fill="#D6D1CC" d="M165.5,58.2c1.6,0.4,3.2,0.7,4.8,1.1c0,0.5-0.1,1-0.1,1.6c-4.1,0.4-8.1,0.9-12.2,1.1
		c-4.1,0.2-8.1,0.2-12.2,0c-1.1-0.1-2.2-1.1-3.3-1.7C149.7,54.4,157.6,55.9,165.5,58.2z"/>
	<path fill="#C6BAB0" d="M127.6,50.2c-0.3-0.6-0.5-1.2-0.9-1.7c-0.3-0.3-0.8-0.5-2.3-1.3c3.5,0,5.8,0,8.1,0c2.1-0.5,5.4,0.7,4.5-4.5
		c4.2,1.5,8,2.9,12.6,4.6c-3.2,1.8-5.2,2.8-7.1,3.8C137.5,50.8,132.5,50.5,127.6,50.2z"/>
	<path fill="#DCD9D7" d="M202.6,53.2c-0.8,1.3-1.5,2.7-2.4,4.1c-1.8-0.8-3-1.5-4.5-2.2c-0.7,1-1.4,1.9-1.4,2c-2.9,0.8-5,1.4-7.8,2.2
		c0.1,0.1-0.4-0.5-0.9-1.1c0.3-1.7,0.7-3.4,1-5.1c3.3-0.3,6.7-0.6,10-0.9c0.8,1,1.9,1,3,0.9C200.6,53.2,201.6,53.2,202.6,53.2z"/>
	<path fill="#C6BAB0" d="M150.6,68.3c3.5,0.5,7,1,10.9,1.5c-1.3,5.2-5.4,2.7-8,3.5c-1.5-0.1-3.1-0.2-5.6-0.3
		C149.1,70.9,149.9,69.6,150.6,68.3z"/>
	<path fill="#E8E7E5" d="M47.5,14.2c-0.5-1.2-1-2.3-1.6-3.8c1.8-0.1,3.2-0.2,4.6-0.3c1.7,0.3,3.3,0.7,5,1c-0.7,1.9-1.4,3.9-2,5.8
		C51.5,16.1,49.5,15.1,47.5,14.2z"/>
	<path fill="#D6D1CC" d="M38.5,11.2C38.2,11.5,37.8,11.8,38.5,11.2C37.6,11.5,38.1,11.3,38.5,11.2L38.5,11.2z"/>
	<path fill="#CAC4BA" d="M206.5,60.3c0.9,0.7,2.1,1.3,2.6,2.2c1,1.7,2.2,3.8,2,5.6c-0.1,0.9-3,1.5-4.6,2.3c-3.9,1.7-7.9,1.9-12,1
		c-0.7,0-1.4,0-2,0c-0.2-1.1-0.9-2.3-0.5-3.2c0.5-1.4,1.7-2.6,2.5-3.9c0,0,0,0,0,0c1.4-2.2,4.1-2.5,6-4l0,0
		C202.5,58.9,204.5,58.7,206.5,60.3z"/>
	<path fill="#B19F8E" d="M108.5,92.3c1.9-0.7,3.9-1.9,5.8-1.9c6.6,0,13.2,0.8,19.9,0.6c5.2-0.1,10.4-1.4,15.7-1.7
		c4-0.3,8-0.2,11.9-1.9c0.7-0.3,1.8-0.4,2.4,0c7.4,4.7,15.4,0.1,23.1,1.7c0.9,0.2,2.2-1.2,3.3-1.9c0,0,0,0,0,0
		c8.1-3.9,14.8-1.8,17.6,6.1c4.2,0.3,8.1,2.9,12.7,2.6c2.5-0.1,5-0.1,7.5,0.1c0.9,0.1,1.7,0.4,2.4,1.1c0.4,0.9,0.4,1.7-0.2,2.5
		c-1.9,1.3-4,1.1-6,1.1c-9-0.1-18,0.4-27-1.6c-6.6-1.5-13.5-0.6-20.3-1.4c-5.4-0.6-10.9-0.7-16.3-1.4c-5.1-0.6-10.2,0.6-15.3,0.5
		c-11.2-0.1-22.1-3-33.3-2.3C110.8,94.7,108.8,94.7,108.5,92.3z"/>
	<path fill="#B18A6B" d="M108.5,92.3c0.7,0.3,1.4,0.9,2.2,0.9c12.7,0.7,25.5,1.4,38.2,2c3,0.1,6.1-0.4,9-1.2c4,0.7,7.9,1.8,11.9,2.1
		c7.3,0.6,14.6,0.6,21.8,1.2c4.5,0.3,9,1.6,13.5,1.9c6.5,0.4,13,0.2,19.4,0.2c-0.8,3.3-3.5,3.2-5.9,3.3c-6.3,0.2-12.6,0.2-18.9,0.1
		c-2.2-0.3-4.4,0.1-6.5-0.9c-2.2-1.6-4.8-1.2-7.2-1.2c-19.6,0-39.3,1-58.9-0.4c-13.7-1-27.4-1.2-41.1-2.7c-8-0.9-15.9-2.7-24-3
		c-2-0.1-5,0.5-4.7-3.2c12.2,0.6,24.5,1.3,36.7,1.8c1.4,0.1,2.9-1.2,4.4-1.9C101.9,91.6,105.2,92,108.5,92.3z"/>
	<path fill="#B7AEA3" d="M220.5,97.3c-4.3-0.7-8.7-1.2-12.8-2.3c-1.1-0.3-1.6-2.9-2.8-5.4c-1.5-0.8-4.2-2.3-6.3-3.4
		c-3,0.4-5.5,0.7-8,1.1c0.3-1,0.7-2,1-3c1.2-1.1,2.5-2.1,4-2.8c1.7-0.7,3.3-1.4,5-2.2c2.1,0.1,4.1,0.4,6.2,0.4
		c1.9,0.8,2.3,2.7,2.5,4.4c0.2,2,1.3,3.3,2.6,4.5c0.3,0.2,0.4,0.6,0.4,1c0.5-0.7-0.4-1-0.4-1.6c1-3.3,4.1-3.5,4.8-1.2
		c1,3.5,3.1,6.1,4.4,9.2C221.2,96.4,220.9,96.9,220.5,97.3z"/>
	<path fill="#CAC4BA" d="M174.5,77.3c4.1,0,8.1,0,12.6,0c-0.3,1.3-0.5,2.1-0.6,3c-2.7,0-5.4,0-8.6,0c-0.2,0.5-0.6,1.5-1.5,3.7
		C175.6,81,175.1,79.2,174.5,77.3z"/>
	<path fill="#CAC4BA" d="M195.5,81.4c-1.3,0.9-2.7,1.9-4,2.8c0-0.3,0-0.7,0-1c0.5-1.7,0.9-3.4,1.6-6.1
		C194.2,78.9,194.9,80.2,195.5,81.4z"/>
	<path fill="#A57C47" d="M57.4,91.4c1,0.6,2,1.7,3,1.8C69,94,77.9,93.5,86,95.7c7.8,2.1,15.5,0.6,23.1,1.6c26.9,3.6,54,1.2,81,2
		c1.2,0,2.3,1.2,3.5,1.8c-2,2.1-4.7,1.5-7.1,1.5c-21.8,0.1-43.6,0-65.4,0.1c-6,0.2-11.9-0.3-17.8-1c-12.6-1.5-25.3-2.1-37.9-4.1
		c-4.8-0.8-9.5-0.8-14.3-1.2c-2.1-1.3-5.6,0.4-6.6-3.2c-2.6-1.1-5.3-2.2-7.9-3.2c0-0.2-0.1-0.5-0.1-0.7c1.7,0,3.3,0,5,0
		c0.3-0.5,0.6-0.5,0.9,0c0.3,0,0.7,0.1,1,0.1c3.4,2.2,7.7-0.5,11,1.9C55.4,91.3,56.4,91.3,57.4,91.4z"/>
	<path fill="#B18A6B" d="M54.5,91.3c-3.7-0.6-7.4-1.3-11-1.9c2.6,0,5.2-0.3,7.8,0C52.4,89.5,53.4,90.6,54.5,91.3z"/>
	<path fill="#B18A6B" d="M42.4,89.3l-0.5,0l-0.5,0c-0.4-0.5-0.8-1.1-1.3-1.6c0.3-0.2,0.5-0.3,0.8-0.5C41.5,87.9,42,88.6,42.4,89.3z"
		/>
	<path fill="#A57C47" d="M82.5,421.6c-0.7-0.6-1.3-1.3-2-1.9c-4.1,1.3-7.2-0.6-10.2-3.1c-0.5-1.7-0.1-3.2,1.2-4.5
		c3.2,0.5,6.4,1,9.6,1.6c1.7,0.7,3.9,0.3,5.3,1.8l0,0.1c0,0.3,0,0.7,0.1,1c0.6,2.2-0.5,3.7-1.9,5.1
		C83.8,422.1,83.1,422.1,82.5,421.6z"/>
	<path fill="#B7AEA3" d="M71.5,412.2c-0.3,1.4-0.6,2.8-0.9,4.2c-0.3,1-1,1.8-2,2.2c-1.7-1.6-3.5-3.3-5.2-4.9c2.6-1.2,4.8-2.6,3-6
		C68,409.2,69.8,410.7,71.5,412.2z"/>
	<path fill="#CAC4BA" d="M86.4,415.6c-1.8-0.6-3.5-1.2-5.3-1.8C83,413.9,85.6,411.9,86.4,415.6z"/>
	<path fill="#E2DFDD" d="M101.3,414.5c-0.8-0.4-1.5-0.8-2.3-1.2c0.1-0.2,0.2-0.5,0.3-0.7c0.9,0.3,1.8,0.6,2.6,0.9
		C101.7,413.8,101.5,414.2,101.3,414.5z"/>
	<path fill="#E2DFDD" d="M76.9,410.8c-0.1-0.1-0.1-0.2-0.2-0.3c0.2-0.1,0.3-0.2,0.5-0.3c0,0.1,0.1,0.3,0,0.4
		C77.2,410.7,77.1,410.7,76.9,410.8z"/>
	<path fill="#DCD9D7" d="M153.5,395.1c1.2,1.4,2.4,2.7,3.9,4.4c-2.1,2.6-4,4.2-8.1,3.3c-4.4-0.9-9.1-0.3-13.7-0.3
		c0.7-2.4,1.4-4.8,2.1-7.2C142.9,395.2,148.2,395.1,153.5,395.1z"/>
	<path fill="#DCD9D7" d="M132.1,399.2c-0.1,0.3-0.2,0.7-0.4,0.8c-0.2,0.1-0.5-0.2-0.8-0.3c0.1-0.3,0.2-0.7,0.4-0.8
		C131.5,398.8,131.9,399.1,132.1,399.2z"/>
	<path fill="#DBAC76" d="M104.5,387.5c-0.2-1.1-0.4-2.2-0.7-3.5c1.4-0.3,2.8-0.7,4.1-1c-0.5-1.5-1-3-1.4-4.4c4.1-2,8.4-0.4,12.6-0.5
		c4.6-0.1,9.2,0.7,13.8,1.6c2.3,1.6-1.1,3.3,0.6,5.4c1.3,1.3,3.5,1,5.6,0.9c5.5-0.2,11-0.4,16.4,0.1c6.8,0.5,12.2-2.2,17.3-6.3
		c7.1-1,14.1-2.8,21.3-2.8c2.5-0.1,5.1-1.7,7.5,0.5c0,0.3,0,0.6,0,1c-3.4,0.7-6.9,1.4-10.3,2.1c0,0.4,0,0.7,0.1,1.1
		c1.8,0,3.6,0,5.7,0c-0.2,0.7-0.3,1.3-0.4,1.9c0.1,2.1-1.7,1.9-2.9,2.4c-2.7,0.6-5.8-1-8.4,1.4c-0.2,0.5,0.8,1.2,0.3,2
		c-1,0-2,0-2.9,0c-10,1-20,2.9-30,2.8c-15-0.2-30-1.8-45-2.8C106.5,388.7,105.5,388.1,104.5,387.5z"/>
	<path fill="#E2DFDD" d="M125.7,411.6c0.8,0,1.6-0.1,2.3,0c0.4,0.1,0.7,0.5,0.9,1.4c-1.2-0.3-2.3-0.5-3.5-0.8
		C125.5,412,125.6,411.8,125.7,411.6z"/>
	<path fill="#E2DFDD" d="M119.5,414.4c-0.7,0-1.3,0-2,0c-0.9-1-0.8-2,0-3l0,0C118.2,412.4,118.8,413.4,119.5,414.4z"/>
	<path fill="#E2DFDD" d="M131.5,409.5c0.3,0,0.7,0,1,0C132.2,409.4,131.8,409.4,131.5,409.5z"/>
	<path fill="#B19F8E" d="M65,374.5c0.2-0.4,0.3-0.7,0.5-1.1c4.8,1.5,9.5,2.9,14.3,4.3c0.6,1.7,1.1,3.2,1.7,4.7
		c-2.4-0.7-4.7-1.3-7.1-2l0.1,0c-2-1-4.4-1.3-6.1-3l0,0c-0.5-0.7-1.5-0.5-2.1-1.1C65.9,375.7,65.5,375.1,65,374.5z"/>
	<path fill="#C6BAB0" d="M68.4,377.5c2,1,4,2,6.1,3C72.5,379.5,70.4,378.5,68.4,377.5z"/>
	<path fill="#C6BAB0" d="M66.4,376.3c0.7,0.4,1.4,0.8,2.1,1.1C67.8,377.1,67.1,376.7,66.4,376.3z"/>
	<polygon fill="#B19F8E" points="64.9,376.8 65.1,376.8 65.1,377 	"/>
	<path fill="#DCD9D7" d="M117.5,411.5c0,1,0,2,0,3c-2.3,0-4.7,0-7,0c0.1-1.2,0.3-2.5,0.5-4C113.4,410.8,115.5,411.1,117.5,411.5z"/>
	<path fill="#B19F8E" d="M81.5,382.5c0.6,0.3,1.3,0.6,1.9,0.9C82.8,383.1,82.1,382.8,81.5,382.5z"/>
	<path fill="#DCD9D7" d="M237.5,72.3c-1.7-1.2-3.5-2.4-5.3-3.6c0.2-5.7-3.2-10-7.7-9.4c-2,1.5-3.5,0.5-4.9-1c-1.3-2.3-2.7-4.6-4-6.9
		c2.3,0,4.6,0,7-0.1c1.3,1.3,2.7,1.2,4,0c3.3-0.3,6.6-0.7,10-1c2-1,4-2,6.1-3c-1,7.3-2,14.6-3,22C239.4,70.6,239.9,72.4,237.5,72.3z
		"/>
	<path fill="#D6D1CC" d="M226.6,51.3c-1.4,2.8-2.7,2.8-4,0C223.9,51.3,225.2,51.3,226.6,51.3z"/>
	<path fill="#D6D1CC" d="M199.6,53.1c-1.6,1.8-2.6,1.3-3-0.9C197.5,52.5,198.5,52.8,199.6,53.1z"/>
	<path fill="#D6D1CC" d="M303.7,201.3c1.3,3.4,2.9,6.7,3.9,10.2c1,3.9,1.5,8,2.2,11.9c1.9,11.3,2,22.6,0,33.9
		c-0.9,5.4-1.4,10.8-2.3,16.1c-0.3,1.4-1.6,2.7-2.4,4c-2.3-2.4-2-5.4-1.8-8.3c1.3-20.6,1.2-41.1-0.4-61.7
		C302.6,205.3,301.9,203.1,303.7,201.3z"/>
	<path fill="#B19F8E" d="M303.7,201.3c0.6,20.3,1.3,40.6,1.8,60.8c0.1,5.1-0.3,10.2-0.5,15.3c-0.1,0.7-0.3,1.4-0.4,2.1
		c-0.4,0.1-0.7,0.1-1.1-0.1c-3.6-5.3-0.7-11.6-2.9-17.1c0-22.7,0.1-45.3,0.1-68c0.4-0.7,0.7-1.6,1.8-1
		C302.9,196,303.3,198.6,303.7,201.3z"/>
	<path fill="#B7AEA3" d="M298.6,175.3c-1.2-7.8-2.4-15.6-3.6-23.4c0.5-0.1,1-0.2,1.6-0.4c0.8,4.2,1.6,8.5,2.3,12.7
		c0.5,3.7,1,7.4,1.5,11C299.8,175.9,299.2,175.9,298.6,175.3z"/>
	<path fill="#B7AEA3" d="M302.5,193.4c-0.6,0.3-1.2,0.6-1.8,1c-0.3-3.3-0.7-6.7-1-10c0.6-0.6,1.2-0.6,1.8,0
		C301.9,187.3,302.2,190.3,302.5,193.4z"/>
	<path fill="#C6BAB0" d="M301.5,184.3c-0.6,0-1.2,0-1.8,0c-0.4-3-0.7-6-1.1-9c0.6,0,1.2,0,1.8,0
		C300.8,178.3,301.2,181.3,301.5,184.3z"/>
	<path fill="#E8E7E5" d="M275.6,124.3c-0.3,0.3-0.7,0.6-1,1c-0.8,0.7-1.6,0.6-2.3,0c-0.8-1.4-0.9-2.7,0.4-3.9
		c0.9-0.1,1.9-0.1,2.8-0.2C275.5,122.2,275.5,123.3,275.6,124.3z"/>
	<path fill="#E8E7E5" d="M295.5,289.4c-3-1-0.8-2,0-3C295.5,287.4,295.5,288.4,295.5,289.4z"/>
	<path fill="#D6D1CC" d="M303.5,279.5c0.4,0,0.7,0,1.1,0.1C304.2,279.5,303.9,279.5,303.5,279.5z"/>
	<path fill="#E8E7E5" d="M295.5,286.4c0.3-0.3,0.7-0.7,1-1C296.2,285.7,295.9,286,295.5,286.4z"/>
	<path fill="#716857" d="M272.6,121.3c-0.1,1.3-0.1,2.7-0.2,4c0.6,0.6,0.7,1.3,0.3,2c-1.1,1-2.2,0.9-3.3,0.2c-0.7-0.7-1-1.5-1-2.5
		c0-0.2,0-0.5,0-0.7c0.3-3,0.6-6,0.9-9.1c-0.2-0.2-0.3-0.5-0.2-0.6c0.1-0.2,0.2-0.2,0.3-0.2c1-0.2,2-0.3,3-0.5
		C272.6,116.4,272.6,118.8,272.6,121.3z"/>
	<path fill="#90581D" d="M84.5,421.3c0.6-1.5,1.3-3.1,1.9-4.6c0.7,0.1,1.4,0.3,2.1,0.4c0.4-0.1,0.8,0,1.1,0.3
		c9.2,1.4,18.4,2.8,27.6,4.2c3.2,0.8,6.4,0,9.6,0.2c3.3,0.9,6.5,0.5,9.8,0.4c8.6-0.4,17.2-0.5,25.8,0.1c1,0.2,1.9,0.6,2.9,0.4
		c0.7-0.1,1.3-0.2,2-0.3c1.6,0,2.9-0.6,4.2-1.4c0.7-0.2,1.3-0.1,2,0.3c0.6,0.7,0.7,1.5,0.4,2.3c1.5-1.4,3.6-1.6,5.4-2.5
		c0.5-0.1,1,0,1.4,0.2c3.2,3.6-0.3,4.5-2.4,6.1c-0.6,0-1.3,0.1-1.9,0.1c-1.3,0.3-2.9-0.4-4,1.1c-0.6,0-1.3,0-1.9,0
		c-1.9,0.9-4.3-0.9-6.1,0.8c-14,0.1-28,0.1-42,0.2c-0.9,0.6-1.8,0.4-2.8,0.3c-1.4-0.5-2.8-0.4-4.2-0.4c-0.9,0-1.9,0-2.8-0.4
		c-0.9-0.5-1.8-0.6-2.7-0.6c-1.5,0-2.9,0.1-4.4-0.2c-1.2-0.3-2.3-0.9-3.6-0.8C95.7,426.8,89.6,425.5,84.5,421.3z"/>
	<path fill="#C6BAB0" d="M164.7,423.2c-10.7,0.1-21.5,0.2-32.2,0.2c-2,0-3.9-0.5-5.9-0.8c-0.3-0.5-1-0.6-1.1-1.2
		c1.1,0,2.1,0.1,3.2,0c2.2-0.2,5.2,0.3,6.6-0.9c5.7-4.9,12.7-3.4,19.2-4.4c3.3-0.6,6.7-0.7,10-0.8c2.4-0.1,4.9,0.1,7.3,0.3
		c2.9,0.2,5.8,0.6,8.7,0.9c1.5,0.2,2.9,0.5,4.5,0.8c-0.5,1-1,2.1-1.5,3.2c-0.8,1.1-1.9,1.1-3,1c-0.3,0.1-0.6,0.1-0.9,0.2
		c-2,0.8-4.1,0.6-6.2,0.2c-0.6,0-1.1-0.1-1.7-0.1c-1.4,0.8-2.8,1.2-4.4,1.3c-0.7,0-1.3,0-2,0C165.1,423.8,164.9,423.8,164.7,423.2z"
		/>
	<path fill="#D5AF87" d="M125.5,421.3c0.4,0.4,0.7,0.8,1.1,1.2c-3.1-0.3-6.2-0.7-9.3-1c2.3-1.3,4.6-2.5,6.7-3.7
		C124.2,418.5,124.9,419.9,125.5,421.3z"/>
	<path fill="#D6D1CC" d="M164.7,401.5c1.4-0.4,2.7-0.7,4.1-1.1c0.2,0.6,0.4,1.2,0.7,1.9c-1.4,0.5-2.7,1.1-4.1,1.6
		C165.1,403.1,164.9,402.3,164.7,401.5z"/>
	<path fill="#D6D1CC" d="M173.3,403.2c-0.5-1-1.1-2-1.6-3c0.4-0.2,0.7-0.4,1.1-0.6c0.5,1,1.1,2,1.6,3
		C174,402.9,173.6,403.1,173.3,403.2z"/>
	<path fill="#D6D1CC" d="M167.5,406.7c0.1,0.1,0.2,0.1,0.3,0.2c-0.2,0.1-0.3,0.2-0.5,0.4c-0.1-0.1-0.2-0.2-0.2-0.3
		C167.2,406.8,167.4,406.8,167.5,406.7z"/>
	<path fill="#D6D1CC" d="M174.5,395.4c0.3,0,0.7,0,1,0C175.2,395.4,174.9,395.4,174.5,395.4z"/>
	<path fill="#A57C47" d="M89.6,417.4c-0.4-0.1-0.7-0.2-1.1-0.3C88.9,417.2,89.2,417.3,89.6,417.4z"/>
	<path fill="#A57C47" d="M180.5,421.4c1-0.3,2-0.7,3-1c1.1,0,2.3-0.2,3.4-0.1c1.6,0.1,3.2,0.2,4.9,0.3c0.2,0.3,0.4,0.5,0.7,0.7
		l0.2,0.1c0.5,0.6,0.5,1.3,0.1,1.9c-0.1,0.4-0.1,0.8-0.2,1.2c-4.7,0.9-9.4,1.8-14.1,2.8C178.7,425.2,182.9,424.5,180.5,421.4z"/>
	<path fill="#B7AEA3" d="M192.7,423.4c0-0.6,0-1.3-0.1-1.9c0.5,0.3,1,0.6,1.4,1C193.6,422.7,193.2,423.1,192.7,423.4z"/>
	<path fill="#B7AEA3" d="M192.5,421.3c-0.2-0.2-0.5-0.5-0.7-0.7C192,420.8,192.3,421.1,192.5,421.3z"/>
	<path fill="#CAC4BA" d="M196.5,408.5c-1.4-1.2-2.7-2.4-4.7-4c1.7-0.9,2.7-1.5,4.7-2.6C196.5,404.7,196.5,406.6,196.5,408.5
		L196.5,408.5z"/>
	<path fill="#B7AEA3" d="M205.5,400.9c-0.5,1.2-0.9,2.1-1.5,3.6c-1.3-1.1-2.2-2-4-3.6C202.4,400.9,203.7,400.9,205.5,400.9z"/>
	<path fill="#CAC4BA" d="M196.5,408.4c0.1,0.1,0.3,0.2,0.4,0.2C196.8,408.6,196.7,408.5,196.5,408.4L196.5,408.4z"/>
	<path fill="#D5AF87" d="M185.4,389.4c-1-0.8-2.1-1.6-3.1-2.4c0.1-0.5,0.2-1.1,0.3-1.6c3.6,0,7.2,0,10.8,0c0.6,0.5,0.7,1,0.2,1.6
		c-1.3,0.5-2.6,1-3.9,1.5c-0.4,0.3-0.8,0.6-1.1,0.9l-0.1,0c-0.3,0.3-0.7,0.3-1,0C186.8,389.4,186.1,389.4,185.4,389.4z"/>
	<path fill="#C6BAB0" d="M193.7,387c-0.1-0.5-0.1-1.1-0.2-1.6c1-0.6,2-1.2,3-1.9c2.5,0,5-0.1,7.5-0.1
		C200.6,384.6,197.1,385.8,193.7,387z"/>
	<path fill="#B7AEA3" d="M188.6,389.4c0.4-0.3,0.8-0.6,1.1-0.9c-0.1,0.3-0.1,0.6-0.1,0.9C189.2,389.4,188.9,389.4,188.6,389.4z"/>
	<path fill="#B7AEA3" d="M187.5,389.5c0.3,0,0.7,0,1,0C188.2,389.5,187.8,389.5,187.5,389.5z"/>
	<path fill="#E2DFDD" d="M237.5,72.3c0.7-1,1.3-2,2-3c1,0.3,2,0.7,3,1c-0.1,2.2-0.2,4.4-0.3,6.6c-0.1,1.8-0.3,3.5-0.3,5.3
		c0,1,0.9,1.9,0.8,2.8c-0.4,7,3.3,9.9,9.7,10.4c-3.4,3.7-9.2,3.3-14.1-0.9C238.2,87,237.9,79.6,237.5,72.3z"/>
	<path fill="#CAC4BA" d="M238.5,94.4c4.6,1.5,9.2,3.4,14.1,0.9c2.7-0.3,5.4-0.6,8.1-0.9c-1.7,6.6-3.3,13.3-5,19.9
		c-1.2,0.7-0.3,2.1-1.1,3l0,0c-5,6.1-5,14.5-9.2,21.3c-2.5-1.6-2.2-3.9-2.3-5.9c-0.1-6.8-0.1-13.6-0.1-20.3c0-3.9-0.4-7.6-1.9-11.1
		c-0.7-2.4-3.1-1.5-4.5-2.4c-1.8-1.5-4.1-1.2-6.2-1.6c-0.7,0-1.3,0-2,0c-5-3.6-6.9-9.4-10.3-14.2c-3.3-4.6-6.4-5.4-11.7-2.9
		c-2.2,0.7-4.4,1.7-6-1c1.8-1.3,3.5-3.2,5.5-3.9c4.4-1.4,9-2.2,14.6-3.5c0.5,1.8,1.2,4.2,2,6.5c1.1,3.3,1.5,7.2,3.5,9.7
		C229.2,91.7,233.5,94.1,238.5,94.4z"/>
	<path fill="#D9A050" d="M74.5,369.6c0-0.8,0-1.5,0.1-2.3c1.1-1.8,0.5-3-1.2-3.8c-0.1-0.4-0.1-0.8,0.2-1.2c1.8-0.9,3.7-1.9,5.7-2.9
		c0-5.4-6.5-11.4,1.3-17.5c2,2.1,3.8,4.3,5.9,6.2c1.8,1.6,4,2.9,6.1,4.3c3.1,2.1,5.2,5.1,7.1,8.2c3,4.9,7.2,7.7,13.2,7.4
		c4.7-0.2,9.3-0.3,13.2,3.2c1.4,1.2,3.5,0.7,5.3,0.8c8.7,0.3,17.3-0.4,26-0.2c4.8,0.1,9.5-1.5,14.1-2.9c5-1.5,9.8-3.4,15.1-1.8
		c-1.7-0.7-3.7,0.4-5.2-1c-0.6-1.2-0.3-2.4,0.4-3.4c4-5.3,5.9-11.5,8.7-17.4c2.8-5.9,4.3-12.2,4.6-18.8c0.1-4.2,1.4-8.4,1.3-12.3
		c-0.4-9.5,6-17.3,5.2-26.7c-0.1-1,0.3-2,0.9-2.8c5-7.1,6.3-15.6,9.5-23.4c2.4-5.8,3.6-11.7,3.2-18c-0.2-2.5,0.7-4.8,1.9-7.1
		c3.1-5.9,4.8-12.3,6.1-18.8c0-1.3,0.1-2.6,0.6-3.9c1.4-3.1,3.4-5,6.8-6.3c3.8-1.4,4.3-5.8,5.2-9.4c0.2-0.5,0.5-0.9,0.9-1.3
		c2-1,3.8-3.5,6.3-1.1c0.8,3.7-0.5,7.3-1.5,10.7c-1.2,4.3-2.1,8.7-3.4,13c-0.4,0.6-0.8,1.1-1.4,1.4c-9.6,5.2-10,14.7-10.8,23.9
		c-0.1,0.8,0.1,1.8-0.2,2.5c-2.6,5.7-2.7,11.6-2.7,17.7c0,4.7-1.6,9.4,0.4,14.2c0.6,1.4-0.1,2.9-0.7,4.3c-5.2,12.7-9,25.6-8.9,39.5
		c0,4.2-1.3,8.3-3.1,12c-4.5,9.2-6.8,19-8.3,29.1c-0.3,2.3-1.8,3.6-3.7,4.2c-3.1,1-5.5,3.1-7.6,5.5c-0.7,0.5-1.4,0.7-2.2,0.8
		c-6,0.3-11.6,1.9-17.1,4.4c-2.3,1.2-4.8,1-7.3,1.1c-17.6,0.7-35-0.8-52.5-2.2c-4.4-0.3-9.4,0.6-13.4-2.4c-6.4-1.3-12.7-2.5-19-3.9
		C77.7,371,76.1,370.2,74.5,369.6z"/>
	<path fill="#DB9937" d="M224.5,217.3c-1.8,6.1-3.6,12.3-5.3,18.4c-0.9,3.1-2.5,6.1-2.5,9.2c0,6.2-1.1,11.8-3.7,17.6
		c-2.3,4.9-3,10.5-4.6,15.8c-0.4,1.4-1.4,2.6-2.2,3.8c-2,2.8-4.3,5.1-3,9.3c0.6,1.8-1,4.3-1.6,6.5c-1,4.1-2.3,8.2-3,12.3
		c-2,11.3-2.8,23-5.8,34c-2.1,7.6-7,14.3-10.9,21.8c1.9,0.3,3.8,0.5,4.8,0.7c-7.8,1.9-16.3,4.3-24.8,6c-3.9,0.8-8.1,0.5-12.2,0.6
		c-7.5,0.1-15,0.1-22.5,0.2c-0.6,0-1.6,0-1.9-0.4c-3.3-4.6-8.2-3.8-12.7-3.4c-4.8,0.4-8.7-1.3-11.5-4.7c-3.2-3.8-5.8-8.3-8.6-12.4
		c0.6-1,1.2-2,1.8-3c0.8-1.3,1.5-2.7,2.3-4c1.1-1.3,2-3.1,4.2-2.9c2.3,0.4,4.2,1.7,6.3,2.6c2.8,2.8,4.5,6.6,7.9,8.5
		c0.3,3.5-3.4,3.8-4.1,6.6c2.4,2.9,6.1,3.6,9.6,3.8c8.3,0.4,16.7,0.9,24.9-0.1c6.6-0.9,13.1-2.1,19.7-1.2c1.4,0.2,3-0.3,4-1.4
		c0.4-1.6-0.3-2.8-0.8-4c-2-5.1-4-10.1,2.2-13.9c0.3-0.2,0.4-0.6,0.4-0.9c1.8-9.9,8.6-16.8,14.4-24.3c2.3-2.9,1.8-5.9,1.9-9
		c-0.1-1.9-0.1-3.8,0.7-5.6c3.9-5.7,8.3-10.9,7.8-18.7c-0.2-3.7,1.7-7.7,1.8-11.7c0-0.7,0.2-1.4,0.7-1.8c6.1-5.1,6.1-13.2,9.4-19.6
		c3.4-6.5,5.6-13.4,7.8-20.4c1.4-4.5,3.6-8.6,6-12.6C222,217.6,222.8,216.3,224.5,217.3z"/>
	<path fill="#FBB72E" d="M100.5,343.4c-1.3,0.7-2.7,1.3-4,2c-2.5-2.7-5-5.5-7.6-8.1c-2.8-2.8-4.1-5.7-4.7-9.9
		c-1.2-8.3-1.3-17.1-6.8-24.5c-1.3-1.8-0.5-5.1-1-7.7c-0.6-2.8-1.2-5.7-2.6-8.1c-2.2-3.6-2.5-7.7-3.8-11.4c-2.2-6.4-1.2-13.3-5-19.7
		c-5-8.4-5.4-18.4-4.6-28.2c0.4-5.3,0.4-10.6-3.3-15c-0.6-0.7-0.7-1.9-0.6-2.8c1.2-7.5-2.6-14-4.3-20.9c-1.1-4.2-2.8-8.3-3.5-12.6
		c-0.5-2.7-0.4-5.2-3.3-6.6c-0.6-0.3-0.8-2.1-0.8-3.2c-0.1-3.5,0.3-7-0.1-10.5c-1.1-9.8-2.8-19.4-3.7-29.2
		c-1.1-10.9-1.6-21.9-2.3-33.5c2.4-0.1,4.3-0.2,6.2-0.3c2.1,0.6,4.1,1.1,6.2,1.7c0.4,0.8,0.5,1.6,0,2.4c-2.4,2.1-5.1,0.4-7.9,0.5
		c-0.9,3.5,0.9,6.5,1.7,9.5c0.8,3.1,1.5,6.1,1.4,9.3c-0.2,4.5-0.2,9,3.3,12.6c1.3,1.4,1.2,3.4,1.2,5.2c0.5,10.6,2.9,21,4.8,31.4
		c0.8,4.2,2.2,8.6,2.1,12.7c-0.1,10.5,2.2,20.4,4.6,30.4c1.7,7.3,3.7,14.6,6.6,21.4c4.5,10.8,6.2,22.4,9,33.6
		c1.6,6.4,4.1,12.6,5.1,19.3c0.6,4.1,1.4,8.2,1.3,12.3c-0.1,3.8,1,6.8,4.3,8.9c3.6,2.3,5.8,5.4,5.8,9.8c0,1.9,0.9,3.5,2,5
		c3.5,5.2,4.7,11.3,7.1,17C104.3,339.4,102.9,341.7,100.5,343.4z"/>
	<path fill="#DBAC76" d="M73.5,362.3c0,0.3-0.1,0.6-0.1,0.9c-4.8,0.5-6-1-5.1-5.7l0.2-0.2C72.7,356.5,72.3,360.2,73.5,362.3z"/>
	<path fill="#B19F8E" d="M34.3,93.1c0.1-1,0.1-1.9,0.2-2.9C34.4,91.2,34.3,92.2,34.3,93.1z"/>
	<path fill="#A57C47" d="M172.5,428.5c0-0.7,0.1-1.3,0.1-2.2c1.4,0.4,2.6,0.7,3.9,1.1c0,0.4,0.1,0.7,0.1,1.1
		C175.3,428.5,173.9,428.5,172.5,428.5z"/>
	<path fill="#DBAC76" d="M190.5,373.4c3.4-3,6.7-6,10.1-9c0.5-2.2,1.5-4.7,1.7-7.2c1-10.9,6.7-20.3,9.6-30.6
		c0.3-1.1,0.5-2.3,0.6-3.4c0.7-7.4,0.7-14.9,2.3-22.1c1.3-6.2,4.4-12,6.6-18.1c0.6-1.6,0.7-3.4,0.6-5.1c-0.2-2.2-1.5-4.4-1.3-6.5
		c0.7-5.2,2.5-10.3,0-15.5c-0.2-0.5,0-1.5,0.4-1.9c4-3.8,3.3-8.7,3.6-13.5c0.3-4.4,0.2-9.4,2.3-12.8c2.2-3.6,6.9-5.6,10.5-8.4
		c1.1,1,1.5,2.3,1.3,3.6c-0.8,6.2-1.1,12.5-3.4,18.4c-0.6,0.8-1.6,1.6-1.8,2.5c-1.7,9.5-3.5,19.1-4.9,28.7
		c-0.8,6.1-1.1,12.2-1.1,18.3c0,7.9,0.6,15.7-0.1,23.7c-0.5-2.6-1-5.1-1.8-8.7c-0.9,1.9-1.7,2.9-1.7,3.9c0.4,10.8-5.6,20.8-3.6,31.8
		c0.2,1-0.8,2.4-1.7,3.2c-5.2,5-4.8,10.7-2.2,16.7c1.3,2.1-0.4,3-1.7,3.9c-1.8,1.2-3.4,2.5-4.5,4.4c-4.4,2.3-9.3,2.9-13.9,4.7
		C194.6,375.2,192.2,375.2,190.5,373.4z"/>
	<path fill="#B18A6B" d="M235.4,241.4c0.7-7.3,1.4-14.7,2.1-22c1.6-8,3.3-16,4.9-24c-0.3-0.4-0.2-0.7,0.1-1c0.7-1.3,1.7-2.5,2-3.9
		c2-8.8,3.8-17.6,5.7-26.3c0.4,0.1,0.9,0.2,1.3,0.3c-2.4,12.9-4.8,25.8-7.3,38.7c0.2,0.1,0.5,0.1,0.7,0.2c1.2-2.7,2.3-5.3,3.5-8
		c0.2,0.2,0.4,0.4,0.6,0.6c2,5.4-0.7,10.5-1.4,15.6c-1,6.9-3.3,13.6-4,20.6c-0.2,1.3-0.8,2.5-2.1,3.3
		C239.5,237.4,237.5,239.4,235.4,241.4z"/>
	<path fill="#B19F8E" d="M255.4,181.3c-4,24.7-7.9,49.4-11.9,74.1c-0.5,0.4-1,0.7-2.1,1.5c0-4.1,0-7.8,0-11.5c0-1.4,0.1-2.8,0.1-4.2
		c2.7-3.7,2.2-8.2,2.9-12.4c2.2-13.7,4.6-27.4,7.1-41.1c0.3-1.5,0.9-3.1,0.5-4.1c-1,3.7,0.2,8.3-3.5,11.7l-0.1-0.1
		c1.3-7,2.6-14,3.9-21.1c1.4-5.2,2-10.6,3.1-15.9c0.3-1.5,0.3-3,1.5-4.1c1.9-0.7,2.2,0.5,2.3,1.9c0,0.6-0.1,1.2-0.1,1.9
		c-0.8,1.3-0.6,2.7-0.8,4.1c-0.1,0.9-0.2,1.9-0.3,2.8c-0.7,1.4-0.4,3.1-1.2,4.4c-0.1,1.2-0.1,2.5-0.2,3.7c-0.1,0.7-0.1,1.3-0.2,2
		c-0.1,1.3-0.2,2.6-0.3,3.8C255.8,179.8,255.5,180.5,255.4,181.3z"/>
	<path fill="#A57C47" d="M248.6,195.4c1.2-4.4,2.4-8.7,3.7-13.1c0.2,0,0.4,0,0.6,0.1c-0.9,6.8-1.6,13.7-2.7,20.5
		c-1.1,7.2-2.4,14.3-3.6,21.4c-0.8,4.9-1.3,9.8-2.2,14.7c-0.2,0.9-1.9,1.5-2.9,2.3c0-2,0-3.9,0-5.9
		C243.9,222,246.2,208.7,248.6,195.4z"/>
	<path fill="#B18A6B" d="M210.5,368.5c0.2-0.7,0.1-1.6,0.5-2.1c1.8-1.7,3.7-3.3,5.5-4.9c1.3-0.7,2.6-1.4,3.9-2.2
		c-0.7,2.7-1.4,5.4-2,8.2c-2,1.5-4.2,2.1-6.6,1.8C211.3,369.2,210.9,368.9,210.5,368.5z"/>
	<path fill="#A57C47" d="M201.5,377.5c-2.4,0.2-4.7,0.5-7.1,0.7c-0.8-1-0.7-2,0-3c5.6-2.3,11.9-2.6,17.5-4.9c1.5-0.1,3.1-1,4.6,0.2
		c0,0.9,0,1.9,0,2.9c-2.1,0.4-4.1,0.9-6.1,1.3C207.4,375.6,204.5,376.5,201.5,377.5z"/>
	<path fill="#C6BAB0" d="M216.5,370.5c-1.3,0.3-2.6,0.5-3.9,0.8c-0.9-0.7-1.6-1.5-0.9-2.8c2.3-0.3,4.5-0.7,6.8-1
		C217.8,368.5,217.1,369.5,216.5,370.5z"/>
	<path fill="#E2DFDD" d="M12.5,16.2c0.4-0.7,0.7-1.3,1.1-2C13.2,14.9,12.8,15.6,12.5,16.2z"/>
	<path fill="#D6D1CC" d="M105.6,427.4c1.7,0.2,3.3,0.4,5,0.6c0.7,0,1.4,0,2,0.4c1,0.1,2,0.1,3,0.2c1.3,0.8,2.8,0,4.2,0.7
		c0.9,0.1,1.8,0.2,2.8,0.3c-0.7,0.3-1.3,0.6-2,1c-5-0.3-9.9-0.7-14.9-1c-4.4-0.7-8.7-1.3-13.1-2c-3.5-1.8-8.3-1.3-10-5.9
		c0.7-0.1,1.4-0.2,2.1-0.3c6,1.7,12,3.5,18,5.2C103.4,427.4,104.7,426.6,105.6,427.4z"/>
	<path fill="#D6D1CC" d="M68.5,418.6c0.7-0.7,1.4-1.5,2-2.2c3.3,1.1,6.6,2.2,9.9,3.3c-2.6,3.3-5.7,1.9-8.7,0.9
		C70.6,420.3,69.6,419.3,68.5,418.6z"/>
	<path fill="#716857" d="M263.5,308.4c6.3-2.4,12.7-4.8,19-7.1c-1.6,1.5-3.2,3-4.8,4.5c-1.3,1.8-3.2,2.7-5.2,3.4l0,0
		c-0.4,0.8-1,1.1-1.9,1.1c-0.6,0.2-1.2,0.3-1.9,0.5c-1.7,0.9-3.4,1.9-5.4,0.7C262.6,310.4,262.7,309.4,263.5,308.4z"/>
	<path fill="#C6BAB0" d="M263.7,311.2c1.7-0.1,3.3-0.3,5-0.4c-0.7,0.9-1.4,1.7-2.1,2.6c-6.1-0.1-12.2-0.2-18.3-0.3
		c0.1-0.6,0.2-1.1,0.2-1.7c-0.1-1,0.5-1.8,1.3-1.7C254.4,310.2,259.3,308.9,263.7,311.2z"/>
	<path fill="#C6BAB0" d="M272.4,309.3c1.7-1.1,3.5-2.3,5.2-3.4C277.5,309.4,275.2,309.7,272.4,309.3z"/>
	<path fill="#C6BAB0" d="M270.5,310.4c0.6-0.4,1.2-0.7,1.9-1.1C271.8,309.6,271.2,310,270.5,310.4z"/>
	<path fill="#B19F8E" d="M263.7,311.2c-4-0.2-8.1-0.5-12.1-0.6c-1,0-2,0.5-3.1,0.8c-0.7-0.9-1.4-1.9-2.1-2.8
		c0.3-0.6,0.7-0.7,1.3-0.3c5.3,0.1,10.6,0.1,15.9,0.2C263.6,309.4,263.7,310.3,263.7,311.2z"/>
	<path fill="#C6BAB0" d="M247.7,308.3c-0.4,0.1-0.8,0.2-1.3,0.3c-0.6,0.5-1.2,0.9-2.3,1.7c-0.3-1.4-0.5-2.6-0.7-3.8
		C244.8,307.1,246.3,307.7,247.7,308.3z"/>
	<path fill="#A57C47" d="M68.3,357.5c-0.1,3.5,1.8,5.2,5.1,5.7c0.8,0.6,1.9,1.2,2.4,2c0.2,0.3-0.8,1.4-1.3,2.1
		c-2.5-0.8-5.1-1.3-7.4-2.6c-2.5-1.4-4.5-3.4-6.8-5.2c0.1-3,0.1-6.1,0.2-9.1C63.1,352.8,65.7,355.2,68.3,357.5z"/>
	<path fill="#DCD9D7" d="M43.5,11.2c0.1-0.1,0.2-0.3,0.2-0.4C43.6,10.9,43.6,11.1,43.5,11.2C43.5,11.2,43.5,11.2,43.5,11.2z"/>
	<path fill="#A57C47" d="M164.5,429.4c1.6-3.2,4-1,6.1-0.8C168.6,428.8,166.5,429.1,164.5,429.4z"/>
	<path fill="#D9911B" d="M50.5,97.2c0-0.7,0.1-1.5,0.1-2.2c11.8,1.4,23.5,3,35.3,4c11.5,1,23,1.5,34.6,2.3c1,0.7,2.2,0.5,3.4,0.5
		c24.2,0,48.4,0,72.6,0c1,0,2,0.1,2.9-0.4c6.2,0,12.5,0,18.7-0.2c2.2-0.1,4.3-1.1,6.4-1.7c2-0.1,4-0.3,6.1-0.4
		c1.9-1.2,3.8-1.2,5.7-0.1c0.5,0.3,0.8,0.8,1,1.4c0.1,0.6,0.1,1.2,0.1,1.8c-0.9,20.9-4.2,41.6-5.7,62.4c-1.6,7.5-0.8,15.1,0,22.8
		c2.2-5.9,4.2-11.9,5.4-18.1c0.8-5.3,2.7-10.2,4.2-15.3c0.6-2,1.5-4.1,4-4.5c1.5,0.1,2.9,0.2,4.6,0.3c-0.5,5-0.7,9.8-1.6,14.5
		c-1,5.4-2.6,10.7-4,16c-0.2,0.6-1.2,0.9-1.9,1.3c-1.1,1.3-0.6,2.8-0.5,4.2c0.2,4.8-2.1,8.4-5.2,11.7l-0.1,0.1
		c-1.4,4.3-3.8,7.7-8.1,9.4c-3.1,1.2-2.4,4.4-3.9,6.5c0,1.3-0.1,2.6-0.1,4c-2.6,4.5-6.1,8.8-7.6,13.7c-2.3,7.3-4.6,14.5-7.8,21.4
		c-2.3,5-3.7,10.4-5.8,16.5c-3.9,0.8-4.9,4.3-4.8,9c0.2,4.2,0.4,8.9-1.2,12.7c-2,4.7-5.7,8.6-8.7,12.9c-2.6-4.6-2-9.7-0.7-14.3
		c1.2-4.3,2.4-8.1,0-12.2c-0.4-0.7-0.1-1.6,0.2-2.4c7.1-3,9.2-8.7,9.2-15.9c0-4.8,3.5-8.2,6.5-11.4c2.3-2.5,3.6-5,3.4-8.4
		c-0.2-3.9,0.2-7.5,2.9-10.7c2.1-2.5,0.4-6.2,1.9-9.1c0.8-5.5,6.7-7.4,8.6-12.3c1.6-4.3,3-8.8,5.5-12.8c0.9-1.5,0.7-3.2,0.4-4.8
		c-2.1-10.7-2.4-21.3,0.2-32c0.9-3.6,0.1-7.3,0.5-10.9c0.8-8.5,1.6-17.1,3.7-25.4c0.8-5.3,0.4-10.6,0.3-16.5
		c-3.7,2.4-7.5,0.8-10.9,2c-3.8-0.4-7.6,0.8-11.4,0.5c-5.8,0.2-11.7,0.2-17.5,0c-22,0-44,0.4-66,0c-8.2,0.3-16.2-0.6-23.9-3.5
		c-3.6-1.3-7.6-0.4-11.4-0.5c-3.5-0.1-7,0.4-10.4-0.7c-3.6-1.7-7.5-1.3-11.3-1.3C62.1,100.7,56.3,99.1,50.5,97.2z"/>
	<path fill="#DBAC76" d="M230.4,165.2c1.6-16.3,3.3-32.5,4.9-48.8c0.5-5.1,0.8-10.1,1.2-15.2c4.1-2.1,5.4,0.5,5.4,3.6
		c0.1,8.5,2.4,16.8,1.7,25.3c-0.4,5.1-0.1,10.3,2,15.1c-0.1,1.3-0.2,2.7-0.2,4c-2.3,6.6-4.6,13.3-7,19.9c-2.5,1.5-1.3,5.7-5.1,6.6
		C229.8,173,229.7,169.3,230.4,165.2z"/>
	<path fill="#D5AF87" d="M245.6,145.3c-1-1.7-2.2-3.3-2.8-5.1c-0.4-1.2-0.1-2.6-0.2-3.9c-0.7-11.4-1.4-22.7-2.2-34.4
		c-1.4-0.2-2.7-0.4-3.9-0.6c0.1-0.3,0.2-0.7,0.2-1c1.5-2.4,3.7-1.4,5.8-1.1c4.3,12.5,0.9,25.4,3.2,38.3c0.6-2.4,1.6-4.8,1.8-7.3
		c0.4-5.5,3.4-9.4,7.2-12.8c-2,5.9-4.2,11.7-6.1,17.6C247.4,138.4,246.6,141.8,245.6,145.3z"/>
	<path fill="#B19F8E" d="M269.4,126.2c0.9,0.3,1.8,0.6,2.7,0.9c1,0,2.1,0.1,2.8,0.9c0.9,0.8,1.8,1.5,2.8,2.3l-0.1,0.1
		c-2.7,0.3-5.3,0.6-8,0.9c-1.8,1.6-3.6,0.9-5.4,0.1c-0.4-0.2-0.8-0.4-1.2-0.7c-2.1-1.1-2.4,0.7-3,1.9c-0.6,1.4-0.6,3.2-2.6,3.7
		c-0.6,0.6-1.3,1.3-1.9,1.9c-0.2-0.2-0.3-0.5-0.2-0.7c0.1-0.2,0.2-0.3,0.2-0.3c1.7-9.3,3.3-18.7,5-28c1.3,0.3,2.7,0.7,4,1
		c-1.3,4.3-2.7,8.6-4.4,14c2.8,0.4,5.1,0.7,7.4,1c0.2,0,0.3,0,0.5,0.1C268.6,125.5,269,125.8,269.4,126.2z"/>
	<path fill="#DB9937" d="M236.6,197.3c0.6-1.3,1.2-2.5,1.6-3.8c0.9-2.9,1.5-5.8,2.4-8.7c0.4-1.2,1.2-2.3,1.8-3.4
		c0.1,4.3,0.1,8.7,0.2,13c0,0.3-0.1,0.7-0.1,1C240.5,196,238.5,196.7,236.6,197.3z"/>
	<path fill="#C6BAB0" d="M257.6,154.5c-1.4,6.6-2.9,13.2-4.3,19.8c0,0.1-0.3,0.2-0.4,0.2c-0.2,0-0.3-0.1-0.5-0.2
		c1.5-9.3,2.9-18.7,4.4-28c0.7-0.5,1.4-0.4,2.1,0.1C259.7,149.2,260.3,152.1,257.6,154.5z"/>
	<path fill="#E2DFDD" d="M258.4,146.1c-0.6,0-1.1,0.1-1.7,0.1c0.2-1.3,0.3-2.6,0.5-3.9c-0.2-0.4-0.1-0.8,0.2-1
		c0-1.6-0.1-3.2-0.1-4.9c0.8-2.1,1.3-4.3,2.4-6.2c1-1.8,2.7-3.5,3.9,0.1c-1.3,3.6-2.7,7.1-3.1,11C260.4,143,260.1,144.9,258.4,146.1
		z"/>
	<path fill="#B18A6B" d="M254.5,146.3c-0.5,4.4-1.1,8.8-1.6,13.3c-0.6-0.1-1.3-0.3-1.9-0.4C252.2,154.9,253.4,150.6,254.5,146.3
		L254.5,146.3z"/>
	<path fill="#B18A6B" d="M254.5,146.3c0-1.3,0-2.6,0-3.9c0.3,0,0.6,0.1,1,0.1C255.2,143.8,254.9,145,254.5,146.3L254.5,146.3z"/>
	<path fill="#D5AF87" d="M254.6,117.3c0.4-1,0.7-2,1.1-3C255.4,115.3,255,116.3,254.6,117.3z"/>
	<path fill="#B18A6B" d="M255.5,137.3c0,0.3,0,0.7,0,1c-0.1-0.2-0.3-0.5-0.4-0.7C255.1,137.5,255.4,137.4,255.5,137.3z"/>
	<path fill="#C6BAB0" d="M257.5,141.2c-0.1,0.3-0.1,0.7-0.2,1c0-0.3-0.1-0.5-0.1-0.8C257.2,141.4,257.4,141.3,257.5,141.2z"/>
	<path fill="#CAC4BA" d="M269.6,114.4c0,0.3,0,0.6-0.2,0.9c-0.3-0.7-0.6-1.3-0.9-2C268.9,113.6,269.3,114,269.6,114.4z"/>
	<path fill="#716857" d="M267.6,125.3c0.3-0.3,0.7-0.7,1-1c0,0,0-0.1,0-0.1C268.9,125.3,268.6,125.6,267.6,125.3L267.6,125.3z"/>
	<path fill="#90581D" d="M194.5,375.6c0,0.9,0,1.8-0.1,2.6c-7.3,0.9-14.5,1.7-21.8,2.6c-1.3,0.8-2.7,1.2-4.3,1.2
		c-10.1,0.1-20.2,0.1-30.3,0c-1.6,0-3.3-0.2-4.6-1.5c-9-0.6-18-1.2-27-1.8c-2.6-0.1-5.3-0.2-7.9-0.4c0-1,0-2-0.1-3
		c22.1,1,44.1,2.1,66.2,3c2.6,0.1,5.3-0.5,7.9-0.8c5.3-1.2,10.7-2,16-2.9C190.6,374.7,192.8,373.8,194.5,375.6z"/>
	<path fill="#DCD9D7" d="M194.5,71.3c4-0.3,8-0.7,12-1C204.3,73.8,197.4,74.4,194.5,71.3z"/>
	<path fill="#CAC4BA" d="M219.6,58.3c1.6,0.3,3.3,0.7,4.9,1c0,3.2-1.7,4.4-6.4,4.5C218.6,61.9,219.1,60.1,219.6,58.3z"/>
	<path fill="#DCD9D7" d="M206.5,60.3c-2,0-4,0-6,0c1.2-1.3,2.3-2.6,4.3-4.7C205.7,57.9,206.1,59.1,206.5,60.3z"/>
	<path fill="#DCD9D7" d="M200.5,60.3c-2,1.3-4,2.6-6,4c-0.1-0.8-0.2-1.6-0.3-2.7C196.3,61.1,198.4,60.7,200.5,60.3z"/>
	<path fill="#C6BAB0" d="M206.5,80.2c-0.2-2.5,1.3-2.7,3.4-3c6.9-0.9,9.1,4.5,12.1,8.6c2.6,3.5,4.4,7.6,6.5,11.4c-2.7,0-5.4,0-8,0
		c-1.4-2-2.8-3.9-4.7-6.6c0.1-0.5,0.3-2,0.6-3.6c-0.4-0.3-0.9-0.6-1.3-1c-0.8,1.1-1.7,2.1-2.5,3.2l-0.1,0.1
		c-1.5-0.6-2.9-1.1-3.7-1.4C207.9,84.8,207.2,82.5,206.5,80.2z"/>
	<path fill="#C6BAB0" d="M236.5,99c-2,0-3.9,0-5.9,0c0-0.6-0.1-1.1-0.1-1.7c2.2-1.1,4.5-2.5,6,0.9c0.3,0.2,0.4,0.4,0.3,0.5
		C236.8,98.9,236.6,99,236.5,99z"/>
	<path fill="#D68301" d="M199.4,101.4c-1.4,0.3-2.8,0.8-4.2,0.8c-23.3,0.1-46.7,0.1-70,0c-1.6,0-3.1-0.6-4.7-0.9
		c24.3,0,48.7-0.1,73-0.1C195.5,101.3,197.5,101.3,199.4,101.4z"/>
	<path fill="#C6BAB0" d="M212.6,89.2c0.2,0.1,0.3,0.2-0.4-0.3C212.8,89.6,212.6,89.4,212.6,89.2C212.5,89.3,212.6,89.2,212.6,89.2z"
		/>
	<path fill="#D9A050" d="M133.4,380.4c13,0.1,26.1,0.2,39.1,0.4c-2.3,4.6-7.3,5.9-11.3,6.3c-8.5,0.9-17.1,0.4-25.7,0.2
		c-1.7,0-3.3-1.6-4.9-2.4C131.6,383.4,132.5,381.9,133.4,380.4z"/>
	<path fill="#CAC4BA" d="M258.4,146.1c0.9-4.4,1.8-8.8,2.9-13.2c0.3-1,1.5-1.8,2.3-2.7l-0.1,0c1.7,3.2,0.6,6.2-0.9,9.2
		c0,0.6-0.1,1.3-0.1,1.9c0,0.7-0.1,1.3-0.2,2c0,1.3-0.1,2.6-0.1,3.9c-0.5,0.8-1.1,1.5-1.6,2.3c-0.5,2.3-0.9,4.6-1.4,6.9
		c-0.6-0.6-1.2-1.2-1.7-1.8C257.9,151.7,258.2,148.9,258.4,146.1z"/>
	<path fill="#D6D1CC" d="M291.3,140.5c-3.9-2.7-7.8-5.5-11.7-8.2c-0.6-0.6-0.6-1.3,0-2c5.7,1.3,9.4,5,12.2,9.9
		C291.6,140.3,291.5,140.4,291.3,140.5z"/>
	<path fill="#E2DFDD" d="M262.7,139.4c0.3-3.1,0.6-6.1,0.9-9.2c2,0.4,4,0.7,6,1.1C267.3,134,265,136.7,262.7,139.4z"/>
	<path fill="#D6D1CC" d="M291.7,140.1c1,1.4,1.9,2.8,2.9,4.1c-0.4,0.3-0.9,0.5-1.3,0.8c-0.6-1.5-1.3-3.1-1.9-4.6
		C291.5,140.4,291.6,140.3,291.7,140.1z"/>
	<path fill="#CAC4BA" d="M256.8,169.6c0.4-1.5,0.8-3,1.2-4.4C257.7,166.6,257.3,168.1,256.8,169.6z"/>
	<path fill="#CAC4BA" d="M258.4,162.3c0.3-1.4,0.5-2.8,0.8-4.1C258.9,159.5,258.7,160.9,258.4,162.3z"/>
	<path fill="#CAC4BA" d="M274.9,128c-0.9-0.3-1.9-0.6-2.8-0.9c0.1-0.6,0.3-1.2,0.4-1.8c0.7,0,1.4,0,2.1,0
		C274.7,126.2,274.8,127.1,274.9,128z"/>
	<path fill="#E8E7E5" d="M279.5,130.3c0,0.7,0,1.3,0,2c-0.7-0.6-1.3-1.2-2-1.9l0.1-0.1C278.3,130.3,278.9,130.3,279.5,130.3z"/>
	<path fill="#CAC4BA" d="M256.4,175.3c0.1-0.7,0.2-1.3,0.2-2C256.6,174,256.5,174.6,256.4,175.3z"/>
	<path fill="#CAC4BA" d="M255.4,181.3c0.2-0.7,0.4-1.4,0.6-2.2C255.9,179.9,255.6,180.6,255.4,181.3z"/>
	<path fill="#E2DFDD" d="M260.7,149.4c0.5-0.8,1.1-1.5,1.6-2.3C261.8,147.9,261.2,148.7,260.7,149.4z"/>
	<path fill="#E2DFDD" d="M262.4,143.3c0.1-0.7,0.1-1.3,0.2-2C262.5,142,262.5,142.6,262.4,143.3z"/>
	<path fill="#C6BAB0" d="M267.5,125.3c0.3-0.3,0.7-0.7,1-1c0.3,0.7,0.6,1.3,0.8,2C268.7,125.9,268.1,125.6,267.5,125.3z"/>
	<path fill="#A57C47" d="M173.4,421.9c2.1-0.1,4.1-0.1,6.2-0.2C177.5,423.1,175.6,425.9,173.4,421.9z"/>
	<path fill="#A57C47" d="M167.2,423.1c1.5-0.4,2.9-0.9,4.4-1.3C170.2,422.2,168.7,422.7,167.2,423.1z"/>
	<path fill="#C6BAB0" d="M119.7,429.3c-1.4-0.2-2.8-0.5-4.2-0.7C116.9,428.8,118.3,429.1,119.7,429.3z"/>
	<path fill="#C6BAB0" d="M105.6,427.4c-1-0.3-2-0.6-3.1-0.8C103.6,426.8,104.6,427.1,105.6,427.4z"/>
	<path fill="#C6BAB0" d="M112.6,428.4c-0.7-0.1-1.3-0.3-2-0.4C111.2,428.1,111.9,428.2,112.6,428.4z"/>
	<path fill="#A57C47" d="M164.7,423.2c0.2-0.1,0.4-0.1,0.6-0.1c-0.1,0.3-0.1,0.5-0.2,0.8C164.9,423.7,164.8,423.4,164.7,423.2z"/>
	<path fill="#B19F8E" d="M236.5,99c0-0.3,0-0.5,0-0.8c2,0.3,3.9,0.6,5.9,1c-1.9,0.4-3.8,0.7-5.8,1.1C236.6,99.8,236.6,99.4,236.5,99
		z"/>
	<path fill="#D5AF87" d="M194.5,375.6c-2,0.1-3.9,0.2-5.9,0.3c-0.7-0.8-0.7-1.6-0.1-2.4c0.7,0,1.3,0,2,0c7.2,0.6,13.3-3.2,20-4.9
		c0.4,0,0.8,0,1.1,0c0.3,0.9,0.6,1.9,0.9,2.8C206.5,372.7,200.5,374.1,194.5,375.6z"/>
	<path fill="#DB9937" d="M224.6,213.3c-0.4-4,0.5-6.6,4.8-8.5c2.9-1.3,4.8-4.9,7.1-7.4c0,8-2.5,11.4-8.5,12.1
		C226.8,210.9,225.7,212.1,224.6,213.3z"/>
	<path fill="#DBAC76" d="M188.5,373.4c0,0.8,0,1.6,0.1,2.4c-5.3,0.5-10.7,1-16,1.6c0.1-0.3,0.1-0.9,0.3-0.9
		C178,375.4,183.3,374.4,188.5,373.4z"/>
	<path fill="#E98F01" d="M188.5,274.4c0.6,1.5,1.3,3,1.7,4.5c0.4,1.8,1.3,4.2,0.6,5.6c-3.3,6.1-2.1,12.6-2.3,18.9c0,2,0,4,0,6
		c-1,5.6-5.5,9.3-8.5,13.6c-5.3,7.4-10.7,14.7-13.8,23.4c-1.1,3.1-3.3,4.3-6.5,4.4c-3.6,0.1-7.3-0.2-10.9,1
		c-3.4,1.1-6.4,2.3-8.3,5.7c-1.8,3-5,4.4-8.3,5c-4.4,0.8-8.9,0.6-13.4,0.1c-2.4-0.3-4.5-1.6-3.4-4.3c1.4-3.6,0.6-6-2.3-8.2
		c-1.2-0.9-1.5-2.1-1.2-3.6c0.3-0.8,0.8-1.4,1.5-1.8c3.2-0.4,6.4,0,9.5-0.5c2.8,0.9,5.2,0.4,7.3-1.8c0.7-0.7,1.5-1.5,2.5-1.6
		c6.1-0.7,6.9-5.1,7.4-10c1-9.3,1.3-9.6,10.7-12.1c1.2-0.3,1.2-0.3,3.7-2.7c-3.1-3.2-2.6-6.9-1.6-11c0.8-3.4,0.6-7,0.1-10.5
		c-1.7-12.9-0.9-25.6,2.4-38.1c0.4-1.5,1.1-2.8,1.8-4.1c3.2-5.2,2.3-9.3-0.9-14.7c-3.4-5.5-8.6-10.3-8.7-17.5
		c-0.2-0.8-0.3-1.7-0.2-2.5c3.6-15.9-0.8-31.9,0.7-47.8c0.1-1.3-0.2-2.7-1.2-3.7c-7.7-8-6.7-18.3-7.6-28.1c-0.1-0.8,0-1.9,0.6-2.4
		c5.2-4.7,9.1-11.6,17.1-11.6c6.6,0,12.4-1.7,18-5c5.2-3,10.5-5.8,16.9-5.4c1.1,0.1,2.3-0.3,3.3-1c3.7-2.7,7.6-4.7,12.1-5.6
		c1-0.2,1.6-1.1,2.3-1.8c3.7,0,7.3,0,11,0c1.9,2.7,0.5,4.5-1.9,5.5c-4,1.7-8,3.4-11.7,5.6c-8.4,5.1-18.2,6.9-26.5,11.9
		c-3.8,2.3-7,5.8-7.3,10.7c-0.3,4.3-0.4,8.6-1.1,12.9c-1.3,8.5,2.8,16.3,3.3,24.6c0.1,1.3,1.1,2,2.2,2.6c4.1,1.9,4.6,6,6.4,9.5
		c5.6,10.8,2,22.9,5.8,33.9c1.5,4.2,1.4,8.9,1.2,13.4c-0.1,3.5,1.3,6.8,1.7,10.1c0.9,7.3,2,14.7,0.5,22.1
		C192.7,270.6,190.6,272.6,188.5,274.4z"/>
	<path fill="#FCA501" d="M113.5,345.4c-0.3,0.3-0.7,0.7-1,1c-2.3,1.9-4.2,0.4-6-0.9c-2-0.7-4-1.4-6-2.1c2.6-3.5,1.6-7-0.1-10.5
		c-2.4-4.9-4.9-9.8-7.3-14.7c-0.2-0.4-0.5-0.9-0.5-1.4c0.7-5.9-1.8-9.6-7-12.3c-1.7-0.9-2.9-4.1-2.9-6.3c-0.1-10.1-1.8-19.7-5.8-29
		c-1.5-3.3-1.5-7.3-2.4-10.9c-1.1-4.7-3.5-9.3-3.5-14c0.1-8.4-5.4-14.8-6.8-22.8c-1.5-8.6-4.9-16.9-7.4-25.4c-0.4-1.4-0.2-3-0.3-4.5
		c-0.7-8.2-1-16.4-2.2-24.4c-1.5-10.3-4.2-20.4-5.3-30.7c-0.4-4-0.2-7.3-3.9-9.8c-0.6-0.4-0.7-1.8-0.6-2.8c0.4-8.1-0.2-16-3.8-23.4
		c-0.6-1.3-0.1-3.2-0.1-5c3.7,0.6,6.8,1.1,9.9,1.7c8.9,0.7,17.8,1.4,26.6,2.2c0.9,0.1,1.6,1.2,2.4,1.8c1.3,4.1,1.1,8.8-0.6,12.1
		c-3.5,6.6-2.7,13.6-3.4,20.4c4.6,2.6,4.8,3.2,2.7,8c-0.6,1.4-1.2,2.7-1,4.3c1.2,9.1,0.4,18.3,0.6,27.4c0.1,2.9,0.4,5.6,2.6,7.8
		c1.5,1.4,2.2,3.3,2.7,5.3c1.3,5,2,10.1,4.8,14.6c0.9,1.4,0.9,3.2,0.7,4.9c-0.3,2.7,0.4,4.9,2.6,6.6c2.2,1.7,2.5,4.2,2.5,6.7
		c0.4,14.8,2.1,29.4,5.5,43.9c0.3,1.5,0.5,3,0.1,4.5c-2.6,9-1.8,18.1-0.8,27.2c0.3,2.8,0.7,5.7,0.1,8.5c-2,9.9,3.7,17.6,7.1,25.9
		c1,2.4,2.9,4.5,3.4,7.2c0.5,2.7,2.7,3.7,4.5,5C114.7,342.7,114.5,344.1,113.5,345.4z"/>
	<path fill="#D9911B" d="M106.5,345.5c2,0.3,4,0.6,6,0.9c2,2.8,4.1,5.6,6.2,8.6c-1.1,1.5-2,2.9-3.1,4.4c0.5,0.6,1,1.6,1.6,1.6
		c6.5,0.3,13.2,1.7,19.4-1.8c0.9-0.5,1.9-1,2.3-1.8c3.9-7.9,11.3-8.2,18.5-7.9c4.9,0.2,7.1-1.5,8.7-5.9c1.2-3.4,3.5-6.5,5.4-9.7
		c3.4-5.6,6.6-11.3,10.3-16.8c1.9-2.9,4.5-5.2,6.9-7.8c2.3,7.3-4.6,10.6-7,15.9c-0.9,1.9-2,3.6-3.2,5.3c-1.6,2.2-3.5,4.2-5.8,6.9
		c0,1.6,0,4.1,0,6.2c-2.3,2-4.3,3.7-6,5.3c1.9,4.7,3.5,8.7,5.5,13.9c-3.7,0.2-7.4,0.3-11.1,0.7c-4,0.4-8,1.1-12.1,1.6
		c-1.3,0.2-2.6,0.3-4,0.3c-7.3,0-14.7,0.3-22-0.1c-4.1-0.2-8.1-1.2-12-2.4c-1.2-0.4-2-2.4-3.1-3.8c2.7-1.8,4.5-3,5.6-3.7
		C110.9,351.8,108.7,348.6,106.5,345.5z"/>
	<path fill="#F49601" d="M113.5,345.4c0-1.3,0-2.6,0-4c-0.8-0.9-1.4-2-1.3-3.2c0.8-10.1-2.4-19.8-2.1-29.8
		c0.3-10.7-1.5-21.2-2.6-31.7c-0.3-3.1-0.1-5.9,1.6-8.6c3-5.2,4.4-10.8,3.9-16.8c-0.4-5-1.1-9.9-1.1-14.9c0-1.5-0.4-3-1.5-4.1
		c-3.6-3.7-4.3-8.1-3.7-13c0.2-1.2,0.2-2.4-0.2-3.5c-3-8.9-2.9-18.1-2.5-27.2c0.3-7.7-3.4-14.5-4.2-21.9c-0.4-3.5-0.7-6.8,0.3-10.3
		c2.2-7.8,1.9-15.8,1.8-23.8c0-2.5,0.1-5,0-7.5c-0.1-4.7,1.3-8.2,6.8-9.2c-0.6-4,1.6-5.4,5.1-6.4c3.6-1,7-2.9,10.6-4
		c22.3,0,44.7,0,67,0c1,3.3-1.7,3.2-3.4,3.3c-7.8,0.1-15.4,2.6-23.3,2.1c-3.4-0.2-5.9,0.6-8.2,3.6c-2.5,3.3-6.8,4.1-10.6,5.1
		c-5.3,1.4-10.7,2.3-14.7,6.7c-1.6,1.8-4,1.5-6.1,1.1c-2.6-0.4-3.9,0.6-5,3c-2.2,4.8-4,9.6-0.6,14.6c0.4,0.7,0.7,1.6,0.6,2.4
		c-0.5,9.7,2.5,18.8,3.5,28.3c0.6,5.5,3,10.9-0.2,16.5c-1.1,1.9,1.2,3.4,3.1,3.6c5.5,0.7,6.4,4.4,6.2,9c-0.2,4.2-0.2,8.5,1.4,12.3
		c1.6,3.7,4.3,6.9,5.8,10.9c2.1,5.8,2.3,11.4,0.6,17.1c-1.1,3.7-1.3,7.2,0,10.7c0.7,8.2,0.2,16.3-2.1,24.2c-0.7,2.3-0.7,4.6-0.6,6.9
		c0.1,4-0.2,7.7-4.9,9.2c-1.7,0.5-2.1,2.2-2,3.7c0.3,6.4-0.7,12.8,0.1,19.3c0.9,7.6-1.2,15.5-3.5,22.9c-0.8,2.6-3.5,2.2-5.2,3.4
		C119.5,345.4,116.5,345.4,113.5,345.4z"/>
	<path fill="#FB9C01" d="M124.5,105.3c-4.6,2.5-9.1,5-14.2,7.8c0.2,0.6,0.7,2.5,1.3,4.5c-8.2,0.3-8,0.3-8.2,8.2
		c-0.2,9.1,0.6,18.5-1.3,27.3c-1.6,7.2-1.6,14.3,0.7,20.3c4.8,12.2,0.8,24.7,3.6,36.8c1,4.2,0.4,8.8,1.4,13c0.6,2.8,2.7,5.3,4.1,8
		c0.5,1,1.4,1.9,1.5,2.9c0.5,6.8,1.4,13.6,0.8,20.4c-0.5,5.2-3,10.2-4.6,15.3c-0.5,1.8-1.1,3.8-1,5.7c0.8,9.9,2,19.8,2.7,29.8
		c0.9,12.1,1.4,24.2,2,36.2c-1.5-0.1-2.9-0.2-3.1-0.2c-2.6-4.7-4.9-8.4-6.8-12.3c-2.5-5.4-5-11-6.8-16.7c-0.7-2.3,0.7-5.2,0.6-7.8
		c-0.2-9.5-0.6-18.9-0.9-28.4c0-1-0.3-2.1,0-3c3.5-11-2-21.2-2.6-31.8c-0.4-7.5-1.1-15-1.4-22.5c-0.1-2.7-0.4-4.7-3.1-6.2
		c-1.2-0.7-2.3-3.2-2.1-4.7c0.3-3.7-0.4-6.6-2.3-9.8c-2-3.4-2.3-7.8-3.4-11.7c-0.3-1.1-0.3-2.8-1.1-3.2c-5.1-3-4-7.9-4.1-12.5
		c-0.3-8.5-0.7-16.9-0.9-25.4c0-1.4,1-2.9,1.5-4.4c0.6-1.6,1.1-3.1,1.7-4.7c-0.3-0.2-0.7-0.4-1-0.6c-1.1,0.7-2.2,1.4-3.5,2.2
		c-0.2-0.4-0.7-0.8-0.7-1.2c0.3-5.5,0.5-10.9,1-16.4c0.1-1.4,1.2-2.7,1.6-4.1c0.7-2.6,1.3-5.2,1.9-7.8c0.5-2.4,1-4.7,1.5-7.1
		c5.5,0,11-0.4,16.4,0.2c5.5,0.6,10.8,2.5,16.2,3.3C116.2,105.3,120.4,105.1,124.5,105.3z"/>
	<path fill="#E18801" d="M188.5,274.4c0.7-4.3,5.2-7.2,4.1-12.4c-0.9-4.1-2.4-8.5-0.1-12.7c0.1-0.3,0.1-0.8,0-1
		c-5.5-7.1-1.4-15.8-3.8-23.5c-1.1-3.4-1.7-7.1-2.1-10.7c-0.4-3.2-0.2-6.5-0.2-9.7c0.1-3.4,0.9-6.9-2.5-9.6c-1-0.8-1.1-2.9-1.4-4.5
		c-0.8-4.6-1-9.5-7.3-10.3c-0.6-0.1-1.5-1.4-1.6-2.2c-1.1-8.4-2.4-16.9-3-25.4c-0.3-5.1,0.5-10.2,0.9-15.4c0.2-2.9,6.8-9.9,9.6-10.8
		c2-0.6,3.8-1.9,5.8-2.6c3.4-1.2,6.8-2.2,10.3-3.3c0.6-0.2,1.6,0,1.9-0.4c5.2-6,13.2-6.7,19.6-10.6c1-0.6,1.3-2.6,1.9-4
		c2.2-0.5,4.4-1,6.6-1.5c0.1,0.4,0.3,0.8,0.4,1.2c1.3-1.2,2.6-2.3,5-4.5c0,7.5,0,13.7,0,19.9c-4.6-1.1-8.3-0.5-10.3,4.6
		c-0.8,2-3.4,2.6-5.4,3.4c-9.8,4.2-12.2,12.4-11.7,22c0.1,3.1,0.9,6.2,0.9,9.4c0,1.5,0.3,3.1,1.6,4c3.3,2.5,3.3,5.8,2.9,9.4
		c-0.8,7.1,0,14.3,0.9,21.3c0.7,5.9,1.1,11.9,2.4,17.7c0.6,2.5-0.1,4.9-1.3,7.1c-0.2,4.3,0.8,8.6-3.2,12.4c-1.7,1.6-0.4,6.1-0.9,9.1
		c-0.4,2.1-1.2,4.5-2.6,6c-4.1,4.6-7.8,8.9-7.5,15.8C198.8,270.1,195.6,273.2,188.5,274.4z"/>
	<path fill="#F09101" d="M139.5,255.4c-1.5-2.9-2-5.8-0.6-9c3.5-8.1,2.4-17.2-2.3-23.2c-5.3-6.8-4.9-13.5-5.1-20.7
		c-0.1-3.4-0.8-5.1-4.7-5.3c-5.5-0.3-6.5-3.1-3.9-8.1c0.8-1.5,1.3-3.4,1.2-5.1c-0.3-4.4-1.1-8.8-1.7-13.2c-0.1-0.8,0.2-2-0.3-2.4
		c-4.7-4.1-2.2-9.5-2.9-14.3c-0.6-4.3-2.1-8.4-3.2-12.6c-0.3-1-0.4-2.3-0.1-3.3c1.1-3.6,2.2-7.3,3.7-10.7c0.4-1,2.6-2.2,3.4-1.9
		c4.6,1.6,7.4,0,10.6-3.4c2.2-2.3,6.6-2.7,10-3.7c5.1-1.4,10.7-1.7,13.6-7.5c0.5-1,2.8-1.4,4.3-1.5c9.1-0.8,18.3-1.4,27.4-2.2
		c0.8-0.1,1.6-1.3,2.3-1.9c6,0,12,0,18,0c-1.1,1.3-1.9,3.1-3.3,3.9c-3,1.7-6.3,3-9.5,4.4c-1.3,0.6-2.7,1.8-4,1.6
		c-7.2-1-12.9,2.7-18.6,6c-5.2,3-10.5,4.8-16.5,4.1c-3.6-0.4-6.4,0.9-8.6,3.8c-1,1.3-2.3,2.6-3.7,3.2c-4.9,1.8-5.3,5.5-4.5,9.8
		c1.1,6,2.3,11.9,3.9,17.8c0.6,2.1,2.3,3.9,3.5,5.9c0.5-0.2,1-0.4,1.4-0.5c0,11.3-0.1,22.6,0.1,33.9c0,2.5,1.2,5.1,1.4,7.6
		c0.2,2-0.1,4.1-0.5,6.2c-0.5,2.5-1.3,5-2,7.5c-0.2,3.2,0.6,6.1,1.4,9.2c1.7,6.5,2.1,13.1-4.1,18c-1.7,1.3-2,3.3-2.7,5.1
		C142.4,254.1,142.3,256.5,139.5,255.4z"/>
	<path fill="#D68301" d="M212.5,219.4c-0.7-7.1-1.6-14.3-2-21.4c-0.5-8.7-0.8-17.4-1.1-26.1c-0.1-2.7,1-5.8-3.1-6.8
		c-0.8-0.2-1.7-1.7-1.7-2.7c-0.3-8.7-2.3-17.5,1-26.1c0.7-1.7,2-3.5,3.5-4.6c3.2-2.3,7.1-3.8,10.1-6.3c2.4-1.9,3.9-4.9,6.3-8.1
		c2.1,0.9,4.5,1.9,7,3c-2.6,11.2-3.1,22.5-4.3,33.9c-1,9.3-1.7,18.6-1.6,28c0,1.9,1,3.7,1.2,5.6c0.3,2.1,0.9,4.5,0.2,6.2
		c-2,4.8-4.7,9.3-6.9,14.1c-0.6,1.3-0.6,2.9-1.8,3.6C217,214.2,214.8,216.8,212.5,219.4z"/>
	<path fill="#D9A050" d="M230.4,165.2c0.8,3.2,1.5,6.5,2.4,10.2c2.3-2.5,4-4.3,5.6-6.1c-1.5,7-2.8,14.1-7.5,21
		C229.5,181.3,228.4,173.3,230.4,165.2z"/>
	<path fill="#716857" d="M268.4,128.2c-0.1,0.1-0.1,0.3-0.2,0.4c-0.1-0.2-0.3-0.4-0.4-0.6c0.1-0.1,0.3-0.2,0.4-0.2
		C268.2,127.9,268.3,128.1,268.4,128.2z"/>
	<path fill="#EB9300" d="M139.5,255.4c0.7-0.8,1.7-1.5,2-2.3c0.8-3.4,2.6-5.7,5.3-8.3c3.8-3.7,3.2-9.6,2.1-15
		c-0.6-3.1-0.3-6.3-0.4-9.5c2.5,5.3,4.2,11.3,7.9,15.6c2.6,3.2,4.9,5.7,4.1,9.8c-0.6,2.7-1.9,5.3-2.7,8c-1.1,3.4-2.6,6.9-2.8,10.4
		c-0.5,9.7-0.4,19.4-0.6,29.1c-0.1,6-0.4,12.1-0.6,18.1c-0.5,0.2-1.1,0.3-1.6,0.5c0.7,0.4,1.4,0.8,2.1,1.3c3.1,2,3.2,4.1,0.1,5.7
		c-1.7,0.9-3.7,1.3-5.7,1.5c-4.1,0.5-6.9,3.2-7.2,7.3c-0.2,3.1-0.2,6.4-1.2,9.3c-0.6,1.8-2.6,3.2-4.3,4.4c-1.4,1-3.8,0.8-4.7,2
		c-2.6,3-5.3,3.6-8.8,2.1c5.3-4,4.9-10.1,6.2-15.8c2.3-10.3-0.9-20.5,0.8-30.7c0.2-1.3,0.2-2.6,0.3-4.3c6.4,0.7,6.8-3,6.8-7.9
		c0-4.7,1.4-9.4,1.8-14.1C139,266.9,139.2,261.1,139.5,255.4z"/>
</g>
</svg>
