<?xml version="1.0" encoding="utf-8"?>
<!-- Generator: Adobe Illustrator 24.1.2, SVG Export Plug-In . SVG Version: 6.00 Build 0)  -->
<svg version="1.2" baseProfile="tiny" id="Layer_1" xmlns="http://www.w3.org/2000/svg" xmlns:xlink="http://www.w3.org/1999/xlink"
	 x="0px" y="0px" viewBox="0 0 224 192" overflow="visible" xml:space="preserve">
<g>
	<path fill="#1B1E26" d="M14,192l-7.7-1c0,0-4.4,0.6-6.2-1c0-2.7,0-5.3,0-8c1-2.6,3.4-4.1,4.6-6.4c1.8-3.6,2.4-7.5,2.4-11.6
		C7,124,7,84,7,44c0-15.5,8.5-24,24.2-24c9,0,18-0.1,27,0c3.4,0,5.6-0.7,6.5-4.5C66.8,6.5,74,2.8,82,0c0.7,0,1.3,0,2,0
		c5.4,1.1,10.9,0.5,16.3,0.4C111.5,0.3,122.8,1.1,134,0c0.3,0,0.7,0,1,0c4.9,1.6,9.7,3.3,13.5,7.2c2.7,2.8,5.4,5.4,5.5,9.7
		c0.1,3.2,2.4,3.1,4.6,3.1c11,0,22,0.2,33-0.1c6.9-0.2,12.7,2.2,18.1,6.2c4.8,3.5,7.2,8.1,7.5,14.4c0.5,8.6-2.2,16.8-2.2,25.3
		c0.1,32.2,0.2,64.3-0.1,96.5c0,5.6,1.5,10.1,5.2,13.9c2,2,3,4.3,4,6.8c0,2,0,4,0,6c-2.2,2.2-7.9,2-7.9,2l-23.1,1h-7h-20h-9h-30h-8
		h-15H88H63h-7H36c0,0-6,0-9,0"/>
	<path fill="#5D647C" d="M134,0c-0.7,0.3-1.3,0.9-2,0.9C116.7,1,101.3,1,86,0.9c-0.7,0-1.4-0.6-2-0.9C100.7,0,117.3,0,134,0z"/>
	<path fill="#81D8F0" d="M186,192"/>
	<path fill="#81D8F0" d="M166.2,191.6"/>
	<path fill="#81D8F0" d="M56,192"/>
	<path fill="#81D8F0" d="M36,192"/>
	<path fill="#051628" d="M67,176c-0.6-2.1,1-3.4,2-5c3.5-2,7.1-0.2,10.7-0.1c2,0.1,3.9,0.5,5.9,0.4c1.6,2.6,3.1-0.5,4.6-0.1
		c0.5,0.2,1.1,0.4,1.6,0.6c12.4,0.9,24.7,0.9,37.1,0c0.6-0.2,1.1-0.3,1.7-0.3c3.9-0.7,7.8-0.5,11.7-1.1c1.7-0.3,3.3,0.1,4.5,1.4
		c2,0.4,3.3,1,4.4,3.2c1.2,2.4,3,5,6,6.1c1.9,0.7,2,2.4,1.1,4.8c-3.3,0.3-6.9,0.6-10.4,0.9c-17.1,1.4-34.2,1.1-51.3,0.9
		c-12.3-0.1-24.5-0.8-36.8-1.2c-1.4-4.2-1.4-4.2,2.1-5.8c2.4,0.4,4-0.9,5.7-2.3C69.3,177.3,67.4,176.9,67,176z"/>
	<path fill="#2B819F" d="M86.1,172.4c-0.4,0.2-0.8,0.7-1.2,0.7c-5.3-0.6-10.6-1.3-15.9-2c0.4-5.7,0.7-11.4,1.1-17
		c3.4-3.1,6.1-7.1,11.4-7.5c1.6-0.1,2.3-1.8,2.9-3.2c0.7-1.5,1.1-3.2,2.8-3.9c2.9,0.4,5.8,1.4,8.5-0.8c0.4-0.3,1-0.5,1.4-0.4
		c6,1.9,12.2-0.7,18.3,1.1c3.5,1.1,7,1.8,10.8,0.8c2-0.6,4.3,0.3,6.2,1.5c2.7,5,6.7,8.3,12.2,9.9c1,0.3,1.8,0.8,2.4,1.7
		c-0.2,3.2-0.5,6.4-0.5,9.6c0,3.1,0.3,6.1,0.5,9.2c-5.6,0.4-11.2,0.8-16.8,1.1c-0.4-0.4-0.6-0.8-0.7-1.3c0.1-1.8,0.4-3.5,2.1-4.6
		c2.7-0.9,5.6-1.3,7-4.2c0.4-0.3,0.9-0.3,1.3-0.5c-0.7,0.1-1.4,0.3-2.1-0.2c-0.8-1.3-0.2-2.3,1.2-3.4c-2.1,0-3.6,0.1-4.6,1.3
		c-0.6,0.7-1.2,1.5-1.9,2c-0.5,0.2-0.9,0.3-1.4,0.2c-0.4-0.3-0.8-0.6-1-1.1c-0.8-1.7-0.7-3.4-0.5-5.2c-1-5.4-2-6.2-7.1-5.6
		c-4,0.4-7.9,0.5-11.8-0.9c-3.7-1.4-7.3-0.8-10.3,1.7c-3.6,3-7.9,4.6-12.2,6c-0.4-0.2-0.8-0.6-1-1c-0.7-1.5,0.1-2.9,0.3-3.8
		c0.4-1.1-0.9-0.4-0.2-0.5c-0.3,4.8-4.1,5.4-7.6,6.4c-0.9,0.3-1.8,0.3-2.9,0.5c0.9,0.8,1.7,0.9,2.5,1c4.1,0.6,6.4,2.3,4.8,6.9
		c-0.1,0.4,0.4,0.8,0.8,1.2c0.9,1,1.2,2.2,1.6,3.4C86.7,171.8,86.6,172.2,86.1,172.4z"/>
	<path fill="#7A3536" d="M85.9,37.9c1.4-0.3,2.7-0.6,4.1-0.9c3.6-3.5,8.3-1.7,12.3-1.7c8.4,0,16.7-0.4,25.1-0.1
		c1.2,0.3,2.4,0.4,3.5,0.9c0.8,0.4,1.5,1.1,2,1.9c0.6,1.1,0.8,2.3,0.7,3.6c-0.1,2.5,0.8,4.9,0.3,7.4c-0.4,1.9-0.5,4-2.9,4.6
		c-2.4-0.1-1.7-3-3.9-4c-2.4,5-6.7,4.8-11.3,3.8c-1.9-0.4-4,0.2-5.9,0.5c-4.8,0.9-9.5,1.1-14.1-0.8c-2.4-1-4.9-0.5-7.7,0.2
		C85.4,48.3,86.1,43,85.9,37.9z"/>
	<path fill="#553035" d="M85.9,37.9c1.9,1.9,2.2,4.3,2.1,6.9c-0.1,2.5,0,5,0.5,7.6c0.4-1,0.7-2.1,1.1-3.1c3.8,1.3,7.3,3.1,11.1,3.6
		c3.3,0.5,7,0.1,10.2-1c4.1-1.3,7.7,0.1,12,1.1c0.6-1.5,1.1-3,1.5-3.9c1.9-1.4,3.4-2.5,5.2-3.8c0.9,2.5,0.3,5.1,0.5,7.7
		c-0.6,5.1-4.5,5.7-8.5,6.2c-2.6-0.9-4.1,0-5.4,2.4c-1.5,2.6-3.2,5.3-6.4,6.2c-6.5-3.7-13.3-3.6-20.4-2.4c-0.5-0.1-1-0.2-1.5-0.4
		c-2.3-1-3.9-2.6-4.8-4.9c-0.4-4.9-1.7-9.1-6.1-12.3c-3-2.2-2.1-6.3-1.8-9.8C78.6,38,82.3,37.9,85.9,37.9z"/>
	<path fill="#553035" d="M150,66c0-3.6,0-7.3,0.1-10.9c1.6-1.6,3.4-1.8,5.5-0.9c2.3,1.5,2,4,2.2,6.3c0.2,2.5,1.3,4,3.9,4.4
		c5.1,0.7,10,3.1,15.2-0.5c2.7-1.9,6.5-1.4,9.5,0.3c1.9,1,3.2,0.9,4.9-0.5c5-4.2,5.6-4,8,2.2c0.4,2.1,0.6,4.2-0.4,6.2
		c-0.3,0.4-0.6,0.8-1.1,1c-5.9-0.1-9.5,1.2-11.6,8.6c-1.7,2.2-2.2,6-6.3,5.3c-4.8-3.6-9.7-7-16.3-5.4c-3.7,0.9-6.3-1.1-8.3-3.9
		c-0.6-1.1-0.7-2.3-0.7-3.5C154.6,70.8,152.5,68.3,150,66z"/>
	<path fill="#051628" d="M144.9,11.9c3.2,1.6,4.5,4.1,4.1,7.7c-0.2,2.1,0,4.3,0,6.5c0,4.1,0.5,8.3-2,11.9c-1.4,1.3-3,1.8-4.8,1.5
		c-2.8-0.1-5.7,0.3-8-1.9c-0.4-2.2-1.7-3-3.9-3.4c-7-1.2-14-1.5-21.1-1.8c-5.2,0.2-10.4-0.4-15.6,0.6c-2.7,0.6-5-0.9-7.4-2
		c-5.6,0.1-11.2,0.2-16.8,0.3c0-0.2-0.1-0.5-0.1-0.7c0.8-0.2,1.6-0.7,2.4-0.7c4.1-0.1,8.3,0,12.4-0.1c1,0,2-0.6,3-1
		c2-1.6,4.6-1.4,6.8-2.3c2.9-0.6,5.7-0.6,8.6-0.1c1.4,0.5,2.9,0.8,4.4,1.1c1.7,0.9,3.3,0.4,5-0.1c3.9-0.3,7.9,0.6,11.7-0.9
		c3.9-0.6,3.9-3.9,4.6-6.7c0.9-3.1,0.3-6.7,3.4-8.9C136,10.6,140.6,9.4,144.9,11.9z"/>
	<path fill="#376673" d="M150.1,158c0-2-0.1-4-0.1-5.9c4.3-2.9,5.2-7.1,5.2-12c0-3.7-1.1-7.5,0.4-11.2c2.7-2.1,5.6-3.5,9.2-2.5
		c6.9,8,17.7,10.8,27.3,3.6c2.1-1.5,3.7-2.8,5.9-0.4c1.6,4.5,1.3,9,0.4,13.5c-3.9,5.2-9.7,4.9-15.3,4.7c-4.9-0.2-9.7-1.8-15.3-2.2
		c-0.5,5.3-3.3,8.3-8.9,8.3c-1.5,0-2.4,1.7-3.5,2.6C153.8,157.6,152.4,159.5,150.1,158z"/>
	<path fill="#2B819F" d="M150.1,158c3.7-0.7,4.9-4.1,7.2-6.8c0.9,0.2,2,0.6,3.1,0.7c3.7,0.4,5.4-1.4,4.9-5.2c-0.3-3,1.4-4.7,3.9-3.5
		c4.2,1.9,8.7,1.5,13,2.7c5.1,1.5,9.8-1.2,14.7-2c0.4,0.3,0.9,0.6,1,1.1c0.5,7.8,5,12.4,12,15c-0.2,0.9-0.3,1.8-0.5,2.7
		c-0.1,0.6-0.7,1.4-0.5,1.7c1.8,3,1,6.3,1.1,9.5c-4.1,3.1-8.5,3.3-13.1,1.3c-1.3-1.1-2-2.5-2.3-4.1c0-1.2-0.3-2.3-0.9-3.4
		c-0.1-0.5-0.2-0.9-0.1-1.4c0.1-0.5,0.4-0.9,0.7-1.2c1.1-0.9,2.4-1.4,3.8-1.6c0.8-0.2,1.5-0.5,2.3-0.8c-0.6-0.5-1.4-0.3-2.1-0.7
		c-0.9-0.3-1.7-0.8-2.4-1.5c-0.3-0.4-0.6-0.8-0.8-1.2c-1-3.8-3.1-5.7-7.3-4.2c-1.2,0.4-2.7,0.4-3.9,0c-8.3-3.2-15.2-0.3-21.6,4.8
		c-0.7,0.3-1.4,0.4-2.2,0.5c-1.7,0.4-3.4,0.7-5,1.6c-1.6,1-3.3,1.4-4.9-0.1C150.1,160.7,150.1,159.3,150.1,158z"/>
	<path fill="#1F3544" d="M146.9,87c0,10.7,0,21.4,0,32c-3.5,2.9-7.2,1.8-10.8,0.3c-4.2-1.4-5.8-4.3-5.6-8.7
		c0.3-9.2-0.4-18.5,0.4-27.7c1.5-3,4-3.5,6.6-1.9C140.6,82.9,144.1,84.4,146.9,87z"/>
	<path fill="#051628" d="M61,177.1c-1.4,0.8-2.8,1.6-5,2.9c-0.1,2-0.3,4.8-0.5,7.9c-4.2-0.5-8.2,2.1-12.5,0.2c-0.8-0.4-2,0-3-0.1
		c-12.1-0.3-24.1-0.7-36.4-1c-0.6-1.7-1.7-3.4,1.3-4c4.7-0.9,7.6-4.8,11.5-7.1c7.3-0.3,14.6,0.3,21.9-0.3c2.1-0.2,4.3-0.4,6.3-1
		c2.1-0.4,4.2-0.4,6.3-0.1c1.6,0.4,3.3,0.7,4.9,0.3c1-0.1,2-0.1,2.9,0.2C59.9,175.4,60.7,176,61,177.1z"/>
	<path fill="#051628" d="M210,174.9c1.5,0,2.8,0.2,3.9,1.6c1.6,2,3.6,3.8,5.5,5.5c2.2,1.9,2.1,3.6-0.6,4.9c-1.1,0.5-2.5,1-3.8,0.8
		c-2.9-0.4-5.8-1.1-8.7-1.6c-0.5-0.1-1.2-0.2-1.4,0c-3,3.2-6.9,1.3-10.3,1.8c-3.8,0.5-7.5,1-11.3,1c-6.6-0.1-13.2-0.6-19.8-1
		c-0.5,0-1-0.7-1.5-1c1.1-1.4,3.3-1.3,4.3-2.8c0.6-0.7,1.4-1.2,1.9-2c0.5-4.8,1.7-6.3,6.5-5.8c9.1,1,18.1-0.5,27.1-0.2
		C204.5,176.1,207.1,174.6,210,174.9z"/>
	<path fill="#134862" d="M87,140c-0.3,1.3-0.7,2.5-1,3.8c-1.1,4.3-3,5.5-8.2,4.3c-0.9,1.1-2.4,2.3-3.2,3.9c-1.1,2.1-2.8,2-4.6,2
		c0-12,0-24,0-36c1.6-1.6,3.5-1.9,5.4-1.1c3.3,1.3,6.9,1.9,10.1,3.6C89.6,126.7,88.1,133.4,87,140z"/>
	<path fill="#7A3536" d="M58,55c2.4,0,4.8,0,7.5,0c0.2,1.1,0.4,2,0.5,2.9c0.1,0.1,0.3,0.4,0.2,0.4c-4,4.6-4,11.1-7.7,15.9
		c-0.5,0.2-1,0.3-1.5,0.2c-1-0.4-1.6-1.2-2-2.2c-0.8-4.5-4.7-5.8-8.3-2.5c-2.1,2-4.1,2.4-6.7,1.6c-4-1.2-7.7-0.8-10.9,2.2
		c-0.9,0-1.7-0.3-2.2-1.1C26,66.6,24.3,60.7,28,55.1c0.3,0,0.6,0,1-0.1c1.8-1.4,3.9-1.5,6.1-1.5c6.1,0,12.2,0.2,18.3,0
		C55.2,53.5,56.7,53.7,58,55z"/>
	<path fill="#134862" d="M136.9,118c3.2,1.8,6.6,0.6,10,1c0,11.4-0.1,22.7-0.1,34.1c-1.1-0.1-2.3-0.3-3.4-0.1
		c-2.2,0.3-4-0.6-5.1-2.3c-1.4-2.1-3.1-3.2-6.1-2.7c-0.1-2.2-0.2-4.1-0.3-6c-3.4-6.2-2.2-12.8-0.9-19.2
		C131.6,120,134.6,119.2,136.9,118z"/>
	<path fill="#376673" d="M66.5,132.8c0,5.1,0,10.2,0.1,15.2c-4.3-0.3-8.6,2-13,0.3c-1.6-0.7-3.8-0.8-2.9-3.6
		c1.3-1.5,3.4-1.3,5.1-1.9c-2.7,0.4-5.9-0.1-7.1,3.5c-6.2,1.4-12.5,1.9-18.4,4.8c-1.5,0.8-3.8-0.6-5-2.5c-0.4-5.3-1.2-10.7,1.2-15.8
		c1-0.9,2.1-1,3.3-0.7c1.8,1.5,3.7,2.2,6.3,2c3.9-0.3,7.9-0.3,11.8,0.9c3.5,1.1,6.8-0.5,9.9-2.1C60.6,131.5,63.6,130.2,66.5,132.8z"
		/>
	<path fill="#3D2024" d="M141.9,38c1.7,0,3.3,0,5,0c0,4.8,0.1,9.5,0,14.3c-0.1,3.2-0.6,6.5-1,9.7c-4.1,2.8-8.5,2.5-13,1.4
		c-1.2-0.8-2.3-0.5-3.2,0.5c-3.1,1.8-5.5,5.4-9.9,3.9c-1.3-0.6-2.2-1.5-2.8-2.8c-0.8-3.5,0.1-6.1,4-6.9c3.8-0.3,6.7-2.1,8.9-5.1
		c1.5,0.1,2-0.7,2-2.1c0-3.3,0-6.5,0-9.8C135.6,40.8,139,40.4,141.9,38z"/>
	<path fill="#2B2C35" d="M107,29c-1.3-0.3-2.7-0.7-4-1c-0.8-1.2-0.5-2.6-0.3-3.9c-2.2-1.7-5-1.5-7.2,0.5c-0.4,1.4-1.3,2.4-2.3,3.3
		c-1.5,2.9-4,0.9-6.1,1.2c-2.9-5.7-1.8-11.9-2.1-17.9c0.6-0.9,1.4-1.5,2.4-1.5c6.1,0.1,12.1-0.7,18.2,0.5c2,1.3,2.1,3.3,2.2,5.4
		c2.5,3.7,6.7,2.8,10.2,3.8c3.1,0.9,7,0.7,6.4,5.7c-0.8,1-2,0.9-3.1,0.9c1,0,2,0,2.8,0.8c0.3,0.4,0.2,0.9-0.1,1.3
		c-2.5,0.3-5.1,0.8-7.6,1c-1.8,0.1-3.6,0-5.4,0C109.7,29,108.3,29,107,29z"/>
	<path fill="#2B2C35" d="M84,60c1.3,1.3,2.7,2.7,4,4c2,2.2,1.6,4.7,1,7.2c-2.4,1.8-4.4,3.6-4,7.2c0.2,2.1-1.3,3.8-3.2,4.6
		c-4.6,1.9-6.6,5.6-8,10c-0.5,1.6-0.7,4.3-3.8,3c0-13,0-26,0-39c3.2-2.7,6.2-0.7,9.2,0.4C81,58,82.4,59,84,60z"/>
	<path fill="#134862" d="M209.9,160c-2.6-0.3-5.6,0.6-7.5-1.5c-2.7-2.8-5.9-5.5-5.4-10.1c0.2-1.5,0-3,0-4.4c0-5,0-10,0.1-15
		c0.2-0.4,0.5-0.8,0.8-1.1c1.6-0.6,2.2-2.4,3.8-3c2.8-0.8,5.5-2,8.2,0.1C209.9,136.7,209.9,148.4,209.9,160z"/>
	<path fill="#134862" d="M27.1,132.9c0,2.6,0,5.3-0.1,7.9c-0.2,2.7-0.6,5.5-0.9,8.2c1.2,2.9-0.8,3.8-2.9,4.4
		c-2.2,0.7-4.1,1.7-6.2,2.6c-1.7,0.5-3.4,0.5-4.8-0.9c-0.1-9.5-0.1-19-0.1-28.5c0-0.5,0.6-1.1,0.9-1.6c5.1-1.3,9.1,1.9,13.5,3.4
		C27.8,129.8,28.3,131.2,27.1,132.9z"/>
	<path fill="#1F3544" d="M70,96c1.5,0,1.8-0.8,2-2.2c0.5-2.5,1.1-5.2,2.4-7.4c1.3-2.1,2.9-4.2,6.1-4.6c2.8-0.4,3.2-2,3-5
		c-0.2-2.2,0.4-4.4,0.7-6.8c1.5,0.8,2.6,1.4,3.7,1.9c2.6,2.2,1.2,5.2,1.5,7.8c0,0.5-0.1,1-0.3,1.5c-1.2,2.1-3.6,3.5-3.5,6.3
		c-1.1,2.2-3.4,3.1-5.2,4.4c-2.9,1.5-2.3,4.5-2.8,6.9c2,4.6,2.1,10,6,13.7c1.2,2,2.2,4,2.4,6.3c-0.1,0.8-0.3,1.5-1,2
		c-3.3,0.2-6.4-0.3-9.3-2.4c-1.3-1-3.8-0.4-5.7-0.6C70,110.7,70,103.3,70,96z"/>
	<path fill="#44C7EF" d="M66.4,164c-0.1,0.3-0.2,0.6-0.3,1c-3.6,3.7-8.1,1.7-12.3,1.8c-2.6,0-5.2-0.3-7.8-0.1c0,0,0,0.3,0,0.5
		c0.6-0.2-0.6,0.2,0-0.3c5.5-0.6,10.9,0.3,16.4,0.3c1.8,0,2.4,1.4,2,3.2c-0.1,0.3-0.3,0.5-0.5,0.7c-1.9,2.3-4.5,3-7.1,2.6
		c-5.8-0.8-11.5,0.1-17.2,0.3c-2.3,0.1-4.6,0.1-6.8-0.9c-2.3-1.3-2.2-3.9-3.2-6.2c-3.4,0.2-6.3-2.1-9.7-2.7c-2-0.3-3.3-1.7-1.5-3.9
		c3.4-1.7,7-2.1,10.7-1.9c4.1-0.5,8.2-2.2,12.4-0.3c2.1,4.9,7,2.5,10.3,4c-2.2-0.8-3-2-0.9-4c5.3-1.5,10.4-0.6,15.3,1.6
		C66.9,161,66.4,162.5,66.4,164z"/>
	<path fill="#2B819F" d="M29,160c-3.6,0.4-7.3,0.7-10.9,1.1c-0.6,0.3-1.2,0.2-1.6-0.3c-1.4-2.1-1.2-4,0.5-5.8
		c1.1-2.4,2.9-3.3,5.5-3.1c2.1,0.2,3.4-0.8,3.6-3c0.7,0,1.3,0,2,0.1c5.8,1.5,5.9,1.5,7.7-4c2.8,0.1,5.7-0.9,8.4,1.3
		c1.6,1.4,3.1,0.3,3.9-1.5c1-0.7,2-0.9,3,0c0.1,0.5,0.2,1.3,0.3,1.3c3.9,0.1,8.3,4.1,11.3-1.3c1.5,1.2,2.7,2.1,4,3
		c-0.1,2-0.2,4-0.3,6c-2,2.6-4.2,0.9-6.3,0.3C48.8,151.3,38.3,152.1,29,160z"/>
	<path fill="#2B2C35" d="M132,62c4.7,0.7,9.3-0.3,14,0c1.1,3.3,1.7,6.4-1.7,8.7c3.2,5.2,2.7,10.8,2.7,16.3c-5.1,0.4-8-3.4-11.6-5.8
		c-1.1,0.3-2.2,0.6-3.3,0.8c-1.2-0.8-1.3-2.1-1.4-3.4c-0.1-3.9-0.1-7.8,0-11.7C130.5,65.2,130.5,63.4,132,62z"/>
	<path fill="#2B2C35" d="M163,46.9c-4.3-0.1-4.4-0.1-5.1-4.3c-0.5-3.2-0.7-6.4-1-9.6c0.1-0.8,0.6-1.4,1.2-1.9c1.9-0.9,4.1-0.5,6-1.4
		c1.3-0.3,2.6-0.2,4,0c1.9,1,4.3,0.3,6.1,1.7c0.9,0.9,1.3,2.2,1.5,3.4c0.4,1.6,1.4,1.7,2.7,1.1c2.3-1,4.3-0.6,5.6,1.6
		c1.3,2.1,1.1,4.1-0.7,5.9c-0.4,0.3-0.5,0.8-0.6,1.3c-0.2,1-0.6,1.9-1.4,2.6c-3.2,1.4-7.2,0.3-10.1,2.9c-2.8,0-5.8,1.3-8.2-1.4
		C163,48.3,163,47.6,163,46.9c0.9-1,2.1-1.4,3.5-1.5C165.1,45.4,163.9,45.8,163,46.9z"/>
	<path fill="#1F3544" d="M26,129c-4.7,0-8.7-2.5-13-4c0-9.7,0-19.3,0-29c2.5-2.4,5.7-3.6,8.7-5.3c2.5-1.4,5-1.1,7,1.3
		c1,1.8,0.8,3.7,0.5,5.7c-1,2.8-3.8,3.3-6,4.4c-3.2,1-2.9,4-3.6,6.4c0.7,4.3,3,7.9,4.4,12c0.9,1.7,2.2,3.2,2.9,5
		C27.2,126.8,27.2,128.1,26,129z"/>
	<path fill="#2B2C35" d="M209.9,80c-1,4.5,0.1,9,0,13.6c0,4.5,0,9,0,13.4c-0.7,0.6-1.6,0.9-2.2,0.4c-3.7-2.6-8.3-3.6-11.6-6.8
		c-0.9-2.3-0.5-4.6-0.6-6.9c0.4-4.5-0.8-9.2,0.8-13.6C201.6,76.6,205.3,76.6,209.9,80z"/>
	<path fill="#2B2C35" d="M48,36.9c1.3,1.2,2.6,2.4,3.9,3.6c-0.3,1.2-0.6,2.3-0.8,3.4c1.5,2.1,4.7-0.2,6.1,2.4
		c-0.6,0.6-1.2,1.5-1.9,1.6C52.8,48.1,50.4,48,48,48c-1.9-0.3-3.9,0.5-5.8-0.2c-0.4-0.2-0.8-0.4-1.1-0.7c-2.4-2.4-5-2.1-7.5-0.2
		C33.4,46.9,33.2,47,33,47c-1.1-0.1-2.2-0.1-3.9-0.2c-0.7-4.7-1.3-9.3-2-13.9c1.1-1.9,2.9-2.6,5-2.4c3.7,0.3,7.5-0.4,11.2,0.5
		C45.8,32.1,45.8,35.4,48,36.9z"/>
	<path fill="#1F3544" d="M197.1,101c3.8,0.4,7.2,1.5,9.9,4.5c0.7,0.8,1.9,1,2.9,1.5c0,6,0,12,0,18c-3,0.3-6,0.7-9,1
		c-0.4,0.3-0.9,0.5-1.5,0.5c-1.4-0.2-2.7-0.7-3.4-2c-0.4-0.8-0.5-1.7-0.5-2.6c0-5.2-0.1-10.3,0-15.5
		C195.5,104.5,195.1,102.4,197.1,101z"/>
	<path fill="#051628" d="M207.8,32.9c3,0.4,4.7,2.3,4.1,5.1c-0.8,3.6,0.1,7.1,0.2,10.7c0,2.5-0.6,4.5-2.1,6.4
		c-1.9,1.8-4.1,2-6.5,1.5c-1.3-0.1-2.7,0.1-3.9-0.7c-0.7-3.8-3.7-4.2-6.8-4.4c-3.4-0.3-7,1.3-10.3-0.7c-1.8-3.2,2.1-3.1,2.8-4.9
		c1.3-1.1,2.9-1.4,4.6-1.1c1.1,0.2,2.2,0.8,3.3,1c3.7,0.7,5.4-0.7,6.1-4.5c0.5-3.2,0.2-6.6,3.1-9.1
		C204.2,31.2,206.1,31.3,207.8,32.9z"/>
	<path fill="#3D2024" d="M202.9,55.1c2.4,0,4.7-0.1,7.1-0.1c0,8.3,0,16.6,0,24.9c-4.3-1.3-8.5-0.3-12.8,0c-1.3-0.6-1.3-1.8-1.3-3
		c0-0.5,0.1-0.9,0.3-1.3c0.3-1.1,1.1-1.9,1.9-2.7c0-2.3,0-4.7,0-7c-0.6-0.6-0.5-1.3-0.3-2C200,61.4,200.7,57.8,202.9,55.1z"/>
	<path fill="#1694C9" d="M29,160c0.1-1.1,0.1-2.3,0.1-3.2c3.7-1.8,7.1-3.4,10.6-5c0.7-0.3,1.5-0.8,2.3-0.8c7.5,0,15.1-0.7,22,3.3
		c0.5,0.3,1.5-0.2,2.3-0.3c0.1,1.6,0.2,3.2,0.3,4.8c-0.1,0.5,0,1.1-0.7,1.2c-5.3-0.3-10.7-0.6-16-0.9c-2.6,2.1-5.2,2.2-7.8,0
		C37.7,159.4,33.4,159.7,29,160z"/>
	<path fill="#3D2024" d="M13,72c-1.8-3.5-1-7.2-0.5-10.8c0.2-1.4,0.6-2.9,0.9-4.8c2-0.4,4.3-0.9,6.6-1.3c-0.1,5,1.9,9,5.2,12.9
		c2.7,3.2,0.8,7.3,0,11.1c-1.4,3.2-3.9,3.8-7,3.1c-3-0.7-4.2-2.9-4.7-5.7C13.3,74.9,14,73.3,13,72z"/>
	<path fill="#3D2024" d="M109.9,31.1c7.1-0.5,14.1,0.1,21,1.7c2.2,0.5,4.5,0.3,7.9,0.5c-2.2,1.7-3.5,2.7-4.8,3.8
		c-0.4,0.9-0.9,1.6-2,1.1c-0.3-0.3-0.7-0.6-1-0.9c-0.9-1.1-1.9-0.9-3-0.2c-2.8,0-5.7-0.1-8.5,0.1c-1.7,0.1-3.5,0.7-5.2,1.1
		c-0.3,0.1-0.7,0.5-0.8,0.4c-7.6-3.4-15.7-0.7-23.5-1.6c-0.7-1.3-1.3-2.7-2-4c5.3-1.4,10.7-0.5,16.1-1
		C106,31.8,108.1,32.5,109.9,31.1z"/>
	<path fill="#2B2C35" d="M13,72c0.4,1.2,0.8,2.3,1,3.5c0.8,3.6,3.5,5.7,6.9,5.5c2-0.1,3-1,3-3c1.5-1.2,3-1.3,4.5,0
		c2,4.8,2.8,9.5-0.6,14c-2.8-1.4-5.2-0.7-7.4,1.3C18.3,95.1,16,96.4,13,96C12.3,88,13.4,80,13,72z"/>
	<path fill="#5D647C" d="M106.1,11.4c-7-0.1-14.1-0.2-21.1-0.3l0-0.1c-1.4-1.3-3-0.9-4.6-0.8c-1.6,0.1-3.4,0.1-3.5-2.3
		c2.8-2.6,6.5-3.2,10.1-3.9c0.6-0.1,1.4,0.5,2.1,0.7c0.5,0.5-0.1,1.6,0.6,1.7c7.1,1,14.3,2.5,21.4-0.4c2.9-0.7,5.6,1,8.5,0.4
		c2.8-0.5,5.9,0.1,8.4-1.9c4.1-1.7,7.5,0,11,1.9c1,0.5,1.9,1,2.9,1.6c-0.4,2.8-2.7,2.2-4.5,2.4c-2.7,0.3-5.6-0.9-8,1.3
		c-5.9,1.2-11.8,2.7-18,1.7C109.3,13.5,107.6,12.7,106.1,11.4z"/>
	<path fill="#3D2024" d="M84,60c-1.1,0.5-2.1,1.3-3.5,0.1c-3-2.4-6.6-3.3-10.5-3.1c0-6.1,0-12.2,0-18.8c1.9-0.1,3.4-0.2,5-0.2
		c1.2,1.3,2.8,2.5,1.7,4.6c-1.2,2.3,0.1,4.4,1.8,5c5.5,2,5.8,6.2,5.5,10.9C84,59,84,59.5,84,60z"/>
	<path fill="#2B819F" d="M66.5,132.8c-3.6-0.1-7,0.4-10.2,2.7c-1.5,1.1-4,1.3-6.1,1.3c-5.7-0.1-11.4-0.6-17.1-0.9
		c-2-0.1-3.1-0.9-3.1-3c1.3-1.7,3.3-2.8,4.7-4.4c3-0.7,7.2-0.1,5.9-5.5c0.2-0.5,0.5-0.9,0.9-1.2c3.1-1.6,5.7-1.9,6.6,2.4
		c0,1.2-0.8,2.1-1.1,3.2c-1,3.5,0.8,5.5,4.3,4.6c1.1-0.3,2.2-0.6,3.3-0.8c3.6-0.7,6.3-2.3,6.3-6.5c2-1.6,4-1.7,5.8,0.3
		C66.7,127.7,66.6,130.3,66.5,132.8z"/>
	<path fill="#81D8F0" d="M167.9,30.9c-1.3,0-2.6-0.1-3.9-0.1c-2,0.3-4,0.1-6,0.2c-0.8,0.1-1.6,0-2.3-0.4c-1.1-0.9-3.2-1.4-1.6-3.5
		c12.9-2.3,25.8-2.5,38.8-1.1c0.6,0.6,1.5,0.4,2.2,1.4c-0.9,2.8-4,2.6-6,3.8c-0.7,0.2-1.5,0.3-2.3,0.3c-2.9,0.2-6-0.6-8.7,1.3
		c-1,0.3-2,0.3-2.9-0.1C173.3,30,170.4,31.3,167.9,30.9z"/>
	<path fill="#1F3544" d="M210,174.9c-2.1,0.6-4.2,1.7-6.4,1.9c-9.3,0.6-18.7,1.9-28.1,1c-2-0.2-4.1,0.2-6.3,0.3
		c0.6,1.6,1.3,2.8,1.4,4.1c0,0.4-1.4,1-2.1,1.6c-1.3-0.6-2.1-0.4-1.6,1.3c-0.5,0.6-1,1.6-1.6,1.8c-1,0.3-2.2,0.1-3.3,0.1
		c0.5-4.1-0.6-7.4-4.6-9.4c-0.8-0.4-1-2.2-1.4-3.4c0.6-0.8,1.5-1,2.4-0.9c11.4,1.7,22.8,0.6,34.2,0.7c1.5,0,3-0.4,4.4,0.2
		c2.7,1.8,5.7,1,8.6,0.7c1.5-0.2,2.9-0.5,4.4-0.7C210,174.3,210,174.6,210,174.9z"/>
	<path fill="#3D2024" d="M182,49.9c4,0,7.9,0.1,11.9,0.1c0.8,4-3,4.6-4.8,6.8c-9.4,0.3-18.8,0.1-28.2,0.1c-1.9,0-3.6-0.5-5-1.8
		c-2,0-4,0-6-0.1c0-1.5,0-2.9,0-5.1c2.8,0,5.3,0,7.9,0c6.5,1.2,13,0.8,19.6-0.2C179.1,49.3,180.6,48.7,182,49.9z"/>
	<path fill="#5D647C" d="M44.1,32.3c-5.7-0.3-11.4-0.9-17,0.6c-1.3-0.1-2.6-0.1-3.8-0.2c-1.2-0.8-2.7-1.2-3.3-2.7
		c0.5-0.8,0.8-1.8,1.5-2.2c3-1.8,6.1-2.9,9.5-1c3.1,2.4,6.8,1.7,10.3,1.6c0.7-0.2,1.4-0.5,2.1-0.7c1.3-0.2,2.6-0.5,3.9-0.3
		c1.6,0.1,3.2,0.1,4.8,0.1c1.6,0,3.2,0,4.9,0c3-0.5,5.9,0.3,8.9,0.3c-0.3,1-0.4,2.8-0.9,2.9c-2.6,0.6-4.9,1.3-7,3.1
		c-0.8,0.6-2.6,0.1-3.9,0.1c-1.7-1.4-3.7-0.9-5.6-0.7C46.8,33.8,45.4,33.4,44.1,32.3z"/>
	<path fill="#81D8F0" d="M32,172c5.3-0.3,10.5-0.6,15.8-0.9c0.7,0,1.4-0.2,2,0c4.7,1.3,9.4,1,14.1,0c-0.3,1.6-0.5,3.2-0.8,4.9
		c-1.3,1-2.7,0.6-4.1,0.3c-1,0-1.9,0-2.9,0.1c-1.4,0.4-2.7,0.3-4.1,0.1c-2.3,0-4.6,0-6.9,0c-6.5,0.3-13,0.7-19.5-0.6
		c-3.2-2.5-0.2-4.6,0.3-6.9c0.3-0.4,0.6-0.8,1-1.1c0.5-0.1,1-0.1,1.4,0.1C29.9,168.9,30.5,170.8,32,172z"/>
	<path fill="#376673" d="M150,109c0-1,0.1-2,0.1-3c2.9-2.3,6.7-0.6,9.8-2.1c2.7,2.4,4.9,6.3,9.5,3.5c4.8,2.4,6.3,6.5,5.9,11.6
		c-0.6,2.1-2.2,3.4-4,4.4c-0.5,0.1-1,0.1-1.4,0c-2.7-2.6-4.3-6.5-8.9-6.6C157.7,113.6,153.6,111.6,150,109z"/>
	<path fill="#134862" d="M156.1,129c0.3,5.4,0.9,10.8,0.8,16.1c-0.1,5.1-2,6.6-6.9,7c0-7.7,0-15.3,0-23c1.4-1.6,3.2-1.1,5-0.8
		C155.4,128.4,155.8,128.6,156.1,129z"/>
	<path fill="#553035" d="M27.9,78.1c-1.3,0-2.6-0.1-4-0.1c0.1-0.8,0-1.7,0.2-2.5c1.5-5.5,1.1-6.7-3.2-10.1c-1.5-1.2-2.8-2.7-3.8-3.8
		c1.1-2.5,2-4.6,2.8-6.6c2.7,0,5.3,0,8,0c0,6,0,11.9,0,17.9C29.4,74.7,29.7,76.4,27.9,78.1z"/>
	<path fill="#134862" d="M66.7,125.2c-2,0.1-4.1-1.2-5.8,1c-0.5,0.6-1.1,0.7-1.8,0.7c-0.9,0-1.8-0.1-2.7-0.2c-0.5,0-0.9,0-1.4,0
		c-1.2,0.1-2.5-0.2-3.7-0.2c-1.6-0.1-3.2,0.1-4.4-1.4c-0.5-3-0.9-3.4-3.3-2.9c-0.9,0.2-1.8,0.5-2.7,0.7c-1.5-2.8,0.6-3.9,2.5-5
		c4.2-1.1,8.4-1.9,12.6,0.1c1.6,0.8,3.2,0.4,4.8,0c3.3-0.6,4.9,1.4,6,4C66.9,123,66.8,124.1,66.7,125.2z"/>
	<path fill="#34424E" d="M66.9,122c-2-1-3.1-3.7-5.9-3c-3.3-3-3.3-7.1-0.8-9.9c4-4.5,4.1-9.5,3.9-14.8c-0.1-1.5,0.2-3,0.3-4.5
		c-0.5-3.2-0.5-6.4,0-9.6c-0.4-2.7-0.5-5.3,0.1-8c0.2-1.7-0.2-3.9,2.5-4.1C66.9,86,66.9,104,66.9,122z"/>
	<path fill="#34424E" d="M150,109c5.1,0.1,8.7,2.5,11,7c1.3,4.9,0.1,6.1-6.6,7.1c-1.9,0.2-3.3-0.7-4.4-2.1
		C150,116.9,150,113,150,109z"/>
	<path fill="#2B2C35" d="M155.9,74c0,1.3,0,2.7,0,4c2.9,4.6,2.4,9.5,1.1,14.5c-1.8,2.2-3.8,4.2-7,2.5c0-2.6-0.3-5.3,0.1-7.9
		c0.3-2.2,1.7-4.3,1.7-6.4c0-1.9-2.5-3.3-1.8-5.7C151.8,73.3,153.6,72.4,155.9,74z"/>
	<path fill="#1694C9" d="M157.8,174c-0.6,0-1.2,0.1-1.9,0.1c-1-1.3-2.1-2.6-3.1-3.9c-1.4-1.9-0.7-4.7-2.8-6.3c0-0.7,0-1.3,0-2
		c2.2,0.1,4.3-0.1,4.5-2.9c2.1,0,3.9,0,5.7,0c2.7,3.6,1.7,7.6,1.2,11.5C160.5,172.1,160.4,174.4,157.8,174z"/>
	<path fill="#3D2024" d="M58,55c-9.7,0.6-19.3-0.3-29,0c0.3-0.7,0.7-1.4,1-2.1c0.6-3,3.2-2.4,5.1-2.4c5.2,0.1,10.5-0.5,15.7,0.4
		c1.4,0.2,3,0.4,4.2-0.9c3.5,0.4,7,0.8,10.5,1.2c0,0.2,0,0.5,0,0.7c-1.4,0-2.9,0-4.3,0C59.1,52,58,53,58,55z"/>
	<path fill="#2B819F" d="M12.3,173.9c0.2-3.3,0.4-6.6,0.6-10c5.3-2.4,9.3-0.5,11.7,5.8c0.1,4.7-4.2,3.9-6.6,5.5
		C15.9,175.5,13.8,175.9,12.3,173.9z"/>
	<path fill="#553035" d="M54.9,50.1c0.4,0.5,0.8,0.9,1.7,1.9c-1.5,0-2.6,0-3.8,0c-6.8-0.3-13.6,0.5-20.4,0.1
		c-0.8-0.1-1.7,0.6-2.6,0.9c-2.3-0.5-4.5-1-6.8-1.5c0-0.3,0-0.5,0.1-0.8c3.2-0.5,6.5-1.1,9.7-1.6c2.4-2.1,5.2-1.4,8-1.3
		c2.3,0.9,5-0.8,7,1.3C50.3,49.4,52.6,49.7,54.9,50.1z"/>
	<path fill="#553035" d="M67,68c-0.3,1.3-0.6,2.6-1,4c-2.3,2.2-4.5,4.6-8,2c1.6-2.6,2.3-5.4,2-8.5c-0.2-2.4,0.2-4.2,3.2-4.7
		c1.3-0.2,3-0.9,2.9-2.9C68,61.2,66.6,64.7,67,68z"/>
	<path fill="#1694C9" d="M24.2,170c-3.4,0-1.5-2.9-3-5c-2.4-0.3-5.3-0.6-8.3-1c0-1,0-2,0-3c1.3-1.3,2.6-1.1,4-0.1
		c0.4,0.1,0.8,0.1,1.2,0.2c-0.1,1.2,0.5,1.6,1.6,1.9c2.6,0.5,5.2,1.2,8.4,2c1.8-1.4,2.4-1.5,3.1,0.7c0.6,2,0.5,4.1,0.7,6.2
		c-3.5-0.3-3.5-0.3-4.1-3.9c-0.3-0.4-0.6-0.4-0.9-0.1l0,0C26,168.6,25.9,170.5,24.2,170z"/>
	<path fill="#134862" d="M12.3,173.9c1.9,0,3.8,0,5.8,0c2.3,0.2,4.8-1.2,6.9,0.9c6.7,0.5,13.4,1,20,1.5c-1.6,0.2-3.1,0.5-4.7,0.7
		c-1.9,0.2-3.9,0.5-5.8,0.6c-1.1,0.1-2.2,0-3.3-0.1c-0.8-0.1-1.7-0.7-2.3-0.5c-4.4,1.7-8.6-0.6-13-0.1c-1.9,1.9-3.8,2.7-5.7-0.1
		C10,175.2,10.9,174.4,12.3,173.9z"/>
	<path fill="#FBFBFB" d="M119.9,7.6c-2.9,0-5.7-0.1-8.6-0.1c-4.4,1.1-8.8,0.2-13.2,0.3c-1.7,0.1-2.9-0.7-2.5-2.7
		c3.6-2.6,7.9-0.3,11.6-1.9c0.5,0,1,0,1.5,0c3.6,1.8,7.7-0.2,11.3,1.4C120.8,5.7,120.9,6.7,119.9,7.6z"/>
	<path fill="#FBFBFB" d="M57,28.8c-1.7,0-3.3,0-5,0c-1.7-0.3-3.4-0.8-5,0.3c-1.3,0-2.6,0.1-3.9,0.1c-0.4,0.1-0.8,0.3-1.2,0.6
		c-3,0.3-6.1,0.9-8.9-0.8c-0.8-0.5-1.4-1.5-2-2.3c1,0.1,2,0.1,3.1,0.2c3.4-2.1,7.4-0.1,11-1.5c1,0,1.9,0,2.9,0
		c2.1,0.9,4.3,0.4,6.4,0.6C55.9,26.2,58,26,57,28.8z"/>
	<path fill="#81D8F0" d="M96,5.2c-0.1,2.1,1.4,1.8,2.7,1.9c4.2,0.2,8.4,0.3,12.6,0.5C110.3,8.1,109.2,9,108,9
		c-4.3,0.1-8.6,0.2-12.9-0.1c-2.9-0.2-5.7-1-9.1-1.7c1.5-1.2,2.3-1.8,3.1-2.4c0.9-0.1,1.8-0.2,2.6-0.3C93.2,4.1,94.8,3.7,96,5.2z"/>
	<path fill="#553035" d="M178,51c-0.5,0.3-1,0.9-1.5,1c-5.5,0.1-10.9,0.6-16.4,0.1c-1.4-0.1-2.1-0.6-2.1-2c1.7-0.3,3.3-0.7,5-1
		c3,0,6,0,9,0C174.4,48.3,177.5,45.8,178,51z"/>
	<path fill="#553035" d="M109.9,31.1c-0.4,0.6-0.7,1.5-1.3,1.7c-0.9,0.3-2,0-3,0.2c-2.3,0.4-4.7-0.6-7.1,1.1c-1.2,0.8-4-0.8-6.1-1.1
		c-1.5-0.2-3,0-4.5,0c-1.3,0-2.1-0.4-1.9-1.9C94,31.8,102,30.5,109.9,31.1z"/>
	<path fill="#34424E" d="M129,10.9c0-1.5,0.9-1.9,2.3-1.9c2.7,0,5.3,0.1,8-0.1c0.9,0,1.7-0.5,2.6-0.8c1.9,0.6,3.1,1.7,3.1,3.8
		c-4.6,0-9.3,0-13.9,0C129.8,12.7,128.9,12.7,129,10.9z"/>
	<path fill="#5D647C" d="M188.9,29.9c1.8-0.8,3.7-1.6,5.9-2.5c-0.6-0.5-1.2-1-1.8-1.4c4.5-1,8.3,0.7,11.9,3.1
		c-0.2,2.7-2.2,2.3-3.9,2.4c-1.9,0.1-3.9,0-5.7,0.8c-1.1,0.4-2.3,0.3-3.4,0.2C190.4,32.2,188.8,32,188.9,29.9z"/>
	<path fill="#3D2024" d="M155.9,74c-2,0.3-4,0.7-5.9,1c0-3,0-6,0-9C154.9,66.8,155.9,68.3,155.9,74z"/>
	<path fill="#1F3544" d="M150,95c2-0.7,4-1.3,6-2c1.6,0.8,2.1,2.3,2.5,3.9c0.1,1.5-0.9,2.5-1.9,3.4c-0.4,0.3-0.7,0.5-1.1,0.7
		c-1.6,0.3-2.3,1.9-3.5,2.6c-0.7,0.2-1.3,0.1-1.9-0.4C150,100.4,150,97.7,150,95z"/>
	<path fill="#81D8F0" d="M57,28.8c-0.6-0.6-1.1-1.6-1.8-1.7c-1.7-0.2-3.6,0.1-5.3-0.1c-0.7-0.1-1.3-1-1.9-1.5
		c6.1-0.5,12.2-0.5,17.9,2.4C62.9,28.1,59.9,28.4,57,28.8z"/>
	<path fill="#1694C9" d="M64.4,170.4c-0.3-2.1-1.7-2.4-3.6-2.4c-5.4-0.3-10.8-0.7-16.2-2c4.4,0,8.8,0.1,13.1,0
		c2.8-0.1,5.5-0.6,8.3-0.9c0.1,1,0.2,1.9,0.3,2.9c0,0.4,0,0.8-0.1,1.2C65.6,169.5,65,169.9,64.4,170.4z"/>
	<path fill="#2B819F" d="M150,103.1c0.6,0,1.2-0.1,1.9-0.1c0.4-0.3,0.7-0.6,1.1-0.8c1.9-0.5,3.9-1,5.2-2.7c0.8-0.2,1.5-0.1,2.1,0.4
		c0.9,1.2,0.9,2.5,0.2,3.7c-0.2,0.2-0.4,0.3-0.6,0.5c-1.6,1.7-3.1,3.5-6,2.1c-1-0.5-2.5-0.2-3.8-0.2C150.1,105,150.1,104,150,103.1z
		"/>
	<path fill="#1F3544" d="M150.1,120.9c1.3,0.4,2.6,0.7,3.8,1.1c2.5,1.9,3.1,4.1,1.2,6.8c-0.6,0.3-1.3,0.8-1.9,0.7
		c-1.1,0-2.1-0.4-3.2-0.6C150,126.3,150.1,123.6,150.1,120.9z"/>
	<path fill="#1F3544" d="M67,176c1.9,0,3.8,0,5.7,0c0.1,0.4,0.2,0.8,0.3,1.2c-3.3,2-6.7,3.9-10.4,6.1c-0.3-1.2-0.4-1.8-0.6-2.4
		C63.6,179.2,66.5,178.9,67,176z"/>
	<path fill="#34424E" d="M76.9,8c1.5,2,3.6,0.8,5.5,1c1.4,0.2,2.7,0.1,2.6,2c-3.5,0.3-7.1,0.7-10.7,1c-0.7,0.1-1.4-0.3-3.4-0.7
		C73.6,9.8,75.3,8.9,76.9,8z"/>
	<path fill="#34424E" d="M195,31.1c1.1-2,2.9-0.8,4.4-1.1c1.8-0.4,3.6-0.6,5.5-0.9c1.8,0.7,3.2,1.6,3,3.8c-2,0-3.9,0-5.9,0
		C199.2,33.9,196.5,34.8,195,31.1z"/>
	<path fill="#376673" d="M17,160.9c-1.3,0-2.7,0-4,0.1c-1.7-1.8-0.6-3.9-0.7-5.9c1.6,0,3.1,0,4.7,0C17,157,17,159,17,160.9z"/>
	<path fill="#5D647C" d="M96,5.2c-1.4-0.2-2.9-0.5-4.3-0.7c0.6-0.5,1.2-1.3,1.8-1.3c4.6-0.1,9.2,0,13.8,0.1
		C103.8,5.7,99.8,4.7,96,5.2z"/>
	<path fill="#5D647C" d="M120,4.9c-2.9,0-5.8-0.1-8.7-0.1c-1.3,0-2.2-0.2-2.6-1.6c4.5-0.3,8.9-1,13.3,0.7
		C122.1,5.7,121.2,5.7,120,4.9z"/>
	<path fill="#1F3544" d="M10.2,176.9c1.9,0.8,3.8,0.7,5.7,0.1c-2.3,4.3-6.2,5.9-10.9,6c0.8-0.5,1.4-1.3,2.3-1.6
		C9.5,180.6,10.2,179,10.2,176.9z"/>
	<path fill="#81D8F0" d="M120,4.9c0.7-0.3,1.3-0.7,2-1c2,0.2,4,0.5,5.9,0.7c-0.3,0.8-0.6,2.2-1.1,2.2c-2.3,0.5-4.6,0.6-7,0.8
		C120,6.7,120,5.8,120,4.9z"/>
	<path fill="#051628" d="M44.1,32.3c1.6-0.1,3.2-0.1,4.8-0.2c0.7,0.6,0.7,1.2,0.1,1.9c-0.3,1-0.7,2-1,3c-1.1,0-2.3,0-3.9,0
		C44.1,35.2,44.1,33.7,44.1,32.3z"/>
	<path fill="#81D8F0" d="M45,25.5c-1.1,0.5-2.2,1.4-3.3,1.5c-2.5,0.2-5.1,0-7.7,0c0.6-0.5,1.1-1.4,1.7-1.4
		C38.8,25.4,41.9,25.5,45,25.5z"/>
	<path fill="#34424E" d="M19.9,30c2.1-0.3,3.4,0.4,3.3,2.7c-2.1,0.1-4.1,0.2-6.2,0.2c-0.5-0.6-1.5-0.2-2-0.9
		C16.6,31.3,18.3,30.7,19.9,30z"/>
	<path fill="#2B819F" d="M150,164c1.3,0.7,2.6,1.5,3.9,2.2c-0.5,1.7-0.8,2.9-1.1,4.1c-1.9,0-3.2-0.6-2.9-2.9
		C150.1,166.3,150,165.1,150,164z"/>
	<path fill="#5D647C" d="M57,46.3c-1.3-0.1-2.7-0.2-4-0.2c-1.5,0-2.1-0.7-2.1-2.1c2.9,0,5.9,0,8.8,0C59.9,46.7,58,45.8,57,46.3z"/>
	<path fill="#2B2C35" d="M41,49c-2.7,0-5.3,0-8,0c0-0.6,0-1.3,0-1.9l0.2-0.2c2.9-2,5.8-2,8.8,0L42,47C42.6,48.1,41.6,48.4,41,49z"/>
	<path fill="#3D2024" d="M41,49c0.3-0.7,0.7-1.3,1-2c0.9-0.1,1.9,0,2.7-0.4c1.8-0.9,2.6,0,3.3,1.4c0,0.4,0,0.7,0,1.1
		C45.6,49,43.3,49,41,49z"/>
	<path fill="#5D647C" d="M154.2,27.1c0.6,0.8,1.3,1.7,1.9,2.5c0.5,1.2-0.1,1.5-1.2,1.4c-1.5,0-3.1,0-3-2.3
		C152,27.3,152.7,26.8,154.2,27.1z"/>
	<path fill="#34424E" d="M49,34c0-0.6-0.1-1.2-0.1-1.9c1.2,0,2.4-0.3,3.4-0.1c0.7,0.2,1.2,1.2,1.8,1.8C52.4,33.9,50.7,34,49,34z"/>
	<path fill="#34424E" d="M154.9,31.1c0.4-0.5,0.8-1,1.2-1.4c0.6,0.1,1.3,0.2,1.9,0.2c0.6,0.7,0.6,1.4,0,2c-0.3,0.4-0.7,0.7-1,1.1
		C155.7,33,154.9,32.5,154.9,31.1z"/>
	<path fill="#376673" d="M65.9,160.1c0.2-0.4,0.5-0.8,0.7-1.2c-0.1,1.7-0.2,3.4-0.2,5.1C66.2,162.7,66,161.4,65.9,160.1z"/>
	<path fill="#134862" d="M58.9,176.1c1.4-0.1,2.7-0.2,4.1-0.3c-0.7,0.4-1.3,0.8-2,1.2C60.3,176.8,59.6,176.5,58.9,176.1z"/>
	<path fill="#2B2C35" d="M15,32c0.7,0.3,1.4,0.6,2,0.9c-0.7,0-1.5,0-2.2-0.1C14.9,32.6,14.9,32.3,15,32z"/>
	<path fill="#376673" d="M66.3,169.1c0-0.4,0.1-0.8,0.1-1.2C66.3,168.3,66.3,168.7,66.3,169.1z"/>
	<path fill="#1694C9" d="M84.8,169c-1.7,0.1-3.1-0.2-2.7-2.4c0.2-1.3,0.9-2.6,1.4-4.1c-3.6-0.9-7.5-1.8-11.8-2.9
		c1.6-2.3,3.2-2.7,5.1-2.7c1.3,0,2.7-0.1,3.9-0.4c4.6-1.2,6-2.9,7.1-7.8c0.1,1.1,0.2,2.2,0.3,3.3c0,1.3,0,2.6,0,4
		c-1.1,1.2-2.2,2.4-3.9,2.4c1.8,0.9,2.7-0.8,4-1.5c1.3-1.6,2.4-3.3,5.1-3.1c1.2,0.1,2.5-1.3,3.6-2.2c3.3-2.7,6.7-5.4,11.4-4.7
		c0.8,0.1,1.8,0,2.4,0.4c3.7,3,8,1.2,11.9,1.5c1.1,0.1,2.3-1.1,3.7-1.8c2.5,2.5,6.1,4.4,4.7,9.1c-4.1,1.8-8.2,0.7-12.2,0.1
		c-8.1-1.3-16.1-1.5-24.1,1.6c6.5,1.4,7.2,1.9,6.5,4.3c8.7-1.3,17.7-2,26.7-1.7c1.2,0,2.2,0.6,3.1,1.5c0.4,0,0.8,0.1,1.2,0.1
		c2.5-0.8,4.8-0.5,7,1c-0.4,5-0.4,5-5.2,5c-0.7,0-1.3-0.1-2-0.1c-2.1-1.6-4.5-2.1-7-2.1c-6.5,0-13,0.1-19.5,0c-1,0-2.2-0.4-2.9,0.4
		c-3.2,3.4-6.7,4.6-11.1,2.3c-0.2-0.1,0.1,1.4-0.2,2.1c-0.2,0.8-0.6,1.4-1.5,1.7c-1.2-0.3-2.3,2-3.5,0.2c0-0.2-0.1-0.5-0.1-0.7
		c-0.3-2,1-3.7,0.9-5.6C86.8,167.5,86.3,168.6,84.8,169z"/>
	<path fill="#81D8F0" d="M89.6,172.3c0.1-0.8,0.2-1.5,0.4-2.3c11.5-1.5,22.9-4.2,34.7-2.2c2.7,0.5,5.3,0.8,5.6,4.3
		c-0.1,0.3-0.1,0.6-0.2,1l-0.2-0.1c-5.5,1.2-11.1,0.5-16.7,0.5c-7.7-0.1-15.4,0.8-23.1-0.5C89.8,172.8,89.7,172.6,89.6,172.3z"/>
	<path fill="#44C7EF" d="M90.1,172.9c13.3,0,26.5,0,39.8,0c-0.1,0.1-0.3,0.3-0.4,0.3c-12.9,0.1-25.8,0.3-38.7,0.3
		C90.5,173.6,90.3,173.2,90.1,172.9z"/>
	<path fill="#81D8F0" d="M100.6,181.5c-1.5,1.3-2.3,2.4-3.3,2.9c-1.2,0.5-3.6-1.6-3.2-2.9c0.3-1,1.7-2.4,2.5-2.4
		C97.7,179.2,98.8,180.4,100.6,181.5z"/>
	<path fill="#81D8F0" d="M120.4,177.9c1.2,1.6,2.3,2.5,2.5,3.5c0.3,1.3-0.5,2.6-2.2,2.7c-1.7,0.1-3.6-1-3.2-2.2
		C118,180.7,119.1,179.7,120.4,177.9z"/>
	<path fill="#1B1E26" d="M140,180.8c-1.3,1.8-2,2.8-3.2,4.5c-0.7-1.5-1.4-2.8-2.1-4.2C135.9,181.1,137.5,181,140,180.8z"/>
	<path fill="#376673" d="M131.8,79c0.1,1,0.1,2,0.2,3c0,11,0,21.9,0,33c1.7,1,3.3,2,5,3c0,3.2-2.8,3.5-5.1,4.8c0,6.4,0,12.8,0,19.2
		c-1.4-0.4-3,2.1-4.3-0.4c-0.1-0.3-2-0.2-2.4,0.3c-1.5,1.8-3.2,1.2-5,0.7c-1.9-0.5-3.8-1-5.7-1.6c-2.6-0.9-4.9-0.9-7.7-0.2
		c-3.1,0.9-6.6,0.6-9.6-1.7c-1,0.8-2,1.6-3,2.3c-3.2,2.3-3.2,2.3-5.9-1c-0.2-0.3-0.9-0.2-1.4-0.4c-0.3-1-0.9-2-0.9-3
		c-0.1-3.8,0-7.5-0.1-11.3c-0.1-1.6-0.6-3.1-0.9-4.7c0-0.7,0-1.4,0.1-2.1c2.3-2.6,4.4-1.5,5.9,0.7c1.3,1.9,2.9,3,5.2,2.9
		c4.1,0.6,8.1,1.4,12,3.1c4.4,1.9,15.3-0.9,18.4-4.4c1.5-1.6,2.9-3.3,2-5.7c-0.4-1.8-0.4-3.7-0.1-5.5c-0.5-3.8,0-7.6,0-11.4
		c0-2.5,0.2-4.9-0.2-7.4c-0.2-1.1,0.1-2.2,0.1-3.3c-0.2-1.7-0.4-3.3-0.2-5c0.4-1.3,0.2-2.8,1.3-4C130.3,78.4,131,78.3,131.8,79z"/>
	<path fill="#44C7EF" d="M130.8,161.9c-10.1,0.4-20.2,0.8-30.3,1.1c-1.6,0.1-3.3,0-4.9-0.8c1.8-0.1,3.7-0.3,5.6-0.4
		c-4.2-2.1-5.5-2.2-11-0.9c-0.1-1.4-0.2-2.8-0.3-4c0.6-0.4,0.9-0.7,1.1-0.7c2.1-0.4,4.2-0.7,6.3-1.1c7.2-1.4,14.4-1.6,21.7-0.2
		c1.6,0.3,3.3,0,5,0.2c2.3,0.3,4.5,0.7,6.8,1.1C130.8,158.1,130.8,160,130.8,161.9z"/>
	<path fill="#44C7EF" d="M130.2,172.1c-1.5-2.1-3.2-3.7-6.2-2.3c-1,0.4-2.3,0.4-3.4,0.1c-7.2-1.6-14.3-1.2-21.4,0.8
		c-2.9,0.8-6.2,1-9.2-0.7c0-1.8,0-3.6,0-5.4c0.2,0,0.4,0,0.6-0.1c0.3,1,0.5,2,0.9,3.3c3.1,0,6.2,0.8,9.2-1.5
		c-0.3-0.7-0.7-1.4-1.1-2.3c9.1,0,18,0,27,0c1.5,0,3,0,4.9,0c0.1,1.4,0.3,2.6,0.4,3.9C131.3,169.3,130.8,170.7,130.2,172.1z"/>
	<path fill="#44C7EF" d="M132.9,160c0.1-0.8,0.1-1.6,0.2-2.4c3.3-1.7,6.2,0.5,9.2,0.6c-0.7,2.4-4.4,0.7-4.5,3.6
		c-1,1.2-2.3,0.5-3.5,0.6C133.2,162,133,161,132.9,160z"/>
	<path fill="#44C7EF" d="M88,156.9c0,1.6,0,3.2,0,5.2c-3-1.5-5.2-2.7-7.7-3.9c2.7-0.8,5.2-1.5,7.7-2.2C88,156.3,88,156.6,88,156.9z"
		/>
	<path fill="#44C7EF" d="M84.8,169c0.7-1.9,1.4-3.8,2.1-5.7c1.4,3.2,1.7,6-0.9,8.4c-1.2,0.4-2,0.4-1.3-1.3
		C84.8,170,84.7,169.5,84.8,169z"/>
	<path fill="#134862" d="M134.1,161.8c1.3,0,2.5,0,3.8,0c1.2-0.2,2.5-0.5,3.7-0.5c1,0,1.9,0.3,2.9,0.5c0,0.4,0,0.8-0.1,1.2
		c-1.8,0-3.6,0-5.4,0c-2.3-0.7-4.9,1.1-7-1l0,0C132.6,161.4,133.3,161.4,134.1,161.8z"/>
	<path fill="#1694C9" d="M134.1,161.8c-0.7,0.1-1.4,0.1-2.1,0.2c0.3-0.7,0.6-1.4,0.9-2C133.3,160.6,133.7,161.2,134.1,161.8z"/>
	<path fill="#553035" d="M131.9,38.1c0.7-0.4,1.4-0.7,2-1.1c2.7,0.3,5.3,0.7,8,1c-4.1,4.9-5,6.8-9.9,3C132,40.1,132,39.1,131.9,38.1
		z"/>
	<path fill="#051628" d="M128,37c1.1-1.5,2.1-1.7,3,0.2C129.9,37.1,129,37.1,128,37z"/>
	<path fill="#34424E" d="M88.9,64c2.8,0,5.5,0.1,8-1.5c3-1.8,5.6,0.2,8.2,1.6c1.7,0.9,3.2,1.9,4.9,2.8c0.9,0.8,1.9,1.7,2.8,2.6
		c0.3,0.3,0.6,0.7,0.8,1.1c2.6,2.5,5.1,4.9,5.8,8.7c1.7,4.7,1.1,9.1-1.3,13.4c-1.5,2.6-2,4.9,0.4,7.6c2.5,2.8,1.8,6.2-0.3,9.1
		c-0.9,0.7-1.9,1-3,1c-1.5,0.2-2.9,0.5-4.3,0.7c-3.4,0.5-5.8-0.5-6.6-4.1c-0.4-2-1.7-3.5-2.6-5.2c-1-1.8-0.3-3.6,0-5.3
		c1.6-7.9-3.1-12.3-10.9-10c-0.3,0.1-0.7,0-1,0c-3-1.5-1.2-3.9-1.2-6C88.8,75,87.9,69.5,88.9,64z"/>
	<path fill="#7A3536" d="M112,69.9c-2.4,0.2-1.9-1.5-2-2.9c1.7-2.7,4.5-4.5,5.5-7.8c0.8-2.4,2.6-2.5,5.5-1.1
		c-1.5,2.1-3.8,3.8-3.1,6.9C116.9,67.7,114.5,68.9,112,69.9z"/>
	<path fill="#5D647C" d="M88.9,64c0,5.6,0,11.3,0,16.9c-0.3,0.6-0.6,0.7-0.9,0c0-3-0.1-6-0.1-9c0-2.7,0.1-5.3,0.1-8
		C88.3,64,88.6,64,88.9,64z"/>
	<path fill="#34424E" d="M158,97c-2-0.7-2.1-2.3-2-4c0-5,0-10,0-15c1,0.7,2.1,1.4,3.1,2c1.6,1,3.4,1.7,5,0.2c3-2.6,5.8-0.8,8,0.7
		c2.4,1.7,4.4,2.9,7.6,0.4c0.1,2.5,0.1,4.1,0.2,5.7c1.7,1.7,4.3,2.6,5.4,5.1c4.1,7.6,1.7,13.6-5.9,14.6c-2-1-1.9-2.8-2-4.4
		c-0.9,6,4.6,8.8,7.3,13c0.4,1.4,0.3,2.6-0.6,3.8c-3.4,1.3-6.9,2.7-10.3-0.1c0-3,0.3-6-3-7.7c-0.3-0.2,0.1-1.5-0.3-2.1
		c-0.3-0.6-1.1-0.8-1.7-1.2c-0.5-0.5-0.7-1.1-0.6-1.8c0.6-1.6,1-3.2-1.2-4c-1.6-1.2-3.4-1.9-5.4-2.3C160.4,99,158.8,98.6,158,97z"/>
	<path fill="#7A3536" d="M156.1,55.1c9.4,0,18.8-0.1,28.2-0.1c1.9,0,3.8,0.6,5.8,0.9c2.7-2.2,5.4-2.3,8.3-0.3
		c2.1,2.8,1.8,5.6-0.3,8.3c0,0.7,0,1.3,0,2c-0.6-1.3-1.2-2.5-2-4.3c-2.6,2.6-5.1,5.1-7.8,7.8c-1.4-2-1.4-4.6-4-4.5
		c-3.4,0.1-7.2-1-9.7,2.3c-1.5,1.9-2.7,1.8-4.6,1.1c-3.3-1.1-6.7-2.4-10.4-1.8c-1.3,0.2-3.3-2.4-3.4-4.1
		C155.9,60.1,156,57.6,156.1,55.1z"/>
	<path fill="#2B2C35" d="M184,92c-0.7-0.5-1.4-1.3-2.2-1.6c-1.7-0.6-1.9-1.9-1.8-3.4c0.7-0.5,1.6-0.9,2.1-1.6c1.1-1.4,1.9-3,2.9-4.5
		c2.2-1.5,4.1-3.5,6.8-4.2c1.7-0.4,3.6-1.6,4.7,0.9c-0.1,4.5,0.3,8.9-0.3,13.4C192.3,93.6,188.3,94.8,184,92z"/>
	<path fill="#3D2024" d="M195.9,77c-2.1,0.9-4.1,1.9-6.3,2.6c-1.5,0.6-3.1,0.9-4.6,1.3c0.5-1.7,0.9-3.4,1.5-5.7
		c2.4-1.2,5.1-2.7,7.9-4c1.6-0.7,2.5-0.1,2.6,1.7c0.7,1,0.7,2,0,3l0,0C196.6,76.3,196.5,77,195.9,77z"/>
	<path fill="#34424E" d="M197,76c0-1,0-2,0-3c0.3,0,0.7,0,1,0C197.6,74,197.3,75,197,76z"/>
	<path fill="#1B1E26" d="M129,10.9c0.7,0.3,1.3,0.7,2,1c-0.7,4.2-1.3,8.4-2,12.6c-0.5,2.8-2.2,3.9-5,3.4c0-0.3,0-0.6,0-0.9
		c-0.7-0.7-0.7-1.5,0-2.2c-0.6-3.5-3.2-3.6-5.9-4c-3.5-0.5-7-1.2-10.4-2c-0.7-0.2-1.1-1.3-1.6-1.9c1.4-1.8,3.1-3.4,5-4.7
		c2.8-1.1,5.7,0.8,8.8-0.8C122.3,10.2,125.9,11,129,10.9z"/>
	<path fill="#5D647C" d="M103.8,24.2c-0.3,1.3-0.6,2.5-0.9,3.8c-3.3-0.1-6.6-0.1-9.9-0.2c0.3-1.2,0.7-2.5,1-3.7
		C97.3,22.1,100.6,21.9,103.8,24.2z"/>
	<path fill="#1B1E26" d="M107,29c1.3-1.5,2.7-1.5,4,0C109.7,30.6,108.3,30.6,107,29z"/>
	<path fill="#2B819F" d="M197,124.7c1,0.4,2,0.8,3,1.2c0.8,2-1.4,1.9-2.1,3c-0.3,0-0.6,0-0.9,0.1c-0.9,0.2-2.3,0.1-2.8,0.6
		c-3.9,4.8-9.5,5.5-15,6.2c-2.7,0.3-5.6-0.2-6.6-3c-2.2-0.3-4.3-0.2-6.1-1c-2-0.8-1.6-3.1-1.7-4.9c-0.3-0.9,0.2-1.3,0.9-1.6
		c1.5-0.3,2.6,1.2,4.2,0.9c1.3-0.9,0.9-2.7,1.9-3.7c1.1-0.9,2.3-1,3.5-0.6c0.5,0.2,0.9,0.5,1.2,0.9c0.4,0.7,0.6,1.4,0.6,2.1
		c0.2,2-1.1,4.4,1.6,5.6c2.1,0.9,8.9-1.1,10.3-3.2c0.6-0.9,0.8-2.1,1.7-2.9C192.9,123.2,195,123.2,197,124.7z"/>
	<path fill="#5D647C" d="M166,126c-0.4,0.3-0.7,0.7-1.1,1c-1.2,0.3-2.5,0.6-3.7,0.8c-1.7,0.4-3.4,0.7-5.1,1c-0.3,0-0.6-0.1-1-0.1
		c-0.4-2.3-0.8-4.5-1.2-6.8c1.8-0.5,3.5-1,6-1.8c0.3-1,0.7-2.6,1.1-4.3c2.1,0,4.2,0,6.3,0c0.9,2.5,1.8,4.7,2.6,6.9
		C169.3,124.8,167.2,124.8,166,126z"/>
	<path fill="#5D647C" d="M188.8,141.5c-2.6,3.8-3.7,4.1-6.9,1.6C183.9,140.9,186.1,140.4,188.8,141.5z"/>
	<path fill="#44C7EF" d="M160,171c0-4,0.1-7.9,0.1-11.9c0.6,0,1.2,0,1.8-0.1c2.9-0.7,5.8-2.4,8.9-0.7c1.8,4.1,5.5,2.5,8.5,3.1
		c0.4-1.2-0.3-2.5,1-3.2c5.4-1.3,10.8-2.1,15.7,1.7l0,0c2.3,3-0.5,4.3-2,6l0,0c-2.3,1.4-5.1-0.4-7.4,1.1c0.7-0.1-0.6,0.2,0-0.3
		c2.5-0.1,5-0.8,7.5,0.3c2.3,0.1,2,1.6,1.6,3.1c-2.7,2.8-6.3,2.7-9.8,2.8c-5.8,0.2-11.6,0-17.4,0.8C165.4,174.1,161.9,174.6,160,171
		z"/>
	<path fill="#1694C9" d="M196,160c-5.4-0.8-10.7-1.3-16.1-0.9c-2.9,2.3-5.8,2.3-8.7,0c-1.4,0.1-2.9,0.2-4.2,0.5
		c-1.7,0.3-3.4,1.1-4.9-0.5c4.8-5,10.1-8.9,17.7-6.3c1.4,0.5,2.8,0.9,4.3,1.1c1.5,0.2,3,0.3,4.4-0.1c1.6-0.4,2.8-2.9,4.7-1
		c1.8,1.8,3.7,3.8,3,6.8C195.9,159.7,196,159.8,196,160z"/>
	<path fill="#81D8F0" d="M160,171c2.9,1.8,6.3,1.4,9.2,0.8c4.9-1.1,9.8-0.5,14.7-0.8c3.9-0.2,7.8-0.6,11.7-0.8
		c0.5,1.3,0.9,2.6,1.4,3.9c-1.6,0.6-3.3,1.7-4.9,1.7c-9.5,0.2-18.9,0.2-28.4,0c-2,0-3.9-1.1-5.9-1.7C158.6,173,159.3,172,160,171z"
		/>
	<path fill="#44C7EF" d="M198,161c2.4-0.1,4.9-0.4,7.1,2.2c-2.4,0.6-4.7,1.1-6.9,1.6C196.9,163.6,196.8,162.4,198,161z"/>
	<path fill="#1694C9" d="M198,161c0.1,1.3,0.1,2.5,0.2,3.8c-1.4,0.4-2.8,0.7-4.2,1.1c0.7-2,1.3-4,2-6
		C196.6,160.3,197.3,160.7,198,161z"/>
	<path fill="#1694C9" d="M194,167c-2.8,0-5.5,0-8.3,0c2.7-1.2,5.5-1.1,8.3-1.1C194,166.3,194,166.7,194,167z"/>
	<path fill="#81D8F0" d="M35.9,185.7c-1.5-1.5-3.1-2.8-1.2-4.6c0.5-0.5,2.4-0.4,2.9,0.1C39.7,183.3,37.8,184.3,35.9,185.7z"/>
	<path fill="#134862" d="M51.9,176.3c1.4,0,2.7,0,4.1-0.1C54.7,177.5,53.3,177.4,51.9,176.3z"/>
	<path fill="#81D8F0" d="M188.9,184.9c-2.2,0.1-4.4,0.3-5.1-2.9c1.6-1.3,3.2-2.2,5.2-1.1C190,182.3,190.1,183.6,188.9,184.9z"/>
	<path fill="#81D8F0" d="M167,185c-0.7-0.3-1.8-0.3-2.2-0.8c-0.5-0.6-0.4-1.7-0.6-2.5c0.8-0.1,1.9-0.6,2.5-0.3
		c0.8,0.5,1.2,1.6,1.8,2.4C168,184.2,167.5,184.6,167,185z"/>
	<path fill="#1B1E26" d="M203.7,182c-0.5,1.6-0.9,2.7-1.4,4.1c-1.3-1.2-2.3-2.2-4-3.7C200.6,182.2,201.9,182.1,203.7,182z"/>
	<path fill="#34424E" d="M188.9,184.9c0.1-1.3,0.1-2.6,0.2-4c1.4,0,2,0.7,1.9,2.1C190.9,184.5,190.2,185.1,188.9,184.9z"/>
	<path fill="#34424E" d="M27.9,78.1c0-1.7,0-3.4,0-5.1c0.7,0,1.3,0,2,0c1.6,0.9,1.3,3,3.2,4.4c6.6-3.4,10.6,1.6,15,5.4
		c0.8,0.4,1.6,1,2.2,1.7c1.2,1.3,0.9,3.6,2.8,4.5c0.8,0.6,1.6,1.2,2.2,2.1c2.9,4.5,2.4,9-0.5,13.3c-1.3,1.9-2.8,3.2-5.3,2.5
		c-2-0.9-2.1-2.8-2.1-4.6c0-1.3-0.2-2.3-1.8-2.2c-2.6,0-4.7-1.6-6.9-2.6c-3.4-1.5-6.7-2.1-9.6,0.8c-0.5,0.1-0.9,0-1.2-0.4
		c0-2,0-3.9,0-5.9C27.9,87.3,27.9,82.7,27.9,78.1z"/>
	<path fill="#553035" d="M48,84c-1.6-1-3.4-1.8-4.9-2.9c-0.9-0.7-1.3-2.7-2.2-2.9c-1.9-0.3-4.1-0.3-5.8,0.3c-4.5,1.7-5,1.5-5.2-3.1
		c0-0.8,0-1.7,0-2.5c0.1-1.1,0.1-2.3,0.2-3.6c4.9-1,9.6-0.4,14,1.5c1.4-4.2,1.4-4.1,6.6-4.2c1.9,0,3.7-0.5,5.5-0.8
		c1.2,2.6,0.6,4.4-0.4,6.2C54.4,76.8,51.7,80.8,48,84z"/>
	<path fill="#3D2024" d="M58,74c1.6-0.4,3.2-0.9,4.9-1.3c1-0.3,2.1-0.5,3.2-0.7c0,2.7,0,5.3,0,8c-2.6,2.2-5,4.7-8.9,3.6
		c-1.7-1.1-2.5-2.8-3-4.6c-0.3-2.4,0.3-4.3,3-4.9C57.3,74,57.7,74,58,74z"/>
	<path fill="#5D647C" d="M57,74.1c-0.9,1.5-2.6,2.8-2,4.9c-1,2.6-2.8,4.5-5.1,6c-0.7-0.3-1.3-0.6-2-1c0.4-1,0.6-2.1,1.1-3
		c1.6-2.8,3.4-5.5,5.1-8.2c0.3-0.4,1.1-0.5,1.7-0.7C56.3,72.8,56.7,73.4,57,74.1z"/>
	<path fill="#5D647C" d="M44,119c-1.5,0.9-3,1.8-2.9,4c-0.1,0.2-0.2,0.3-0.3,0.5c-3.1,0.5-3.9,3.3-5.5,5.3c-0.8,4.1-0.8,4.1-5.2,4.3
		c-1,0-2-0.1-3-0.1c-0.4-1.3-0.7-2.6-1.1-3.9c-0.1-1.3-0.1-2.6-0.2-4c3-2.4,5.6-5.1,7.5-8.5c1.3-2.5,3.8-3.6,6.3-2
		c1.6,1.1,3.8-0.3,5,1.6C44.9,117.3,44.8,118.2,44,119z"/>
	<path fill="#5D647C" d="M51,145c-1,0-2,0-3,0c0-3.4,3-2.9,4.9-3.7c1.3-0.5,3,0.4,4.3-1c0.3-0.3,1.7,0.4,2.6,0.6
		c-0.4,0.7-0.7,1.5-1.2,2.2C56.5,145.3,53.7,145,51,145z"/>
	<path fill="#2B2C35" d="M118,79c-0.9-3.5-4-5.3-6-7.9c2.3-2,4.9-3.5,8-4.1c2.3,0.3,4.2-0.3,5.7-2.2c1.1-1.4,2.5-2.1,4.3-1.8
		c1.6,5.3,1.3,10.6,0.2,15.9c-0.1,1.4-0.2,2.7-0.2,4.1C126.4,80.6,121.6,81.6,118,79z"/>
	<path fill="#5D647C" d="M130.3,78.9c-0.1-5.3-0.2-10.6-0.2-15.9c0.1-1.2,0.2-2.4,0.4-3.7c0.3,0,0.6-0.1,0.8-0.1
		c0.2,0.9,0.5,1.9,0.7,2.8c-0.1,5.6-0.1,11.3-0.2,16.9C131.3,79,130.8,78.9,130.3,78.9z"/>
	<path fill="#553035" d="M120,67c-1.7,3.2-4.6,4.2-8,4.1c0-0.4,0-0.8,0-1.1c0.6-3.3,3.6-3.8,6-4.9C118.7,65.6,119.3,66.3,120,67z"/>
	<path fill="#34424E" d="M103.8,24.2c-3.2,0-6.5,0-9.7-0.1c-0.2-1.8,0.8-3.5,2.3-2.9c3.1,1.1,6-1.1,9.2,0.1
		C105,22.3,104.4,23.2,103.8,24.2z"/>
	<path fill="#051628" d="M111,12.3c0.3,3.6-2.4,4.1-5,4.7c0-1.9,0.1-3.7,0.1-5.6C107.7,11.7,109.3,12,111,12.3z"/>
	<path fill="#5D647C" d="M124,24.9c0,0.7,0,1.5,0,2.2c-3.3-0.5-6.7,0.7-10.8-1.2C117.3,24.2,120.8,25.3,124,24.9z"/>
	<path fill="#376673" d="M197.9,129c0.7-1,1.4-2,2.1-3c0.3,0,0.6,0,0.9,0C201.3,128.4,200.2,129.3,197.9,129z"/>
	<path fill="#376673" d="M88,81c0.3,0,0.6,0,0.9,0c0,1.1-0.2,2.3,0.2,3.4c0.2,0.7,1.2,1.1,1.9,1.6c0.3,0.3,0.6,0.7,0.7,1.2
		c0.2,1.6-0.1,3.2-0.1,4.8c0.4,2,1.6,2.4,3.3,1.8c1.4-0.6,1.2-1.7,0.8-2.9c-0.4-1.4-1-2.9,0.5-4.1c4.8,0.7,7.3,4.3,6,8.9
		c-0.6,1.9-1.6,3.7-0.1,5.6c4.3,1.3,3.9,5.1,4.2,8.9c3.1-0.3,5.9-0.6,8.8-0.9c1.3,1.4,1.6,2.9,0.9,4.6c-0.3,0.6-0.7,1.3-1.3,1.4
		c-5.1,0.6-10.3,2.1-15-1.3c-1.2-4.1-4.1-6.2-8.2-6.7c-1.3-0.6-1.9-2.1-3.4-2.5c-0.4-0.1-0.8-0.4-1.2-0.6c-2.9-3-7.6-2.5-10.7-5.1
		c0.3-2.2,0.5-4.5,1.1-6.6c0.2-0.7,1.7-1,2.6-1.4c5.8,1.4,6,1.2,6.7-4.7c-0.3-1.7,0.4-3,1.5-4.2C88,81.7,88,81.3,88,81z"/>
	<path fill="#5D647C" d="M88.1,104c0.3,0,0.6,0,0.9,0c1,1,1,2.3,1.2,3.6c0.4-0.5,0.3-1.2,0.9-1.6c1.3,0.3,2.5,0.7,3.8,0.8
		c1.1,0,2.1-0.5,3.6-0.9c0.6,2.5,1.1,4.8,1.6,7.1c-2.4,2.1-3.8,4.6-3.2,8c0.2,1.1,0,2.3-1,3.1c-1.8,0-3.6,0-5,0
		c-0.8-2-1.2-3.8-2.3-4.9c-0.6-0.6-2.3-0.1-3.6-0.1c-0.7-2-1.4-4-2.1-6c-1-1.3-1-2.7,0.3-3.5C85.4,108.1,86.1,105.5,88.1,104z"/>
	<path fill="#34424E" d="M88.1,104c0,1.8,0,3.5,0,5.5c-1.6,0.3-3,0.6-4.7,0.9c-0.1,0.8-0.2,1.7-0.4,2.6c-1.3-0.9-3.2-1.6-3.7-2.8
		c-1.4-3.6-2.2-7.5-3.2-11.3c3.5-0.4,6.9,0.3,9.8,2.2C86.8,101.7,87.3,103,88.1,104z"/>
	<path fill="#44C7EF" d="M88,86.8c0,1.8,0,3.6,0,5.3c-5.9,2.8-6.1,2.7-8.2-1.2c1.8-1.3,3.5-2.5,5.3-3.8C85.9,86.1,86.9,86.1,88,86.8
		z"/>
	<path fill="#134862" d="M88,86.8c-1,0.1-1.9,0.2-2.9,0.3c-1.2-3.2-1-3.6,2.9-5.1C87.9,83.6,88,85.2,88,86.8z"/>
	<path fill="#81D8F0" d="M42.1,159.1c2.6,0,5.2,0,7.8,0c0.1,1.5,1,1.9,2.4,1.9c1.8-0.1,3.6,0,5.4,0.5c-2.7,2.5-6,1.2-9,1.4
		c-3.1,0.2-6.2,0-9.2,0c-0.2-0.4-0.4-0.9-0.6-1.3C39.8,160.8,41,159.9,42.1,159.1z"/>
	<path fill="#1B1E26" d="M195,31.1c0.8,0.3,1.6,0.7,2.5,0.9c1.5,0.4,3,0.6,4.5,0.9c-0.3,3.8-0.6,7.5-1,11.3
		c-0.1,0.6-0.3,1.6-0.7,1.8c-1.9,0.8-4,1.5-6,2c-1.8,0.5-3.1-0.5-4.1-1.9c-1.4-1.3-3-1.2-4.6-0.8c-1.7,0.4-3.2,0.1-4.5-1.2
		c-0.4-2.2,1.7-2,2.9-2.7c-0.4-1.1-0.6-2.1-0.9-3c-0.7-1.9-1.8-2.5-3.7-1.3c-1.4,0.8-3,1.2-4.8,1.9c-0.2-1.2-0.3-2.1-0.4-3.1
		c1.1-1.3,2.6-1.9,4.2-2.4c1.2-0.2,2-1.2,3.1-1.5c1.7-0.6,3.3-0.3,4.9,0.4c2.4,1.1,4.3,0.3,6-1.4C193,31.1,194,31.1,195,31.1z"/>
	<path fill="#1B1E26" d="M178,51c-0.5-0.6-1-1.7-1.7-1.8c-1.4-0.3-2.9-0.1-4.3-0.2c1.5-2.1,3.1-3.4,5.9-2.1c0.9,0.4,2.2,0,3.3,0
		c1.6-1.3,3.2-1.4,4.8,0.2c0,1.4-0.6,2-2,2.1c-0.7,0-1.3,0.6-2,0.9C180.7,50.3,179.3,50.6,178,51z"/>
	<path fill="#5D647C" d="M163,46.9c0-0.8,0.1-1.6,0.1-2.7c1.6-0.1,3-0.2,4.5-0.2c1.3,0,2.6,0,3.6,0c1,1.8,0.7,2.8-0.8,2.9
		C168,47,165.5,46.9,163,46.9L163,46.9z"/>
	<path fill="#5D647C" d="M186,47c-1.6-0.1-3.2-0.1-4.8-0.2c-0.1-0.9-0.1-1.8-0.2-2.7c2.3-0.1,4.6-0.1,7-0.2c1.5-0.1,2,0.8,2.2,2.1
		C188.8,46.4,187.4,46.7,186,47z"/>
	<path fill="#051628" d="M179,35c-1.7,0.3-3.3,0.7-5,1c0-1.2,0-2.5,0.1-3.7c0.2-0.6,0.6-0.9,1.3-0.9c0.8,0,1.5-0.1,2.3-0.1
		c0.6-0.1,1.1,0.1,1.6,0.5C180,32.9,179.8,34,179,35z"/>
	<path fill="#5D647C" d="M175.3,31.4c-0.4,0.3-0.9,0.6-1.3,0.9c-1.9-1-4.5,1-6.1-1.3C170.5,29.7,173,28.9,175.3,31.4z"/>
	<path fill="#5D647C" d="M158,31.9c0-0.7,0-1.4,0-2c2,0.3,4,0.6,6,0.9C162.4,33.2,160,31.4,158,31.9z"/>
	<path fill="#1B1E26" d="M171.8,37.4c-0.4,0.1-0.8,0.3-1.2,0.2c-0.1,0-0.2-0.5-0.3-0.8c0.4-0.1,0.8-0.3,1.1-0.4
		C171.5,36.4,171.6,36.9,171.8,37.4z"/>
	<path fill="#376673" d="M44,116c-2.7-1.2-2.6,2.3-4.7,3.1c0.2-1.5,0.3-2.5,0.5-4.2c-2.1,0.5-3.8,0.9-5.7,1.3c0.3,1.3,0.5,2,0.7,2.6
		c-1.7,1.9-3.3,3.8-5.5,6.3c-0.4,0-1.9,0-3.4,0c-2.3-0.4-2.4-2.3-2.8-4c0.1-1.3,1.2-1.9,1.9-2.8c2.7-3.6,1.4-7.4-2.9-8.5
		c-1.4-0.4-2.9-0.5-3.9-1.8c0.5-1.7,0.8-3.5,1.6-5c0.4-0.9,1.5-1.4,2.3-2c3.9,2.7,7.5,3.4,10.9,2c-0.3-1.5-1.2-3,0.3-4.4
		c4.9-0.5,7.4,1.2,8.2,5.6c0.2,1.1,0,2.3,0.5,3.4C41.5,110.6,46.1,112.4,44,116z"/>
	<path fill="#34424E" d="M18,108c1.8,0,3.6,0,5.4,0.1c3,0.2,4.4,1.5,4.5,4.6c0.1,2.1,0,4.3,0,6.6c-1.7,0.6-3.4,1.2-5,1.8
		c-0.2-0.1-0.3-0.1-0.4-0.2c-0.5-0.5-1.3-1-1.3-1.4C21.8,115.1,16.6,112.5,18,108z"/>
	<path fill="#2B819F" d="M35.4,103c0,2.5-0.5,3.2-2.6,3c-3.4-0.4-6.7-0.9-10.5-1.5c-0.1-1.1-0.2-2.3-0.3-3.6c2-1,4-2,6-3
		c0.4,0,0.7,0,1.1,0c0.7,0.1,1.3,0.5,1.7,1.1C31.3,101.4,32.8,102.8,35.4,103z"/>
	<path fill="#376673" d="M197.1,101c0,7.4-0.1,14.7-0.1,22.1c-2.1-0.1-2.3-1.7-2.5-3.2c-0.6-4.2-0.8-8.5-0.2-12.7
		c0-4.2-1.3-8.6,1-12.7c0.4-0.6,1-0.7,1.6-0.4C197,96.3,197,98.6,197.1,101z"/>
	<path fill="#5D647C" d="M196.9,94c-0.3,0-0.6,0-0.8,0c-1-1-0.9-2-0.1-3c0-4.7,0-9.3-0.1-14c0.4-0.3,0.7-0.7,1.1-1
		c0.1,1.3,0.1,2.7,0.2,4C197.1,84.7,197,89.3,196.9,94z"/>
	<path fill="#5D647C" d="M41.9,46.9c-2.9,0-5.8,0-8.8,0c0-0.8,0-1.6,0-2.6c2.9,0,5.5,0,8.6,0C41.8,45.1,41.8,46,41.9,46.9z"/>
	<path fill="#134862" d="M196,120c0.3,1,0.7,2,1,3.1c0,0.6,0,1.1,0,1.7c-1.9,0.8-4.5-0.9-6.1,1.5c-2.9,1.6-5.9,0.3-8.9,0.3
		c-1.1-0.2-2.3-0.4-3.5-0.3c-1,0-1.9-0.1-2.6-0.9c0-0.8,0-1.5,0-2.3l0,0c-1.5,0.2-2.9,0.4-4.4,0.5c-0.3,0-0.5-0.1-0.7-0.4
		c1-1.4,2-2.7,3-4.1c2.2-0.3,4.5-0.7,6.7-0.8c1.1-0.1,2.2,0.5,3.2,0.8c1.9-1.9,4.2-2,6.7-1.5C192.8,117.4,194.6,118.1,196,120z"/>
	<path fill="#1B1E26" d="M198,56.1c-2.7,0-5.3-0.1-8-0.1c0-1.1,0-2.3,0-3c1.4-1.5,4.1-0.1,3.9-2.9c2.9,0.4,5.8,0.8,9.5,1.4
		c-1.9,1.5-3.2,2.5-4.5,3.5C198.9,55.6,198.6,56,198,56.1z"/>
	<path fill="#553035" d="M198,56.1c0.3-0.4,0.7-0.7,1-1.1c1.3,0,2.6,0.1,3.9,0.1c0.4,4.1-0.6,7.4-4.9,8.9
		C198,61.4,198,58.7,198,56.1z"/>
	<path fill="#44C7EF" d="M59.1,125.9c0.6,0.1,1.2,0.2,1.9,0.2c0.6,0.5,1.2,1.1,2.1,1.9c-4.3,5.3-10.4,5.1-16.4,6
		c-0.9-3.3-3.3-6.2,0.4-9c1.7,0,3.3,0,5-0.1c1.4,1.8-0.8,2.4-1.2,3.7C53.9,128.5,56.6,127.6,59.1,125.9z"/>
	<path fill="#81D8F0" d="M35.3,128.7c0.3-2.1,0.6-4.2,1.1-6.8c1.8,0.6,3.1,1.1,4.5,1.5c2.7,2.4,2.7,2.4,0.2,6.7
		C39.2,129.7,37.2,129.2,35.3,128.7z"/>
	<path fill="#34424E" d="M192.1,31.1c-0.9,4.2-1.4,4.5-6.1,3.1c-1.2-1.8-0.3-3,1.1-4.2c0.6,0,1.2-0.1,1.9-0.1
		C190,30.3,191,30.7,192.1,31.1z"/>
	<path fill="#5D647C" d="M187.1,30.1c-0.4,1.4-0.7,2.8-1.1,4.2c-1.7-0.5-3.3-0.9-5-1.4c-0.8,0.2-1.5-0.2-2.1-0.6
		c-0.4-0.3-0.9-0.6-1.3-0.9c0.7-0.5,1.4-1.4,2.2-1.5C182.2,29.8,184.6,30,187.1,30.1z"/>
	<path fill="#81D8F0" d="M47,29.1c1.6-1.7,3.2-1.3,5-0.3C50.4,28.9,48.7,29,47,29.1z"/>
	<path fill="#81D8F0" d="M42,29.8c0.4-0.2,0.8-0.4,1.2-0.6C42.8,29.4,42.4,29.6,42,29.8z"/>
	<path fill="#44C7EF" d="M25,174.8c-2.3-0.3-4.6-0.6-6.9-0.9c1.5-0.6,3-1.1,4.4-1.9c0.7-0.4,1.2-1.3,1.7-2c1-0.7,1.9-1.3,2.9-2
		c0,1.7,0.3,3.4-1.6,4.6C25,172.9,25.1,174,25,174.8z"/>
	<path fill="#44C7EF" d="M27,168c0.2-0.2,0.3-0.5,0.5-0.7c0.1,0.3,0.3,0.5,0.4,0.8C27.6,168,27.3,168,27,168z"/>
	<path fill="#2B819F" d="M162,98.9c2.4-0.3,4.2,0.8,6,2.1c1.2,1.5,2.6,2.9,1,5c0,0.7,0,1.3,0,2c-0.4,1-0.8,1.9-1.3,3
		c-3.9-1.2-7.6-2.1-7.8-6.9l0.2-0.2c1.4-1,1.7-2.3,1.3-3.9C161.5,99.6,161.7,99.2,162,98.9z"/>
	<path fill="#81D8F0" d="M171,123.1c0.2,0.1,0.5,0.2,0.7,0.4c0.2,0.4,0.4,0.9,0.7,1.3c1.1,1.4,0.9,3-0.6,3.7
		c-1.1,0.5-2.7,0.1-3.9-0.4c-0.8-0.3-1.2-1.3-1.8-2.1c-0.4-3.2,1.9-3.1,4-3.1C170.3,123,170.6,123.1,171,123.1z"/>
	<path fill="#1F3544" d="M44,116c-1-1.8-1.9-3.7-3.3-6.3c0,0.2,0.1-0.7,0.3-1.6c-0.9-3.7,1.8-3.2,3.9-3.4c3.9,0.4,3,5.9,6.6,6.3
		c-1-1.5-4-2.1-2.4-4.9c1.1-0.1,2.2-0.1,2.9-0.1c3.6-4.8,5-9.6,2.1-14.9c3.8-2.6,7.8-3.3,12-1c0,5.3,0,10.6,0,15.3
		c-1.9,1.9-3.7,3.3-4.9,5.1c-1.2,1.8-1.2,4-0.2,6.1c0.3,0.7,0.1,1.6,0.1,2.5c-0.7,1.6-2.1,2.8-3.4,1.7c-4.3-3.7-9-1.6-13.6-1.7
		C44,118,44,117,44,116z"/>
	<path fill="#81D8F0" d="M59.1,125.9c-0.1,0.8-0.1,1.6-0.2,2.6c-3.7,1.1-7.3,2.8-11.6,2.4c-0.1-1.4-0.1-2.4-0.1-3.1
		c1.5-1.9,4.7,0.5,4.9-2.8c1.3-0.1,2.7-0.1,4-0.2c0.3,0.4,0.6,0.5,0.9,0.1C57.7,125.3,58.4,125.6,59.1,125.9z"/>
	<path fill="#44C7EF" d="M57,124.9c-0.2,0.2-0.3,0.4-0.5,0.7c-0.1-0.2-0.3-0.5-0.4-0.7C56.4,124.7,56.7,124.7,57,124.9z"/>
	<path fill="#2B2C35" d="M66,90c-4,0.3-8,0.7-12,1c-0.7-0.3-1.4-0.7-2-1c-1.4-4.5,2.3-5.4,5-7c1.2-0.4,2.8-0.4,3.5-1.2
		c1.6-1.7,3.4-1.9,5.4-1.8C66,83.3,66,86.7,66,90z"/>
	<path fill="#376673" d="M162,98.9c0,0.3,0,0.7,0,1c-0.6,0.6-1.3,0.7-1.9,0.1c-0.7,0-1.5,0-2.2,0.1c-0.7,0.5-1.3,0.4-1.9-0.2
		c0.7-1,1.3-2,2-2.9C159.3,97.6,160.6,98.2,162,98.9z"/>
	<path fill="#81D8F0" d="M156,99.9c0.6,0.1,1.3,0.1,1.9,0.2c0.2,1.7,0,3-2.2,2.9c-0.8-0.1-1.6,0-2.5,0c-1.2-2.1,0.7-2.1,1.8-2.7
		C155.3,100.1,155.6,100,156,99.9z"/>
	<path fill="#376673" d="M155,100.2c-0.6,0.9-1.2,1.8-1.8,2.7c-0.4,0-0.9,0-1.3,0c-0.2-1.8,0.5-3,2.3-3.5
		C154.4,99.4,154.7,100,155,100.2z"/>
	<path fill="#81D8F0" d="M160,100c0.6,0,1.3-0.1,1.9-0.1c1.4,0.7,2.5,1.6,1.7,3.8c-1.1,0.1-2.3,0.1-3.6,0.2
		C160.1,102.6,160,101.3,160,100z"/>
	<path fill="#1F3544" d="M118,79c3.4,0,6.8,0,10.1,0c0.7,1.5,1.3,2.8,1.9,4c0,1.7,0,3.3,0,5c-3.9,3-4.3,7-3.8,11.5
		c0.4,3.5,1.5,7.2-1.5,10.2c-2.4,1.2-4.8,1.4-6.8-0.8c0.2-2.1,0.4-4.2,0.6-6.9c-1.2-0.8-2.8-1.9-4.9-3.3c0.5-1.2,1-2.6,1.6-4
		c1.1-2.4,2.4-4.7,3.3-7.2c0.4-1.3,0.2-2.9,0.1-4.3C118.5,81.9,118.2,80.4,118,79z"/>
	<path fill="#2B819F" d="M96,124c-0.3-1.9-0.9-3.8-0.9-5.6c-0.1-5,0-5,5-5.4c1.3,0.7,2.6,1.4,3.9,2c2.2-1.5,4.3-3.4,6.8-0.3
		c0.4,0.5,2.7-0.4,4.1-0.6c1.9-1.3,3.5-1.5,4.6,0.9c-0.9,3.4-4.1,2.6-6.4,3.4c-1.6,0.6-4.1,0.3-3.8,2.9c0.4,2.9,2.8,2.2,4.7,2
		c4.4-0.6,8.4-1.6,9.2-6.9c2.2-1.4,4.4-2.1,6.7-0.4c1.5,3.2,1,2.8-0.9,5.3c-3.6,4.8-9.2,4.9-14,6.6c-2.5,0.9-5.5,0.5-8.2-0.7
		c-2.3-1-5-1.4-7.5-2C98.1,124.7,97,124.3,96,124z"/>
	<path fill="#34424E" d="M125,109c-0.3-3.4-0.8-6.9-0.9-10.3c0-2.4,0.5-4.9,0.9-7.3c0.5-2.8,2.3-3.8,5-3.4c0,1,0,2,0,3
		c-0.9,2.7-0.9,5.4,0,8c0.2,0.2,0.7,0.4,0.7,0.6c-0.2,3.5-0.4,6.9-0.7,10.4C128,111.4,126.3,111,125,109z"/>
	<path fill="#134862" d="M125,109c1.7,0.3,3.3,0.7,5,1c0,2-0.1,4-0.1,6c-2.3,0.4-4.6,0.7-6.9,1.1c-1.5,0.4-3,0.5-3.9-1.2
		c-0.5-2.7-2.7-1.4-4.2-1.8c0-1.7,0.1-3.3,0.1-5c1,0,2,0,3,0C120.3,109,122.7,109,125,109z"/>
	<path fill="#5D647C" d="M115.3,137.4c0.7-3.5,1.8-3.9,7.3-2.9C120.8,137.9,119.8,138.3,115.3,137.4z"/>
	<path fill="#1F3544" d="M130,99c-1.6-2.7-1.6-5.3,0-8C130,93.6,130,96.3,130,99z"/>
	<path fill="#81D8F0" d="M120.5,157.8c-5.1,1.6-17.6,1.5-20.9,0C104.3,155.3,109.2,155.3,120.5,157.8z"/>
	<path fill="#134862" d="M91,86.9c0-0.3,0-0.7,0-1c0.3-0.6,0.4-1.5,0.8-1.6c3.6-1.2,9.2,1.4,10.8,4.8c0.7,1.6,1.4,3.2,1.9,4.3
		c-0.9,2.8-1.7,5.2-2.4,7.6c-0.6-0.3-1.6-0.4-1.6-0.8c-0.2-1.4-0.5-3-0.1-4.4c1.6-5,0.8-6.9-4.3-8.9c-0.6,0.5-1.3,1-2.1,1.1
		C92.7,88.2,91.7,88,91,86.9z"/>
	<path fill="#1F3544" d="M191,119c-2.3,0-4.7,0-7,0c0-1.3,0-2.7,0-4c-1.5-1.9-2.3-4.4-4.7-5.6c-1.4-0.7-1.4-2.2-0.2-3.4
		c1-0.4,2.2-0.5,2.9-1.1c1.4-1.1,2.5-2.5,3.8-3.9c1.3-3.2-0.7-6-1.7-9c4-0.3,8-0.7,11.9-1c0,1,0.1,2,0.1,3c0,4.3-0.1,8.7-0.1,13
		c-3.3,1.9-4.8,4.6-3.8,8.5C192.4,116.7,192.1,118,191,119z"/>
	<path fill="#376673" d="M179,106c0.4,1,0.7,2.7,1.1,2.8c4.1,0.4,3.8,3.4,3.8,6.2c-5.7-2.6-9.4-9.9-7.9-15.7
		c0.3-1.4,0.4-1.4,3.3-1.9C179.2,100.2,179.1,103.1,179,106z"/>
	<path fill="#376673" d="M169,106c-0.3-1.7-0.7-3.3-1-5c2.3,0,2.5,1.9,2.8,3.4C170.9,104.8,169.6,105.4,169,106z"/>
	<polygon fill="#2B2C35" points="113.7,17.5 113.4,17.6 113.4,17.4 	"/>
	<path fill="#81D8F0" d="M181,124.8c3.4,0.1,6.9-0.6,10,1.4c-0.1,4-0.1,4.2-3.6,5.1c-3.4,0.9-6.9,1.4-10.2,2.1
		c-2.4-2.8-2.9-5.3-1.1-8c1-0.1,2-0.2,3-0.3C179.6,125,180.3,124.9,181,124.8z"/>
	<path fill="#81D8F0" d="M171.1,159.1c2.9,0,5.8,0,8.7,0c0.6,0.6,1.2,1.4,1.9,1.8c0.9,0.4,2,0.4,3.7,0.8c-4,1.5-11.2,1.7-16.2,0.6
		C169.9,161.2,170.5,160.2,171.1,159.1z"/>
	<path fill="#134862" d="M46,106c-1,0-2,0.1-2.9,0c-1.5-0.1-2.1,0.7-2.1,2c-1-0.1-2.2-0.3-1.6-1.7c0.8-1.8,1.1-3.5-0.5-4.9
		c-1.7-1.6-3.6-2.9-6.2-2.2c-0.8,0.7-1.7,0.7-2.5,0c-0.4-0.5-0.8-0.9-1.2-1.4c0.7-3.3,2.3-4.5,5.3-3.6c2.7,0.9,5.3,2.3,8,3.4
		c1.2,0.5,2.4,0.9,3.6,1.4C48.1,101.3,48.1,103.7,46,106z"/>
	<path fill="#376673" d="M46,106c0-2.3,0-4.6,0-6.9c1.2-0.4,1.4-3,3.4-1.7c-0.1,2.9-0.3,5.8-0.4,8.6c0.4,0.7,0.6,1.5,1.1,2
		c1.6,1.6,3.3,3,5.8,5.1c-1.1,1-1.8,1.6-2.6,2.3C50,112.3,47,109.9,46,106z"/>
	<path fill="#553035" d="M57,83c-0.7,1-1.1,2.2-2,2.9c-1.4,1.1-3,1.9-3,4c-0.7-0.5-1.7-0.9-1.9-1.6c-0.3-1-0.1-2.2-0.1-3.4
		c0.2-3.3,2.2-5,5.1-6C55.7,80.3,56.3,81.6,57,83z"/>
	<path fill="#2B819F" d="M93.6,87.4c0.8-0.1,1.5-0.3,2.3-0.4c0.4,1.1,0.7,2.2,1.2,3.2c1.1,2.7,0.5,4.7-1.8,5.6
		c-2.4,0.9-4.7-0.6-5.4-3.7C91.5,90.8,92.5,89.1,93.6,87.4z"/>
	<path fill="#81D8F0" d="M93.6,87.4c0.4,1.3,0.8,2.7,1.3,4.4c-1.9,0.1-3.5,0.2-5,0.3c0.4-1.7,0.7-3.5,1.1-5.2
		C91.9,87.1,92.8,87.3,93.6,87.4z"/>
	<path fill="#34424E" d="M91,106c1.9,2.6-1.2,3.5-2.1,5.3c0-2.4,0-4.9,0-7.3c0.3-0.1,0.9-0.3,0.9-0.1C90.3,104.5,90.7,105.3,91,106z
		"/>
	<path fill="#2B2C35" d="M178.9,32.2c0.7,0.2,1.4,0.4,2.1,0.6c0.1,1.4-0.5,2.2-2,2.1C178.9,34.1,178.9,33.2,178.9,32.2z"/>
	<path fill="#81D8F0" d="M30.2,99.2c0.8,0,1.7,0,2.5,0c0.9,1.3,1.8,2.5,2.7,3.8C30.7,104.6,30.1,104.1,30.2,99.2z"/>
	<path fill="#34424E" d="M191,119c-0.1-1.1,0.2-2.4-0.3-3.4c-1.7-3.7-0.6-6.6,2-9.3c1.1,0.2,2.2,0.5,3.3,0.7c0,4.3,0,8.7,0,13
		C194.3,119.6,192.6,119.3,191,119z"/>
	<path fill="#2B819F" d="M181,124.8c-0.6,1.3-1.2,1.4-2,0.2C179.5,123.8,180.2,123.6,181,124.8z"/>
	<path fill="#2B819F" d="M176,123c0.1-0.2,0.3-0.4,0.4-0.7C176.2,122.5,176.1,122.8,176,123L176,123z"/>
	<path fill="#81D8F0" d="M119.1,115.8c1.3,0.4,2.6,0.8,3.9,1.2c0.8,1.3,1.6,2.6,2.9,4.7c-6.1,1.7-11.5,3.1-17,4.7
		c-0.6-1.6-1.3-2.7-1.5-4c-0.9-3.9-0.1-4.9,4-5.4C113.9,116.7,116.5,116.2,119.1,115.8z"/>
</g>
</svg>
