<?xml version="1.0" encoding="utf-8"?>
<!-- Generator: Adobe Illustrator 24.1.2, SVG Export Plug-In . SVG Version: 6.00 Build 0)  -->
<svg version="1.1" id="Layer_1" xmlns="http://www.w3.org/2000/svg" xmlns:xlink="http://www.w3.org/1999/xlink" x="0px" y="0px"
	 viewBox="0 0 411.5 479.8" enable-background="new 0 0 411.5 479.8" xml:space="preserve">
<g>
	<path fill="#EC11B9" d="M352.7,474.1c-12,1.4-24,2.8-36,4.1c-5.6,0.7-11.2,0.9-16.9,0.9c-59.9,0.1-119.8,0.3-179.7-0.1
		c-14.4-0.1-28.8-2.2-43.3-2c-6.1,0.1-7.4-2.5-6.6-10c0.2-0.9,0.8-1.8,1-3c-4.5-1.8-7.7-5.4-12.2-6.9c2.4-5.5,5.6-6.9,10.8-5.2
		c-2-0.9-2.2-2.5-1-3.9c1.6-1.8,0.1-3-0.6-4.4c0-2.4,1.7-2.8,3.4-2.5c3.4,0.8,6.9,1,10.1,2.2c2.5,0.9,4.8,2.5,4.9,5.6
		c0.1,2,1,3,2.6,3.6c0.7,0.4,0.4-1.1,0.2-0.4c0,0.1-0.1,0.1-0.3,0c-3.4-1.2-2.9-3.7-1.4-5.9c1.9-2.8,4.1-2.2,6.2,0
		c1.1,1,2.5,1.7,4,1.7c8.5,0,17,2.2,25.6,0.9c2.7-0.4,5.3-0.3,7.4,1.8c0.8,0.8,1.2,2.1,2.5,2.2c5,0.1,10,0.9,16.2,0.6
		c-5.5-0.4-9.9,0.4-14.1-1.2c-0.1-2.9,1.9-3.2,4-3.1c6.5,0.3,12.9-1.1,19.4-0.6c2.5,0.2,4.5-0.8,6.4-2.2c2-1.5,4-1.6,5.3,1.1
		c1.4-0.3,2.1-1.4,4.4-2.8c-5.4-0.5-9.5-1.3-8.4-6.9c-4.7-2.2-8.3-2.8-12.2,1.7c-2.4,2.8-7.1,3.3-10.6,5.2c-2.4,1.3-3.6-1.4-4.6-3.4
		c-0.9-1.8,0-3.9-1.4-6.1c-2.9,3.7,1.8,5.5,1.2,8.3c-4.3,3.8-10.4,2.3-18.7-4.5c-1.5-0.2-2.3,1.1-3.4,1.8c-4,2.5-7.9,4.9-13,3.9
		c-2.3-0.4-4.7,0-6.7,1.4c-1.2,0.8-2.3,1.3-3.6,0.3c-1.1-1.3-3.4-1.9-2.7-4.3c0.6-2.4,2.4-3.5,4.7-3.8c1.9-0.2,3.4-1.1,5-2.1
		c2.3-1.5,4.9-2.5,7.5-2.3c8.8,0.6,16.2-3.6,24.1-6.4c2-0.7,4.1-0.5,6.2-0.5c1.8,0,3.9,0.4,4.6-2c0.1-2.7,2-2.7,3.9-2.8
		c2.2-0.1,4.2-0.3,6.3-1.9c-2.7-2.6-5.1-3.1-8.1-0.8c-3.1,2.4-6.3,4.9-9.2-0.5c-0.8-1.4-3.1-0.8-4.6-1.4c-2.4-1-4.8-3-2.4-5.1
		c3.5-3.1,6.1-7.9,11.1-8.6c-0.6-0.2-2.2,0.6-2.8-1.8c0.3-2.1,2.2-3.7,3.9-5.3c0.1-0.2,0.3-0.4,0.5-0.3c-0.4,0-0.6,0.4-0.9,0.6
		c-3.5,1.4-6.2,0.4-8-2.8c-0.9-1.6-2.3-2.8-3.8-3.9c-3.3-2.5-3.2-6.3-2.4-9.6c0.6-2.7,3.8-3.1,6.3-2.9c2.6,0.2,3.8-1.7,5.6-2.7
		c2.9-1.1,5.9-0.8,8.9-0.8c42.6,0,85.2-0.3,127.7,0.2c11,0.1,20.4-1.9,27.7-10.5c5-2.8,5-2.8,11.4,2.8c3.2-3.7,9-5.2,9.1-11.5
		c0.1-5.1,0.9-10.4-5.1-13.7c5.3-4.5,7.7-0.1,10.8,1.5c0.5-1-0.3-1.4-0.7-1.9c-5.2-5.3-5.3-5.9,0.1-11.6c2.3-2.4,3.1-4.5,1.3-7.5
		c-1.3-2-2.8-3.2-5.3-2.8c-2.3,0.4-4.6,0.4-7,0.3c-8.2-0.1-10.2-2.7-8.7-11.6c3.1-0.8,5.9-2.4,8.1-4.9c-0.4-1.5-1.8-2-2.7-2.9
		c-3.4-3.4-8.4-5.8-7.3-12c0.2-1.4-1.1-2.3-1.8-3.5c-1.5-2.6-1.6-4.8,1.8-5.9c2.9-0.9,3.4-3.4,4-5.8c0.9-3,2.3-5.5,5.7-6.3
		c7.9-1.8,10.8,1.9,8.1,10.9c1.5-1.4,3.2-2.4,5.1-3.6c-5.3-6.9,0.2-12.9,0.8-19.1c3.1-1,4.5,3.1,7.6,0.6c-1.3-4.5-4-9.7,1.1-14.1
		c3.1-0.1,3.8,2.3,4.6,4.5c4.5,11.9,7.8,24,8.9,36.7c0.6,7.4,1.9,14.8,1.9,22.4c-0.3,28.6-9.3,54.5-23.9,78.7
		c-7.6,12.5-17,23.4-27.9,33.1c-0.7,0.7-1.5,1.3-1.9,2.4c0.2,1.6,2,1.4,2.8,2.3c-1.4,3.7-5.2,4.8-8.3,2.5c-1.1-0.9-1.7-2.5-3.5-3.3
		c0.1,2.2,2.4,3.7,1.1,5.7c-1.2,1.9-3.6,1.4-5.4,2.6c-0.3,3.1-1.6,6.1-0.4,9.3c3.8,2.6,8.8-0.4,12.3,2.8c0.6,0.6,0.9,1.4,0.6,2.5
		c-1.8,3-5.4,1.2-8.1,2.7c5.8,1.8,11.3,0.2,16.2-1.5c8.2-2.8,9.2-2.3,8.7,7.2c-3.4,2.3-5.1,6.1-7.6,9.6c2.8,2.8,5.9,2.9,10.5,2.5
		c-4.8-4-2.5-6.9-0.1-9.9c2.9-3.7,3-9.4,8.6-11.3c-7.8,3-15.2-1-22.8-0.5c-1.2,0.1-2.3-0.4-3.2-1.2c-2.8-2.3-2.8-14.6,0-17
		c1.5-1.3,3.1-0.8,4.6,0.1c1.6,1,2.9,2.9,5.3,2.7c2.2-1.6,2.5-5.1,5.4-6.2c12.5-0.7,24.9-3.3,37.6-2.8c0.8-0.1,1.7-0.1,2.5-0.1
		c0.8,0,1.5,0.2,2.2,0.6c1.5,2,1.5,4.1-0.4,5.8c-5.5,5.1-5.5,5-7.8,11.7c-1.4,1.1-2.5,0.3-3.6-0.7c-0.9,2.5,2.6,5.7-2,7.6
		c5.4-0.3,9.5,2.1,10.2,5.7c0.5,2.5-0.9,3.3-2.6,3.4c2.3,8.5-7.5,6.1-9.6,10.7c4.9,2,10.1,2.6,15.2,3.6c2.8,3.2,2.1,5.7-1.8,6.6
		C355.9,473.4,354.1,472.9,352.7,474.1z"/>
	<path fill="#FBD1EE" d="M3.2,52.1c-1.4-9.5,2.3-17.6,7-25.3c0.9-1.5,2.9-2.4,4.5-3.6c2.1,2.8,4.9,5.5,0.4,8.6
		c0.3,0.2,0.5,0.2,0.7-0.1c5.9-3.7,12.7-3.9,19-5.9c3.8-1.2,7.2-4.8,10.7-3c-0.8,0-2.1-1-2.4-2.9c-0.3-1.9,1.1-2.7,2.6-3.2
		c3.5-1.1,7.1-1.7,10.8-2.2c23.6-3.4,47.2-5.9,71-7.4c33.8-2.1,67.6-2.2,101.4-1.6c23.6,0.4,47.2,1.1,70.8,3.5
		c19,1.9,38.1,3.1,57.2,5.3c7.5,0.8,14.8,2.3,22,4.4c2,0.6,4.7,1.2,4.1,4.1c-0.6,3-3.4,2.9-5.7,2.4c-12.3-2.9-24.8-4.3-37.4-5.8
		c-7.6-0.9-15.2-1.7-22.8-2.3c-7.4-0.6-14.7-2.9-20.1-2c21.4,2.5,45,4,68.5,7.8c8,1.3,15.9,3.4,23.6,6.2c1.7,0.6,3.5,1.2,4.1,3.3
		c-1.2,2.7-3.5,2.3-5.6,1.9c-20.6-4-41.5-5.9-62.4-7.9c-3.3-0.3-6.7-0.4-10-0.3c-18.8,0.8-37.5-1.9-56.3-2.8
		c-19.2-0.9-38.5-1-55.3-1c10.4-0.7,23.3-0.2,36.1,0.2c26,0.9,52.2,1.9,77.8,7.6c1.5,0.3,3,0.5,4.3,1.3c0.4,2.9,4.2,1.8,5.1,4.6
		c-1.1,1.9-3.1,1.9-5.1,1.9c-4,0.1-8,0.1-12-0.5c-4.6-0.7-9-0.8-13.7,1c-7.4,2.8-15.3,2.2-22.4,1.4c8.2,1.4,17.5-0.8,26.3,2.9
		c5.2,2.2,5.7,4.1,1.8,8.2c-3.1,3.2-6.5,5.8-12.5,6c4.6,2.3,8.3,3.9,9.6,7.9c5.8,1.3,12.3-1,16.3,4.8c0.1,0.6,0,1.1-0.2,1.6
		c-4.2,3.4-9.1,1.5-13.6,1.9c-2.8-0.3-5.5-0.5-8.2-1.4c-1.8-0.9-3.6-0.6-5.4,0c-2.3,0.2-4.6,0.3-6.9-0.3c-1.5-0.5-3-0.5-4.5-0.5
		c-27.1-0.4-54.3-1.2-81.4-1.2c-14.9,0-29.9,1.8-44.8,0.2c-3.1,0-6.2,0.8-9.2-0.7c-0.8-0.5-1.3-1.3-1.5-2.2c-0.2-0.9-0.2-1.7,0-2.6
		c0.6-1.7,1.8-2.9,3.5-3.2c4.8-0.6,8.6-3.3,12.8-5.2c5.2-3.3,11.6-3.4,16.8-6.5c3.9-0.8,7.7-2.5,11.8-2.6c1.7,0.1,3.2-0.7,4.7-1.3
		c0.4-0.2,0.9-0.3,1.4-0.4c2.9-0.2,5.7-0.4,8.3-1.9c0.7-0.2,1.5-0.3,2.2-0.4c1.6-0.1,3.1,0,4.7-0.1c2.6-0.1,5.2,0.5,7.7-0.7
		c1.7-0.7,3.5-1.1,5.4-0.8c1.7,0.5,3.5,0.9,5.7-1.1c-8.9-0.8-17-0.2-25.2-0.4c-2.1,0-4.3,0-6.4,0c-11.1-2.1-22.6,0.2-33.3-2.7
		c-0.2,2.9-2.6,2.1-4.3,2.3c-2.1,0.1-4.4-0.3-6,0.9c3.9-1.9,8.5-0.9,12.9-1.3c6.4-0.6,13-0.1,19.5-0.1c1.7,0,3.4,0.2,4.2,2
		c-0.3,1.6-1.6,2.1-2.9,2.6c-3.5,0-6.7,1.3-10,2.2c-4.1-0.4-7.4,1-9.9,4.2c-0.9,1.2-2.2,2-3.6,2.5c-2.4,0.6-4.7,0.5-6.9-0.9
		c-3.2-2.6-6.1-5.5-10.4-6.4c-1.9-0.4-3.1-1.8-4-3.5c-3.6-1.5-7.3-0.9-10.9,0c-5.4,0.3-10.8,1.3-15.5-0.8c-1.2-3,0.8-4,1.7-5.9
		c-5.5,0.9-10.8,1-16,1.4c-3.1,0.3-5.9,1.1-7,4.5c-0.4,1.3-1.6,2.3-2.9,2.5c-5.7,0.8-11.2,3.5-17.2,2.3c-0.8-0.2-1.6-0.6-2.1-1.2
		c-0.3-5,4.9-11.8,9.8-12.5c3.6-0.5,7.3-1.3,10.9-1.2c21.5,0.7,42.8-2.2,64-5.1c1.8-0.2,3.6-0.2,5.5-0.2c-9.6-1.1-19.1,0-28.7-0.1
		c-12.8-0.2-25.6,0.7-38.4,1.4c-19.7,1-39.4,2.3-58.8,6.2c-3.9,0.8-7.7,1.9-11.6,2.8c-6.2,1.4-10,4.7-10.4,11.5
		C10.2,51.6,7.6,53.1,3.2,52.1z"/>
	<path fill="#F7AEE6" d="M322.6,32.1c-5.4-0.7-10.8-1.4-16.2-2.1c-7.2-1-14.4-2.2-21.6-2.9c-14.5-1.5-29-3.2-43.5-3.9
		c-14.1-0.7-28.3-0.1-42.5-0.1c-1.8,0-3.5,0-5.3-0.9c21.8-1.3,43.7-0.9,65.6-0.1c22.4,0.8,44.9,0.9,67.2,2.5c22,1.7,43.9,5,66.1,7
		c-6.2-1.8-12.3-4.2-18.6-5.4c-12.5-2.4-25-4.3-37.6-6c-8.3-1.1-16.7-1.4-25.1-2.2c-7.9-0.8-15.8-1.9-23.9-3.5
		c1.9-0.5,3.9-1.4,5.8-1.3c15.2,1.2,30.3,2.2,45.4,4c13.3,1.6,26.5,4.1,39.7,6.1c1.4,0.2,2.8,0,4.2,0c0.1-0.6,0.2-1.2,0.3-1.8
		c-4-1.1-7.9-2.8-11.9-3.3c-15.6-1.9-31.3-3.5-46.9-5.1c-12-1.3-24-2.7-36.1-3.7c-7.6-0.7-15.2-1.1-22.9-1.2
		c-34.1-0.4-68.2-1.2-102.3-0.9c-19.9,0.2-39.7,2.4-59.6,3.7c-9.1,0.6-18.2,1-27.3,2.2c-10.5,1.4-20.8,3.5-31.3,5.3
		c1.2,4.2,2.3,4.5,8.2,2c-0.4,1-0.5,2.1-0.9,2.2c-9,2.6-17.9,5.1-26.9,7.5c-4,1.1-8,1.9-12,2.9c0,0,0,0,0,0c1.1-1.2,2.3-2.4,3.6-3.8
		c-0.5-1.8-1-3.9-1.6-6c0.6-0.4,1.1-0.9,1.7-1.3c4.5-1.7,8.7-4.1,13.4-5.4c0.8-0.2,1.6-0.4,2.5-0.7c1.6-0.2,2.9-1.2,4.5-1.3
		c1.1-0.3,2.3-0.5,3.4-0.8c0.7,0.2,1.1-0.2,1.6-0.5C61.9,10.1,82,6.7,102.3,4c8.5-1.1,17.3-0.4,25.8-1.2c36.6-3.2,73.2-3,109.9-2.4
		c4.7,0.1,9.4,1,14.1,1.5c1-0.8,1.9-0.7,2.8,0.2c5.6,0,11.2,0,16.9,0c1.7,0.1,3.4,0,5,0.2c3,0.2,5.9,0.4,8.9,0.6
		c12.9,2.1,26.1,1.9,39.1,3.5c1.4,0.2,2.8,0.3,4.2,0.5c1.3,0,2.6-0.5,3.8,0.4l0,0c1.9,1.2,4.2-0.2,6.2,0.9c0.9,0.1,1.9,0.2,2.8,0.3
		c7.4,1.4,14.9,2.1,22.2,3.7c1,0.2,1.9,0.3,2.9,0.5c1.6,0.2,3.1,1.1,4.7,1c1.4,0.3,2.8,0.7,4.2,1c6.6,2.1,13.3,3.8,19.2,7.6
		c1.5,1,3.2,1.8,5.1,1.2c0.6,0.4,1.1,0.8,1.7,1.2c1.6,4.2,1.5,6.1-0.7,9.7c6.8,2.9,8,5.3,5.5,10.3c-6.4-1.2-11.9-4.6-18.2-6.4
		c-8.4-2.4-16.7-2.9-25.2-2c-3.7,0.4-6.9,0-9.9-2.2c-1.3-1-2.8-1.9-4.5-1.9c-8.4,0.2-16.9-1.8-25.3,0.2
		C323.2,32.2,322.9,32.1,322.6,32.1z"/>
	<path fill="#F7AEE6" d="M3.2,52.1c2-0.9,4.1-1.7,5.4-2.3c0.9-4.7,1.6-8.3,2.3-12c10.3-5.8,21.6-7.1,32.7-8.6
		c11.6-1.6,23.5-1.5,35.1-3.3c17.5-2.7,35.1-1.4,52.6-2.8c5-0.4,9.9,0.8,15.2-0.4c4.7-1.1,10.1,1.3,15.2,2.2c0,0.4,0,0.8,0,1.2
		c-12.8,1.4-25.6,3-38.5,4c-14.8,1.2-29.7,2-44.6,2.9c-2.5,0.2-4.6,0.6-5,3.7c-0.1,0.9-1.4,1.5-2,2.4c-1,1.5-1.9,3.2-2.9,4.8
		c-3.5,1.3-3-2.8-5.6-3.9c-2.2-0.7-4.9,0.3-7.7,0.6C43.6,42.1,32,44,20.7,47.4c-6.4,1.9-6.5,2.3-6.8,8.9c-0.2,3.5-0.6,7-2.6,10
		c-0.7,1-1.2,2-1.1,3.2c0.6,9.5-1.4,18.9-1.1,28.3c0.3,4,0.6,8.1-1.9,11.6c-0.5,1.1-2.2,1.7-1.3,3.4c1,0.8,2.4,0.3,3.3,1.2
		c1.8,2.3,0.3,3.6-1.5,4.8c-1.4,1.9,1.1,2.8,1.1,4.4c0.5,3.3,1.1,6.5-1.8,9.1c-0.8,0.4-1.6,0.4-2.4,0.1c-2.3-2.2-1.4-5.5-2.9-8
		c-2-3.2-0.3-7.1-1.8-10.5c0.1-2.6,0.2-5.3,0.2-7.9c1.7-0.6,2.2-2,1.9-3.6C1,95,2.5,87.5,3.3,80.2c0.7-6.4,0.5-12.8,0.2-18
		c0.2,0.6,0.4,2.3,0.1,4C3.4,67.5,3,68.9,1,68C1.8,62.7,2.5,57.4,3.2,52.1z"/>
	<path fill="#E278AD" d="M369,467.7c-0.4,0.2-0.8,0.3-1.2,0.5c-0.7,0.5-1.4,0.6-2.2,0.3c-0.4-0.4-0.7-0.8-0.8-1.3
		c-0.7-3.5,1.3-6.3,2.8-9.2c1.3-3.7,2.1-7.4,0.5-11.3c-2.1-3.3-2.2-7-1.9-10.6c0.3-3.6-0.1-7-1.6-10.2c-0.1-2.6-3.7-4.7-1-7.7
		c5.6-2.3,5.6-2.4,4.9-8.4c-0.9-8-1-15.9,0.4-23.9c0.9-5.2,0.3-10.6,0.8-15.9c1.3-13.6,1.1-27.3,2.2-40.9
		c2.4-29.2,1.7-58.6,4.8-87.8c0.6-5.5,0.4-11,0.1-16.5c-0.6-10.1,2.1-19.9,2.3-29.9c0-1,0.4-1.9,1-2.8c0.9-1.1,2.1-1.4,3.5-1.4
		c1.6,0,3.3,0,4.5,1.4c0.3,6.8-0.5,13.6-0.8,20.3c-0.8,14.1-1.8,28.2-2.5,42.4c-1.4,24.9-2.4,49.9-3.7,74.8
		c-0.9,17.6-2.5,35.2-3,52.9c-0.2,8.1-0.5,16.3-1.6,24.3c-0.4,2.7-0.4,5.3,1.5,7.6c0.6,1.1,0.5,2.2-0.3,3.3
		c-1.6,1.1-1.7,2.6-1.6,4.3c0.5,9.6-0.8,19.1,0.2,28.7c0.5,4.8-1.8,8.3-4.2,11.9C371,464.2,369.6,465.7,369,467.7z"/>
	<path fill="#CEA5C3" d="M377.7,415.3c-5.4-3-2.9-8.1-2.8-12.1c0.2-10.4,1.1-20.8,1.8-31.3c1-15.6,2-31.1,2.9-46.7
		c0.4-5.6,0.8-11.3,1-16.9c0.7-19.1,1.2-38.2,2.1-57.3c0.8-17.1,1.9-34.1,3-51.2c0.2-2.6,1.2-5.1,1.8-7.7c0.8-6,1.5-12,1.6-18.1
		c0-1.9-0.1-4.7,3.3-4.2c-0.7,17.3-1.3,34.6-2,51.9c-2.3,51.9-4.6,103.9-7,155.8c-0.2,3.5-0.6,6.9-0.9,10.4
		c-2.7-0.6-1.6-2.8-1.8-4.4c-0.2-1.8,0-3.6,0-5.5c-0.4,11,0.1,22.1-1.5,33.1C379,412.8,379.1,414.3,377.7,415.3z"/>
	<path fill="#F7AEE6" d="M18.8,180c0-2.3,0-4.6,0-7c0-4.4-0.2-8.5-3.3-12.3c-2.5-3-1.8-7.2-1.8-10.9c0-0.9,0-1.8-0.1-2.7
		c-0.1-0.4-0.3-0.8-0.4-1.2c-0.1-0.4-0.3-0.7-0.4-1.1c-0.7-0.6-1.1-1.3-1.3-2.2c-0.2-1.5,0-2.9,1.3-4c4.9-0.2,6,0.8,6.4,5.2
		c0.4,3.7-1,7.7,1.1,11.2c0.8,1.4,1.8,2.8,2.5,4.3c1.1,6.3,0.6,12.7,2.5,18.9c0.4,0.7,0.6,1.4,0.7,2.2c0.1,0.9,0.1,1.9,0,2.8
		c-0.1,1.1,0.1,2.1,0.5,3c0.2,0.6,0.3,1.3,0.3,1.9c-0.8,3.8,3.6,4.7,4.4,7.6c1.2,8.6,0.7,17.3,1.2,25.9c0.6,11.8,1.4,23.6,1.4,35.4
		c-0.1,25.8,2.1,51.5,2.3,77.4c0.1,16.6,0.5,33.3,1.8,49.9c0.7,9.1,0.3,18.3,1.6,27.4c0.3,2,0.3,4-0.1,6c-1.6,7.6-1.9,15.4-1.8,23.2
		c0,2.7-0.2,5.4-2.9,6.9c-1.5,0.5-2.9,0.5-4-0.9c-0.4-1.7-0.2-3.4-0.3-5.1c0-1.4,0-2.9,0-4.3c-0.3-5.3,0.6-10.7,1.3-15.9
		c0.9-7,0.4-13.9-0.2-20.9c-0.4-5.1-1.4-10.2-0.6-15.4c0.4-2.8,0.3-5.6-0.9-8.3c-0.9-2-0.8-4.2-0.7-6.4c0.6-19-1-37.9-1.5-56.8
		c-0.2-8.6-1.2-17.1-1.4-25.7c-0.5-19.3-0.1-38.6-2.3-57.7c-1.2-11.1-0.6-22-1.5-33c-0.1-1.7,0.1-3.3-1.2-4.6
		C18.7,188.9,20.7,184.1,18.8,180z"/>
	<path fill="#FBD1EE" d="M21.7,192c4.4,1.2,1.9,4.6,2.1,7.1c0.4,6.4,0.5,12.8,0.9,19.2c0.9,15.4,2,30.8,2.8,46.2
		c0.3,5.2-0.1,10.5,0.2,15.8c0.5,7.7,1.4,15.3,1.9,22.9c0.3,5.4,0,10.8,0.1,16.3c0.3,18,0.3,35.9,1.1,53.9
		c0.6,13.7,2.6,27.4,3.3,41.1c0.3,5.5-1,11.1-1.6,16.7c-0.3,2.5-0.6,4.9-0.9,7.4c-0.9,0.5-1.8,0.4-2.4-0.5c-0.1-3.3-0.2-6.7-0.4-10
		c-0.5-6.7,0.5-13.4-0.6-20c-0.1-2-0.2-4-0.3-6c-0.5-6.2-0.1-12.5-0.2-18.7c0-1.8,0.2-3.6-0.6-5.3c-0.1-2.7-0.1-5.3-0.2-8
		c-0.4-6.2-0.1-12.5-0.2-18.7c0-1.8,0.3-3.6-0.7-5.3c0-0.7-0.1-1.3-0.1-2c-0.3-1.6-0.3-3.3-0.2-5c0.5-13.9-1.7-27.8-1-41.7
		c0.1-1.2-0.1-2.3-0.7-3.4c-0.1-1.3-0.1-2.7-0.2-4c-0.6-6,0.7-12.1-0.8-18c-0.1-1.7-0.2-3.3-0.2-5c-0.7-6,0.7-12.1-0.8-18
		c-0.1-3-0.2-6-0.3-9c-0.4-3.7,0.4-7.4-0.6-11.1c-0.2-5-0.3-10-0.5-14.9c-0.2-5.8-0.1-11.6,0-17.4C20.7,195.1,20.3,193.4,21.7,192z"
		/>
	<path fill="#A4218E" d="M71.3,465.4c0,3,0,5.9,0,9.5c3.3,0.5,6,1.1,8.7,1.2c77.4,3.7,154.8,1.5,232.2,1.9c1.5,0,3,0.1,4.5,0.2
		c-6.3,0.5-12.6,1.5-18.8,1.5c-58.3,0.1-116.7,0.3-175-0.2c-19.9-0.2-39.9-1.8-59.8-3.6c-7.7-0.7-15.9-2.2-21.6-8.7
		c0.2-0.8,0.7-1.4,1.4-1.8c2.4-0.9,4.9-1.4,7.5-1.2c2.8,0.8,5.6,1.1,8.3-0.5c0.5-0.1,1-0.2,1.5-0.1
		C63.6,465.6,67.9,462.9,71.3,465.4z"/>
	<path fill="#F7AEE6" d="M411.5,114.1c0,2.3,0,4.7,0,7c-0.5,1.1-0.2,2.3-0.6,3.4c-0.3,5.2-0.6,10.5-0.9,15.7c-0.6,0.2-1,0.6-1.1,1.2
		c-2.5,1.5-5.2,2.8-7.6,4.4c-1.2,0.8-2.1,2.1-3.1,3.2c-0.7,0.6-1.4,0.5-2-0.1c-0.8-1.2-1-2.6-0.5-3.8c3.1-6.7,2.8-14,4.1-21.1
		c0.6-1.3,1.7-1.8,3-2.1c0.7-0.1,1.4-0.2,2.1-0.3c0.6-0.2,1.2-0.4,1.8-0.8c3.2-3.6,1-7.4,0.4-11.2c0.9-2.1-0.3-3.7-1.4-5.4
		c-0.4-4.7-1.7-9.5,1.6-13.8c1.6-0.6,3-0.5,4.2,0.9c0,6.6,0.1,13.2,0.1,19.8C411.1,112.1,411.1,113.1,411.5,114.1z"/>
	<path fill="#F7AEE6" d="M377.7,415.3c0.8-14.8,1.6-29.5,2.4-44.3c0.4-0.1,0.7-0.1,1.1-0.2c0.2,1.4,0.4,2.8,0.5,4.2
		c0.3,4.4,0.6,8.8,0.9,13.1c-0.2,4-0.4,8-0.5,11.9c-0.6,4.4,0,8.8-0.5,13.1c-0.4,11.6-0.8,23.2-1.4,34.8c-0.1,1.7-0.9,3.5-1.4,5.2
		c-1.8,0.9-2.6,0-2.7-1.6c-0.8-10.9-0.2-21.8-0.3-32.8c0-0.6,0.6-1.2,1-1.7C377,416.5,377.4,415.9,377.7,415.3z"/>
	<path fill="#F58ADC" d="M400.6,124c0.2,7.1-0.6,14.1-3.5,20.7c-0.6,1.3-0.3,2.9-0.4,4.4c1.9,4.6,1.4,8.9-1.5,12.9
		c-1.4,1.9-2.8,3.7-2.6,6.2c0,0.6-0.1,1.2-0.1,1.8c-0.6,1.5-1.5,3-1.7,4.6c-0.5,4.7-0.6,9.4-1.1,14.1c-0.1,1.3-1.3,2.4-2,3.6
		c-1.3-0.1-2.6-0.2-3.9-0.3c-0.6-0.7-0.6-1.5-0.3-2.3c1.9-2.2,1.7-4.8,1.9-7.5c0.5-8.6-0.3-17.4,2.8-25.8c0.3-0.4,0.7-0.8,1.2-1
		c3.5-0.5,3.8-3.2,3.8-6c0-3.8,0-7.6,2.3-11c1-1.5,0.2-2.8-0.1-4.3C394.3,129.3,396.9,124.6,400.6,124z"/>
	<path fill="#FBD1EE" d="M1,68c0.5-1.6,1.3-3.1,1.5-4.7c0.3-1.8,0.1-3.7,0.5-5.6c5.2,16.6-1,33,0.5,50.3c-1.9-1.1-2.6-1.5-3.3-1.9
		C0.5,93.4,0.8,80.7,1,68z"/>
	<path fill="#FBD1EE" d="M406.5,44.2c0-6.2,0-6.2-11.1-10.2c2.5-0.6,4-1,5.6-1.4c0.3-2.7,0.5-5.4,0.8-8c5.2,4.3,8.8,9.6,8.8,16.6
		c0,3.3-0.2,6.6-0.3,9.8c-0.5,0.7-1.1,0.8-1.9,0.8c-2.1-0.7-3-2.3-3.4-4.4C404.9,46,405.6,45,406.5,44.2z"/>
	<path fill="#CEA5C3" d="M376.7,417.1c0.1,11.5,0.3,23.1,0.5,34.6c0,0.5,1,1,1.5,1.5c-1.2,6.2-4.9,10.8-9.8,14.5c1-2.7,1.2-6.2,3-8
		c3-3.1,2.8-6.5,2.7-10.1c-0.2-9.9-0.5-19.8-0.5-29.6C374.2,419,375.8,418,376.7,417.1z"/>
	<path fill="#FBD1EE" d="M12.8,139c0,1.5-0.1,2.9-0.1,4.4c-2.1,1.1-3.7-0.6-5.5-0.9c-4.3-1.2-6.3-4.1-6.2-8.4
		c0.1-3.3,0.2-6.6,0.3-9.9c0.5-0.5,0.9-0.6,1.4,0c0.7,2.7,1.4,5.4,2.1,8.1c2,1.9,3.4-0.2,5.1-0.8c0.9-0.3,1.8-0.2,2.6,0.2
		c1.1,1.1,1,2.6,1.4,3.9C14,136.9,13.7,138,12.8,139z"/>
	<path fill="#CEA5C3" d="M23.9,294.1c0.6,1.1,1.6,2.1,1.6,3.2c0.5,14.5,0.8,29.1,1.1,43.6c0,1.1-0.5,2.1-0.8,3.2
		C25.2,327.4,24.6,310.7,23.9,294.1z"/>
	<path fill="#CEA5C3" d="M29.1,438.1c0.8,0.2,1.6,0.3,2.4,0.5c0,1.1,0,2.2,0.1,3.2c-0.9,1.3,0,3-0.9,4.3c1,0.4,2,0.7,3,1.1
		c0.8,0.5,1.5,1.1,1.9,2.1c1.1,4.6,2.4,9.1,4.4,13.4c0.2,0.6,0.3,1.2,0.3,1.9c0,0.4-0.2,0.8-0.4,1.2
		C30.9,458.7,28.8,448.9,29.1,438.1z"/>
	<path fill="#CEA5C3" d="M324.7,6.2c-8.7-0.1-17.4,0.2-26.1-0.4c-4.4-0.3-8.6-2-13-3.1C298.6,3.9,311.6,5,324.7,6.2z"/>
	<path fill="#CEA5C3" d="M21.7,192c0,5.8,0,11.6-0.1,17.3c0,1.6-0.5,3.1-0.8,4.7c-0.7-11.3-1.3-22.7-2-34
		C19.7,184,20.7,188,21.7,192z"/>
	<path fill="#CEA5C3" d="M399.9,23.3c-1.5,0.3-3.3,1.3-4.5,0.8c-6.4-2.6-12.7-5.5-19.1-8.4c-0.4-0.2-0.5-0.8-0.8-1.2
		C383.7,17.4,391.8,20.3,399.9,23.3z"/>
	<path fill="#F7AEE6" d="M411.3,68.1c0,4.7,0.1,9.3,0.1,14c-1.4,1.3-2.8,1.1-4.2,0c-1.9-4.5-1.9-9.1-0.1-13.6
		C408.4,67.1,409.8,66.8,411.3,68.1z"/>
	<path fill="#CEA5C3" d="M13.1,146c0.3,0,0.6,0.1,0.9,0.3c0.1,0.6,0,1.3,0.6,1.7c-0.1,5.6-0.4,10.9,3.8,15.8
		c1.6,1.8,0.3,6.1,0.3,9.3c-0.6-4.7-1.6-8.8-4.4-13.1C12.2,156.5,13.4,150.8,13.1,146z"/>
	<path fill="#CEA5C3" d="M392.6,168.2c0.1-1.8-0.5-4.2,0.4-5.3c3.4-4.1,3.5-8.9,3.7-13.7c0.5-0.1,1-0.1,1.5-0.2
		c0.2,6.1,1.6,12.6-4.8,16.9C392.8,166.2,392.8,167.4,392.6,168.2z"/>
	<path fill="#CEA5C3" d="M27.1,378.1c0.4,0.3,1.1,0.6,1.1,0.8c-0.1,7.7-0.2,15.5-0.3,23.2C27.6,394.1,27.3,386.1,27.1,378.1z"/>
	<path fill="#CEA5C3" d="M26,346.1c0.5,0.4,1.4,0.8,1.3,1.2c-0.1,7.6-0.3,15.2-0.4,22.8C26.6,362.1,26.3,354.1,26,346.1z"/>
	<path fill="#A4218E" d="M365.7,467.1c0.1,0.4,0.3,0.8,0.4,1.2c0.3,0.3,0.6,0.7,0.6,1.1c-4.7,1.6-9.4,3.1-14.1,4.7
		c1-0.6,1.9-1.4,3-1.9c1.6-0.8,3.3-1.6,5.2-2.5c-1.1-1.2-1.6-1.9-2.1-2.5c0.5-0.8,1.3-1.2,2.1-1.3
		C362.7,465.5,364.3,465.9,365.7,467.1z"/>
	<path fill="#FBD1EE" d="M407.6,82c1.3,0,2.5,0,3.8,0c0,3.1,0,6.2,0,9.2c-1.5-0.1-2.9-0.2-4.4-0.3C404.2,86.9,404.3,84.9,407.6,82z"
		/>
	<path fill="#FBD1EE" d="M411.3,68.1c-1.2,0-2.4,0-3.6,0.1c-0.2-0.2-0.4-0.4-0.6-0.6c-1.4-3.8-1.4-7.5,0.8-11.1
		c2.3-1.7,2.6,0.5,3.4,1.7C411.2,61.5,411.2,64.8,411.3,68.1z"/>
	<path fill="#CEA5C3" d="M28.2,408.1c0.5,1,1.3,1.9,1.3,2.9c-0.1,5.7-0.4,11.4-0.7,17.2C28.6,421.4,28.4,414.8,28.2,408.1z"/>
	<path fill="#CEA5C3" d="M23,272.1c0.5,0.7,1.5,1.5,1.5,2.2c-0.1,5.3-0.5,10.6-0.7,15.9C23.5,284.1,23.3,278.1,23,272.1z"/>
	<path fill="#CEA5C3" d="M22,249c0.5,0.7,1.5,1.5,1.5,2.2c-0.1,5.3-0.4,10.6-0.7,15.9C22.5,261.1,22.3,255.1,22,249z"/>
	<path fill="#CEA5C3" d="M363.9,12c-7-0.7-14-1.5-21-2.3c-0.4-0.1-0.8-0.9-1.2-1.4C349.1,9.5,356.5,10.7,363.9,12z"/>
	<path fill="#CEA5C3" d="M29.7,16.5c-4.5,1.8-8.9,3.6-13.4,5.4C20.8,20.1,25.3,18.3,29.7,16.5z"/>
	<path fill="#CEA5C3" d="M381.5,413.2c0.2-4.4,0.3-8.8,0.5-13.1C381.8,404.4,381.7,408.8,381.5,413.2z"/>
	<path fill="#CEA5C3" d="M21.2,229c0.2,3.7,0.4,7.4,0.6,11.1C21.6,236.4,21.4,232.7,21.2,229z"/>
	<path fill="#CEA5C3" d="M2.6,124c-0.5,0-0.9,0-1.4,0c-0.4-3.4-0.8-6.7-1.2-10.1C0.9,117.3,1.8,120.7,2.6,124z"/>
	<path fill="#CEA5C3" d="M411.2,58.2c-0.8-0.7-1.6-1.5-2.4-2.2c-1.5-1.6-1.5-3.2,0-4.8c0.5-0.1,1-0.2,1.4-0.2
		C410.5,53.4,410.9,55.8,411.2,58.2z"/>
	<path fill="#CEA5C3" d="M276.7,2.2c-1.7-0.1-3.4-0.1-5-0.2C273.3,2.1,275,2.1,276.7,2.2z"/>
	<path fill="#CEA5C3" d="M7.1,142.5c1.8,0.3,3.7,0.6,5.5,0.9c0,0.5,0.1,1,0.1,1.6C10.9,144.1,9,143.3,7.1,142.5z"/>
	<path fill="#CEA5C3" d="M371.5,13.4c-1.6-0.3-3.2-0.7-4.7-1C368.3,12.8,369.9,13.1,371.5,13.4z"/>
	<path fill="#CEA5C3" d="M36.6,14.5c-1.5,0.4-3,0.9-4.5,1.3C33.7,15.4,35.2,14.9,36.6,14.5z"/>
	<path fill="#CEA5C3" d="M338.9,7.9c-2.1-0.3-4.1-0.6-6.2-0.9C334.8,7.4,336.8,7.7,338.9,7.9z"/>
	<path fill="#CEA5C3" d="M254.8,2c-0.9-0.1-1.9-0.1-2.8-0.2C252.9,1.9,253.9,1.9,254.8,2z"/>
	<path fill="#CEA5C3" d="M332.7,7.1c-1.3-0.1-2.5-0.3-3.8-0.4C330.1,6.8,331.4,6.9,332.7,7.1z"/>
	<path fill="#CEA5C3" d="M411.5,114.1c0-1,0-2,0-3C411.5,112.1,411.5,113.1,411.5,114.1z"/>
	<path fill="#CEA5C3" d="M410.9,124.4c0.2-1.1,0.4-2.3,0.6-3.4C411.3,122.2,411.1,123.3,410.9,124.4z"/>
	<path fill="#CEA5C3" d="M42,466.2c-0.2,0.3-0.3,0.7-0.5,1c-0.5-0.4-1.1-0.9-1.6-1.3c0,0,0,0.1,0,0.1
		C40.7,465.4,41.4,465.5,42,466.2z"/>
	<path fill="#F26AD1" d="M366.8,469.4c-0.2-0.4-0.4-0.7-0.6-1.1c0.5,0,1.1-0.1,1.6-0.1C367.5,468.6,367.1,469,366.8,469.4z"/>
	<path fill="#CEA5C3" d="M41.7,13.2c-0.5,0.2-1.1,0.3-1.6,0.5C40.6,13.6,41.2,13.4,41.7,13.2z"/>
	<path fill="#CEA5C3" d="M408.8,141.4c0.4-0.4,0.8-0.8,1.1-1.2C409.6,140.6,409.2,141,408.8,141.4z"/>
	<path fill="#F011C0" d="M93.7,446.2c-2.5-1-5-0.4-5.5,2.1c-0.3,1.4,1.6,3.3,2.5,4.9c-0.8-0.1-2.3-0.2-4.3-0.3
		c-0.4-6.7-4.2-9.1-10.2-8.7c-1.2,0.1-2.4-1.3-3.6-1.3c-1.3,0-2.5,0.9-3.8,1.4c-0.1,0.2-0.3,0.5-0.4,0.7c-5.4,4-10.7,2.2-12-4.2
		c-0.3-1.3-1-2.4-1.4-3.7c-0.3-1.1-0.2-2.3,0.2-3.4c1.5-2.3,1.5-4.3-0.7-6.2c-1.4-1.2-2-2.7-1.3-4.5c0.8-2.1,2.7-2.2,4.6-2.2
		c6.5-0.1,13,0,19.4-0.1c12.7,0,25.5,0,38.2,0c0.5-0.1,1.2,0.1,1.5-0.6c-0.4-0.7-1.2-1.1-1.7-1.6c-28.3-23.8-44.8-54.5-51.3-90.4
		c-2.8-15.1-3.4-30.7,0.1-46c2.4-4.8,2-10.2,4-15.1c2.4-6.2,4.2-12.7,5.5-19.3c0.1-0.5,0.3-1,0.5-1.4c1.7-3.2,3.7-6.4,4.7-9.9
		c0.1-0.4,0.3-0.8,0.4-1.2c0.5-0.9,1.2-1.7,1.6-2.7c0.2-0.4,0.3-0.7,0.5-1.1c0.3-0.8,0.4-1.6,0.7-2.4c0.1-0.4,0.3-0.8,0.5-1.2
		c0.6-0.9,1-1.9,1.3-2.9c5-9.5,11.7-17.7,18.8-25.6c1.1-1.2,2.5-2.3,4.4-1.4c1.3,2.5,2.2,5.1,2,8c-0.2,1.8-2.2,2.8-2.1,4.8
		c0.4,0.9,1,2,0.6,2.9c-2.6,5.1,1.2,8.7,2.9,12.8c1,2.3,3.1,2.1,5,2.5c6.2,1.4,7.1,4.4,2.8,9.3c-4.3,1.6-8.9,0.1-13.2,1.3
		c-0.3,0.8-0.7,49-0.3,50.2c2.4,1,5,1,7.7-0.2c1.3-4.6,0.7-9.2,0.3-13.8c-0.7-7,1.1-9,8.2-9.2c4.6-0.2,9.3,0.3,14-0.3
		c0.5-0.1,0.9-0.3,1.4-0.8c0.9-1.4,0.9-2.9-0.2-4.5c-2.2-1.3-4.5-0.3-6.8-0.1c-2.7,0.2-5.3,0.3-8,0.2c-8.1-0.2-11.9-6.9-8.1-14.2
		c1.1-2.2,3-3,5.3-3.2c3.5-0.3,7,0,10.4,0.4c3.4,0.5,6.9,0.8,10-0.2c1.1-2.6,0.1-4.8,0.6-6.9c0.5-3,2.4-4.5,5.2-5.3
		c4.4-1.3,13.6-1.7,18.7-0.6c1.3,0.3,2.7,0,4,0c2.8,0,4.9,0.9,5.1,4.1c-0.3,1.6-1.5,2.3-2.9,2.3c-4-0.1-5.3,2.5-6.6,5.6
		c-5.7,14-11.4,28.1-16.5,42.3c-0.5,1.4-1.2,2.8-0.8,4.3c6.1,2.2,8.1,1.5,10.2-4.4c1.7-4.6,4.5-6.7,9.4-6.5c1.8,0.1,3.7,0.2,5.5,0
		c6.7-0.7,11.6,1,13.6,8.3c1.3,4.7,5.4,3.9,9,3.3c1.3-2.1,0.1-3.7-0.5-5.3c-5.2-13.7-10.4-27.4-15.6-41c-0.9-2.3-2-4.6-1.5-7.2
		c1-2.5,2.6-2.2,4.2-0.7c1.8,1.6,3.8,2.7,6.2,2.2c-2.8,0-4.6-1.1-3.7-4.4c1.4-5.1,5.2-8.9,7-14c5.8,2.6,11.5,4.3,14,10.3
		c2.1-0.5,2.8-2.9,6.2-2c0.8,0.3,1.4,3.1,4,3.1c3.2,0.9,6-1.6,8.9-1c1.6-1.6,1.2-4.2,3.3-5.1c0.9-0.4,1.9-0.9,2.9-0.6
		c3.4,1.1,6.4,0.7,8.7-1.5c0.8,0,1.3,0.1,1.3,0.3c1.2,5.2,4.7,7.1,9.8,7.8c3.2,0.4,4.3,2.8,2.2,5.8c-3.4,1.8-7.2,0.9-10.8,1.1
		c-4.8,0.3-9.6-0.7-14.9,1c0.7,16.8,0.9,33.7-0.1,50.3c3.1,1.5,5.6,1.4,8.4,0.3c1.3-3.2,0.7-6.5,0.4-9.7c-0.4-3.3-0.4-6.4,3.5-7.8
		c4.2-1.5,9-0.2,11.1,3.2c1.8,3,3.1,6.3,4.5,9.5c2.6,6,4.2,6.6,11,4.9c1-2.8-1.7-4.9-1.4-7.6c3.6-3.1,5-2.7,9.2,3
		c-0.5-4.1-1.5-8,2.6-10.6c4.4-1,8.4,1.1,12.5,2c2.4,1.5,2.3,3.8,2,6.2c-0.3,2.6-0.6,5.3,0.5,7.9c2.8,1.2,5.3,0,7.8-0.3
		c2-2.6,1.3-5.3,1.3-7.9c0-4,1.1-7.5,3.6-10.7c3.2-4.1,6.2-8.3,9.5-12.3c5.1-6.3,4.2-13.3,3.6-20.3c-3-1.6-5.6-0.6-8.1-0.8
		c-2,2.6-1.3,5.4-1.1,7.9c0.4,8.3-5,13.5-10.3,18.5c-2.2,2.1-4.4,0.2-6-1.7c-5-5.9-10.3-11.6-8.2-20.4c0.3-1.3,0.1-2.7-0.7-3.9
		c-1.6-1.4-4.3-0.6-5.8-2.4c-0.9-4.1,2.1-4.9,4.9-5.3c3.3-0.5,6.2,0.7,8.7,3c-2.1-3.2-0.4-4.8,2.5-5.6c4-1.2,7.9-0.9,11.7,0.5
		c2.8,1,5.5,2.2,8.5,2.6c3.1,0.4,5.3-0.2,7.2-3c2.9-4.2,4.4-4.2,8.9-1c1.6,1.7,0.7,4,1.2,5.9c0.1-0.2-0.1-0.3-0.1-0.4
		c0.2-2.1,1-3.6,3.3-3.5c1.8,0,2.3,1.5,2.8,2.9c1,2.8,2.2,5.5,4.7,7.3c0.4,0.7,0.4,1.5-0.1,2.2c-0.6,2.2-1.1,4.3-1.8,6.8
		c1.1,2.5,2.4,5.3,3.9,8.6c-2.5,0.6-4.7,1.2-7.1,1.8c-0.6-1.1-1.3-2.2-2.3-4.1c-1.1,5.8-2.2,10.8-3,15.3c1.9,1.8,3.2,3,4.2,3.9
		c-3.5,2.5-6.4,4.6-10.1,7.2c0.2-1.8,0.2-3.7,0.8-5.5c0.9-2.7,2.9-5.4-0.6-7.4c-3.7-2.1-8.9,0.1-10.2,3.8c-0.4,1.1-0.6,2.2-0.8,3.4
		c-0.6,3.7-2.6,5.5-7.8,4.8c1.8,2.5,3,4.2,4.1,5.9c2.2,2.4-3.9,8.4,4.3,8.4c0.3,1.2,0.6,2.5,0.9,3.8c0.2-0.2,0.5-0.4,0.7-0.6
		c2.2,2,4.3,4.1,6.8,6.4c-2.9,1.3-7-0.2-6.2,4.6c-2.2-0.1-3.8-0.2-5.4-0.3c0.5,2.7,0.9,5.2,1.5,8.6c4.1,1.8,9.2,1.5,13.8,0.3
		c5.7-1.5,5.9,3.2,7.7,5.8c1.6,2.3,0.6,4.6-1.6,6.5c-2.1,1.8-3.7,4.1-5.3,5.9c2.8,3.2,5.3,6.1,8.4,9.5c-6.6,2.1-7.8-6.7-14.1-4.1
		c2,1.4,3.4,2.3,4.8,3.2c2.3,12.7,0,18-11.3,24.9c-1.4-2.2-2.9-4.5-4.4-6.9c-1.4,0.6-2.5,1.2-3.7,1.7c-1.2-1.2-1.1-2.8-0.6-4.2
		c1.5-4.2,1.7-8.7,2.5-13c0.3-1.3,1.8-1.5,2.5-2.6c-0.7-0.2-1.3,0.3-1.9,0.1c-1.5-0.6-1.6-2-1.7-3.4c0-1.1-0.2-2-1-2.8
		c-4.7-7.7-12-12.1-20-15.6c-1.6-0.7-3.3-0.5-4.8-1c-1.8-0.6-2.1-2.5-3.1-3.7c-1-0.6-1.9-1.5-4.2-0.3c2.4-0.3,4-0.5,4.8,1.2
		c0.6,1.4,0.5,2.6-0.6,3.7c-3.8,2-8.1,2.2-12.2,2c-41.3-1.6-82.5-0.5-123.8-0.7c-8.1-0.1-15.6,1.8-22.2,7.2
		c-10.7,8.8-13,34,7.9,42.5c1.9,0.8,3.9,0.6,5.9,0.8c2,0.2,4.1,0,5.4,1.9c-1.2,0.9-2.2,2.3-3.6,2.7c-2.1,0.7-4.4,0.8-5.9,1
		c-3.4,8.4,6.1,9.8,7.1,16.1c2.2,0,4.3,0,6.4,0c-1,2.1-1.9,4.2-2.9,6.5c1.8,0.2,4.1,0.4,6.4,0.6c0,0.3,0,0.6,0,0.9
		c-3.3,1-6.7,2-10.2,3c0.6,1.6,0.9,2.4,0.9,2.3c-2.6,1.5-4.8,2.9-7.1,4.2c0.1,0.6,0.2,1.3,0.3,1.9c2.9,0.5,5.8,1,9.1,1.5
		c0,0.8,0.1,2.2,0.3,4.7c2.9-1.8,5.3-3.3,7.8-4.8c0.1-0.6,0.1-1.1,0.2-1.7c3.2,1.5,6.5,3,9.7,4.6c-0.1,0.7-0.2,1.4-0.3,2.1
		c-3.4,0.5-6.9,0.9-10.2,1.5c-0.7,0.1-1.3,1.2-1.9,1.8c-2,1.1-4,2.3-6.4,0.8c-0.4-0.5-0.8-0.3-1.2,0.1c-1.1,1-2.3,0.9-3.6,0.3
		c-0.5,0.7,0.7,1.2,0.1,1.8c-4.8,2-9.4,4.4-14.3,5.9c-4.3,1.3-9,1.2-13.4,2.2c-2.2,0.5-4.2,1.8-6.2,3c-2.4,0.6-4.8,1.3-7.7,2.1
		C92.4,443.7,93,444.9,93.7,446.2L93.7,446.2z"/>
	<path fill="#A4218E" d="M338.8,241.9c0-0.6-0.1-1.2-0.1-1.8c-4.5-5.5-6.4-12.6-11.2-17.9c-7.6-11.3-15.8-22.2-26.4-31
		c-0.5-0.4-1-0.9-1.4-1.4c-1.2-1.4-2.7-2.8-1.9-4.8c0.7-2,2.7-2.4,4.6-2.4c5.5-0.1,10.9-0.5,16.4,0.4c5,1.2,10.1,1.7,15.3,1.5
		c10.3-0.3,20.4,1.8,30.6,2.5c3.3,2.3,7,1.3,10.6,1.6c2.4,0.2,5.3-0.3,5.7,3.3c-0.7,16.4-1.3,32.8-2.1,49.2c-0.9,18.9-2,37.7-3,56.6
		c-1,19-1.9,38.1-3,57.1c-0.4,6.4-1.5,12.9-1.6,19.3c-0.3,14.3-0.1,28.6-0.1,43.7c-2.5,0.4-5.3,0.8-8.2,1.3c-1,0.9-2,0.8-3.1,0.2
		c-0.7,0-1.5,0.1-2.2,0.1c-0.3,0.1-0.5,0.4-0.7,0.7c-13.4,0.7-26.7,1.4-40.1,2.1c-4.3,2.7-8.7,2.6-13,0c-2.2-0.2-4.4-0.4-6.6-0.7
		c-0.1-0.4-0.2-0.8-0.4-1.3c3.4-3.2,7.1-6.1,10.1-9.6c7.1-8.2,14.2-16.4,20.5-25.2c4.4-6.2,8-13.1,11.1-20
		c6-13.1,10.3-26.7,12.6-41.2c2.9-18.2,1.3-35.8-2.3-53.4c-1.7-8.4-4.3-16.6-6.8-24.8C341.5,244.5,339.9,243.3,338.8,241.9z"/>
	<path fill="#A4218E" d="M137.7,376.3c-8.5,1.1-16.2-1.3-21.7-7.5c-3.5-4-6-9.6-7-14.9c-2.2-11.9,3.2-22.4,14.1-28.1
		c4.2-2.2,9.4-3.5,14.1-3.6c36.5-0.3,73-0.1,109.4-0.2c10,0,20-0.1,30.1-0.1c0.8-0.8,1.7-1.6,3-0.9c7.2-0.6,12.6,3.6,17.9,7.4
		c3.3,2.4,5.4,6.4,8.1,9.6c0.6,0.5,1,1.2,1,2c0.3,1.3,0.7,2.7,1,4c0.7,0.6,0.6,1.3,0.2,2c-1,6-2.1,12-3.1,18
		c-4.5,4.3-8.2,9.6-14.9,10.8c-2.2,0.4-4.4,1.2-6.7,1.2c-45.7,0.1-91.3,0.1-137,0.1C143.3,376.2,140.5,376.3,137.7,376.3z"/>
	<path fill="#F011C0" d="M93.7,446.2c1.3-0.8,2.7-1.7,5.1-3.2c7,0.6,15.5,1,21.6-7.7c1.7,2.3,2.8,3.8,4.1,5.6
		c4.3,1.3,8.8,2.6,13,3.8c-1-4-1.9-6.9-2.2-9.8c0-0.6,2.7-1.4,4.3-2.1c0.8,4.4,1.5,8,2.1,11.1c4.1-1.7,7.1-2.7,9.9-4.2
		c1.9-1,3.3-2.9,4.6-5.4c3.7,0.3,7.4,0.6,11.7,1c0,1.9,0,3.9,0,6.7c1.5,0.3,3.1,0.5,4.7,0.8c1.3,0.3,2.5,0.8,3.8,1.2
		c-0.6,1.2-1,2.7-2,3.6c-1.3,1.3-3.1,2.2-5.1,3.7c-0.1-1.4-0.2-2.9-0.3-4.8c-0.6,0-1.6-0.2-1.8,0.1c-3,4.2-7.3,3.7-11.6,3.6
		c-5.7-0.1-11.5,0-17.2,0.2c-0.9,0-1.8,1.2-2.7,1.8c-1.6,1.5-3.3,1.1-4.9,0c-2.4-0.5-4.8-1.3-7.2-1.4c-8.8-0.4-17.7-0.4-26.5-0.9
		C95.8,449.8,94.8,447.5,93.7,446.2C93.7,446.2,93.7,446.2,93.7,446.2z"/>
	<path fill="#F011C0" d="M303.7,422.2c4.3,0,8.7,0,13,0c-1,2.4-1.9,4.8-3.3,8.3c-3.4-2.1-6.6-4-11.1-6.7c-0.2,5.6-0.6,10.2-0.3,14.9
		c0.1,1,2.9,2.4,4.5,2.4c7.3-0.1,14.6,3.2,22,0.2c1-0.4,2.5,0.6,4.2,1.7c-10.9,0.7-8.5,12.4-16.1,16.4c2.3,1.9,3.9,3.2,5.5,4.6
		c-4.2,3.5-10.6,2.8-15.5-2c2-2.9,4-5.8,6.7-9.6c0.1,0,1.3-0.3,2.1-0.5c0-2.5,0-4.7,0-8.3c-3.1,1.4-5.6,2.5-8.9,4.1
		c-5.4-1-12.2,3.7-18.8-2c3.8-0.7,7.6-1.4,12.8-2.4c-2.1-1-3.1-1.8-4.2-1.9c-2.3-0.2-4.7-0.2-7-0.1c-3.9,0.3-5-1.7-4.7-5.2
		c0.3-3.1,0.6-6.1,1-9.6c1.9,0,4.2,0,6.5,0c0.2-3.3-6.3-4.4-1.8-7.5c0.9-0.6,4.3,2.4,6.5,3.8c-0.1,0.6-0.2,1.2-0.3,1.9
		C299,423.7,301.3,423,303.7,422.2z"/>
	<path fill="#F132CA" d="M359.7,419.4c1-0.1,2-0.1,3.1-0.2c1,2,2,4,2.9,6c-2.1,2.8,0,5.4,0.3,7.3c-0.1,2.5-2.5,2.3-2.7,4.3
		c0.1,3.1,2.2,5.9,2.4,8.8c1.3,1.5,2.9,0.8,4,1.6c0.8,3.7,1.3,7.5-1,10.9c-3,3.3-7.2,3.5-11.7,3.9c1.2,2,5.2,1.7,3.9,5
		c-0.7,0.1-1.4,0.1-2.1,0.2c-5.9-0.9-11.8-1.7-17.8-2.6c-0.2-0.7-0.3-1.4-0.5-2.1c4.5-2.5,8.9-4.9,14.2-7.8
		c-2.7-1.2-4.3-1.9-5.9-2.6c0-0.3,0.1-0.6,0.1-0.9c2.1-0.1,4.2-0.3,8-0.5c-2.8-2.8-4.4-5.3-6.6-6.3c-2-0.9-4.8,0-8.3,0.2
		c2.7-2.1,4.4-3.4,6.4-5c-1.5-0.5-2.6-0.8-4.3-1.3c1.2-0.9,2-1.4,3-2.1c-0.6-1.1-1.3-2.2-1.9-3.3c0.3-0.2,0.5-0.5,0.8-0.7
		c1.6,1.3,3.2,2.6,4.5,3.6c1.3-3.8,2.6-7.4,4-11.2c1.5-0.3,3.1-0.6,5.1-0.9C359.5,422.2,359.6,420.8,359.7,419.4z"/>
	<path fill="#F132CA" d="M71.3,465.4c-3.9,0-8.1,2.9-11.7-1.1c-1.2-1.5-2.8-2.5-4.7-2.3c-3.2,0.3-5.7-1.1-8.2-2.8
		c-5.1-3.6-5.5-4.9-2.3-10.4c3.1-0.9,6.2-0.2,9.3,0.4c6,1,11.2,0.5,14.9-5.1l0,0c1.3,0.4,2.5,0.7,4.3,1.2c-1.8,2-2.9,3.2-4.4,4.9
		c1.7,0.5,2.8,0.9,3.4,1.1c-3.7,1.1-7.9,2.4-13,3.9c6,3.3,10.7,5.9,16.1,8.9C73.3,464.8,72.3,465.1,71.3,465.4z"/>
	<path fill="#F132CA" d="M217.8,452.9c-5.9,3.1-57.9,3.2-62.2,0C176.4,452.9,196.7,452.9,217.8,452.9z"/>
	<path fill="#F011C0" d="M283.9,445.8c-15.5,0-30.9,0-46.4,0c0-0.3,0-0.7,0-1c15.5,0,31,0,46.4,0
		C283.9,445.1,283.9,445.5,283.9,445.8z"/>
	<path fill="#F132CA" d="M238.1,452.9c15.5,0,31,0,46.5,0c0,0.5,0,1,0,1.5c-15.5,0-31,0-46.6,0C238,453.9,238,453.4,238.1,452.9z"/>
	<path fill="#F132CA" d="M130.7,452.2c1.6,0,3.3,0,4.9,0c5.8,0,11.5,0,17.3,0c0.1,0.5,0.2,1,0.3,1.4c-2.8,0.8-5.5,1.6-7.4,2.1
		c-3.2-0.5-5.8-0.4-8.1-1.3C135.4,453.5,131.6,457.3,130.7,452.2z"/>
	<path fill="#F314CB" d="M132.7,428.2c-0.7-1.6-5.6,1.1-3.6-3c2.3,0,4.5,0,6.6,0c0.7-0.6,1.3-0.6,2,0c2,0,4,0,6,0
		c1.1,0.2,2.3,0.4,3.4,0.6c0,0.5,0,1,0,1.6C142.3,427.6,137.5,427.9,132.7,428.2z"/>
	<path fill="#F132CA" d="M243.3,462.5c-5.2,3.6-7.5,3.3-11.9-1.4C235.7,459.2,238.9,461,243.3,462.5z"/>
	<path fill="#F132CA" d="M246.1,436.1c-3.2,0.5-6.4,0.9-9.6,1.4c-0.1-0.7-0.2-1.4-0.3-2.1c3.2-0.5,6.4-0.9,9.6-1.4
		C245.9,434.7,246,435.4,246.1,436.1z"/>
	<path fill="#F011C0" d="M143.2,392.6c0.5,1.2,1.1,2.4,1.6,3.5c-0.5,0.3-1.1,0.5-1.6,0.8c-0.6-1.2-1.2-2.4-1.7-3.5
		C142,393.1,142.6,392.8,143.2,392.6z"/>
	<path fill="#F011C0" d="M149.3,396.7c-0.1-0.4-0.4-0.8-0.4-1.2c0-0.2,0.3-0.5,0.8-1.3c0.3,1.1,0.5,1.7,0.6,2.4
		C150,396.6,149.7,396.6,149.3,396.7z"/>
	<path fill="#F132CA" d="M356.8,420.1c0.2-0.2,0.5-0.4,0.7-0.7C357.4,419.8,357.1,420,356.8,420.1z"/>
	<path fill="#F26AD1" d="M407.6,82c-0.2,3-0.4,6-0.6,9c0,4.7,0,9.5,0,14.2c1,1.1,0.6,2.4,0.2,3.6c-2.3,8-2.7,8.2-12.7,5.5
		c9.3,2.6,10.5,3.8,9.3,8.8c-1,0.3-2.1,0.6-3.1,0.9c-3.7,2.6-4.1,6.4-3.7,10.5c0.1,1.1,0.8,2.6,0.3,3.3c-3.2,4.4-2.3,9.4-2.6,14.3
		c-0.1,1.6-0.9,3.1-1.4,5c-1.4-0.4-2.5-0.8-3.5-1.1c-2.9-5.4-1-11.1-1.2-16.6c0.4-2.1,2.9-2.4,3.8-3.8c-0.4-2.3-2.1-2.1-3.4-2.7
		c-6.9-0.9-13.6-3.2-20.6-3.4c-5.6,0.3-11.2,0.5-16.8-1.3c-4.9-1.6-9.9,0.2-14.8,0.4c-2.6-2.6-5.9-3.1-9.5-3
		c-5.6,0.1-11.2,0.2-16.8-0.1c-2.1-0.1-4.9,0.2-5.2-3.2c1.8-2.8,4.6-2.1,7.1-1.6c1.9,0.4,3.6,0.9,4.5,0.5c-0.5,0.4-2,0.3-3.5-0.5
		c-1.7-3.2-0.7-6.2,0.9-9.1c1.1-1.1,2.5-1.2,4-1.4c9.9-2.5,19.7,0.3,29.5,1.2c1.6,0.1,3.3,0.5,4.9,0.6c6.4,0.4,11.7,2.1,11,9.5
		c1.7,1.6,3.3,1.6,4.7,2c3.8,1.8,7.8,2,11.8,1.9c1.5-2.7,0.3-3.8-2-4.4c-3.2-0.8-6.5-0.9-9.6-2c-0.5-0.1-1-0.3-1.4-0.5
		c-1-0.7-2.6-0.8-2.6-2.6c2.7-3,5.9-1.5,8.9-1.1c6.6,2,13.8,1.4,20.3,3.9c-2.7-1.6-5.7-2.1-8.7-2.9c-0.9-0.2-1.7-0.6-2.7-0.7
		c-0.7-0.1-1.4-0.3-2-0.5c-3-1.4-6.7-0.3-9.3-3c-1.1-1.7-2.9-2.3-4.7-2.3c-5.1-0.1-10.1-1.3-15.1-1.8c-6.3-0.6-12.7-1.8-19.1-1.3
		c-10.4-2-21-1.6-31.4-2.9c-2.7-0.3-5.2-1-7.5-2.2c-7.3-1.9-14.8-2.8-22.3-3.6c-4.7-0.5-5.8-1.1-8.1-5.7c6.3-2.3,12.8-1.9,19.1-2.5
		c5.3,0.1,10.6-0.4,15.2,0.4c-3.1-1.2-7.3,0.5-10.9-1.5c-1-0.9-1.9-1.9-1.5-3.5c1.8-1.9,4.3-1.8,6.5-1.7c22.8,1.1,45.5,2.5,67.9,7
		c9.6,1.9,19.4,2.7,29.1,4.5c3,0.5,5.9,1.2,8.7,2.1c-7.6-3-15.9-3.1-23.7-5.2c-5.1-1.4-10.1-3.5-15.1-4.8c-5-1.3-10.4-1.6-15.3-3.8
		c-16.7,6.2-33.2-0.5-49.7-1c-6.1-0.2-12.3-0.2-18.5-0.5c-4.1-0.5-8.3,0-12.4-0.3c-0.5,0-1-0.1-1.6-0.2c-1.6-0.6-3.4-0.8-5.1-1.1
		c-1.2-0.4-2.4-0.6-3.7-0.9c-0.8-0.3-1.4-0.7-1.6-1.6c3.2-4.4,8-4.4,12.7-4.9c2.9-0.3,5.9,0.5,8.5-1.5c3.3-0.7,6.7-1.2,10.1-0.6
		c6.3,0.4,12.6,0.7,18.9,0.5c4.7-0.4,9.4-0.7,14-1.1c0.6-0.5,1.2-1,2-1.3c0.8-0.2,1.6-0.3,2.4-0.2c7.1-1.2,12.8,1.8,18,6.1
		c3.4,0.9,6.9,0.5,10.3,0c2.2-0.3,4.2,0.4,6.3,0.8c0.8-0.1,1.6-0.1,2.5,0.1c7,1.5,14.3,1.2,21.3,3c3.7,0.6,4.9-1.5,5.7-4.7
		c2-9,2.1-9,11.2-9.6c2.6-0.2,5.2-1.1,7.9-0.6c2.9,0.2,3.9,2.5,5.3,4.4l0,0C407.6,72.8,407.6,77.4,407.6,82z"/>
	<path fill="#F58ADC" d="M274.7,80.1c12.4,0.9,24.7,1.9,37.1,2.8c8.1,0.5,16.2,0.8,24.3,1.2c0.8,0,2.1,0.1,2.4-0.3
		c2.7-4.3,6.3-2.3,9-1.7c1.7,1.8,3,3.1,4.3,4.5c0.3-0.3,0.6-0.6,0.9-0.8c-0.1-0.8-0.1-1.5-0.3-3c2.3,0.6,4.4,0.9,6.3,1.7
		c4.1,1.7,8,4.3,12.3,5.4c6.2,1.6,12.6,2,18.9,3.4c4.2,0.9,8.3,2.5,12.5,3.8c-0.1,0.6-0.2,1.2-0.3,1.8c-1.9,0-3.9,0.3-5.8,0
		c-11.2-1.8-22.4-3.8-33.7-5.7c-8-1.4-15.9-3.1-23.9-4.1c-9.5-1.2-19.1-2.1-28.6-2.8c-8.1-0.6-16.1-1-24.6-1.4
		c0.5,1.6,0.9,2.5,1.2,3.4c-1.3,1.7-3.3,1.7-5,1.4c-7.8-1.6-15.6-0.8-23.4-0.8c-5.5,0-10.9-1.4-16.4-1.2c-1.5,0-3-0.3-3.4-2.2
		c7.4-1.4,14.7-0.2,21.9-0.7c-0.2-0.8-1.7,0.1-2.6,0.1c-15.4-0.1-30.9-0.1-46.3-0.1c-2.3,0-4.6,0.1-6.8,1.2
		c-14.5,1.5-29,0.6-43.5,0.8c-0.9,0-1.8-0.1-2.7-0.3c-7.5-1.5-15.2-0.5-22.7-0.6c-1.2,0-2,1-3,1.6c-3.1,1.7-6.4,1.6-9.7,1.6
		c-9,0.2-18-0.3-26.9,0.3C91,90,85.7,89,80.6,89.9c-3.9,1.3-7.8,1.3-11.8,0.7c-9.4-0.2-18.6,1.2-27.8,3c-9.1,0.9-18,2.9-26.7,5.4
		c-2.3,0.7-4.6,1-6.6-0.8c0-3.9,0-7.9,0.1-11.8c0.1-2.6,1.1-5.3,0.7-7.9C7.3,71.3,10.7,65,12,58.4c0.2-1,0.7-2.1,0.4-2.9
		c-2.9-6.4,1.8-8.2,6.1-9.2c11.9-2.7,23.9-5,36-7.2c3.7-0.7,7.5-0.8,10.5-1.2c1.5,2.5,2.6,4.3,3.6,6.1c0.6,0,1.3,0,1.9,0.1
		c1.4,3.2,4.7,6,2.4,10.1c-3.6,1.1-7.6,0.2-11.4,1.9c-1.1,1.1,1,2.6-0.4,4.6c-1.4,1.5-4.8,1.3-6.5,3.7c-3.4,1.2-6.8-2-10.8,0
		c-1.9,4.5-5,9-7,14.1c-4.8,2.6-6.5,2-8.2-2.8c-0.5-1.4-0.9-2.9-1.2-4.3c-0.3-1.4-0.4-3-1.6-4.4c-3.9-0.4-7.5,1.8-11.7,2.1
		c-2.7,7.6-2.1,15.1-1.5,22.6c3.1,0.6,5.4-0.4,7.8-1.1c6.9-1.9,13.8-3.8,21-4.3c5-0.3,9.2-2.8,13.5-4.8c1.9-0.9,3.6-1.9,5.6-0.7
		c1.4,0.9,2.1-0.1,3-0.9c1.6-1.3,3.3-1.3,5.2-0.5c1.8,2.2,4.1,3.2,6.9,3c6.6-0.3,13.1-1.1,20.8-1.6c-3.3-1.4-5.8-1.1-8-2.1
		c-1.5-1.4-4.6-1.3-4.3-4.5c0.4-0.8,1.1-1.2,2-1.2c-1.8-0.7-4.1,0.5-5.6-1.2c-0.3-0.7-0.4-1.5,0-2c2.5-2.8,2.3-5.2-0.9-7.3
		c-0.8-0.5-1.3-1.4-1.3-2.5c0.5-1,1.3-1.5,2.4-1.7c2.8,0,4.8,1.6,6.5,3.5c0.8,1.3,0.7,2.9,1.5,4.2c5.6,3.4,12,5.2,17.8,9.6
		c9.4-2.1,19.4,1.3,28.9,0.5c2.2-2.4,1.3-5.1,2.6-7.1c0.7-0.9,1.6-1.2,2.7-1.1c3,0,6,0,9,0c0.6,0.7,0.7,1.4,0.2,2.3
		c2.5-0.4,4.1,0.3,4.4,3.1c-0.1,0.5-0.3,0.9-0.7,1.3c-0.9,0.7-1.9,1.4-2.9,2.1c-0.6,0.3-1.3,0.5-2,0.6c-2.1,0.2-4.2,0.2-6.1,1.1
		c0.1,0-0.4,0.1-0.3,0c0.5,0.3,1,0.1,1.4,0.1c16.9-0.7,33.8-0.4,50.6-0.5c2.2,0,4.3,0.1,6.4,0.3c8.9-0.9,17.9,0.8,26.8,0.1
		c11.1-0.8,22.1-0.2,33.1,1.5l0,0C265.3,81,270,80.8,274.7,80.1z"/>
	<path fill="#F7AEE6" d="M407.6,68.1c-1.6-1-3.3-2-4.9-3.1c-2.1-2.2-1.6-4.9-1.2-7.4c1.2-6.4,1.1-6.6-5.3-8.4
		c-10.4-2.8-20.8-5.4-31.5-6.7c-1.1,0-2.2,0-3.3-0.3c-4.7-1.1-9.5-1.2-14.2-1.9c-4.6-1.5-9.2-0.6-13.8-0.2c2.1,1.8,5.4,0.7,7.4,3.3
		c-2.3,3.8-8.8,0.1-10.1,5.6c0.9,2.5,3.2,3.9,5.3,5.5c2.8,2.2,2.8,4.1,0,6.4c-2.7,2.2-6.3,3.3-12.1,3.9c-1.6,1,0.3,3-0.8,3.7
		c-1.6,1.6-3.3,0.5-4.6,1.3c-0.6,0-1.3,0-1.9,0c-0.6-0.5-1.5-0.1-2-0.9c-4.6-0.7-9.2-1.5-13.8-2.3c-1.2-0.2-3.4-0.5-3.5-1
		c-0.7-6.3-6.9-5.8-10.3-8.8c-0.3-0.3-0.7-0.6-1.4-1.6c7.9,0.7,13.2-3.3,18.1-9.5c-11.2-6.4-23.7-4.8-35.6-6.9
		c10.6,0.3,21.2,0.9,30.9-4.4c8.6,0.6,17.3,1.2,26.1,1.7c0.1-0.3,0.2-0.6,0.3-0.9c-1.2-0.5-2.4-0.9-3.5-1.5
		c-0.1-0.1,0.3-1.2,0.5-1.8l0.1-0.1c1.8-0.9,3.6-0.5,5.4-0.2c17.5,3.1,35.2,4.4,52.7,7.6c6.9,1.2,13.6,3.2,20.3,5.1
		c1.7,0.5,3.5,1,4.7,2.6c1,1.4,2,2.7,3,4.1c0,1.6,0,3.2,0,4.8C408.4,60,408,64.1,407.6,68.1z"/>
	<path fill="#F7AEE6" d="M86.7,62.1c-2-1-4-2-6-3.1c-4.6,1.4-6.1-2.1-7.9-5.1c-0.7-3.3-1.4-6.6-2.1-9.9c6.2-0.8,12.3-1.7,18.6-2.5
		c0-2,0-3.4,0-6.1c9.5-0.9,19-1.9,28.6-2.8c0.1,0.5,0.3,0.9,0.4,1.4c-2.1,1.4-4.3,2.9-6.4,4.3c0.1,0.5,0.2,1,0.3,1.6
		c5.2,0,10.4,0,15.5,0c1.5-0.3,1.6,0.8,1.7,1.8c-1.5,3.7-5.2,2.9-8.1,3.6c-2,0.5-4.4,0-5.6,2.9c4.5,4.9,9.4-3.7,13.7,0.7
		c1,6.2,2.1,6.8,9.1,4.9c-0.8-3.1-1.7-6.3-1.7-9.6c-0.2-1.6-2.1-2.1-2.4-4c2-1,4.1-1.1,6.2,0c-2,3.4,1.4,2.7,2.7,3.6
		c3.1,2.1,6.2,4.1,9.3,6.2c1.4,2.3,1.1,4.2-1.5,5.2c-11.8,4.3-23.7,8.1-36.1,10c-1.8,0.4-3.7,0.4-5.5,0.1c-1.8-0.4-3.6-1.1-5.5-0.4
		c-0.7,0.1-1.4,0.1-2,0c-1.7-0.4-3.3-1-4.9-1.7c-0.4-0.2-0.7-0.4-1.1-0.6c-0.9-0.6-2-0.3-3-0.3c-1.1,0.1-2.2-0.1-3.3-0.6
		c-2.2-2.7-3.9-5.8-6.9-7.7c-0.2-0.5-0.4-1.3-1.1-0.4c2.3,2.4,5.9,3.6,6.4,7.5C87.9,61.8,87.6,62.3,86.7,62.1z"/>
	<path fill="#F26AD1" d="M101.7,64.1c0.7,0,1.3,0,2,0c1.7-0.8,3.3-0.8,5,0c2,0,4,0,6,0c4.9,4.9,6.3,5.1,12.8,1.7
		c1.8-0.9,3.5-2,5.2-2.9c2.9-1.6,5.5-0.7,7.8,1.3c0,0.6,0.1,1.2,0.1,1.8c-0.5,1.1-1.5,2-2,3.1c0.1,9,0.1,9.1-8.9,8.9
		c-2.5,0-4.9-0.8-7.4-0.9c-2.1-0.1-4.3,0.5-6.4,0.4c-1.9,0-3.7-0.5-6.2-0.9c-1.1,0.4-2.8,1-4.6,1.7c0.1-0.5,0.2-0.9,0.3-1.4
		c-4.7-2.6-9.4-5.2-14.7-8.2c-0.2,0.1-1.2,0.5-3.2,1.3c-0.3-3-0.6-5.5-0.9-8c0.3-0.4,0.6-0.7,1-1.1c0.7-0.5,1.4-0.6,2,0
		c1.3,0.1,2.6,0.1,3.9,0.2c1.8,0.7,2,2.8,3.2,3.6C98.8,65.6,100.1,64.1,101.7,64.1z"/>
	<path fill="#F7AEE6" d="M153.8,74.2c-1.3-1.4-2.5-2.8-4.3-4.8c0,0.3,0.1-0.5,0.1-1.3c8.8,0,17.6,0,26.4,0c23.7,0,47.4-0.1,71.1,0.1
		c10.6,0.1,21.2,0.6,31.8,1c0.9,0,1.8,0.6,2.7,0.9c0.3,0.3,0.4,0.5,0.3,0.8c-0.1,0.3-0.2,0.4-0.3,0.4c-3.3,0.3-6.6,0.7-10,1
		c-7.7,1.2-15.4,2.3-23.1,1c-3.8-0.6-7.5-1.2-11.3-1.2C222,72,206.6,71.8,191.2,72c-2.9,0-6.1-0.2-7.8,3.1c-1.8,1.6-4,1.9-6,1.3
		c-4.6-1.3-9-0.8-13.6,0.1C160.4,77.1,156.4,78,153.8,74.2z"/>
	<path fill="#F58ADC" d="M140.5,64.2c-0.9,0-1.8,0-2.7,0.1c-1.7,0.1-3.6-0.1-5.1,0.4c-3.3,1.3-6.3,3.4-9.7,4.4
		c-6.3,1.9-6.5,1.6-8.3-5c1.2-0.3,2.5-0.7,3.7-1c3.3-0.9,6.6-1.9,9.9-2.7c3.2-0.8,6.4-1.4,9.6-2.3c2.8-0.7,5.5-1.6,8.3-2.4
		c-0.1-0.5-0.2-0.9-0.3-1.4c2-0.1,3.9-0.3,6.3-0.4c0.2-1.3,0.4-2.6,0.6-3.8c2.3,0.4,4.7,0.7,7,1.1c1.8,3.4-3,3.5-3,6
		c-4.7,1.7-9.3,3.4-14,5.3C141.8,62.6,141.2,63.5,140.5,64.2z"/>
	<path fill="#F7AEE6" d="M185.7,41c-1.7-0.3-3.5-0.9-5.2-0.9c-11.9-0.1-23.7,0-36.8,0c5.6-1,10.2-1.8,14.7-2.6
		c-0.7-0.2-1.6-0.5-2.5-0.8c0-0.3,0.1-0.7,0.1-1c12.2,0.8,24.5,1.6,36.7,2.4c0.3,0.5,0.4,1,0.1,1.5C190.7,41.6,188.5,42.7,185.7,41z
		"/>
	<path fill="#F7AEE6" d="M274.4,44.7c-9.8,5.2-19.4,10.2-28.9,15.2c-0.3-0.4-0.6-0.8-0.9-1.3c3.3-2.5,6.4-5.1,9.8-7.4
		c3.9-2.7,8-5.2,12-7.9C269,41.6,269.9,41.7,274.4,44.7z"/>
	<path fill="#F26AD1" d="M185.7,41c2.3-0.7,4.7-1.3,7-2c1.9-1,4-0.3,6-0.5c0.5,0,1,0.1,1.5,0.3c1.8,0.6,4.5-0.6,5,2.3
		c-0.8,2.5-3.3,1.5-4.5,2.8c-0.7,0.1-1.3,0.2-2,0.2c-2.9,1.1-6.1,0.7-9,1.8l0,0c-1.1,0.8-2.5,0.8-3.8,1c-2.4-0.1-4.9,0.2-6.2-2.3
		c0.1-2.1,1.9-2,3.1-2.5C183.7,41.8,184.7,41.4,185.7,41z"/>
	<path fill="#F7AEE6" d="M156.6,57c1-2,2-4,3-6c0.9-0.9,2.1-1.6,2.7-2.7c2.3-4.4,6.2-4.4,10.3-4.3c0.5,0.7,1.7,0.3,2,1.4
		c-0.3,2.1-2.8,1.2-3.8,2.6c-0.2,1.3,1.5,1.1,1.8,2c-2.3,1.3-4.5,2.7-6.9,3.7C162.8,55.1,159.7,56,156.6,57z"/>
	<path fill="#F58ADC" d="M172.7,50.1c-1.4,0.1-2.9,0.3-4.3,0.4c0.3-1.6,0.6-3.1,1-5c1.3,0.1,2.8,0.3,4.7,0.4c-0.7-0.9-1-1.4-1.4-1.9
		c3.3-0.6,6.7-1.2,10-1.8c-0.8,0.6-1.5,1.2-3,2.4c2.4,0.6,4.2,1,6,1.4c0.6,0.7,0.6,1.3-0.1,1.9C181.3,48.7,177,49.4,172.7,50.1z"/>
	<path fill="#F58ADC" d="M200.7,44c1.1-1,2.2-1.9,3.5-3.1c-1.5-0.6-3-1.2-4.5-1.8c6.1-1.1,12.2-0.4,18.3-0.3c1.4,0,3.2,0.5,3,2.6
		c-0.1,1.2-1.2,1.4-2.3,0.9c-1.7,0.3-3.3,0.6-5,0.8c-2.7,0.1-5.4,0.3-8,1C204,44,202.3,44,200.7,44z"/>
	<path fill="#F7AEE6" d="M218.7,42.2c0.5-0.3,1.1-0.6,2.8-1.5c-7.8-2.9-14.9-1.1-21.8-1.7l0,0c-0.4-0.2-0.5-0.4-0.4-0.6
		c0.1-0.2,0.2-0.3,0.4-0.3c9.1,0,18.2,0,27.9,0c-0.6,2-1,3.3-1.6,5.3C223.4,42.9,221,42.6,218.7,42.2z"/>
	<path fill="#F7AEE6" d="M124.6,33.4c5,0,9.2,0,13.5,0C134.5,37.2,128.3,37.5,124.6,33.4z"/>
	<path fill="#CEA5C3" d="M140.7,40.2c-1.6,0-3.2,0-4.8,0c0.9,1.2,1.8,2.5,2.6,3.7c-3.8,1.8-7,0.8-9.9-1.9c-0.4-0.7-0.7-1.3-1.1-2
		C132,40.1,136.4,40.1,140.7,40.2z"/>
	<path fill="#F58ADC" d="M281.7,71.1c0-0.4,0-0.8,0-1.2c2.3,0,4.6,0,7-0.1c1.4-0.5,2.7-0.5,4.1,0c2.7,0.4,5.3,0.8,8,1.2
		C294.4,71.1,288,71.1,281.7,71.1z"/>
	<path fill="#F7AEE6" d="M189.6,46c3-0.6,6-1.2,9-1.8C195.7,44.8,192.7,45.4,189.6,46z"/>
	<path fill="#F7AEE6" d="M283.9,34.3c3.5,0,7.1,0,10.6,0c0,0.2,0,0.3,0,0.5c-3.5,0-7.1,0-10.6,0C283.9,34.6,283.9,34.5,283.9,34.3z"
		/>
	<path fill="#F7AEE6" d="M205.7,44c2.7-0.3,5.3-0.7,8-1C211,43.3,208.3,43.7,205.7,44z"/>
	<path fill="#F58ADC" d="M199.7,38.1c0,0.3,0,0.7,0,1c-2.3,0-4.7,0-7,0c0-0.3,0-0.7,0-1C195,38.1,197.4,38.1,199.7,38.1z"/>
	<path fill="#F7AEE6" d="M138.6,69.1c0.7-1,1.3-2.1,2-3.1c0,0.7,0.1,1.4,0.1,2.1C140,68.4,139.3,68.8,138.6,69.1z"/>
	<path fill="#F7AEE6" d="M185.6,48c0-0.6,0-1.3,0.1-1.9c1.3,0,2.7,0,4-0.1C188.3,46.6,187,47.3,185.6,48z"/>
	<path fill="#F7AEE6" d="M292.7,69.9c-1.4,0-2.7,0-4.1,0C290,69.9,291.4,69.9,292.7,69.9z"/>
	<path fill="#F58ADC" d="M314.8,69.1c0.7,0.3,1.3,0.6,2,0.9c-0.7,0-1.3,0.1-2,0.1C314.7,69.7,314.7,69.4,314.8,69.1z"/>
	<path fill="#F7AEE6" d="M12.7,33c-0.1,0.1-0.1,0.2-0.2,0.4C12.5,33.3,12.6,33.2,12.7,33C12.7,33,12.7,33,12.7,33z"/>
	<path fill="#F58ADC" d="M405.8,47.1c-6.4-1.5-12.7-3.3-19.1-4.5c-11.2-2.1-22.4-3.7-33.7-5.6c-10.1-1.7-20.2-3.3-30.3-5
		c3.2-2.5,6.5-3.2,10.7-2.4c4.4,0.8,8.9,0.3,13.4,0.5c1.6,0.1,3.8-0.2,4.8,0.8c4.3,4.3,9.2,3.9,14.6,3.3c12.4-1.3,24,2,35.2,7
		c1.8,0.8,3.4,2,5.1,3C406.2,45.2,406,46.1,405.8,47.1z"/>
	<path fill="#FBD1EE" d="M33.6,23.8c2.6-4,4.5-4.4,8.7-1.6C39.1,22.8,36.6,23.2,33.6,23.8z"/>
	<path fill="#F26AD1" d="M7.7,98.1c6-1.1,12-2.1,18-3.2c5-0.9,10-1.8,15-2.8c0.4,0.4,0.5,0.9,0.4,1.4c-0.9,2.4-3.1,2.8-5.3,3.1
		c-6.2,0.9-12.4,2.5-16.9,3.2c7.3-1.7,16.5-2.1,25.4-4.1c2.1-0.5,4.3-0.3,6.5,0.2c7,1.9,13.6-0.5,20.3-2.1c0.7-0.5,1.5-0.8,2.4-1
		c16.9-0.8,33.7-3.3,50.6-3.6c6-0.1,11.9-1.5,17.9-0.6c2.3-0.2,4.6,0.2,6.9-0.1c0.6-0.2,1.1-0.4,1.7-0.5c0.6-0.1,1.2-0.2,1.8-0.2
		c28.9-0.1,57.9-0.1,86.8,0c0.6,0,1.2,0.1,1.8,0.2c4.1,1.3,8.3,0.6,12.4,0.8c2.2,0.1,4.6,0.1,5,3c0.4,2.5-1.4,3.6-3.4,4.3
		c-6.1,2.2-12.2,3.7-17.9-0.9c-1.8-1.4-3.7-1.2-5.7-1.1c-14.8,0.3-29.5-0.2-44.2-0.3c-7.8-0.1-15.6,0-23.4,0.6
		c-3.7,0.3-7.3,0.7-11,0.6c-19.5-0.7-38.8,0.3-58.2,2.1c-6.3,0.6-7.2,1.3-6.6,5.7c0,3-2.4,3-4.3,2.9c-9.5-0.5-18.7,2.2-28.1,2.2
		c-5,0-9.6,2.4-14.7,2c-1.4-0.1-1.9,1-2.5,2c-1.1,1.4-2.6,1.7-4.2,1.3c-5.4-2.6-10.7-1.3-15.9,0.4c-3.2,1-6.3,2.1-9.6,0.7
		c-1.3,0-2.7,0-4,0c0.1-1.4-0.1-2.9,1-4C6.3,106,7,102.1,7.7,98.1z"/>
	<path fill="#F26AD1" d="M12.8,139c0-1.3,0-2.5,0-3.8c0.5-1.1,1.1-2.1-0.1-3.1c-0.9,0.1-1.9,0.1-2.8,0.2c-1.1,0.6-2.2,0.8-3.2-0.2
		c0.3-3.3,0.6-6.6,0.9-9.9c0.2-0.2,0.3-0.5,0.5-0.7c8.4-4.6,17.6-5.7,26.8-7c5.3-0.7,10.5-1.9,15.8-2.3c2.2-0.2,4.4-0.4,5.4,2.3
		c-0.4,3.2-2.3,4.1-5.3,3.5c-4.2-0.9-8.2,0.3-12.3,1.2c-2.2,0.5-3.6,1.7-2.1,4.8c6.4,0,12.8-0.4,18.7-2.7c1.2-2,0.9-3.7,1.4-5.3
		c0.5-2.6,2.2-3.9,4.7-4.5c7-1.6,14.5-0.4,20.2-4.3c0.2,0.1-1.2,0.4-0.6-1.2c4.2-1.5,8.7-1.7,13-2.3c11.5-1.6,23.2-1.1,34.7-1.2
		c3.6,0,7.2-1.1,10.7,0.8c1.7,2.5-0.7,3-2,3c-3,0-5.1,1.7-7.5,2.9c-5.9,2.2-12.1,1.1-18.1,1.3c-2.5,0.1-5-0.2-6.9,1.8
		c-0.4,8.7-3.1,11.1-14.1,9.2c-1-0.2-1.2-1.8-2.8-1.1c-1.1,0.5-2.9,0.5-3.7-0.6c-4.1-5.4-9.7-2.7-14.8-3c-2-0.1-3.1,1-2.1,3.6
		c7.4,0.7,15-1.2,22.5,0.5c0.8,1.2,2.9-0.1,3.4,1.7c-0.2,2.7-2.3,2.9-4.2,2.9c-2.6,0-5.2,0-7.7,0c-11.4,0.1-22.6,2.7-34,3.2
		c-7.7,0.3-15,2.7-22.6,2.9c-2.5-0.3-4.3,0.9-3.9,3.2c1.1,6.8-0.7,14,2.4,20.6c-0.8,1.6-2,1.4-3.3,0.7c-0.6-1.3-1.7-2.6-1.8-3.9
		c-0.3-3.8-0.1-7.5-0.1-11.5C15.8,140.1,14.3,139.5,12.8,139z"/>
	<path fill="#F58ADC" d="M39.2,38.4c-9.5,2.8-18.6,5.5-27.8,8.2c-0.2-0.4-0.4-0.8-0.6-1.2c6-8.5,15.7-9.8,25.5-11.2
		C37.2,35.4,38.1,36.8,39.2,38.4z"/>
	<path fill="#F58ADC" d="M8.6,114c0.1-0.8,0.2-1.6,0.4-3.6c0.9,1.7,1.3,2.3,1.6,2.9c6.2-1.1,12.4-2.4,18.7-3.2
		c1.3-0.2,2.9,1.2,4.4,1.9c-0.9,1.8-2.4,2.9-4.2,3.1c-6.7,0.7-13.1,2.7-19.5,4.8c-0.6,0.2-1.3,0.1-2,0c-0.8-0.3-1.5-0.7-1.3-1.8
		c0.8-0.6,1.5-1.1,2.3-1.7C8.9,115.6,8.8,114.8,8.6,114z"/>
	<path fill="#CEA5C3" d="M6.6,132.1c1.1,0.1,2.1,0.1,3.2,0.2c-1.7,2.2-3.4,2.8-5.1,0C5.4,132.1,6,132.1,6.6,132.1z"/>
	<path fill="#F26AD1" d="M6.7,118.1c0.5,0.4,0.9,0.9,1.4,1.3c0.5,0.8,0.5,1.6-0.2,2.3c-0.1,0.1-0.3,0.3-0.4,0.4
		C6.5,121,2.4,120.4,6.7,118.1z"/>
	<path fill="#F58ADC" d="M5.6,110c-0.3,1.3-0.6,2.7-1,4C3.2,112.3,3,110.8,5.6,110z"/>
	<path fill="#EC11B9" d="M380.8,192c-3.7-0.7-7.5-1.2-11.2-2c-1.7-0.4-3.3-1.2-5-1.8c2.6-2.6,5.9-1.6,9-1.7c3.7-0.1,5.4-1.8,5.4-5.5
		c-0.1-5.1,0.2-10.2,1.5-15.3c0.9-3.5-0.9-5.1-4.2-5.9c-1.9-0.5-5.2-0.5-3.2-4.2c3.8-1.6,7.1,0,10.5,1.4c1.9,0.7,2.9,2.5,2.7,4.4
		c-0.5,4.1,0.4,8.2-0.6,12.3c-0.9,3.4-0.2,6.9-0.4,10.4c-0.1,2.2,0,4.3-1.6,6.1c0,0.6,0.1,1.3,0.1,1.9
		C382.7,191.9,381.8,191.9,380.8,192z"/>
	<path fill="#F26AD1" d="M369.6,447.2c-1,0.6-1.9,1.2-4.1,2.5c-1.7-5.5-3.2-10.5-4.9-16.1c1.8,0.1,3,0.2,4.3,0.3
		c0.6-3-6-6.6,0.8-8.7c0.7,2.3,1.6,4.5,2,6.8C368.5,437.1,369,442.2,369.6,447.2z"/>
	<path fill="#F26AD1" d="M360.8,467c-2.4-1.4-4.8-2.7-7.7-4.4c4.3-3.8,10.6-2.1,15.5-4.5c-1,3-1.9,6-2.9,8.9
		C364.1,467.1,362.5,467.1,360.8,467z"/>
	<path fill="#E278AD" d="M106.6,198c-2.6,2.5-5.5,4.6-7.6,7.4c-5,6.7-9.6,13.7-14.3,20.6c-0.5,0.7-1,1.4-1.6,2
		c-0.1,0.4-0.2,0.8-0.3,1.2c-1.1,0.7-0.1,2.1-1.1,2.8l0,0c-0.9,0.9-1.1,2.1-2,3.1l0,0c-1.4,3.8-3.2,7.4-5,11
		c-0.1,0.3-0.1,0.5-0.1,0.8c-3.5,11-7.8,21.8-9,33.4c-0.1,0.7-0.4,1.2-0.8,1.8c0,14.6-1.3,29.3,0.4,43.6c1.4,11.7,5.8,23.1,9.7,34.3
		c4.5,12.9,11.3,24.8,20.3,35.1c6.9,7.9,14.3,15.3,21.5,23c1,3.1-1.3,3-3,3c-11.6,0.1-23.3,0.4-34.9-0.1
		c-11.3-0.5-22.5-1.7-33.8-1.5c-2.4,0.1-5,0.5-7.2-1.3c-0.7-15.3-1.5-30.5-2.1-45.8c-0.4-10.1-0.7-20.3-1-30.4
		c-0.4-13-0.6-25.9-1-38.9c-0.6-19.3-1.3-38.5-2-57.8c-0.6-17.1-1.3-34.2-1.9-51.3c1.5-1.9,4.2-1.1,5.8-2.8c1.7-0.6,3.3-1.3,5.1-1.7
		c4.2-0.8,8.3-2,12.6-2.1c2.8-0.1,4.8-1.9,7.2-3c0.8-0.2,1.5-0.2,2.3,0c5.4,2.6,10.8,0.7,16.2,0.2c13.3-2.1,26.6-2.1,41.2-2.1
		C117.3,190.4,112.3,194.4,106.6,198z"/>
	<path fill="#F011C0" d="M60.7,185.1c-1.6,2.9-4,3.9-7.4,4c-4.3,0.2-8.5,1.1-12.7,1.7c-4.4,0.5-8.2,0.2-9.5-5.2
		c-0.6-2.3-2.5-1.6-4.1-1.3c-0.5,0.1-0.9,0-1.3-0.1c-0.8-0.9-0.1-2.2-0.8-3.2c-0.1-0.6-0.2-1.3-0.3-1.9c-0.3-0.4-0.4-0.8-0.5-1.3
		c0-1.2-0.3-2.4-0.3-3.6c0.5-5-1.5-10,0-15c2.9-4.6,7.7-4.8,12.3-5.7c12.4-1.9,24.8-3.8,37.4-4.1c8.1-0.2,16.1-2,24.2-1.9
		c2,0,4-0.3,5.8,1c1.9,2.4,2.9,5.1,3.5,8.1c-2,2.6-5.6,3.9-6.1,7.6c-2.6,0.4-5.2,1.4-7.1-1c-1.5-1.9-1-4,1.2-6.4
		c-4.6,1.9-7.5,2.3-11-1.3c-2.9-3-7.9-2.1-12-1.5c-2.9,0.4-5.7,1.3-8.7,1.7c0.2,2.2,2.1,2.8,2.9,4.2c1.3,2,1.8,4.1,0.3,6
		c-3.9,4.8-4.5,10.5-4.9,16.3C61.6,183.4,61.4,184.4,60.7,185.1z"/>
	<path fill="#F26AD1" d="M37.8,418.2c8.9,0,17.8-0.1,26.8,0.2c16.4,0.5,32.8,1.2,49.3,1.7c0.9,0,1.9-1.3,2.9-1.9
		c1.2,0.9,2.4,1.8,4.3,3.3c-1.7,0.3-2.5,0.5-3.4,0.7c-13.6-0.9-27.1-0.2-40.7-0.4c-8.7,0.1-17.5-1.3-26.2,0.1c-0.8,0-1.6-0.1-3,0.7
		c3.4,6.4,1,13.6,2.2,20.5c0.3,1.8,0.3,3.6-0.9,5.2c-2.1,1.5-4.4-0.1-6.3,0.5c0.4,0.2,1.3-0.2,1.8,0.6c-0.4,2.3-0.7,4.5-1,6
		c2.8,2,5.1,3.5,7.9,5.5c2.7,0,7.3-2.8,8,3.6l-0.3,0l-0.3-0.1c-2.7,1.5-5.8,0.3-8.6,1.2c-2.8,0.2-5.7,0.4-8.5,0.6
		c-0.7-0.1-1.4-0.2-2.1-0.2c-0.1-0.6-0.1-1.2-0.2-1.8c0-5.6-3.1-10-5.1-14.9c-0.3-0.6-0.6-1.3-0.9-1.9c0.6-1.9,1.7-3.7,1.9-5.7
		C36.5,433.8,37.1,426,37.8,418.2z"/>
	<path fill="#F132CA" d="M25.7,184.1c1.9-0.8,3.9-1.6,7.2-3.1c-1.7,8.2,3.1,8.9,7.8,9.8c-1.6,0.4-3.2,0.8-4.9,1.2
		c-5.7,2.1-6.6,1.7-10.1-4c-0.1-0.6-0.2-1.2-0.2-1.8C25,185.5,25.1,184.8,25.7,184.1z"/>
	<path fill="#F26AD1" d="M24.7,159.1c0,5.6,0,11.3,0,16.9c0.5,0.7,0.4,1.4,0,2c-0.1,0.4-0.2,0.7-0.3,1.1c-0.6-0.7-1.6-1.4-1.7-2.1
		c-0.4-6-0.7-12-1-18C22.8,157.2,23.8,157.5,24.7,159.1z"/>
	<path fill="#F58ADC" d="M24.7,159.1c-1,0-1.9,0-2.9,0c-0.8-1-1.5-1.9-2.3-2.9c1-0.3,2.1-0.7,3.1-1c3.6-4.1,8.3-3.1,12.8-2.5
		c0.7,0.8,0.8,1.5,0.1,2.4C32,156.4,28.4,157.8,24.7,159.1z"/>
	<path fill="#F26AD1" d="M25.7,188.1c1.5,1.1,2.9,2.3,5.1,4c1,0,3,0,5,0c-2,0.7-4,1.3-6,2C25.3,194.2,25.1,191.4,25.7,188.1z"/>
	<path fill="#F26AD1" d="M25.7,184.1c-0.1,0.7-0.2,1.5-0.2,2.2c-0.3-0.7-0.6-1.5-0.8-2.2C24.9,183.5,25.3,183.5,25.7,184.1
		L25.7,184.1z"/>
	<path fill="#FBD1EE" d="M30.7,446.1c0.3-1.4,0.6-2.9,0.9-4.3C31.3,443.3,31,444.7,30.7,446.1z"/>
	<path fill="#F132CA" d="M25.6,184.1c-0.4,0-0.7,0-1.1,0c0.1-1,0.1-2,0.2-3C25.1,182.1,25.4,183.1,25.6,184.1z"/>
	<path fill="#FBD1EE" d="M14.7,148c-0.2-0.6-0.4-1.2-0.6-1.7C14.3,146.9,14.5,147.4,14.7,148z"/>
	<path fill="#F132CA" d="M50.5,465.5c2.9-0.4,5.7-0.8,8.6-1.2C56.6,467.8,53.5,466.4,50.5,465.5z"/>
	<path fill="#F58ADC" d="M403.8,123.1c0.3-4.6-3.5-5.5-6.6-6.9c-2-0.9-4.1-1.7-6.1-2.5c0.1-0.4,0.2-0.8,0.3-1.2
		c4,0.8,8,1.5,11.7,2.2c1.5-2.2,2.7-3.9,3.8-5.7c0.2-0.4,0.5-0.5,0.9-0.1c0.6,3.6,1.4,7.2,1.8,10.8c0.1,0.7-1.8,1.6-2.7,2.4
		c-0.4,0.3-0.8,0.6-1.2,1C405,123.1,404.4,123.1,403.8,123.1z"/>
	<path fill="#FBD1EE" d="M407.8,108.9c-0.3,0-0.6,0.1-0.9,0.1c0-1.3,0.1-2.6,0.1-3.8c0.8,0.3,1.6,0.7,2.5,1
		C408.9,107.1,408.3,108,407.8,108.9z"/>
	<path fill="#F26AD1" d="M405.6,123.1c0.4-0.3,0.8-0.7,1.2-1C406.4,122.4,406,122.8,405.6,123.1z"/>
	<path fill="#F26AD1" d="M383.6,190c0-10.3,0-20.5,0-31.9c-2.9-0.5-6.9-1.3-10.9-2c-4.6,2.1-9.4,0.6-14,0.3
		c-4.7-0.3-9.3-1.7-13.9-2.9c-1.4-1.2-4-0.9-4.3-3.5c0.9-1.2,2.3-1.4,3.7-1.6c0.5,0,1.1,0,1.6,0c1.1,0,2.2,0.2,3.2,0.4
		c2.9,0.9,5.9,0.7,8.8,0.5c8.2,0.6,16.3,1.5,24.2,3.3c2.2,1,5.1,0.7,6.5,3.3c-0.7,9.8-1.2,19.7-2.1,29.5
		C386.4,187.2,384.6,188.6,383.6,190z"/>
	<path fill="#EC11B9" d="M388.7,156.1c-2-0.6-4.1-1.3-6.1-1.9c2.1-4.3,2.4-9.1,3.2-13.7c0.3-2,0.2-5,3.8-4.6
		c0.7,0.7,0.8,1.4,0.1,2.2c0,6,0,12,0,18C389.3,156.1,389,156.1,388.7,156.1z"/>
	<path fill="#F7AEE6" d="M12.7,132c0.6,0.1,1.2,0.2,1.9,0.3c-0.6,1-1.2,1.9-1.8,2.9C12.7,134.1,12.7,133.1,12.7,132z"/>
	<path fill="#F58ADC" d="M34.6,449.2c1,0.8,2.4,1.5,2.8,2.5c1.7,3.7,3.1,7.6,4.8,11.8c-0.8,0.2-1.7,0.4-2.6,0.6
		C36.3,459.7,34.9,454.6,34.6,449.2z"/>
	<path fill="#F314CB" d="M143.2,233.3c-1,0.4-1.7,1.9-2.5,2.8c-0.8,0.7-1.7,0.9-2.8,0.5c-4.6-3.4,0.8-6.5,0.3-9.7
		c-6.3-3.5-8-3.3-12.3,1.4c-0.5,3.1,4.7,5.3,1.4,8.9c-3,1.6-5.9,2.5-8.7-0.5c0.3-1.6,0.5-3.2,0.9-5.5c-3.5-0.6-6.8-1.2-9.5-1.6
		c-1.7-3.1-3.7-5.7-4.7-8.7c-0.7-2.3-0.1-4.9,0.9-7.5c-0.5-1.1-1.1-2.3-1.6-3.4c2.1-1.8,4.6-0.6,7.8-0.9c-2.1-1-3.9-1.5-4.8-3
		c-0.3-2.7-0.7-5.4-1-8.1c4-4.4,8.1-8.9,13.2-14.5c-14.6,0.9-27.9,1.7-41.1,2.5c-2-2.7-4.8-1-6.8-0.6c-3.2,0.5-6.2,0.4-9.2-0.3
		c-0.7,0-1.3,0-2,0c0.4-4,1.6-8.1,1-11.9c-0.7-4.6,3-6,5.2-9.8c-2.2-2.6-4.6-5.4-7.5-8.9c9.5-0.2,18-5.2,27.2,0.4
		c0.1,0.3,0.4,1.5,0.8,3c3.3-1,6.4-2,10.7-3.3c-1.6,2.5-2.6,4.1-3.8,6.1c0.2,0.6,0.6,1.6,0.8,2.4c1.9,0,3.5,0,5.6,0
		c-2.1-4.9,2.8-4.6,5.2-6.2c-0.7-2.4-1.4-4.7-2.1-6.9c6.5-4.7,13.6-3.6,20.8-2.7c1.2,0.7,1.7,1.9,2.2,3.1c12.5-4,25.3-3.5,37.9-3.7
		c10.8-0.2,21.6,0,32.4,0c9.2,0,18.3,0.1,27.5-0.2c6.2,0,12.2,0.5,17.9,3.1c2.3,1,4.6,0.4,6.9,0.1c1-0.1,1.5,0.7,2,1.5
		c-0.3-1-1-1.3-1.7-1.6c-1.9-0.1-3.9,1.2-5.9-0.7c0.7-2.4,2.8-2.1,4.7-2.2c4.1-0.2,8.3,0.4,12.3-0.9c3.3-0.1,6.5-0.6,9.8,0.4
		c2.3,1.8,4.7,2.5,7.8,2.4c5.9-0.3,11.9,0.2,17.8,1.3c3.8,0.7,7.9-0.6,11.9,0.1c5.1,1.4,10.3,0.4,15.4,0.7c8.7,0.5,17.4,2,26,3.4
		c5.8,1,6.8,4.5,3.6,9.4c-2.9,4.4-4.4,9.2-3.2,14.6c1.3,5.8,0.1,7.6-5.9,7c-8.7-0.9-17.5,1.1-26.2-0.8c-6.4,0-12.8,0-19.2,0
		c-0.2,0.5-0.4,1.1-0.5,1.6c2.7,2.7,5.6,5.2,8.1,8.1c6.4,7.5,12.7,15.1,19,22.7c1.4,1.7,2.5,3.7,3.7,5.6c0.4,2.4,3.1,5.5-2,6
		c-1.5-0.6-3-1.3-5.1-2.1c-1.7,2.5-3.5,5.1-5.7,8.3c-4.9-1.4-9.8-2.6-14.6-4.2c-4.6-1.6-9-1.2-13.8,1c0.8,1.1,1.4,1.9,2.7,3.6
		c-2.9-0.8-5.1-1.2-7.3-1.9c-3.7-1.1-6.9-0.9-8.3,3.5c-2.4,2.6-2.4,5.8-2.4,9.1c0.1,2.4,0.2,4.9-0.4,7.3c-0.2,0.8-0.5,1.6,0,2.5
		c0.4,0.8,0.5,1.7,0.3,2.6c-1.5,5-1.8,9.9,1.1,14.7c0.5,0.8,0.9,1.8,0.4,2.8c-0.4,4-0.8,8.1-1.3,13.3c-1.1-1-2.7-1.8-3-2.9
		c-0.9-3.6-3-4.9-6.5-4.4c-5.4-3.3-7-9.6-3.5-14.3c8.7-11.8,6.6-21.7-6.1-28.6c-1-0.6-2.1-1-2.7-2.1c-0.1-1.1-0.3-2.2-0.4-3.5
		c-3.7-0.6-7.2-1.2-11.2-1.9c-0.3-2.2-0.7-4.6-1.1-7.7c-1.9,4.4-4.4,5.4-8.1,3.1c-1-0.6-2.8,0-4.2,0.1c-5.1-0.4-7-5-10.3-8
		c-1.3,3-0.6,5.7-0.3,8.4c0.2,1.9,1.5,4.3-1.3,5.6c-1.5-0.1-2.9-0.2-4.5-0.3c-0.1-1.3-0.3-2.4-0.5-4.8c-1.9,2.6-3.1,4.2-4.9,6.7
		c-2.4-6.9-7.8-10.2-14.2-12.5c-0.4,2.1-0.8,4.4-1.2,6.6c-0.4-0.2-0.8-0.3-1.2-0.5c-1.3,2.5-2.6,5.1-4.5,8.8c2.8,0,5.2,0,7.4,0
		c-1.1,3.1-7.7,4.2-10.5,1.6c-0.7-0.7-2-0.7-3-1c-1.7,0.4-3.3,0-4.7-1.2c-1.2-1.1-3-3.4-3.7-3.1"/>
	<path fill="#020102" d="M250.7,236.1c2.8,1.1,5.8,1.7,8.2,3.3c8.6,5.6,9.9,20.4,2.7,27.8c-1,1.1-2.2,2-3.7,3.5
		c1.7,3.5,3.4,7,5.1,10.5c1.4,3.5,2.9,6.9,4.5,10.8c-4.8,0-8.7,0-13.4,0c-1.8-3.9-3.7-8.1-5.5-12.3c-3.2-7.4-4.8-8.2-13.2-6
		c0,6,0,12,0,18.3c-3.9,0-7.6,0-12,0c0-18.2,0-36.4,0-55.8C232.2,236.1,241.5,236.1,250.7,236.1z"/>
	<path fill="#020102" d="M171.8,235.5c1.6,0.4,3.1,0.8,4.7,1.2c6.9,18.3,13.7,36.5,20.7,55.3c-4.6,0-8.5,0-12.8,0
		c-1.4-3.7-2.9-7.5-4.4-11.5c-6.9,0-13.5,0-20.7,0c-1.5,3.8-3,7.7-4.6,11.6c-4.2,0-8,0-12.9,0c7.5-19.2,14.7-37.7,21.9-56.1
		C166.9,235.7,169.4,235.6,171.8,235.5z"/>
	<path fill="#020102" d="M272.2,257c-0.5-0.6-0.9-1.2-1.4-1.9c-0.3-0.2-0.4-0.6-0.4-1c0-5.6,0-11.2,0-17.1c1.5-0.3,2.9-0.5,4.3-0.8
		c2.4,0.2,4.9,0.3,7.3,0.5c0.4,5.4-0.2,11.1,1.6,15.9c1.8,4.7,6.1,8.5,9.8,13.2c3.6-4.9,7.9-8.7,9.6-13.5c1.6-4.5,0.3-10,0.3-15.5
		c4.5,0,8.5,0,12.2,0c4,12.1-0.7,21.6-8.5,30.1c-0.6,0.6-1.1,1.2-1.7,1.9c-4.3,4.9-7.3,10.1-5.8,17c0.4,1.9,0.1,3.9,0.1,5.9
		c-4.3,0.5-8.1,0.9-13,1.4c0-5.7,0-10.9,0-16C280.9,271.1,274.9,265.2,272.2,257z"/>
	<path fill="#020102" d="M137.7,235.8c1,0.1,2,0.2,3,0.4c0.3,3.1,0.7,6.2,1,9.6c-9,0-17.7,0-27.1,0c0,4.3,0,8.6,0,13.1
		c8,0,15.9,0,24.1,0c0,3.1,0,6,0,9.5c-8,0-15.9,0-24.2,0c0,8.1,0,15.6,0,23.5c-4,0-8.1,0-12.3,0c0-18.1,0-36.1,0-55
		c5.4,0,11,0,16.6,0c3-0.2,6-0.3,9-0.5C130.9,233.5,134.2,233.8,137.7,235.8z"/>
	<path fill="#020102" d="M214.4,291.9c-3.9,0-7.7,0-11.9,0c0-18.2,0-36.4,0-55c3.7,0,7.6,0,11.9,0
		C214.4,254.9,214.4,273.1,214.4,291.9z"/>
	<path fill="#F132CA" d="M48.7,448.1c-0.3-6.7-0.5-13.4-1.1-20c-0.2-2.4-1.7-4.6-2.9-7.8c1.9,0,3.4,0,5,0c2.2,2.9,3.2,6.4,5.6,9.2
		c1,1.2,1.4,3,0.5,4.7c0,1,0,2,0,3c1.7,2.1,0.4,4.8,1.3,7.1c0.8,1.9,4.4,1.3,3.8,5C56.7,451.2,52.7,449.3,48.7,448.1z"/>
	<path fill="#EC11B9" d="M272.2,257c4.8,6.7,9.7,13.4,14.5,20.2c-4.3-0.7-8.7-1.3-13-2c-4.3-3.9-4.5-9.1-3.9-14.3
		C270,259.5,271.3,258.3,272.2,257z"/>
	<path fill="#F132CA" d="M213.7,232.1c-0.1-1.9-0.1-3.9-0.3-5.8c-0.2-3.2-0.6-6.5-0.9-10c1.4,0,2.8,0,3.1,0c3.8,3.7,6.9,6.7,10,9.7
		c-0.2,4.1-0.9,7.4-6.5,5.3C217.6,230.9,215.5,231.9,213.7,232.1z"/>
	<path fill="#EC11B9" d="M48.7,448.1c3.7,0.3,7.4,0.6,11.2,0.9c0.1-0.3,0.2-0.5,0.3-0.8c-1.3-0.7-2.6-1.4-4.4-2.4c0-2.7,0-5.7,0-8.6
		c0.9,1.8,1.9,3.7,2.8,5.5c-0.2,0.2-0.5,0.3-0.7,0.5c1.8,1,3.7,1.9,5.5,2.9c1.8-0.6,3.6-1.2,5.4-1.9c-1.1,2.3-2.1,4.6-3.4,7.3
		c-7.2-0.8-13.9-1.5-20.6-2.2c-1.3-0.1-2.5-0.2-3.8-0.3c0-0.3,0-0.6,0-0.9C43.5,448.1,46.1,448.1,48.7,448.1z"/>
	<path fill="#EC11B9" d="M55.7,434.2c-1.6-2.8-3.4-5.5-4.7-8.4c-0.8-1.7-0.9-3.7-1.3-5.5c9,0.3,18.1,0.6,27.1,0.9
		c0.3,0.2,0.4,0.4,0.3,0.6c-0.1,0.2-0.2,0.3-0.3,0.3c-7.5,0-14.9,0-22.4,0c-0.3,0.4-0.5,0.8-0.8,1.2c0.8,1,1.5,2.1,2.3,3.1
		C58.2,429.1,59.2,431.7,55.7,434.2z"/>
	<path fill="#F314CB" d="M271.7,304.1c1.1,1.2,2.1,2.5,3.6,4.2c-1.9,0.9-3,1.4-4,2c0.3,0.7,0.6,1.4,0.9,2.1c-2,0.8-3.9,1.6-5.9,2.3
		c-4.7-3.4-4.7-7.4,0-10.6c0.6,1.2,1.1,2.4,1.7,3.6c0.2,0.4,0.5,0.9,1.4,2.3C270.3,307.6,271,305.9,271.7,304.1L271.7,304.1z"/>
	<path fill="#EC11B9" d="M64.8,282.1c1.4-12.3,3.8-24.2,9.8-35.2c-1.9,7.2-3.8,14.5-5.7,21.7c-0.8,3.3-1.4,6.7-2.3,10
		C66.3,279.9,65.4,281,64.8,282.1z"/>
	<path fill="#EC11B9" d="M326.7,228.1c0.7-2,1.3-4,2-6c3.3,6,6.6,12,10,18c-1.5-1.4-3.4-2.7-4.6-4.4c-1.1-1.5-1.5-3.5-2.7-6.6
		c-1.2,2.2-2,3.6-2.7,5l0,0C328,232.1,327.4,230.1,326.7,228.1z"/>
	<path fill="#F132CA" d="M76.8,422.1c0-0.3-0.1-0.6-0.1-0.9c12.1,0,24.1,0,36.2,0.1c1.6,0,3.2,0.5,4.8,0.8
		C104,422.1,90.4,422.1,76.8,422.1z"/>
	<path fill="#F132CA" d="M107.7,206.1c2.7,1.1,7.3,0.2,6.5,5.5c-3.4-0.6-6.5-1.1-9.5-1.6C105.7,208.8,106.7,207.4,107.7,206.1z"/>
	<path fill="#EC11B9" d="M312.6,349.3c1-3.8,1.9-7.6,2.9-11.3c2.1,3.8,1.8,6-1.7,11.6C313.4,349.4,313,349.4,312.6,349.3z"/>
	<path fill="#EC11B9" d="M337.2,243.6c-2.3,2-3.7,3.3-5.6,5C331,243.6,331.1,243.6,337.2,243.6z"/>
	<path fill="#EC11B9" d="M74.7,246.1c1.7-3.7,3.3-7.4,5-11C79.9,239.6,77.4,242.9,74.7,246.1z"/>
	<path fill="#F314CB" d="M276.7,318.2c-2.2,0-4.4,0-6.5,0c0-0.4,0-0.7,0.1-1.1c1.6-0.8,3.2-1.6,4.9-2.5
		C275.6,315.8,276.2,317,276.7,318.2L276.7,318.2z"/>
	<path fill="#EC11B9" d="M307.8,346.2c-0.1-0.7-0.1-1.3-0.2-2c0.4-0.9,0.8-1.9,1.7-3.8c0.9,2.1,1.6,3.5,2.4,5.3
		C310,345.9,308.9,346,307.8,346.2z"/>
	<path fill="#F314CB" d="M191.6,235.8c0.9-1,1.8-1.9,2.6-2.9c0.4,0.4,0.8,0.7,1.3,1.1c-0.8,1-1.6,2-2.4,3
		C192.6,236.6,192.1,236.2,191.6,235.8z"/>
	<path fill="#EC11B9" d="M312.3,357.8c0.1,1.2,0.1,2.5,0.2,3.7c-0.5,0-0.9,0.1-1.4,0.1c-0.1-1.2-0.1-2.5-0.2-3.7
		C311.4,357.8,311.9,357.8,312.3,357.8z"/>
	<path fill="#EC11B9" d="M328.7,234.1c0.7,0.9,1.3,1.9,2,2.8c-0.5,0.2-1,0.4-1.5,0.6C329.1,236.4,328.9,235.3,328.7,234.1
		L328.7,234.1z"/>
	<path fill="#EC11B9" d="M122.8,384.1c0.6-0.6,1.1-1.2,1.7-1.9c0.3,0.3,0.6,0.6,0.9,0.8c-0.6,0.6-1.1,1.2-1.7,1.8
		C123.4,384.6,123.1,384.3,122.8,384.1z"/>
	<path fill="#EC11B9" d="M137.7,425.2c-0.7,0-1.3,0-2,0c0.6-0.9,1.2-1.9,1.7-2.8C137.5,423.3,137.6,424.2,137.7,425.2z"/>
	<path fill="#F314CB" d="M279.7,321.1c-1,0.3-2,0.6-3,0.9c0-1.3,0-2.6,0-3.9l0.1-0.1C277.7,319.1,278.7,320.1,279.7,321.1z"/>
	<path fill="#EC11B9" d="M310.1,304.8c-0.6,0-1.3-0.1-1.9-0.1c0-0.3,0-0.6,0.1-0.9c0.6,0,1.3,0.1,1.9,0.1
		C310.2,304.2,310.2,304.5,310.1,304.8z"/>
	<path fill="#F314CB" d="M271.7,304.1c-0.7,0-1.3,0-2,0l0,0c0.5-0.9,0.9-1.9,1.4-2.8c0.3,0.1,0.5,0.1,0.8,0.2
		C271.8,302.4,271.8,303.3,271.7,304.1C271.7,304.1,271.7,304.1,271.7,304.1z"/>
	<path fill="#EC11B9" d="M79.6,235.1c0.7-1,1.3-2,2-3.1C80.9,233.1,80.3,234.1,79.6,235.1z"/>
	<path fill="#EC11B9" d="M306.7,340.2c-0.3-0.7-0.7-1.3-1-2C306,338.8,306.4,339.5,306.7,340.2z"/>
	<path fill="#EC11B9" d="M128.2,394.9c-0.1,0.3-0.2,0.5-0.3,0.8c-0.3-0.1-0.7-0.2-0.7-0.3c-0.1-0.2,0.1-0.6,0.3-0.7
		C127.6,394.5,128,394.8,128.2,394.9z"/>
	<path fill="#EC11B9" d="M81.6,232.1c0.4-0.9,0.7-1.9,1.1-2.8C82.3,230.2,82,231.1,81.6,232.1z"/>
	<path fill="#EC11B9" d="M83,228.1c0.5-0.7,1.1-1.3,1.6-2C84.1,226.8,83.6,227.4,83,228.1z"/>
	<path fill="#F314CB" d="M269.7,304.1C269.6,304.6,269.5,305,269.7,304.1C269.2,304.8,269.5,304.5,269.7,304.1L269.7,304.1z"/>
	<path fill="#F011C0" d="M317.6,184.2c5.7-0.6,11.3-1.5,17-1.8c2.4-0.1,4.8,1.3,7.2,1.7c1.9,0.3,4,0.1,7.3,0.1
		c-0.9-3.5-1.6-6.5-2.3-9.2c0.6-2.7,1.1-5.6,2-8.3c0.5-1.6,1.6-3.1,2.8-4.3c2.8-2.7,2.8-4.6-0.7-6.4c-1.4-0.8-3.1-1.5-4.6-1.6
		c-11.5-0.8-22.9-1.4-34.4-2.1c-1.4-0.1-2.8-0.6-4.2-1c-0.3-0.6-0.2-1.1,0.3-1.5c1.8-1.2,3.9-0.8,5.8-0.9c1.2,0,2.3,0,3.5,0.4
		c6.2,1.4,12.5-0.1,18.8,1.4c2.8,0.7,5.8,1.3,8.7,1.5c5.3,1,10.5,2.2,15.8,3c4,0.6,8.1,0.8,12.2,1.1c1.5,0.7,2.9,1.7,4.5,1.9
		c4.3,0.6,6,2.7,5.4,7.1c-0.8,5.6-1.4,11.1-1.8,16.7c-0.3,5.3-1.1,6.2-6.6,6.3c-3.2,0-6.3,0-9.5,0c-15.1-1-30.2-2.1-45.3-3.1
		C318.7,184.9,318.2,184.4,317.6,184.2z"/>
	<path fill="#020102" d="M196.6,359.1c-1.4,0-2.4,0-3.6,0c-0.7-4.7-1.3-9.4-2-14.6c-4.5,4.4-1.6,13.1-9.9,15.4
		c-2-5.6-3.8-10.7-5.6-15.8c-2.7,5,0.3,11.4-4,15.5c-0.7-0.2-1.3-0.3-2-0.5c0.8-7.2,1.6-14.3,2.5-21.8c1.9,0,3.5,0,5.3,0
		c1.8,5.2,3.5,10.3,5.7,16.8c2.2-6.4,3.9-11.4,5.7-16.8c1.7,0,3.2,0,5.3,0C194.8,344.4,195.6,351.5,196.6,359.1z"/>
	<path fill="#020102" d="M210.8,360.1c0-8.3,0-15.4,0-22.9c0.9-0.1,2-0.2,3.3-0.3c0.2,2.8,0.3,5.2,0.5,8.1c3.4,0,6.8,0,10.7,0
		c0.1-2.6,0.3-5.2,0.5-7.9c1.2,0,2.1,0,3.6,0c0,6.8,0.1,13.4-0.1,20c0,1-1.5,1.9-2.3,2.8c-0.5-0.2-0.9-0.5-1.4-0.7
		c0-3.4,0-6.8,0-10.6c-3.8,0-7,0-10.4,0C212.4,351.6,217.3,357.4,210.8,360.1z"/>
	<path fill="#020102" d="M254.9,348.3c0,7.9-3.4,11.8-10.2,11.8c-6.7,0-10.2-4.1-10.2-11.9c0-7.7,3.6-11.8,10.3-11.8
		C251.7,336.5,254.9,340.3,254.9,348.3z"/>
	<path fill="#020102" d="M276.9,359.2c0-7.5,0-14.6,0-22.2c5.6,0.2,11.8-2.1,15.6,3.7c3,4.6,3,10.1,0.1,14.7
		C288.9,361.3,282.6,359,276.9,359.2z"/>
	<path fill="#020102" d="M153.6,349.7c0,3.2,0,6.2,0,9.3c-1.4,0-2.4,0-3.7,0c0-7.3,0-14.4,0-22.1c5.2,0.7,11-2.4,14.6,3.5
		c1.8,2.9,0.1,6.1-4.1,9.4c2,3,4.1,5.9,6.4,9.3C158.8,360.3,159.9,350.3,153.6,349.7z"/>
	<path fill="#020102" d="M135.6,338.9c-2.8,0.3-5.6,0.5-8.8,0.8c-0.1,1.6-0.3,3.1-0.4,4.7c2.6,0.6,4.8,1.1,7.1,1.6
		c0,0.5-0.1,1.1-0.1,1.6c-2.1,0.3-4.3,0.5-6.3,0.8c-0.6,3.7-1.1,7.2-1.7,10.6c0,0.1-1.4,0-2.5,0c0-7.3,0-14.4,0-21.8
		c4.4,0,8.5,0,12.7,0C135.6,337.8,135.6,338.4,135.6,338.9z"/>
	<path fill="#020102" d="M263.6,356.6c3.6,0.3,6.3,0.5,9,0.6c0,0.5,0,0.9,0,1.4c-4,0-8.1,0-12.5,0c0-6.8,0-14,0-21.5
		c1,0,2-0.1,3.5-0.2C263.6,343.5,263.6,349.9,263.6,356.6z"/>
	<path fill="#020102" d="M143.6,337.2c0,7.5,0,14.5,0,21.6c-0.4,0.3-0.8,0.6-1.2,0.9c-0.8-1.1-2.3-2.2-2.3-3.3
		c-0.2-6.3-0.1-12.6-0.1-19.2C141.3,337.2,142.5,337.2,143.6,337.2z"/>
	<path fill="#F58ADC" d="M396.9,48c6.9,0.6,8.2,2.7,6.2,9.2c-0.7,2.4-0.3,5.2-0.4,7.8c-5.4,0.4-10.8,0.8-16.6,1.2
		c-0.4,2.8-0.9,6.2-1.4,9.6c-0.7,4-2.9,5.4-7,4.2c-2-2.1-2.6-5-3.6-7.6c-2.2-5.7-6-8.5-12.2-7.5c-1.3-0.3-2.6-0.7-3.8-1
		c-3.4-0.9-6.1-2.2-4.4-6.6c-3.2-1.3-6.2-0.5-9.2-0.4c4.2,2.4,7.5,5.3,7.9,10.3c-0.1,0.5-0.4,0.8-0.8,1.2c-2.1,0.8-3.8-0.3-4.8-1.7
		c-1.6-2.4-3.6-2.6-6-2c-4.5,0-5,1.2-3.1,6.9c0.3,1.6,0.4,3.1-0.9,4.3c-0.9-0.1-2.5,0-2.7-0.5c-3.2-6.3-9-5.3-14.4-5.5
		c-0.3,0-0.6-0.1-1-0.1c1.3-0.6,2.6-1.1,4.3-1.9c-1.1-1.4-1.9-2.5-3.3-4.5c3.8-0.3,7.3,0,10.4-0.9c2.8-0.9,5.2-3.1,7.8-4.8
		c-3.9-3.2-6.9-5.7-10.2-8.4c1.7-2,3-3.6,4.5-5.4c2.4,0,4.9,0,7.3,0c0-0.2,0.1-0.4,0.1-0.5c-3.3-0.6-6.7-1.2-10.9-1.9
		c6.1-5,12.2-4,18.3-2.6c-0.4,0.6-1,0.7-2.3,1.1c6.1,1.7,11.7,0.6,17.2,0.9c1,0,2,0,3,0c2.8,2,6.2,1.9,9.5,2.4
		C381.8,44.5,389.1,47.5,396.9,48z"/>
	<path fill="#F58ADC" d="M87.8,103.1c-1-1.2-2.8-2.4-2.9-3.7c-0.1-1,1.8-2.9,3-3.1c6.2-1,12.5-1.7,18.7-2.2c10-0.8,20-1.4,30.1-1.9
		c2.6-0.1,5.3,0.9,7.9,0.8c12.9-0.4,25.8-1.4,38.8-1.6c12.6-0.2,25.3,0.4,37.9,0.7c1.4,0,2.7,1.1,3.9,0.7c4.3-0.4,8.7-0.7,13.3-1.1
		c0.4,1.5,0.7,2.7,1.3,4.9c5.8-0.8,11.6-1.6,17.1-2.4c1.2-4.3-1-4.1-3.1-4.2c-4.4-0.3-8.8-0.6-13.2-1c1.3-1.7,3.2-1.6,5-1.5
		c10.6,0.5,21.2,0.9,31.7,1.1c1.9,0,4.5-0.6,5.4,2.3c-6.1,0.5-12.2,1-18.2,1.4c-0.2,0.3-0.3,0.7-0.5,1c1.7,0.9,3.3,2.2,5.1,2.5
		c7.6,1.2,15.2,2.1,22.9,3.2c0.6,0.1,1.1,0.6,1.7,0.9c-0.3,2.6-2.4,2.3-4.1,2.4c-2.9,0.2-5.9,0.1-8.8,0.1c-12.6-0.2-25.3,0.7-37.9-1
		c-0.9,0-1.8,0-2.6-0.1c-0.6,0-1.1-0.1-1.7-0.2c-4.3-1.3-8.6-0.3-12.9,0.2c-16.4-0.6-32.8,0.6-49.2-0.3c-1.9-0.6-3.9-0.2-5.8,0.2
		c-6,0.2-12.1,0.1-18.1,0.1c-8.1,0-16.2,0-24.3,0c-2.5,0-4.9,0.2-7.3,0.9c-9.5,0-18.9,2-28.5,1.7C90.8,104,89.1,104.7,87.8,103.1z"
		/>
	<path fill="#F314CB" d="M305.7,122.1c1.7,0.6,3.3,1.8,5,1.8c8.4,0.2,16.9,0.1,25.5,0.1c0.2,1.6,0.4,2.8,0.5,4.1
		c1.4,2.5,1.4,5.5,2.6,8.1c1,2.3,0,4.2-2.9,5.9c5,0.4,8.9,0.4,12.8-1.4c6.3-2.8,19.2,0.5,22.9,5.5c-0.9,3.6-3.9,4-6.7,3.4
		c-15.8-3.3-31.9-0.7-47.7-2.2c-9.6-0.9-19.4-0.7-28.7-3.7c-1-0.1-2.1-0.2-3-0.7c-2.2-1.9-3.2-4.8-5.5-6.8c-2.9-2.5,0.7-4.8,1.1-7.2
		c0.2-0.2,0.4-0.4,0.8-0.5c-0.3,0-0.6,0.1-0.9,0.3c-0.8,0.4-1.6,0.4-2.5,0.2c-1.1-0.4-2.1-0.9-2.5-2.3c0.5-2,2.7-2.1,3.9-3.3
		C288.7,118.7,297.3,122.4,305.7,122.1z"/>
	<path fill="#F011C0" d="M288.7,142.1c7.7,1.3,15.4,2.6,23.1,3.8c1.5,0.2,3,0.2,4.5,0.2c12.3,0,24.6-0.1,36.9,0.1
		c3.7,0.1,7.3,1.3,11,1.7c2.3,0.3,4.6,0,7,0c0.1-0.7,0.2-1.3,0.3-2c-2.4-1-4.7-2.7-7.1-2.9c-5.4-0.4-10.5-3.5-16.5,0.1
		c-3.5,2.1-9.3,0.6-14.1,0.5c-0.4,0-0.7-1.5-1.3-2.8c2.1-0.5,3.8-0.9,5-1.2c-0.3-4-0.6-7.8-0.9-11.6c6-2.8,11.8-2.8,18.3-0.6
		c4.1,1.4,9.1,0.4,13.7,0.5c5.1,2.1,10.5,2.7,15.9,3.5c2.1,0.3,3.9,0.8,5.4,2.3c0.4,0.8,0.3,1.6-0.3,2.3c-1,2.7-2.3,5.4-2.9,8.2
		c-0.5,2.2-0.1,4.6-0.1,6.7c-1.6,1.2-2.8,2.2-4.1,3.2c-8.3-1.1-16.6-2.1-24.9-3.2c-2.9-1.2-6.1,0.4-9-0.9c-1,0-2-0.1-3-0.1
		c-0.3-0.3-0.7-0.3-1.1,0c-1.4,0-2.8,0-4.1,0c-4.8,2-9.5-1.2-14.3-0.4c-10.1,0.6-20.1-2.2-30.2-2c-2,0-4-0.1-5.9,0.5
		c-1.5,0.2-2.9,0-3.8-1.4C285.8,144.4,287.5,143.4,288.7,142.1z"/>
	<path fill="#FBD1EE" d="M282.8,91c-0.7-0.3-1.5-0.9-2.2-0.9c-13.3-0.4-26.6-0.7-39.9-1l0-0.1c-1.2-0.7-2.6-0.4-3.9-0.4
		c-27.4,0-54.8,0-82.2,0c-1.3,0-2.7-0.4-3.9,0.5l0,0c-0.3,0.3-0.7,0.5-1.1,0.7c-2.3,0-4.6,0-6.9,0c-1.2-1.2-1.3-2.5-0.4-3.9
		c0.9-0.8,2.1-0.8,3.2-0.7c5,1,10.1-0.4,15.1-0.1c11,0,21.9-0.1,32.9-0.1c3.7,0,7.5-0.1,11.2-0.1c3.3-1.6,6.8-0.7,10.3-0.8
		c6.1-0.1,12.2-0.1,18.3,0c1.7,0,3.7-0.5,5.1,1.2c4.7,0.6,9.4,1.6,14.1,1.8c11.4,0.5,22.8,0.7,34.1,1c5.8,0.4,11.6,0.9,17.3,1.3
		c0,0.5,0,1.1,0,1.6C296.9,91,289.9,91,282.8,91z"/>
	<path fill="#F58ADC" d="M182.7,75c0.3-5.5,4.7-4.9,8.1-4.9c14.7-0.2,29.3-0.3,44,0c12.3,0.3,24.6,1.3,37,2
		c-1.8,0.6-3.7,1.9-5.5,1.8c-5.6-0.1-10.8,1.1-15.5,4.1c-1.2,1.3-3.1,1.5-4.1,0.5c-3.7-3.7-7.7-1.6-11.4-0.9
		c-8.7,1.5-17.2,2.2-26-0.2c-7.8-2.2-16-2.7-24.2-1.5C184.1,75.9,183.3,75.7,182.7,75z"/>
	<path fill="#F58ADC" d="M305.7,122.1c-5.5,1.1-10.9,1.4-16.6,0.2c-2.6-0.5-5.6,1.2-8.4,1.9c-2.5,0.7-5.1,0.9-7.6,1.6
		c-5.1,1.5-9.1-0.8-12.9-4c-11.1-0.5-22.3-0.4-33.4-0.3c-3.1,0-5.9,2.6-9.2,1.2c-2-0.3-4.2-0.1-5.3-2.4c0.8-4.3,5.4-1.9,7.3-4.2
		c10.9,0,21.8-0.2,32.8,0.6c4.8,0.3,9.5,0.7,14.3-0.5c3.3-0.8,6.9,1.3,10.6,0.7c1.1-0.2,2.3,0.4,3.7-0.3c1.2-2.2,3.9-4.3,0.7-7.7
		c10-3.6,19.2-0.3,28.3-0.5c3.1,0.6,7.4-1.6,8.7,3.5c-1.3,0-2.7,0-4,0c-2.7,2.3-5.8,1.7-8.9,1.4c-7.6-1.9-8.8-1.4-11.5,4.5
		c2.4,0.9,4.9,0.4,7.3,0.6c4.2,0.1,8.4,0,12.1,2.5c1.6-0.4,3.2-0.8,4.4-1C317.5,121.8,317.5,121.8,305.7,122.1z"/>
	<path fill="#F011C0" d="M318.7,112.1c-3-0.7-6-1.3-9-2c-0.8-1.1-2.6-0.8-3.3-3.4c5.9-1.3,11.9,0.5,17.6-0.8c0.8,0,1.6,0.1,2.4,0.3
		c4.7,1.1,9.6,0.1,14.3,0.6c7.7,0.2,15.3,2,23,2.4c2.2,0.8,4.3,1.7,6.7,1.8c0.5,0.2,0.9,0.5,1.2,0.9c3,0.7,6,1.5,9,2.2
		c1.1,2.4-0.5,2.8-2.2,2.9c-1.6,0.1-3.1-0.8-4.7-0.1c-3,0-6,0.1-9.1,0.1c0.8,1.1,2.2,0.2,3,1l0,0c1,2.3,3.7,4.5,0.9,7.2
		c-2.1-0.1-4.2-0.2-6.6-0.3c-0.3-3.3-0.6-6.2-1-9.7C346.8,114.1,333,109.8,318.7,112.1z"/>
	<path fill="#F7AEE6" d="M361.8,64.1c3.3,0,6.6,0,10.5,0c1.9,5.6,3.7,10.8,5.4,16c-7.3-1-14.7-2-22-3c1.6-3.5-1.5-7,0.2-10.5
		C357.3,64.5,359,63,361.8,64.1z"/>
	<path fill="#F7AEE6" d="M184.7,75.1c5.5-0.2,11.1-1,16.6-0.5c7.4,0.7,14.7,2.7,22.1,3.3c3.7,0.3,7.6-1.7,11.5-2.2
		c4.2-0.6,8.5-0.6,13.4-0.9c-0.7,1.4-1.1,2.2-1.6,3.3c1.5,0,2.8,0,4.1,0c0.7,0,1.3,0,2,0.1c0.9,0.8,2.2,0.1,3,0.8
		c1.7,0.4,3.3,0.7,5,1.1c-20,0-40.1,0-60.1,0c-2.6-3.2-6.3-1.8-9.6-2.3C188.8,77.4,185.7,78.6,184.7,75.1z"/>
	<path fill="#F58ADC" d="M350.7,93.1c17.7,0.5,49,7.3,50.9,11.5c-11.8-1.8-23.4-3.6-34.9-5.4c-4.8,2.1-9.1-0.1-13.5-1.6
		c0.1-1.8-0.8-1.3-1.6-0.6c-2,0-4.2,0.8-5.5-1.6c-0.4-1.1-0.2-2.2,0.6-3.1C348,92.5,349.3,92.8,350.7,93.1L350.7,93.1z"/>
	<path fill="#F132CA" d="M344.7,123.1c-7.1-0.4-14.2-0.8-21.6-1.2c0-2.9,0-5.5,0-9c7.3,0.7,14.5,1.4,21.6,2.1
		c0.9,1.8-1.4,2.4-1.5,3.8C343.3,120.4,345.8,121.2,344.7,123.1z"/>
	<path fill="#F7AEE6" d="M340.7,64.1c1.5-0.8,3.1-1.5,3.5-1.7c3.1,2.4,5.3,4,7.5,5.7c2.9,2.5,3.6,5.4,1.9,8.9
		c-3.1,0-6.1,0.1-9.1-0.1c-2.6-0.1-5.1-0.6-7.7-1c0-1.6,0-3.2,0-4.8C337.3,68.4,338.8,66.1,340.7,64.1z"/>
	<path fill="#F7AEE6" d="M325.6,107.4c-0.6-0.1-1.3-0.2-1.9-0.3c-6.7,0.4-13.4-1.4-20.2-0.4c-4.2,0.6-8.7,0.7-12.7-1.4
		c-1.7-1.4-3.7-1.8-5.9-1.9c-1.7,0-3.8,0.3-4.2-2.2c4.3-0.4,8.7-0.8,13-1.1c6.6,1,13.3,2,19.9,2.9c6.4,0.8,12.8,1.4,19.2,2.1
		c0,2.5-2,1.8-3.4,2C328.1,106.9,326.9,107.5,325.6,107.4z"/>
	<path fill="#F132CA" d="M313.7,121.1c-4.3-0.3-8.6-0.7-12.9-1c-1.9-2-2.7-4.3-1.3-6.8c1.2-2.2,3.2-1.9,5.2-1.2
		c3.3,0,6.6,0.1,10,0.1C314.4,115.1,314,118.1,313.7,121.1z"/>
	<path fill="#F132CA" d="M368.6,125.2c-0.3-2.4-0.6-4.8-0.9-7.2c4.7,0.8,9.3,1.6,14.6,2.5c0.1,2.1,0.2,4.3,0.4,7.4
		C377.7,127.2,372.9,128.4,368.6,125.2z"/>
	<path fill="#F7AEE6" d="M346.6,92.2c0,1,0.1,2,0.1,2.9c-0.7,0.8-1.6,0.9-2.6,0.8c-2-0.5-4-0.7-6.1-0.4c-0.5-0.1-0.9-0.3-1.2-0.6
		c-6.1-0.9-12.3-1.9-18.4-2.8c-3.7-0.6-7.4-1.1-11-2.1C320.6,87.3,333.5,92.2,346.6,92.2z"/>
	<path fill="#F011C0" d="M344.7,123.1c-1.1-1.8-2.1-3.6-3.2-5.4c-0.5,0.4-1,0.7-1.5,1.1c1.6-1.2,3.1-2.5,4.7-3.7
		c3.2,0.4,6.4,0.7,9.8,1.1c0,2.8,0,5,0,8.2C350.9,123.9,347.8,123.5,344.7,123.1z"/>
	<path fill="#F58ADC" d="M328.7,106.2c1.4-0.4,2.7-0.7,4.1-1.1c13.4,1.3,26.8,2.6,41.3,4c-1.4,1.7-1.9,2.3-2.4,2.8l-0.5,0.1l-0.5,0
		c-1.8-1.6-4.4-0.2-6.2-1.7c-7.9-0.8-15.9-1.5-23.8-2.3c-3-0.9-6.1-0.1-9.1-0.4C330.5,107.4,328.8,108.3,328.7,106.2z"/>
	<path fill="#F132CA" d="M336.8,95c0.3,0.1,0.6,0,0.9,0c2-0.5,4-0.6,6,0.1c1,0.1,2,0.1,3,0.2c2,0.3,4,0.6,6,0.9l0,0
		c4.6,1,9.3,2,13.9,3c-1.9,3.7-5.4,2-7.9,1.6c-10.9-1.6-21.7-3.6-32.7-5.8C329.6,95,333.2,95,336.8,95z"/>
	<path fill="#EC11B9" d="M373.8,116.9c2.3-0.9,4.6-1.9,6.9-2.8c0.7,0.1,1.4,0.2,2.1,0.3c0.6,0.3,1.4,0.2,2,0.7
		c4.9,0.5,9.6,1.4,13.4,4.6c-0.1,0.5-0.2,1.1-0.4,1.6C389.8,119.8,381.8,118.4,373.8,116.9z"/>
	<path fill="#F58ADC" d="M353.6,77c-0.6-3-1.3-5.9-1.9-8.9l0.1-0.1c1.4-1.5,2.8-2.6,4.8-1c0.4,2.6-1.4,6.4,4,6.5
		c-2.1,1.5-3.5,2.5-4.9,3.6C355,77,354.3,77,353.6,77z"/>
	<path fill="#EC11B9" d="M389.7,134.1c-5.9-1.3-11.8-2.6-17.6-4.1c-1.2-0.3-2.2-1.3-3.4-2c7,1.3,14,2.7,21.1,4
		C390.3,132.7,390.3,133.4,389.7,134.1z"/>
	<path fill="#F132CA" d="M389.7,134.1c0-0.7,0.1-1.4,0.1-2c3.7-0.2,5.2,1.5,4.6,5.7c-1.5,0.1-3.1,0.2-4.7,0.2c0-0.6,0-1.3,0-1.9
		C389.7,135.4,389.7,134.7,389.7,134.1z"/>
	<path fill="#F7AEE6" d="M274.7,80.1c-4.7,0-9.3,0-14-0.1C265.3,80,270,80.1,274.7,80.1z"/>
	<path fill="#F58ADC" d="M255.7,79c-1-0.3-2-0.6-3-0.8C253.7,78.4,254.7,78.7,255.7,79z"/>
	<path fill="#F132CA" d="M367.7,118c-1-0.3-2-0.7-3-1C365.8,117.3,366.7,117.7,367.7,118z"/>
	<path fill="#F011C0" d="M384.8,115c-0.7-0.2-1.3-0.5-2-0.7C383.5,114.6,384.1,114.8,384.8,115z"/>
	<path fill="#F26AD1" d="M84.7,74.1c1.3,1.3,2.7,2.7,4,4c-0.2,0.4-0.3,1.1-0.8,1.2c-6.4,1.8-12.7,4-19.3,0.8
		c-1.3,0.1-2.6,0.1-4.3,0.2c-0.1,1.2-0.3,2.2-0.5,4.5c-2.1-1.3-3.7-2.3-5.7-3.5c-6.8,5.6-15.9,6.4-24.8,7.9
		c-7.1,1.2-14.1,3.4-21.5,5.3c-0.3-0.5-1.1-1.3-1.1-2.2c0.2-7.5,0.5-14.9,1-22.3c0.1-1,1.3-2.4,2.3-2.7c4.1-1.1,8.3-1.9,13.2-2.9
		c1.2,4.6,2.5,9.5,3.9,14.7c2-0.4,3.7-0.7,5.4-1.1c0.5-0.4,0.9-1.1,1.5-1.2c9.6-2.2,19.1-4.7,29.1-3.9c0.8,0.5,1.6,0.9,2.6,0.2
		c1.6-0.5,3.3-0.6,4.9,0c0.6,0.6,1.2,0.9,2,0.2c0.8-0.3,1.7-0.3,2.5-0.2c1.2,0.4,2.4,0.4,3.7,0.2C83.7,73.3,84.2,73.5,84.7,74.1z"/>
	<path fill="#F7AEE6" d="M79.7,74c-1,0-2,0-3,0.1c-0.3,0.3-0.7,0.3-1,0c-2,0-4,0-5.9,0c-0.4,0.3-0.7,0.3-1,0
		c-9.3,1.2-18.7,2.3-28,3.5c-1.3,0.2-2.6,0.3-3.9,0.5c0.2-1.5-0.1-3.1,0.5-4.4c1.7-3.6,3.8-7.1,6.4-11.9c3,0.6,7.1,1.4,11.1,2.2
		c0.2,0,0.5,0,0.7,0c1.1,0.6,2.3,1.1,1,2.6c-0.7,0.6-1.8,0.6-2.7,1.5c2.1,0.4,2.9-0.9,3.7-2.2c0.3-0.4,0.6-0.7,1-0.9
		c2.5-0.8,3.5-3.1,4.5-5c1.1-2,2.1-3.9,4.7-3.8c2.8,0.1,4.5,1.9,5.7,4.2c0.9,1.7,0.7,4,2.7,5.3c0.9-1.5-0.4-2.9,0-4.3
		c0.4-1.4,0.9-2.6,2.7-1.4c0.4,0.5,0.8,1.1,1.3,1.4c5.7,3.2,6,5.4,1.1,9.7c3.8,0.4,7.3,0.8,10.9,1.2c0,0.4,0,0.8,0,1.2
		c-2.4,0.1-4.9,0.3-7.3,0.4c-0.7,0-1.3,0-2,0C81.7,74.1,80.7,74.1,79.7,74z"/>
	<path fill="#F7AEE6" d="M142.7,86.2c0,1.2,0,2.4,0,3.6c-13.1,0.8-26.2,1.4-39.3,2.4c-7.2,0.6-14.3,2-21.4,2.7
		c-3.1,0.3-6.2-0.4-9.4-0.6c-2.2,1.1-4.5,0.8-6.8,1c-2.3,0.2-3.9-0.6-3.9-3.3c1.6-3.4,5.2-1.5,7.5-2.9c3.3,0,6.7-0.1,10-0.1
		c5.4-0.2,10.8,0.9,16.1-1c1.7-0.3,3.5-0.9,5.2-0.9c8.5-0.1,17,0,25.5-0.1c2.1,0,4.2-0.6,6.4-0.9c1.8-1.5,3.9-0.8,6-1
		C140.1,85.2,141.7,84.8,142.7,86.2z"/>
	<path fill="#FBD1EE" d="M184.7,75.1c5,0.5,10,1,15.5,1.6c0.1,0.9,0.3,2.2,0.5,3.4c-20,0-39.9,0-59.9,0c-0.4-0.2-0.5-0.4-0.4-0.6
		c0.1-0.2,0.2-0.3,0.4-0.3l0,0c2.2-2.4,6.1-0.1,8.1-2.9c0.6,0,1.2-0.1,1.9-0.1c0.7-0.6,1.3-1.3,2.1-1.8c0.3,0,0.7,0,1,0
		c4.6-0.2,9.3-0.4,13.9-0.5c1.8-0.1,3.5-0.2,5.3,0c3.2,0.3,6.5,0.9,9.7,1.3C183.4,75,184,75.1,184.7,75.1z"/>
	<path fill="#F26AD1" d="M78.6,60.2c-3,0.7-1.2,2.1-0.8,3.7c0.4,1.5,0.1,3.3,0.1,4.9c-0.7,0.2-1.5,0.3-2.2,0.5c-1-2.2-2.4-4.2-3-6.5
		c-1-3.4-2.6-5.6-6.2-5.4c-3.4,2.4-2,8.7-7.7,8.8c-0.9-1.4-2.7-1.2-3.9-2l0,0c1.8-1.7,3.5-3.5,5.3-5.2c0.7-0.2,1.4-0.4,2.1-0.6
		c-1.5-0.6-3-1.2-4.5-1.7c5.1-2.7,9.9-4.2,15.1-2.5c1,0.7,2.1,1.5,3.1,2.2c1.6,1,3.2,1.9,4.8,2.8C80,59.4,79.3,59.8,78.6,60.2z"/>
	<path fill="#F7AEE6" d="M68.6,80c6.7-0.7,13.4-1.3,20-2c3.9,0.6,7.7,1.2,11.6,1.8c0,0.8-0.1,1.5-0.1,2.3C91,82.8,82,83.6,72.9,83.9
		C71.5,83.9,70.1,81.4,68.6,80z"/>
	<path fill="#E278AD" d="M238.5,85.2c-11.2-0.1-22.5-0.2-33.7-0.4c1-0.6,2-1.7,3-1.7c17.9-0.1,35.7-0.1,53.6-0.1c0,0.7,0,1.4,0,2.2
		C253.7,85.2,246.1,85.2,238.5,85.2z"/>
	<path fill="#E278AD" d="M69.5,89.1c-2.3,0.7-4.5,1.4-6.8,2c-7.1,3.2-14.3,5.5-22,2c0-0.3,0-0.7,0-1C50.3,91.1,59.9,90.1,69.5,89.1z
		"/>
	<path fill="#E278AD" d="M138.7,86.1c-2,0-4,0-6,0c0.3-0.5,0.7-1.6,1-1.6c8.3,0.1,16.6,0.3,25,0.5c-4.1,0.8-8.2,1.4-12.4,0.8
		C143.7,85.5,141.2,85.2,138.7,86.1z"/>
	<path fill="#FBD1EE" d="M95.6,88c0.2,0,0.4,0,0.5,0.1c0.2,0.2,0.3,0.4,0.4,0.6c-5.7,0.1-11.3,0.1-17,0.2
		C84.9,88.7,90.3,88.3,95.6,88z"/>
	<path fill="#F7AEE6" d="M148.8,76.1c0.5,0.6,1,1.2,2.3,2.9c-4.1,0-7.3,0-10.4,0C143.4,78.1,146.1,77.1,148.8,76.1z"/>
	<path fill="#F7AEE6" d="M145.8,85.1c4.3-0.1,8.6-0.1,12.8-0.2c0.7,0,1.4,0.1,2.1,0.1c-5,0.3-10,0.7-15,1
		C145,85.7,145.1,85.4,145.8,85.1z"/>
	<path fill="#F7AEE6" d="M152.8,74.2c-0.7,0.6-1.4,1.2-2.1,1.8C151.4,75.4,152.1,74.8,152.8,74.2z"/>
	<path fill="#F7AEE6" d="M140.7,79.1c0,0.3,0,0.6,0,0.9c-0.4-0.1-0.9-0.2-2-0.4C139.9,79.3,140.3,79.2,140.7,79.1z"/>
	<path fill="#F58ADC" d="M311.4,41.8c5,1.8,9,3.2,13,4.6c-0.1,0.4-0.1,0.8-0.2,1.3c-4.5,0.4-9,0.8-14.5,1.3
		C310.2,46.5,310.7,44.5,311.4,41.8z"/>
	<path fill="#F26AD1" d="M396.9,48c-5.9-0.8-11.8-1.5-17.7-2.4c-3.1-0.4-6.2-0.9-9.2-1.8c-1.9-0.5-3.5-1.9-5.2-2.8
		C375.4,43.4,386.1,45.7,396.9,48z"/>
	<path fill="#F26AD1" d="M361.7,41c-4.7,0.7-9.4,1.6-14.1,1.8c-1.4,0.1-2.9-1.8-5.2-3.4c2.2-0.3,3.3-0.4,4.3-0.5
		C351.8,39.7,356.7,40.3,361.7,41z"/>
	<path fill="#FBD1EE" d="M128.8,42c3.3,0.6,6.6,1.3,9.9,1.9c0.7,3.8,1.4,7.6,2.1,11.7c-2.6,0.3-5.7,0.7-8.8,1.1
		c-1.8-1.5-3.7-3-5.8-4.8c1-0.6,2-1.1,3.4-1.8c-0.8-0.5-1.2-1-1.5-0.9c-2.5,0.7-4.9,1.9-7.4,2.2c-1.8,0.2-3.9-0.2-5.5-1
		c-0.7-0.4-1.4-2.9-1-3.3c1.2-1.3,3-2.4,4.7-2.9C122,43.2,125.4,42.7,128.8,42z"/>
	<path fill="#E278AD" d="M89.7,61c-0.7,0-1.4,0-2,0c-2.8-2.6-5.6-5.2-8.4-7.7c0.4-0.1,1.4-0.2,2.3-0.3c0.4-0.3,0.8-0.2,1.1,0.1
		C86.4,54.5,89.1,56.8,89.7,61z"/>
	<path fill="#F58ADC" d="M101.7,64.1c-1.1,3.1-3.4,3.5-6.4,2.5c-0.5-1.7-1.1-3.5-1.7-5.4c1,0.3,2.1,0.5,3.1,0.8l0,0
		C98.4,62.7,100,63.4,101.7,64.1z"/>
	<path fill="#F58ADC" d="M108.7,64.1c-1.7,0-3.3,0-5,0C105.3,64.1,107,64.1,108.7,64.1z"/>
	<path fill="#F58ADC" d="M82.7,53.1c-0.4,0-0.7-0.1-1.1-0.1C82,53,82.3,53,82.7,53.1z"/>
	<path fill="#F58ADC" d="M136,70.6c-1.5,0-3.1,0-4.6,0c0-0.3,0-0.7,0-1c1.5,0,3.1,0,4.6,0C136,69.9,136,70.2,136,70.6z"/>
	<path fill="#FBD1EE" d="M165.6,37.8c-0.1-0.1-0.2-0.2-0.3-0.3c0.1-0.1,0.2-0.2,0.3-0.2c0.1,0,0.2,0.2,0.3,0.2
		C165.9,37.6,165.8,37.7,165.6,37.8z"/>
	<path fill="#F26AD1" d="M177.7,45.8c-0.1-0.1-0.2-0.2-0.3-0.2c0.1-0.1,0.2-0.2,0.3-0.2c0.1,0,0.2,0.1,0.3,0.2
		C177.9,45.6,177.8,45.7,177.7,45.8z"/>
	<path fill="#EC11B9" d="M7.9,121.8c0.1-0.8,0.1-1.5,0.2-2.3c6.5-1.8,13.1-3.6,19.6-5.5c2-0.6,4-1.3,5.9-1.9c1.3-0.3,2.7-0.6,4-0.8
		c4.1-3.7,9.5-2.3,14.2-3.2c7.4-1.3,15.1-1.5,22.7-2.5c2.1-0.3,4.3-0.4,6.1,1.3c1,0.2,1.9,0.3,2.5,0.4c-6,5.3-13.8,4.4-21.2,5.7
		c-1.6,0.3-2.9,2-4.4,3c-1,0.6-1.4-0.1-1.7-0.9c-2.5-3.5-6-1.1-8.7-0.8c-8.7,0.9-17.3,2.4-25.9,4C16.7,119.1,12.3,120.6,7.9,121.8z"
		/>
	<path fill="#F7AEE6" d="M80.6,106.9c-14.3,1.4-28.6,2.9-42.9,4.3c-1.1-2.8,0.6-2.9,2.7-3.2c11.6-1.5,23.2-3.1,34.8-4.5
		c4.2-0.5,8.4-0.3,12.7-0.5c11-0.7,22-1.4,33.1-2.1c5.8-0.9,11.6-0.2,17.4-0.4c3.9,0.9,7.8,0.2,11.7,0.5c1.7,0.1,3.7-0.5,4.9,1.3
		c0.4,1.5-0.5,2.2-1.7,2.8c-1.1,0.4-2.3,0.4-3.5,0.4c-1.2,0-2.3,0-3.5,0c-2.3-0.2-4.7,0.6-6.6-1.3c-16.8,0.5-33.6,1-50.3,1.7
		C86.4,106.1,83.5,106.6,80.6,106.9z"/>
	<path fill="#F58ADC" d="M40.7,93.1c7.3-0.7,14.7-1.3,22-2c1.1,1,2,2.6,3.3,2.8c2.1,0.5,4.5,0.2,6.7,0.2c-0.4,0.3-0.9,0.7-1.3,1
		c-7,0.3-13.7,2.6-20.8,1.8c-12.8,1.7-25.6,3.4-39.3,5.2c5.8-4.5,12.2-4.6,18.1-6.2C33.2,95.1,36.9,94.1,40.7,93.1z"/>
	<path fill="#F7AEE6" d="M150.7,89.1c1.6-0.3,3.1-1,4.7-1c26.7-0.1,53.4-0.1,80.1,0c1.7,0,3.5,0.6,5.2,0.9
		C210.7,89,180.7,89.1,150.7,89.1z"/>
	<path fill="#F132CA" d="M50.6,97c6.9-0.6,13.8-1.2,20.8-1.8c-5.6,1-11.1,2-16.7,2.8C53.4,98.2,52,97.4,50.6,97z"/>
	<path fill="#F7AEE6" d="M149.6,89.8c0.4-0.2,0.7-0.4,1.1-0.7C150.4,89.3,150,89.5,149.6,89.8z"/>
	<path fill="#F011C0" d="M23.7,130.2c13-1.4,26.1-2.7,39.1-4.2c4.2-0.5,8.4-1.5,12.7-2c1.7-0.2,3.5,0.2,5.3,0.4
		c0.4,0.3,0.9,0.7,1.3,0.6c4.4-0.5,7.3,1,7.3,5.8c4.2,1.9,8.3,2.5,12.5,3.1c1.1,3.9-1.3,6-4.3,7.2c-3.8,1.6-7.1,0.3-9.1-4.2
		c-4.6,2.3-8.4,0.6-11.9-2.4c-1.1-0.1-2.2-0.4-3.8-0.1c1,1.6,2.1,3.1,2.5,4.9c0.2,0.4,0.4,0.7,0.6,1c0.6,0.7,1.5,0.6,2.3,0.6
		c5.9,0.8,7.3,2,7,6c-5.5,1.6-11.1,0.5-16.7,0.8c-4.9,0.3-9.8,0.6-14.4,2.8c-2,0.9-3.9,2-6.1,1.6c-5.7-0.6-11.5-1.3-17.2,0.6
		c-2.5,0.8-9.3-2.2-10.4-4.5c-1-2.2,0.6-7.6,3-9.6C18.9,134.1,18.9,133.4,23.7,130.2z"/>
	<path fill="#EC11B9" d="M101.7,134.1c-1.8,0.5-3.7,1.1-4.2,1.3c-4.1-1.3-7.1-2.2-10.4-3.2c0.2-1.5,0.3-3.3,0.5-4.8
		c-2.4-1.1-4.6-2-6.8-3c2.8-0.1,5.7,0,8.5-0.4c1.2-0.2,2.4-1.1,3.6-1.8c4.4-0.6,8.7-2.2,13.1-0.4c2.2,3.2,1.8,6.9,1.4,10.3
		C106.9,135.2,104.4,135.6,101.7,134.1z"/>
	<path fill="#F132CA" d="M55.8,115.1c0.6,0.3,1.2,0.6,1.7,0.9c0,2,0,4,0,7.2c-7.6,1.1-15.2,2.2-23.4,3.4c0-3.2,0-5.4,0-8.9
		c6-0.3,12.1-0.6,18.2-1C53.5,116.6,54.7,115.7,55.8,115.1z"/>
	<path fill="#F132CA" d="M89.8,121.2c-8.1,0.5-16.1,1.1-24.7,1.6c0-2.4,0-4.8,0-7.8c5.4,0,10.6,0,16.9,0c0.7,0.9,2.1,2.7,3.7,4.8
		c1.1-0.2,2.5-0.4,3.9-0.7C89.7,119.8,89.7,120.5,89.8,121.2L89.8,121.2z"/>
	<path fill="#EC11B9" d="M23.7,130.2c-0.9,1.3-1.8,2.6-3.1,4.5c1.9,0.9,3.6,1.6,5.7,2.6c-0.2,1.3-0.5,2.6-0.8,4.3
		c-1.3-0.4-2.3-0.6-3.4-0.9c-0.5,2.3-0.9,4.4-1.3,6.6c2.7,1.5,5.2,3,8,4.6c6-2.3,12.4-2.6,18.9-1c-3.6,2.8-7.8,2.5-12,1.9
		c-4.3,0.8-8.7,1.6-13,2.4c-1-1-2.9-1.9-2.9-2.9c-0.3-6.9-0.1-13.8-0.1-21.3C20.6,130.9,22.1,130.5,23.7,130.2z"/>
	<path fill="#F58ADC" d="M106.6,122.9c-4.6-0.2-9.3-0.5-13.9-0.7c-1-0.3-2-0.7-3-1l0-0.1c4-0.4,8.1-0.8,12.4-1.2
		c0.3-3.5,0.5-6.2,0.8-10c8.9-0.7,17.8-1.3,26.8-2c4.1-1.6,8.2-2.2,12.4-0.5c1,4.2-2.3,4-4.6,4.2c-7.4,0.4-14.8,1.6-22.2,1.2
		c-2.3-0.1-4.6-0.3-6.9,0.7c-2.5,4.4,1.8,5,3.9,6.9c0.4,0.4,0.6,0.9,0.5,1.5C111.1,124.1,108.9,123.7,106.6,122.9z"/>
	<path fill="#F132CA" d="M142.7,108c-4.3,0-8.6-0.1-12.9-0.1c2.1-4.4,6.8-1.8,9.9-3.7c2.3,0,4.6,0,7,0c1,0.5,2,0.5,3.1,0
		c0.9,0,1.9,0,2.8,0c1.7,2.6-0.1,3.6-2.1,4.1C147.8,109,145.2,109.1,142.7,108z"/>
	<path fill="#F58ADC" d="M99.3,111.7c-6.3,0.6-12.1,1.1-18.9,1.7C83.4,109.6,95.1,109,99.3,111.7z"/>
	<path fill="#F132CA" d="M62.6,185.1c5.3-0.7,10.7-1.4,16.5-2.2c-0.2,1.4-0.3,2.2-0.5,3.1c-4.3,0.4-8.5,0.9-12.8,1
		C64.8,187.1,63.7,185.8,62.6,185.1z"/>
	<path fill="#F26AD1" d="M35.7,152.8c4-0.6,8-1.3,12-1.9c1.7-0.5,3.4-1,5.1-1.5c6.6-1.6,13.3-1.9,20-2.2c4.5-0.2,9.2,0.1,13.6-1.3
		c1.8-1.4,3.8-1.4,5.9-1.2c1.1,0.1,2.3,0,3.4,0c0.9,0,1.7,0,2.6,0c8.5-1.9,17.1-0.2,25.6-1.5c1.6-0.4,3.3-0.6,4.9-1.2
		c0.8-0.2,1.7-0.2,2.6-0.2c4.6,0.8,9.2,0.4,13.8,0.7c5.4,0.8,11-1.1,16.3,1.2c0.2,3.4-2.4,2.6-4.3,2.8c-3.2,0.4-6.7-0.7-9.7,1.3
		c-5.4,0.5-10.8,0-16.2,1.5c-2,0.6-4.6,0.3-6.6-1.2c-7,0.6-14,1.2-21,1.8c-3.4-0.3-6.9-1.1-10.2-0.8C74.2,151,54.9,153,35.6,155
		C35.7,154.3,35.7,153.5,35.7,152.8z"/>
	<path fill="#F132CA" d="M24.8,178.1c0-0.7,0-1.4,0-2C24.8,176.8,24.8,177.4,24.8,178.1z"/>
	<path fill="#F314CB" d="M63.7,164.1c-0.1-0.1-0.2-0.1-0.4-0.2C63.4,163.9,63.5,164,63.7,164.1L63.7,164.1z"/>
	<path fill="#F314CB" d="M63.7,164.1c0.1,0.1,0.2,0.1,0.4,0.2C63.9,164.2,63.8,164.2,63.7,164.1C63.7,164.1,63.7,164.1,63.7,164.1z"
		/>
	<path fill="#F132CA" d="M326.7,148.1c4.6,0.6,9.2,1.3,13.8,1.9c1.4,0.7,2.8,1.4,4.2,2c-8.6-0.3-17.3-0.6-25.9-0.9
		c-0.7,0-1.4-0.6-2.1-1c0-2.3,1.8-1.3,2.8-1.5C321.9,148.3,324.4,149.2,326.7,148.1z"/>
	<path fill="#F132CA" d="M348.7,150.1c3,0.3,6,0.6,9,0.9C354.7,150.7,351.7,150.4,348.7,150.1z"/>
	<path fill="#F132CA" d="M344.7,149.9c0.4,0,0.7,0,1.1,0C345.4,150,345,150,344.7,149.9z"/>
	<path fill="#F132CA" d="M182.8,175.2c1.2-3.2,2.4-6.3,3.8-10.2c1.4,1.1,3.3,2,3.8,3.3c1.2,3,3.2,4,6.2,3.8c1,0.6,1.8,1.3,1.9,2.5
		c0.3,2.3,1.7,0.9,2.7,0.8c3-0.3,4.9,2.5,7.9,2.5c-0.9-2.6-4.2-4.8-1.4-7.9c0.7,0.4,1.6,0.7,2,1.3c2.8,4.1,5.7,3,8.7,0.2
		c-1.6-2.2-3.2-4.2-5.3-7c3.2-0.7,5.5-1.2,7.7-1.7c0.1,0.3,0.3,0.6,0.4,1c-1,1.1-2,2.1-3,3.2c0.2,0.4,0.3,0.7,0.5,1.1
		c2-0.6,3.9-1.2,6.4-1.9c3.4,2.5,7,5.3,10.7,8.1c0.3-0.3,0.6-0.5,0.9-0.8c-1.4-1.6-2.7-3.1-4.7-5.5c6.3,0.1,11.9,3.3,16.4-2
		c3.2,3.8,6.6,3.6,10.7,1.9c2.2-0.9,5.1-0.2,7.7-0.2c0.1,0.4,0.2,0.9,0.4,1.3c0.5-0.9,1-1.8,1.7-2.9c0.7,0.5,1.9,1,1.8,1.4
		c-0.1,1.6-0.6,3.1-1,4.8c0.6,0,1.7,0.1,3.5,0.2c-1.2,1.5-2.1,2.5-3.3,4.1c2.1,0.5,3.9,0.8,5.7,1.2c-2.5,3-6.7,2.2-14-2.1
		c-2,0.6-3.6,1.2-5.7,1.8c0.1,0.9,0.3,2.4,0.5,4.3c-3.6,2.2-10.3-2.4-11.2,5.1c-4.5-2.8-8.5-5.4-13-8.2c-0.9,2.9-1.3,4.3-1.9,6.3
		c-1.9-0.9-3.5-1.7-5.6-2.7c1.7-1.1,2.9-1.9,4.3-2.9c-4.5-1.6-8,0.3-14.1,7.3c-1.7-0.1-3.3-0.3-5-0.4c-1.6-0.1-3.2,0-5.3,0
		c-0.3,0.7-0.9,1.8-1.4,3c-0.4-0.3-0.9-0.6-1.3-0.9c0-2.2,0-4.4,0-7.4c-3,2.1-5.5,2.9-5.5,6.8c0,1.3-2.9,3.1-4.8,3.8
		c-1.5,0.6-3.6-0.1-4.6-0.2c-2.6-1.8-4.8-3.4-7.8-5.6c-1.4,2.7-2.3,4.6-3.5,7.2c-1.5-2.9-2.8-5.5-3.5-6.8c0-3.8,0-6.2,0-8.4
		c-2.2-0.8-3.7-1.4-5.4-2c7.7-3.9,7.9-3.7,13.5,2.9c0.9,1,3.2,0.9,4.8,1.2c3.2-1.4,4,2.8,6.6,2.7c0.8,0.7,1.3,1.6,1.5,2.6
		c0-0.1,0.1,0.2,0.1,0.2s0.1-0.3,0.1-0.3c-0.1-1.1-1-1.6-1.6-2.3C189.3,179.5,187.5,175.7,182.8,175.2z"/>
	<path fill="#F132CA" d="M158.7,178.1c2.1,2.8,0.5,8.5-2.6,9.3c-0.4,0.1,0,2.8-0.9,4.5c-1.2-3.1-2.5-6.3-3.7-9.4
		c-0.6,0.2-1.2,0.4-1.8,0.5c0.3,2.2,0.6,4.4,0.9,6.4c-1.6,1.3-3.1,2.6-4.9,4c-1.8-2.6-3.8-5.5-5.5-8c-2.2,3-4.5,6.2-6.9,9.4
		c-0.3-0.1-0.6-0.1-0.9-0.2c0-1.7,0-3.3,0-5c-3.4-0.7-7.2-1.5-10.9-2.3c0.1-0.4,0.1-0.7,0.2-1.1c1.1,0,2.2-0.2,3.2,0
		c5.3,0.9,7.2-0.1,8.8-5.1c1.7-5.1,3.5-6,9.1-5.2c1.4,0.2,3-0.5,4.4-0.7c-0.4-1.8-0.8-3.2-1.2-4.6c0.4-0.2,0.7-0.4,1.1-0.5
		c1.9,1.7,3.7,3.4,5.6,5c-0.9,3.1,0.1,4.4,3.3,3.4C156.9,178.3,157.6,177.5,158.7,178.1z"/>
	<path fill="#F58ADC" d="M147.7,147.1c1.5-0.7,2.9-1.6,4.4-1.9c3.2-0.5,6.4-0.7,9.6-1c1.6-2,3.9-1.5,6-1.5c11.5-0.2,23.1-0.3,34.6,0
		c2.8,0.1,5.6-0.2,8.3-1c5.5-1.2,10.9,0.5,16.4,0.5c12.2,0,24.3,0,36.5,0c2,0,4-0.1,6,0.4c2.7,0.8,5.9,0.4,7.8,3.3
		c-1.7,3.4-4,2.6-6.5,1.3c-3.4,0-6.7,0.1-10.1,0.1c-5.6,0.7-11.3,0.1-17,0.4c-26.4-1.1-52.8-0.5-79.2-0.4c-2.3,0.6-4.6,0.2-6.9,0.5
		c-0.9-0.6-1.8-0.7-2.7-0.2C152.5,147.3,150,148.2,147.7,147.1z"/>
	<path fill="#F011C0" d="M137.7,235.8c-3.3,0.2-6.7,0.3-10,0.5c-0.9-1.5-1.5-3.2-2.6-4.5c-2.3-2.7-1.6-4.8,1.1-6.5
		c3-1.9,6-3.5,9.6-1.3c0.8,0.5,2.3,0,4.8-0.2c-0.7,2.8-1.4,5.3-2,7.7C138.2,233,138,234.4,137.7,235.8z"/>
	<path fill="#EC11B9" d="M270.7,147.2c1.8-0.2,3.6-0.3,5.5-0.5c0-0.3,0.1-0.6,0.1-0.9c-2.2-0.6-4.4-1.1-6.6-1.7
		c-1.2-2.5,0.7-2.8,2.3-2.9c2.1-0.2,4.3,0.3,6,1.6c2.5,1.9,4.5,1.3,6.3-0.8c0.5-0.3,0.9-0.2,1.4,0.1c1,0,2,0,3,0
		c-0.4,1.3-0.8,2.6-1.4,4.4c0.6,0.2,1.4,0.4,2.2,0.7c5.9,1.3,12.2-0.7,18,1.6c0.5,0.5,0.5,1,0.1,1.6c0,0.3,0,0.6,0,0.8
		c-10.8-0.3-21.6-0.5-32.3-1.1C273.8,149.9,272.3,148.1,270.7,147.2z"/>
	<path fill="#EC11B9" d="M156.7,147c2.3,0,4.7,0,7,0c10.5-1,21-0.2,31.5-0.4c0.9,0,1.6,0.4,1.6,1.4c-14.6,0-29.2,0-43.8,0.1
		c-5.6,0.1-11.3,0.2-16.9,1.1c-3.7,0.6-7.3,2.4-10.9,3.6c-0.2-1.4-0.4-3.1-0.5-4.7c7.7-0.4,15.3-0.7,23-1.1c2.7,0,5.3,0,8-0.1
		C156,146.7,156.3,146.7,156.7,147z"/>
	<path fill="#F26AD1" d="M196.8,148c-1.9-0.3-3.8-0.9-5.7-1c-9.1-0.1-18.3-0.1-27.4-0.1c1.4-0.3,2.8-0.9,4.2-0.9
		c23.9-0.1,47.7-0.1,71.6,0c1.4,0,2.9,0.5,4.3,0.8c-1.6,1.9-3.7,2-5.9,1.4c-4.4-1.2-8.8-0.9-13.2-0.3C215.4,148,206.1,148,196.8,148
		z"/>
	<path fill="#F011C0" d="M207.7,170.1c1.3,3,2.6,5.9,4.1,9.4c-4.2,2.4-7.2-2.8-11.2-3.5c-0.2,0-0.4,0-0.5-0.1
		c-0.7-0.1-1.4-0.2-2.1-0.6c-0.1-0.1-0.3-0.3-0.4-0.4c-0.3-1-0.7-2-1-3C200.3,171.4,204,170.8,207.7,170.1z"/>
	<path fill="#F132CA" d="M224.7,148c4.4-0.3,8.8-0.7,13.1-1c2-0.1,4-0.1,6-0.2c5.6,0.1,11.3,0.3,16.9,0.4
		c-5.3,0.4-10.5,0.8-15.8,1.2c2,0.5,3.9,1.1,5.9,1.6l0,0c-5.2,1-10.1,1.6-15.3-1.5C232.7,147,228.3,148.1,224.7,148z"/>
	<path fill="#F011C0" d="M304.6,154.5c1.3,2.1,2.5,4,4.7,7.4c-3.4,0.2-5.8,0.3-8.4,0.5C300.8,158.3,299.4,154.8,304.6,154.5z"/>
	<path fill="#F26AD1" d="M191.7,183.1c-3.5,1.7-4.3-2.9-7-3c-0.1-0.3-0.1-0.6-0.1-0.9c-0.6-0.7-1.3-1.4-1.8-2.2c0-0.6,0-1.2,0-1.7
		C188.1,173.3,190,175.1,191.7,183.1L191.7,183.1z"/>
	<path fill="#F011C0" d="M158.7,178.1c-4.9,3.2-5.5,3.1-8.5-1.9c0.9-0.4,1.7-0.7,2.5-1.1c0.5,0.8,1,1.7,1.7,2.8
		c1.7-1.6,3.2-2.9,4.6-4.3c0.3,0.1,0.6,0.3,0.8,0.4C159.4,175.4,159,176.7,158.7,178.1z"/>
	<path fill="#F132CA" d="M257.1,159.3c3.9,2.1,3.7,4.2,1.5,5.9c-0.9,0.6-2.8-0.2-4.3-0.3C255.2,163,256.2,161.1,257.1,159.3z"/>
	<path fill="#F011C0" d="M293.8,208.9c-2.1,3.6-6.3,4.4-14.6,2C284.9,210.1,289.4,209.5,293.8,208.9z"/>
	<path fill="#F132CA" d="M207.7,222.1c-1.4-0.1-2.9-0.2-4.5-0.3c-0.4-1.7-0.8-3.3-1.2-4.8C206.6,215.6,207.2,216.2,207.7,222.1
		C207.7,222.1,207.7,222.1,207.7,222.1z"/>
	<path fill="#F26AD1" d="M128.9,177.8c-1.7-0.6-3.4-1.3-5.1-1.9c0.1-0.3,0.2-0.6,0.2-0.9c1.8,0.4,3.7,0.7,5.5,1.1
		C129.3,176.6,129.1,177.2,128.9,177.8z"/>
	<path fill="#F132CA" d="M250.7,150.1c1.4,0.1,2.9,0.2,4.3,0.3c0,0.4,0,0.8,0.1,1.2c-1.8,0.2-3.5,0.4-5.8,0.7
		C250,151.1,250.3,150.6,250.7,150.1L250.7,150.1z"/>
	<path fill="#F132CA" d="M257.6,155.4c1.1,0.4,2.3,0.7,3.4,1.1c-0.1,0.4-0.2,0.8-0.3,1.2c-1.2-0.3-2.4-0.6-3.6-0.9
		C257.3,156.3,257.4,155.9,257.6,155.4z"/>
	<path fill="#F011C0" d="M133.1,220.5c-0.9,0-1.8,0-2.8,0c0-0.3,0-0.6,0-0.9c0.9,0,1.8,0,2.8,0C133.1,220,133.1,220.2,133.1,220.5z"
		/>
	<path fill="#F011C0" d="M200.4,166.6c-0.6-1-1.3-2-1.9-3c0.2-0.2,0.5-0.3,0.7-0.5c0.7,0.9,1.4,1.9,2.1,2.8
		C201,166.1,200.7,166.4,200.4,166.6z"/>
	<path fill="#F132CA" d="M167.2,180.6c0,0.6,0,1.3,0,1.9c-0.2,0-0.4,0.1-0.7,0.1c-0.2-0.7-0.3-1.3-0.5-2
		C166.4,180.7,166.8,180.6,167.2,180.6z"/>
	<path fill="#F132CA" d="M198.2,168.8c-0.1,0.3-0.2,0.6-0.4,0.7c-0.2,0.1-0.5-0.2-0.7-0.3c0.1-0.2,0.2-0.6,0.4-0.7
		C197.7,168.5,198,168.7,198.2,168.8z"/>
	<path fill="#F132CA" d="M182.8,177c0.6,0.7,1.2,1.4,1.8,2.2C184,178.4,183.4,177.7,182.8,177z"/>
	<path fill="#F26AD1" d="M122,178.7c-0.2-0.1-0.4-0.3-0.6-0.4c0,0,0.1-0.3,0.2-0.4c0.2,0,0.5,0,0.7,0
		C122.2,178.2,122.1,178.5,122,178.7z"/>
	<path fill="#F132CA" d="M207.7,222.1c0.4,0.1,0.8,0.2,1.2,0.3c-0.1,0.1-0.2,0.3-0.2,0.4C208.4,222.6,208,222.4,207.7,222.1
		L207.7,222.1z"/>
	<path fill="#EC11B9" d="M270.4,254.1c0.1,0.3,0.2,0.6,0.4,1c-0.2-0.2-0.4-0.4-0.6-0.6C270.2,254.5,270.3,254.3,270.4,254.1z"/>
	<path fill="#F011C0" d="M235,264.1c0-6.4,0-12.2,0-19.2c5,0.5,9.7,0.4,14.2,1.6c4.5,1.2,5.3,5.7,5.1,9.8c-0.2,4.1-2.5,7.4-7,7.8
		C243.4,264.4,239.5,264.1,235,264.1z"/>
	<path fill="#EC11B9" d="M162.4,270.2c2.4-6.5,4.6-12.1,7.2-19c2.6,6.9,4.8,12.6,7.3,19C171.8,270.2,167.4,270.2,162.4,270.2z"/>
	<path fill="#F26AD1" d="M307.6,149.3c-4.2-0.1-8.5,0-12.7-0.4c-1.8-0.2-3.5-1.2-5.3-1.8c5-0.3,10-0.9,15-0.8
		c7.4,0.3,14.8,1.1,22.2,1.7c-3.3,0.7-6.7,1.3-10,2c-1,0-2-0.1-2.9-0.1C311.8,149,309.6,150.1,307.6,149.3z"/>
	<path fill="#F132CA" d="M307.6,149.3c2.1,0.2,4.1,0.5,6.2,0.7c-2,0.1-4,0.2-6.1,0.2C307.7,149.9,307.6,149.6,307.6,149.3z"/>
	<path fill="#A4218E" d="M251.4,348.3c0,5.2-2.8,8.9-6.8,8.9c-4-0.1-6.3-3.5-6.2-9.1c0.1-5.3,2.5-8.6,6.3-8.7
		C248.5,339.2,251.5,343.2,251.4,348.3z"/>
	<path fill="#A4218E" d="M280.9,339.8c6.8-0.2,9.4,1.9,9.7,7.7c0.3,6.4-2.3,8.9-9.7,9.2C280.9,351,280.9,345.4,280.9,339.8z"/>
	<path fill="#A4218E" d="M153.9,338.6c2.6,0.9,4.8,1.4,6.5,2.5c0.6,0.4,0.7,3.1,0.2,3.5c-1.8,1.3-4,1.9-6.7,3.2
		C153.9,344.3,153.9,342.2,153.9,338.6z"/>
	<path fill="#F26AD1" d="M356.6,67c-1.6,0.3-3.2,0.7-4.8,1c-1.7-5.3-4.3-9.6-10.8-9.4c1.6-4.1,10.4-5,15.6-1.7
		c-0.8,1.1-1.6,2.3-2.7,3.8c2.7,1.2,5.3,2.3,7.9,3.4C360.1,65.1,358.3,66,356.6,67z"/>
	<path fill="#F26AD1" d="M340.7,64.1c-1.3,2.4-2.6,4.7-3.9,7.1c-4.9-4.3,0.1-6.6,1.7-10.1C339.4,62.3,340.1,63.2,340.7,64.1z"/>
	<path fill="#FBD1EE" d="M154.7,102.9c-3.4-0.3-6.9-0.5-10.3-0.8c-1.9-0.2-3.8-0.6-5.7-0.9c4.6-1.4,9.3,0.3,13.9-1
		c6.3,0,12.7-0.1,19-0.1c1.4-0.7,2.7-0.6,4.1,0c5.9,0,11.9-0.1,17.8-0.1c10.7,0,21.4,0.1,32.1,0.2c0.2,1.1-0.5,1.6-1.3,2
		c-9.9,1-19.8,2.5-29.7,0.5c-3.6-0.7-7.2,1.4-10.8,0c-1.3-0.1-2.6,0.1-3.9,0.4c-0.8,0.1-1.5,0.1-2.3,0c-2.2-0.8-4.4-0.4-6.5,0.3
		c-2.6,0.3-5.2,0.2-7.7,0.2c-2,0.1-4-0.2-6,0.3c-0.5,0.1-1,0.1-1.5-0.1C155.3,103.6,155,103.3,154.7,102.9z"/>
	<path fill="#FBD1EE" d="M280.7,101.2c2,0.3,4.1,0.4,6.1,0.9c1.4,0.3,2.6,1.1,3.9,1.7c-2.1,2.5-4.8,1.7-7.4,1.5
		c-1.1-0.2-2.3-0.5-3.4-0.8c-3.8-0.3-7.7,0.3-11.5-0.4c-8.3-1.4-16.8-0.3-25.1-0.7c-1.6-0.1-3.4,0.2-4.8-0.8c-1.1-0.8-1.9-2,0.3-2.6
		c0.3,0,0.6,0.1,1,0.1c0.7,0.5,1.4,0.5,2.1,0C254.7,100.5,267.7,100.9,280.7,101.2z"/>
	<path fill="#F7AEE6" d="M238.7,100.1c-0.9,3.4,1.9,1.9,2.9,1.9c7.3,0.2,14.6,0,21.9,0.1c1.8,0,3.5,0.6,5.3,0.8
		c-1.6,2-3.9,1.5-5.9,1.6c-8.7,0.2-17.4-0.3-26.2,0.3c-0.6,0.1-1.2,0.1-1.8,0c-1.9-0.9-4-1.3-6.1-1.4c-1.7,0-3.8,0.3-4.1-2.3
		c0.3-0.4,0.7-0.7,1-1.1C230,100.1,234.3,100.1,238.7,100.1z"/>
	<path fill="#CEA5C3" d="M152.7,100.1c-4.6,0.3-9.3,0.6-13.9,1c-6,0-11.9-0.1-17.9-0.1c2.9-0.3,5.7-0.8,8.6-0.8
		C137.2,100,144.9,100.1,152.7,100.1z"/>
	<path fill="#F7AEE6" d="M175.7,100c-1.4,0-2.7,0-4.1,0C173,100,174.4,100,175.7,100z"/>
	<path fill="#F7AEE6" d="M241.7,100.2c-0.7,0-1.4,0-2.1,0C240.3,100.2,241,100.2,241.7,100.2z"/>
	<path fill="#EC11B9" d="M261.6,121.1c1.3,0.9,2.5,1.9,3.8,2.8c-0.1,0.5-0.2,0.9-0.3,1.4c3.6-0.5,7.2-1.1,10.8-1.5
		c1.6-0.1,3.2,0.2,4.8,0.4c-0.9,0.8-1.8,1.7-2.9,2.7c0.5,0.3,1.2,0.7,2,1.1c0.4,1.7-0.6,2.2-2,2.6c-4.6-2.1-7.2,1-9.6,4.1
		c-4-0.9-5.2-4.3-7.3-6.7c-0.6-1.7-1.2-3.4-1.5-5.2C259.2,121.2,259.7,120.1,261.6,121.1z"/>
	<path fill="#F011C0" d="M277.7,130.1c0.7-0.7,1.3-1.3,2-2c1,0,2,0,3,0l0,0c0.6,1.3,1.1,2.6,1.9,4.3c-1.2,0-2.3,0-3.8,0
		c1.6,3.2,3.3,6.4,5,9.7c-0.3,0-0.7,0-1,0c-3.9,1.1-6.5-1.4-8-4.1C275.4,135.7,274.4,132.3,277.7,130.1z"/>
	<path fill="#F011C0" d="M287.1,138c-0.3-2.2-0.6-3.8-0.9-5.7c1.1-1,2.3-2,3.6-3.2c4.9,1.1,4.9,4.6,4.3,9.3c-1.9-1-3.2-1.8-4.8-2.6
		C289,136.3,288.2,137,287.1,138z"/>
	<path fill="#F011C0" d="M282.7,128.1c0.1-0.1,0.1-0.2,0.2-0.4C282.8,127.8,282.8,128,282.7,128.1L282.7,128.1z"/>
	<path fill="#F58ADC" d="M145.8,85.1c-0.1,0.3-0.1,0.6-0.1,1c-1,0-1.9,0-2.9,0.1c-1.4,0-2.7-0.1-4.1-0.1
		C141,85.8,143.4,85.5,145.8,85.1z"/>
	<path fill="#F26AD1" d="M234.8,103.9c0.3,0,0.6,0,0.9,0c0.4,0.5,0.3,0.9-0.1,1.4c-0.3,2.3-1.9,2.8-3.9,2.8c-3.5,0-7,0-10.5,0.1
		c13.2-0.6,26.4,0,39.6,1.4c-3.7,0.1-7.3-0.5-11-0.9c-3.3-0.3-6.6-0.7-9.9-0.7c-1.9,0-4.7,0.2-3.7-3.3c5.3-1.9,10.8-1.3,16.2-1
		c9.3,0.6,18.5-0.2,27.7-0.1c0.9,0,1.8-0.1,2.7,0.3c2.6,0,5.3,0,7.9,0c2.3,0.4,4.5,0.9,6.8,1c7.9,0.4,15.8,0.7,23.7,1.1
		c0.9,0,1.8,0.7,2.6,1c-5.3,0.3-10.6,0.6-15.4,0.9c0.2,0.3,0.8,1.2,1.4,2.1c-8.7-0.4-17.4-0.8-26.2-1.2c-0.1,0.4-0.2,0.9-0.3,1.3
		c1,0.4,2,0.9,2.6,1.1c-1.2,2.3-2.4,4.8-3.8,7.7c-3.6,0-8.1,0-13,0c-0.1-0.2-0.5-1-0.9-1.9c0,0.5,0,0.9,0,1.4
		c-4.3,0.2-8.6,0.6-12.8,0.6c-6.8-0.1-13.6-0.5-20.4-0.9c-5.1-0.3-10.2-0.6-15.4-0.9c-4.2,1.5-8.5,2.4-13.1,2.4
		c-13.8,0-27.5-0.1-41.3,0c-11.8,0.4-23.6,1.3-35.4-0.1c-0.7,0.5,0.1,1.5-0.1,0.8c0-0.2,0-0.3,0.1-0.3c3.7-0.4,7.3-1.6,11,0.1
		c0.1,0.7-0.1,1.2-0.7,1.6c-5.7,2-11.5,0.5-17.2,0.7c-3.3,0.1-7,1.2-10.1-1.3c-7.1-0.6-7.9-1.6-6.8-9.6c1.1-0.2,2.4-0.4,3.7-0.5
		c9.6-0.4,19.1-0.6,28.7-1.1c1.4-0.1,2.8-1.3,4.2-1.9c2.2-0.3,4.4-0.4,6.4-1.1c1.3-0.4,2.3-1.7,3.4-2.7c0.7-0.5,1.4-1,2.2-1.4
		c0.3,0,0.7,0.1,1,0.1c11.5,0.4,23.1-0.2,34.6-0.4c5.5-0.1,10.9,0.6,16.4,0.5c7.6-0.1,15.2-1,22.8-0.1
		C231.3,103.3,233.2,102.8,234.8,103.9z"/>
	<path fill="#F314CB" d="M277.7,130.1c-0.2,2.4-0.4,4.8-0.6,7.6c2.6,1.5,5.1,2.9,7.6,4.4c-0.1,1.1-0.3,2.2-0.5,4.8
		c-2.7-1.2-4.7-2.5-6.9-2.9c-2.4-0.5-5.1-3.8-7.5,0.1c-19.6-0.3-39.3-0.6-58.9-0.9c-6,1.1-12.1-0.3-18.2,0.2
		c-2.9,0.3-4.8-2.5-3.4-4.9c2.9-5,1.7-9.7-0.6-14.3c-0.2-0.4-0.3-0.9-0.3-1.4c4.9-2.6,10-2.3,15.3-1.7c0,0,0.1-0.1,0.1-0.2
		c0-0.2-0.1-0.3-0.1-0.5c0.8-1.5,2.2-1.2,3.5-1.3c1.9,0.2,3.9-0.5,5.6,1c1.7,0.4,3.3,0.7,5,1.1c1,1.8,2.7,2.8,4.4,3.7
		c3.7-4.9,19.4-5.6,25.1-1.2c1.9-0.2,2.6-2.6,5-2.7c5.3-0.3,6.6,0.4,9.7,7.1c1.9,1.7,3.8,3.4,5.7,5c1.6-1.5,3.3-3.6,5.6-4.8
		C274,127.8,276.1,129.4,277.7,130.1z"/>
	<path fill="#F132CA" d="M261.8,128.1c-1.6-1.8-3.3-3.6-5.2-5.8c-1.7,0-3.8,0-6.3,0c-0.3,1.2-0.5,2.4-1,4.8c-2.4-1.7-4.3-3-7.1-4.9
		c-4.6,0-10.5,0-16.6,0c-1.1,2-2.1,3.9-3.5,6.6c-1.7-2.9-3-5.3-4.4-7.6c1.1,0.2,2.3,0.9,3.3,0.6c13-3.7,26.3-0.9,39.4-1.4
		c0.4,0,0.8,0.5,1.3,0.7c-0.3,0.7-1,1.3-0.9,2C260.9,124.7,261.4,126.4,261.8,128.1z"/>
	<path fill="#F7AEE6" d="M212.7,120.1c-2-0.1-3.9-0.1-5.9-0.2c-6.2,0.9-12.5,0.2-18.7,1.1c-1.9,0.3-3.6,0.4-5.4-0.2
		c-3.2-0.7-6.2,2-9.4,0.7c-0.4-0.1-0.8-0.3-1.1-0.6c-0.2-0.3-0.1-0.7-0.3-1c-0.1,0.3-0.3,0.5-0.6,0.7c-0.7,0.4-1.5,0.4-2.3,0.3
		c-1-0.2-2-0.1-3-0.1c-0.7-0.1-1.3-0.3-1.7-0.9c-0.2-0.7-0.2-1.3,0.5-1.8c14.2,0,28.4,0,42.5-0.2c4.1,0,8.2-0.6,12.3-0.9
		c-1,0.6-1.8,1.4-2.9,1.8C215.5,119.5,214,119.7,212.7,120.1z"/>
	<path fill="#F26AD1" d="M304.7,112c-7.1-0.2-3.6,4.9-4,8c-3.2,0-6.3,0-10.5,0c2.4-3.7,3.9-6.1,6-9.2
		C298.7,111.2,301.7,111.6,304.7,112z"/>
	<path fill="#F26AD1" d="M328.7,106.2c4,0.6,8,1.2,12,1.8c-5-0.2-10.1-0.4-15.1-0.6C326.6,107,327.7,106.6,328.7,106.2z"/>
	<path fill="#F26AD1" d="M364.5,110.2c2.1,0.6,4.1,1.1,6.2,1.7C368.7,111.4,366.6,110.8,364.5,110.2z"/>
	<path fill="#F7AEE6" d="M352.7,96.1c0.3-0.5,0.6-1.1,1-1.6c0.2,0.2,0.4,0.4,0.6,0.6C353.7,95.4,353.2,95.8,352.7,96.1L352.7,96.1z"
		/>
	<path fill="#F7AEE6" d="M350.7,93.1c-0.3,0.5-0.6,1-1,1.5c-0.2-0.2-0.4-0.4-0.6-0.6C349.7,93.7,350.2,93.4,350.7,93.1L350.7,93.1z"
		/>
	<path fill="#F58ADC" d="M343.7,95c-2,0-4-0.1-6-0.1C339.7,94.9,341.7,95,343.7,95z"/>
	<path fill="#F58ADC" d="M79.7,74c1,0,2,0,3,0C81.7,74,80.7,74,79.7,74z"/>
	<path fill="#F58ADC" d="M75.6,74.1c0.3,0,0.7,0,1,0C76.3,74.1,76,74.1,75.6,74.1z"/>
	<path fill="#F58ADC" d="M68.7,74.1c0.3,0,0.7,0,1,0C69.4,74.1,69,74.1,68.7,74.1z"/>
	<path fill="#FBD1EE" d="M57.6,66.2c0.2,1.1,0.4,2.2,0.7,3.5c-2.6,0-4.8,0-7.5,0c0.1-5.1,3.7-3.2,5.9-3.7
		C57,65.7,57.3,65.8,57.6,66.2z"/>
	<path fill="#F58ADC" d="M57.6,66.2c-0.3-0.1-0.6-0.1-0.9-0.2c-0.7-0.7-1.3-1.3-2-2c1.3,0.7,2.6,1.4,3.9,2
		C58.3,66.1,57.9,66.1,57.6,66.2z"/>
	<path fill="#F26AD1" d="M96.7,62c-0.1,0.1-0.2,0.3-0.2,0.4C96.6,62.3,96.6,62.1,96.7,62L96.7,62z"/>
	<path fill="#F26AD1" d="M149.7,104.2c-1,0-2,0-3.1,0C147.7,104.2,148.7,104.2,149.7,104.2z"/>
	<path fill="#F314CB" d="M92.7,146.1c-1.9,0-3.9,0-5.8,0c-0.4,0.3-0.8,0.3-1.2-0.1c-2.3-3-5.2-4.4-9-4c-0.8,0-1.5-0.4-2-1
		c0-0.3,0-0.6,0-1c0.7-2.3,0-5,1.9-7c1.8,1,3.6,2,6.2,3.4c1.7-0.4,4.6-1,7.9-1.7c0.4,2.1,0.6,3.5,0.9,5c2,0,3.9,0,6.4,0
		c1.1-1.7,2.4-3.7,3.7-5.8c1.4-0.2,2.8-0.4,4-0.6c0.3-3.7,0.6-7.1,0.9-10.6c2-0.3,4-0.6,5.9-0.9c5.9-1,11.9-0.2,17.8-0.4
		c2.5,0.4,2.1,1.7,0.8,3c-0.9,1-2.5,0.7-3.7,1.5c-0.8,2.3-0.2,4.8-0.1,7.2c0.1,2.4-0.2,4.7-2.5,5.9c2.3,0.4,3.5-4.8,6.6-1.5
		c1,2,0.7,3.9-0.8,5.6c-0.5,0-1.1-0.1-1.6-0.1c-2.9,0.6-5.8,0.5-8.7,1.3c-6.5,0.4-13-0.5-19.5,0.5c-1.1,0.2-2.3,0.2-3.2,1.1
		c-0.7,0-1.3,0-2,0C94.7,145,93.7,144.9,92.7,146.1z"/>
	<path fill="#EC11B9" d="M85.7,146.1c0.4,0,0.8,0.1,1.2,0.1c-3.7,0.6-7.3,1.5-11,1.8c-7.7,0.6-15.4,0.9-23.1,1.3
		c4.9-1.1,9.7-2.6,14.6-3.1C73.4,145.7,79.6,146.1,85.7,146.1z"/>
	<path fill="#EC11B9" d="M76.5,133.1c-0.4,2.4,1.7,5.5-1.9,7c-3.1-0.2,0.5-6.5-4.8-4.1C70.9,130.4,74,132.7,76.5,133.1z"/>
	<path fill="#EC11B9" d="M74.7,141.1c0.7,0.3,1.3,0.7,2,1C76,141.7,75.3,141.4,74.7,141.1z"/>
	<path fill="#EC11B9" d="M131.7,122.1c-6.4,0-12.8-0.1-19.1-0.1c0.1-0.3,0.2-0.6,0.4-0.9c9.2,0,18.5-0.1,27.7-0.1
		c2.3-1.6,4.6-1.2,7.4,0c-1.8,1.9-3.5,3.7-1,5.5c-2,3-4.9,3.2-7.2,4.2c-1,0.3-1.9,0.7-2.7,1.4c-0.4,0.2-0.8,0.4-1.2,0.4
		c-0.4-0.1-0.9-0.2-1.2-0.5c-1.7-1.2-3.5-2.3-2.7-4.9C132.9,125.4,132.9,123.7,131.7,122.1z"/>
	<path fill="#F132CA" d="M188.7,123c3.6,2.6,4.4,6.1,3.5,10.2c-0.2,1,0.5,2.1,0.8,3.4c-0.9,0.7-2.1,1.6-4.3,3.3
		c2.2,1.3,3.8,2.8,5.4,2.9c5.6,0.4,11.2,0.3,16.7,0.3c-1.9,0.3-3.9,0.7-5.8,0.8c-14.4,0.1-28.9,0.1-43.3,0.2
		c-5.7-0.1-11.4-0.1-17-0.2c0.8-2.9,3.2-2.3,5.3-2.3c7.8-0.2,15.5,0.3,23.3-0.3c1.8-0.8,4-0.4,5.8-2.1c0.9-4.5-0.4-9.2-0.5-14
		C181.3,121.9,184.5,120.4,188.7,123z"/>
	<path fill="#F011C0" d="M174.7,142.1c-2.4,0.3-4.7,0.8-7.1,0.9c-7.6,0.4-15.3,0.6-22.9,0.9c-4.7-0.2-9.3-0.4-14-0.6
		c0-2.1,0-4.2,0-6.2c0-0.2,0.1-0.5,0.1-0.7c1-2.1,0.8-5.6,4.9-4.3l0,0c0.8,0.8,0.3,1.8,0.6,2.6c0-0.9-0.4-1.8,0.4-2.6
		c0.7-0.7,1.3-1.3,2-2c1.3,1.4,1.6,2.9,0.1,4.4c2.2-0.4,4.3-2.1,6.6-0.8c2.2,5.7,3.3,6.1,9.8,5.5c4.6-0.5,9.3-0.4,13.9-0.5
		C171.5,138.7,174.3,138.6,174.7,142.1z"/>
	<path fill="#F132CA" d="M97.7,146.1c1.4-0.7,2.9-1.9,4.3-1.9c6.2-0.2,12.5-0.1,18.7-0.1c1.4-0.6,2.8-0.8,4.1,0.2
		c-2.6,0.3-5.2,0.7-7.8,0.9C110.6,145.5,104.1,145.8,97.7,146.1z"/>
	<path fill="#F011C0" d="M124.8,144.2c-1.4-0.1-2.7-0.1-4.1-0.2c2.8-0.3,5.6-0.5,8.4-0.8C127.6,143.5,126.2,143.9,124.8,144.2z"/>
	<path fill="#F011C0" d="M92.7,146.1c0.6-0.6,1.2-1.2,1.7-1.8c0.4,0.6,0.9,1.2,1.3,1.8C94.7,146.1,93.7,146.1,92.7,146.1z"/>
	<path fill="#F26AD1" d="M193.7,187.1c-0.6-0.1-1.3-0.1-2-0.2c0-1.3,0-2.6,0-3.8l0,0C195.2,183,194.7,184.9,193.7,187.1
		C193.7,187.1,193.7,187.1,193.7,187.1z"/>
	<path fill="#F011C0" d="M200.7,176.1c-0.9,0.6-1.9,1.2-2.8,1.8c-0.1-0.9-0.1-1.9-0.2-2.8l0,0C198.6,175.7,200,174.9,200.7,176.1
		L200.7,176.1z"/>
	<path fill="#F314CB" d="M250.6,179.9c-0.6,0-1.1,0-1.7,0c0-0.2,0-0.3-0.1-0.5c0.6-0.1,1.2-0.2,1.8-0.3
		C250.6,179.4,250.6,179.7,250.6,179.9z"/>
	<path fill="#F26AD1" d="M193.7,187.1C193.9,187.4,194.2,187.7,193.7,187.1C193.9,187.9,193.8,187.5,193.7,187.1L193.7,187.1z"/>
	<path fill="#F26AD1" d="M156.7,147c-0.3,0-0.7,0-1,0C156,147,156.3,147,156.7,147z"/>
	<path fill="#F132CA" d="M200.7,176.1c-1-0.3-2-0.7-3-1C198.7,175.4,199.7,175.8,200.7,176.1z"/>
	<path fill="#F58ADC" d="M234.8,103.9c-25.2,0.1-50.3,0.1-75.5,0.1c-1.2,0-2.4-0.7-3.7-1c0.3-0.1,0.6-0.1,0.9-0.1
		c1.9-0.8,4.1,0.4,6-0.7c3,0,6-0.1,9-0.1c2-0.6,4-0.6,6.1,0c0.7,0,1.3,0,2,0.1c0.9-0.8,2.2-0.1,3.1-0.8c14,0,28,0,41.9,0
		c2,0.3,4.1,0.5,6.1,0.9C232.2,102.5,233.5,103.3,234.8,103.9z"/>
	<path fill="#F7AEE6" d="M177.7,102c-2,0-4,0-6.1,0C173.7,102,175.7,102,177.7,102z"/>
	<path fill="#F7AEE6" d="M162.7,102.1c-2,0.2-4,0.5-6,0.7C158.7,102.6,160.7,102.3,162.7,102.1z"/>
	<path fill="#F7AEE6" d="M182.7,101.2c-1,0.3-2,0.6-3.1,0.8C180.7,101.8,181.7,101.5,182.7,101.2z"/>
	<path fill="#E278AD" d="M280.8,104c-9.9,0-19.8-0.1-29.7,0.1c-5.1,0.1-10.2,0.6-15.4,1l0,0c0-0.4,0-0.8,0-1.2
		c3.9-0.3,7.8-0.7,11.7-0.8c7.1-0.2,14.2-0.1,21.3-0.2c3.9,0.1,7.8,0.2,11.7,0.3c0.4,0.1,0.6,0.2,0.5,0.4
		C281,103.9,280.9,104,280.8,104z"/>
	<path fill="#F7AEE6" d="M280.8,104c-0.1-0.3-0.2-0.5-0.2-0.8c0.7,0.2,1.5,0.5,2.2,0.7C282.1,103.9,281.4,104,280.8,104z"/>
	<path fill="#F314CB" d="M174.7,142.1c-1.8-0.7-3.6-1.9-5.4-1.9c-5.5,0.1-11,0.9-16.6,0.9c-2.9,0-5.8-1.2-9.1-2
		c0.6-2,0.9-3.2,1.5-5.2c-2.4,0.8-4.3,1.4-6.5,2.1c0-2.2,0-4.1,0-6c2.4-1.1,4.9-2.3,8-3.7c-2-1.3-3.6-2.4-5.7-3.8
		c2.2-0.3,3.8-0.6,5.4-0.8c0-0.2,0-0.5,0-0.7c-1.9,0-3.8,0-5.7,0c0-0.3,0.1-0.5,0.1-0.8c8-0.9,15.9-1.7,23.9-0.4c0.6,0,1.3,0,1.9,0
		c0.7-0.3,1.3-0.3,2,0c1,0,2,0,3,0c0.4-0.2,0.7-0.1,1,0.3c0.1,0.3,0.2,0.5,0.3,0.7c2.4,1.2,4.9,2.3,5.7,5.2c0.6,1,1.7,1.9,1.8,2.9
		c0.2,3.6,0.1,7.1,0.1,11.9C179.2,141.1,176.9,141.6,174.7,142.1z"/>
	<path fill="#F7AEE6" d="M208.9,109.2c-17.6-1.1-35.3,1.4-53-0.1c0-0.6,0-1.2,0-1.8c17.7,0,35.3,0,53,0
		C208.9,108,208.9,108.6,208.9,109.2z"/>
	<path fill="#F58ADC" d="M235.7,105.1c1.8,0.7,3.5,1.8,5.4,1.9c7.8,0.6,15.5,0.9,23.4,1.3c-1.8,1.2-3.6,2.4-5.3,3.5
		c-14.7-4.4-30-1.9-44.9-3c0-0.6,0-1.1,0-1.7c5.2,0,10.3,0.2,15.5-0.1C231.9,106.9,233.8,105.7,235.7,105.1L235.7,105.1z"/>
	<path fill="#F58ADC" d="M164.7,119.9c-8,0.1-16,0.2-23.9,0.4c-3.9,0-7.9,0-11.8,0c0-0.4,0-0.7,0-1.1c11.9-0.3,23.9-0.6,35.8-1
		C164.8,118.8,164.8,119.3,164.7,119.9z"/>
	<path fill="#F58ADC" d="M178.7,126.1c-1.9-1.7-3.8-3.5-5.7-5.2c3-0.5,6-1.1,9-1.6c4.7,2.8,9.7,0.2,14.5,0.5c2.5,0.1,4.9-0.5,7,1.4
		c-4.9,0.6-9.8,1.2-14.7,1.9C185.3,124,182,125,178.7,126.1z"/>
	<path fill="#E278AD" d="M203.4,121.2c-5.7,0-11.3,0-17-0.2c-1.5-0.1-3-1.1-4.4-1.7c5.9,0,11.7-0.2,17.6-0.1c2.4,0,4.8,0.5,7.3,0.7
		C205.6,120.3,204.5,120.7,203.4,121.2z"/>
	<path fill="#F58ADC" d="M168.7,119.9c-0.7,0-1.3,0-2,0C167.3,119.9,168,119.9,168.7,119.9z"/>
	<path fill="#F58ADC" d="M172.6,120.1c-0.3,0-0.7-0.1-1-0.3C172,120,172.3,120.1,172.6,120.1z"/>
	<path fill="#F011C0" d="M131.7,122.1c1.9,1.3,4.4,2.5,1,5c-1,0.7-2.3,0.1-3.5,1.3c1.7,2.6,4.5,5.3,1.5,8.7l0,0
		c-2.4,1.3-4.7,2.5-7.1,3.8c2.6-3.9,2.6-3.9,1.9-15.6C127.6,124.1,129.7,123.1,131.7,122.1z"/>
	<path fill="#F314CB" d="M130.7,137.1c0.6-5.2,0.3-5.8-4.1-7.5c1-3.6,2.6-5.2,6.1-2.5c1,1.7,2,3.3,3,5
		C134,133.7,132.3,135.4,130.7,137.1z"/>
	<path fill="#F314CB" d="M136.7,132.1c-0.1,0.6-0.1,1.3-0.2,1.9c-0.2,0-0.3,0-0.5,0.1c-0.1-0.7-0.2-1.3-0.3-2
		C136,132.1,136.3,132.1,136.7,132.1z"/>
	<path fill="#F314CB" d="M139.6,139c-0.9-0.2-1.7-0.5-2.6-0.7c0.1-0.3,0.2-0.6,0.3-0.8c0.8,0.3,1.7,0.5,2.5,0.8
		C139.8,138.6,139.7,138.8,139.6,139z"/>
</g>
</svg>
